<?xml version="1.0" encoding="UTF-8" standalone="no"?>
<!-- Created with Inkscape (http://www.inkscape.org/) -->

<svg
   width="15.177231mm"
   height="13.995079mm"
   viewBox="0 0 15.177231 13.995079"
   version="1.1"
   id="svg35141"
   xmlns:inkscape="http://www.inkscape.org/namespaces/inkscape"
   xmlns:sodipodi="http://sodipodi.sourceforge.net/DTD/sodipodi-0.dtd"
   xmlns="http://www.w3.org/2000/svg"
   xmlns:svg="http://www.w3.org/2000/svg">
  <sodipodi:namedview
     id="namedview35143"
     pagecolor="#505050"
     bordercolor="#eeeeee"
     borderopacity="1"
     inkscape:showpageshadow="0"
     inkscape:pageopacity="0"
     inkscape:pagecheckerboard="0"
     inkscape:deskcolor="#505050"
     inkscape:document-units="mm"
     showgrid="false" />
  <defs
     id="defs35138" />
  <g
     inkscape:label="Calque 1"
     inkscape:groupmode="layer"
     id="layer1"
     transform="translate(-74.342417,-109.75419)">
    <g
       id="g211"
       transform="matrix(0.15939949,0,0,0.15939949,68.263588,91.793541)">
      <path
         style="fill:#cbd4ad;stroke-width:0.16461"
         d="m 69.765394,168.81575 c -1.196903,-0.84168 -1.30112,-1.14052 -1.30112,-3.73087 v -2.28044 l 6.283674,-6.39925 c 3.456022,-3.51958 6.390569,-6.39924 6.521216,-6.39924 0.130647,0 1.011343,0.77586 1.957103,1.72413 l 1.719561,1.72412 -0.02048,1.49887 c -0.01754,1.28386 0.0294,1.57013 0.327265,1.99569 0.191258,0.27326 0.347744,0.67351 0.347744,0.88946 0,0.29454 -1.253799,1.65762 -5.018425,5.45585 -2.760133,2.78477 -5.236326,5.23022 -5.502652,5.43433 -0.445806,0.34167 -0.659827,0.37111 -2.697299,0.37111 -1.8213,0 -2.284506,-0.0502 -2.616587,-0.28376 z m 22.253565,-6.06009 -6.255402,-6.34386 v -0.9093 c 0,-0.69229 0.08097,-0.99698 0.33928,-1.27671 l 0.33928,-0.3674 -5.72918,-5.82664 c -4.664355,-4.7437 -5.781466,-5.79962 -6.010507,-5.68129 -1.039958,0.53731 -1.132862,0.5546 -1.753877,0.32635 -0.340224,-0.12505 -0.802033,-0.48379 -1.038048,-0.80638 -0.233837,-0.31961 -0.465729,-0.61846 -0.515313,-0.66412 -0.09484,-0.0873 -1.942218,-2.65141 -2.554308,-3.54526 -0.288132,-0.42077 -0.359626,-0.76571 -0.367201,-1.77163 l -0.0094,-1.24912 1.268416,-1.28285 c 1.26437,-1.27875 1.2712,-1.28284 2.140547,-1.28284 0.748367,0 0.991028,0.0879 1.709996,0.61921 0.460829,0.34056 0.934915,0.71413 1.053528,0.83015 0.118611,0.11602 0.265492,0.21104 0.326402,0.21115 0.06091,1.1e-4 0.303034,0.16846 0.538058,0.3741 0.235022,0.20565 0.938901,0.74191 1.564173,1.1917 1.671953,1.20273 2.012775,1.99291 1.351437,3.13323 l -0.329095,0.56745 5.773359,5.87574 c 5.758241,5.86036 5.774079,5.87477 6.04874,5.50218 0.228479,-0.30994 0.431769,-0.37357 1.193583,-0.37357 h 0.918201 l 6.145869,6.26767 c 3.380233,3.44722 6.268423,6.52197 6.418213,6.83278 0.35914,0.74521 0.38043,3.41622 0.0327,4.10629 -0.13179,0.26156 -0.55034,0.79309 -0.9301,1.18119 l -0.69047,0.70563 h -2.36175 -2.36175 z m 0.528752,-13.28876 c -0.415431,-0.31486 -0.663569,-0.35816 -1.888259,-0.32954 l -1.409978,0.0329 -1.742958,-1.75822 c -0.958627,-0.96701 -1.742959,-1.85968 -1.742959,-1.9837 0,-0.12401 0.587523,-0.824 1.305607,-1.55552 1.108095,-1.12882 1.305606,-1.41354 1.305606,-1.88207 0,-0.30363 -0.0782,-0.63161 -0.173785,-0.72885 -0.110544,-0.11246 -0.148708,-0.83446 -0.104879,-1.98407 0.06907,-1.81173 0.235665,-2.84749 0.557721,-3.46758 0.09485,-0.18263 0.271339,-0.5562 0.392188,-0.83015 0.12085,-0.27395 0.386459,-0.72929 0.590245,-1.01186 0.203784,-0.28257 0.370518,-0.56563 0.370518,-0.62903 0,-0.18201 1.166378,-1.36733 1.795208,-1.82436 0.314162,-0.22833 1.013309,-0.64588 1.553659,-0.92789 l 0.982457,-0.51275 2.934362,0.0455 2.934366,0.0455 0.0493,0.77666 c 0.0484,0.76334 0.0295,0.79664 -1.100286,1.94151 -1.744378,1.7676 -1.968192,2.17009 -1.968192,3.53941 0,1.29302 0.203778,1.8079 1.006081,2.54206 0.845462,0.77365 1.196697,0.91322 2.296517,0.91255 1.26023,-8.3e-4 1.67697,-0.23889 3.36758,-1.92424 1.2441,-1.24022 1.24569,-1.24114 2.06106,-1.19395 l 0.81601,0.0472 0.0479,2.90554 0.0479,2.90554 -0.61862,1.231 c -0.80208,1.59609 -2.53597,3.40725 -3.8896,4.06295 -0.53524,0.25927 -1.12004,0.5514 -1.29956,0.64917 -0.85071,0.46332 -3.764713,0.65406 -5.630764,0.36857 -0.687792,-0.10523 -0.758499,-0.0797 -1.106492,0.39912 -0.449781,0.61892 -1.041772,0.6661 -1.737863,0.13852 z"
         id="path215" />
      <path
         style="fill:#d3a272;stroke-width:0.16461"
         d="m 105.85013,199.78967 c -2.88767,-1.88132 -7.888437,-3.55706 -13.068939,-4.37934 -2.328304,-0.36957 -8.97478,-0.51428 -11.702758,-0.2548 -5.549729,0.52788 -11.683678,2.29115 -15.318936,4.4036 -0.711503,0.41346 -1.370929,0.75229 -1.465391,0.75297 -0.09501,6.7e-4 -0.363173,-1.16724 -0.600142,-2.61375 -0.235616,-1.43824 -1.223214,-7.30323 -2.194662,-13.03329 l -1.76627,-10.41831 -0.597646,-1.4e-4 c -1.563904,-3.3e-4 -4.914586,-0.96014 -7.194513,-2.06082 -3.656398,-1.7652 -7.667007,-5.63376 -10.01067,-9.65611 -2.365375,-4.05961 -3.604771,-8.55872 -3.771474,-13.69079 -0.170149,-5.23811 0.600114,-9.31989 2.552582,-13.52668 3.802552,-8.19298 10.434978,-13.26582 18.572919,-14.20559 1.876158,-0.21666 3.750822,-0.0229 6.56781,0.679 l 2.038986,0.50801 0.731626,-0.87909 c 3.785069,-4.54797 7.973291,-7.32704 12.489683,-8.28744 1.969487,-0.41881 5.967192,-0.58647 7.756697,-0.3253 1.632668,0.23828 4.246482,1.09051 5.825035,1.89924 2.815767,1.44259 6.713903,4.70757 8.065293,6.75528 0.41372,0.62688 0.62839,0.81335 0.87468,0.75977 0.17952,-0.0391 1.06081,-0.27245 1.95841,-0.51864 2.15395,-0.59078 5.5918,-0.74245 7.94069,-0.35032 6.03866,1.0081 11.49813,4.68295 15.07374,10.14637 3.39504,5.1875 5.17261,12.24461 4.65566,18.48338 -0.72258,8.72043 -4.78619,16.26691 -11.03496,20.49286 -3.17557,2.14759 -6.62112,3.52838 -9.29409,3.72458 l -1.30861,0.096 -0.44187,2.67606 c -0.24303,1.47183 -1.06921,6.33703 -1.83596,10.81157 -0.76674,4.47453 -1.558,9.16276 -1.75834,10.41828 -0.20034,1.25553 -0.43769,2.28127 -0.52745,2.27944 -0.0898,-0.002 -0.63477,-0.31055 -1.21113,-0.68605 z M 71.868202,190.8613 c 7.126841,-1.80891 14.206243,-2.13359 22.055395,-1.01152 2.914978,0.41671 4.846071,0.86666 7.466653,1.73975 2.13214,0.71036 2.16527,0.71575 2.23716,0.36411 0.0401,-0.19631 0.30026,-1.85121 0.57806,-3.67755 2.38305,-15.66666 3.04045,-19.84227 3.13723,-19.92689 0.0247,-0.0216 0.63248,0.0693 1.35057,0.20194 1.63138,0.30146 4.09524,0.19097 5.80887,-0.26048 4.76354,-1.25495 9.08937,-5.14124 11.57426,-10.39824 1.82395,-3.85869 2.35851,-6.21065 2.35851,-10.37693 0,-3.91911 -0.49063,-6.23046 -2.03493,-9.58661 -1.43338,-3.11509 -4.09284,-6.39828 -6.62562,-8.17955 -5.04656,-3.54919 -11.04115,-4.03104 -16.45801,-1.32291 l -1.62932,0.81456 -0.47305,-0.86611 c -2.183754,-3.99836 -4.861313,-6.7009 -8.351189,-8.42911 -2.779717,-1.37653 -5.596951,-1.91673 -8.527241,-1.63509 -3.518592,0.33819 -7.15935,1.96933 -9.812736,4.39632 -1.519228,1.3896 -4.065664,4.75646 -4.453527,5.88838 -0.09248,0.26987 -0.272743,0.49068 -0.400594,0.49068 -0.127854,0 -0.799993,-0.28998 -1.493643,-0.64441 -6.503716,-3.32309 -13.662036,-1.97297 -19.152039,3.61224 -4.034612,4.10458 -6.076017,9.47289 -6.068994,15.9597 0.0029,2.69775 0.267165,4.43199 1.043597,6.84917 1.107649,3.44831 2.619099,6.03508 4.933198,8.44289 2.196339,2.28528 4.616284,3.83921 7.355002,4.72289 1.474326,0.47571 4.03518,0.78907 5.80311,0.71011 l 1.213486,-0.0542 0.947667,5.64505 c 1.250849,7.45105 2.915936,17.17893 3.014769,17.61308 0.07808,0.343 0.08956,0.34196 1.390996,-0.12657 0.721744,-0.25983 2.167307,-0.68945 3.21236,-0.9547 z"
         id="path213" />
    </g>
    <path
       style="opacity:0.909;fill:#2b0000;fill-opacity:0.357092;stroke-width:0.108902"
       d="m 78.995288,122.0607 c -0.02969,-0.13476 -0.154773,-0.8331 -0.277963,-1.55185 -0.361955,-2.11183 -0.272443,-1.90579 -0.827953,-1.90579 -0.600141,0 -1.425288,-0.40001 -1.842288,-0.89309 -1.11833,-1.32238 -1.157848,-3.23669 -0.09557,-4.62941 0.151707,-0.1989 0.530033,-0.50743 0.840725,-0.68562 0.664082,-0.38086 1.436535,-0.43302 2.155075,-0.14552 0.431759,0.17276 0.455949,0.17159 0.563803,-0.0272 0.06198,-0.11425 0.338231,-0.43571 0.613891,-0.71434 0.936048,-0.94618 2.218299,-1.06397 3.272095,-0.30061 0.239537,0.17352 0.565493,0.51189 0.724348,0.75194 0.328673,0.49665 0.316461,0.49269 0.842049,0.27309 1.277262,-0.53367 2.763278,0.20135 3.445179,1.70409 0.289536,0.63807 0.298034,1.95383 0.01739,2.69243 -0.45721,1.20328 -1.267105,1.8695 -2.390019,1.96604 l -0.729046,0.0627 -0.272257,1.76072 c -0.149741,0.96841 -0.301808,1.79022 -0.337925,1.82626 -0.03612,0.0361 -0.403666,-0.0169 -0.816769,-0.11765 -1.000189,-0.24393 -3.002508,-0.24501 -3.997699,-0.002 -0.909236,0.22188 -0.82271,0.22813 -0.887068,-0.064 z m 2.119103,-4.16563 0.930104,-0.9258 0.920985,0.9258 c 0.800057,0.80424 0.970224,0.92579 1.295973,0.92579 0.478878,0 0.773661,-0.26634 0.771991,-0.69751 -0.001,-0.26718 -0.153447,-0.49512 -0.73509,-1.09938 -1.145724,-1.19027 -1.188248,-1.24827 -1.001712,-1.36625 0.08746,-0.0554 0.391802,-0.10134 0.67631,-0.10226 0.45727,-0.002 0.567825,-0.0523 0.952896,-0.43727 0.392048,-0.39206 0.435608,-0.49006 0.435608,-0.98012 0,-0.4588 -0.03198,-0.54452 -0.203118,-0.54452 -0.111715,0 -0.32772,0.098 -0.480011,0.2178 -0.316653,0.24908 -0.52351,0.27444 -0.71082,0.0871 -0.19797,-0.19797 -0.156729,-0.57431 0.08712,-0.79499 0.119791,-0.10841 0.217805,-0.28752 0.217805,-0.39803 0,-0.1687 -0.08796,-0.20093 -0.548345,-0.20093 -0.925613,0 -1.382641,0.47989 -1.456152,1.52902 -0.02316,0.33053 -0.11649,0.63471 -0.234884,0.76554 -0.194352,0.21475 -0.202071,0.21154 -0.720972,-0.29956 -0.347028,-0.34181 -0.504857,-0.57857 -0.466415,-0.69969 0.07134,-0.22478 -0.755315,-0.96861 -1.076482,-0.96861 -0.306975,0 -0.61516,0.31346 -0.61516,0.62567 0,0.36945 0.546623,1.11157 0.820861,1.11445 0.122044,0.002 0.452478,0.23642 0.7343,0.52254 l 0.512402,0.52023 -1.033781,1.02948 c -0.967791,0.96377 -1.033782,1.05778 -1.033782,1.47269 0,0.54381 0.147354,0.70457 0.645813,0.70457 0.33691,0 0.499464,-0.11448 1.314554,-0.92579 z"
       id="path29222" />
    <path
       style="opacity:0.909;fill:#2b0000;fill-opacity:0.357092;stroke-width:0.108902"
       d="m 79.04512,122.17894 c 0,-0.27258 -0.583732,-3.28233 -0.666646,-3.43725 -0.07086,-0.1324 -0.232309,-0.19308 -0.513728,-0.19308 -0.225718,0 -0.669285,-0.12901 -0.985706,-0.28669 -1.069469,-0.53294 -1.720649,-1.81229 -1.619923,-3.18261 0.154625,-2.10359 1.890633,-3.42289 3.675427,-2.79318 0.457131,0.16129 0.463383,0.16005 0.688763,-0.13613 0.82795,-1.08802 1.834323,-1.57213 2.780147,-1.33737 0.656968,0.16306 1.254842,0.57922 1.67734,1.16754 0.185605,0.25845 0.347498,0.46991 0.359762,0.46991 0.01226,0 0.230644,-0.0735 0.485291,-0.16336 0.580747,-0.2049 1.312923,-0.20923 1.788359,-0.0106 0.550416,0.22998 1.243586,0.90966 1.558657,1.52831 0.236319,0.46403 0.280932,0.69813 0.281484,1.47709 6.32e-4,0.99435 -0.205408,1.6468 -0.742811,2.35137 -0.369088,0.4839 -1.274713,0.9157 -1.920523,0.9157 -0.284186,0 -0.542502,0.0417 -0.574036,0.0928 -0.03153,0.051 -0.182603,0.86895 -0.335711,1.81761 -0.153108,0.94867 -0.28947,1.73509 -0.303026,1.74761 -0.01355,0.0125 -0.367691,-0.044 -0.786965,-0.12563 -1.013085,-0.19719 -3.078006,-0.19265 -4.029346,0.009 -0.889072,0.18832 -0.816809,0.18044 -0.816809,0.0891 z m 1.176108,-3.45892 c 0.161741,-0.0854 0.634803,-0.50095 1.051248,-0.92343 l 0.757176,-0.76814 0.882812,0.86169 c 0.95346,0.93065 1.335731,1.11502 1.788032,0.86237 0.206536,-0.11537 0.288508,-0.2599 0.313048,-0.55198 0.0303,-0.36066 -0.04435,-0.48088 -0.843193,-1.35786 -0.482042,-0.5292 -0.860775,-1.01118 -0.841627,-1.07107 0.01915,-0.0599 0.20256,-0.12213 0.407585,-0.1383 0.66834,-0.0527 0.848737,-0.13024 1.239721,-0.53283 0.343758,-0.35395 0.385425,-0.4598 0.385425,-0.97911 0,-0.67004 -0.05635,-0.69569 -0.741744,-0.33753 -0.448334,0.23428 -0.476033,0.23651 -0.614669,0.0497 -0.163328,-0.2201 -0.111506,-0.55115 0.115805,-0.7398 0.08337,-0.0692 0.151587,-0.24232 0.151587,-0.38472 0,-0.23469 -0.04637,-0.25892 -0.495469,-0.25892 -0.953604,0 -1.344845,0.39108 -1.560998,1.56035 -0.133181,0.72044 -0.186556,0.8355 -0.387592,0.8355 -0.209566,0 -0.931914,-0.83563 -0.931914,-1.07806 0,-0.25029 -0.661543,-0.85274 -1.040959,-0.94797 -0.36689,-0.0921 -0.70148,0.21515 -0.70148,0.64412 0,0.41219 0.449189,1.01122 0.904944,1.20682 0.191088,0.082 0.516025,0.32618 0.722082,0.54259 l 0.37465,0.39348 -1.000838,1.02057 c -0.967932,0.98702 -1.000838,1.03699 -1.000838,1.51989 0,0.69558 0.413868,0.91766 1.067206,0.57265 z"
       id="path35106" />
    <path
       style="opacity:0.909;fill:#2b0000;fill-opacity:0.357092;stroke-width:0.108902"
       d="m 78.797107,120.49532 c -0.166356,-0.91263 -0.35295,-1.72016 -0.414653,-1.79451 -0.0617,-0.0743 -0.317643,-0.16949 -0.568755,-0.21143 -1.471927,-0.24583 -2.352094,-1.28222 -2.446836,-2.88114 -0.05653,-0.95403 0.0693,-1.50447 0.498289,-2.17972 0.458473,-0.72166 1.09398,-1.1188 1.88145,-1.17577 0.354263,-0.0256 0.871069,0.0106 1.148459,0.0804 l 0.504347,0.127 0.557947,-0.59799 c 1.284794,-1.377 2.661725,-1.37789 3.944994,-0.002 l 0.555587,0.59545 0.64234,-0.14483 c 1.228163,-0.27692 2.017935,0.0306 2.844648,1.10751 0.463423,0.6037 0.612995,1.19825 0.541957,2.15425 -0.06181,0.83175 -0.364572,1.66108 -0.762118,2.08757 -0.365163,0.39176 -1.192085,0.76856 -1.858563,0.84689 l -0.598594,0.0703 -0.184373,1.04769 c -0.101404,0.57623 -0.241212,1.36623 -0.310682,1.75556 l -0.126311,0.70786 -0.540837,-0.0544 c -0.853543,-0.0859 -3.861002,-0.0635 -4.461319,0.0333 l -0.544512,0.0878 z m 1.789568,-2.01327 c 0.260227,-0.21629 0.688738,-0.61085 0.952251,-0.8768 l 0.479109,-0.48355 0.389846,0.35952 c 0.214415,0.19774 0.415367,0.38934 0.446559,0.42579 0.03119,0.0364 0.292474,0.26923 0.580623,0.51729 0.806195,0.69402 1.599686,0.56105 1.599686,-0.26808 0,-0.35209 -0.06686,-0.44833 -1.384589,-1.99307 -0.132611,-0.15546 -0.242876,-0.31481 -0.24503,-0.35411 -0.0021,-0.0393 0.25313,-0.10681 0.567299,-0.15002 0.459498,-0.0632 0.651191,-0.15853 0.980123,-0.48747 0.375553,-0.37555 0.408903,-0.4588 0.408903,-1.02067 0,-0.68769 -0.06939,-0.73096 -0.694271,-0.43298 -0.206224,0.0983 -0.452917,0.14889 -0.548206,0.11232 -0.218859,-0.084 -0.224559,-0.43968 -0.0099,-0.61783 0.08985,-0.0746 0.163356,-0.27659 0.163356,-0.44894 0,-0.30671 -0.01256,-0.31337 -0.590609,-0.31337 -0.730201,0 -1.199118,0.33879 -1.367577,0.98807 -0.06103,0.23521 -0.161855,0.62368 -0.224059,0.86327 -0.0633,0.24381 -0.17944,0.4356 -0.26377,0.4356 -0.174207,0 -0.929958,-0.8464 -0.929958,-1.0415 0,-0.2128 -0.851346,-0.91874 -1.107988,-0.91874 -0.56252,0 -0.834645,0.75474 -0.463287,1.28493 0.09414,0.13441 0.429702,0.43537 0.745692,0.6688 0.631351,0.46641 0.934546,0.74491 0.934373,0.85829 -6.3e-5,0.0406 -0.257345,0.34166 -0.571739,0.66894 -1.12021,1.1661 -1.27949,1.4024 -1.27949,1.89823 0,0.54888 0.144654,0.71934 0.610441,0.71934 0.241037,0 0.495505,-0.12171 0.822212,-0.39326 z"
       id="path35108" />
    <path
       style="opacity:0.909;fill:#2b0000;fill-opacity:0.357092;stroke-width:0.108902"
       d="m 79.096624,121.878 c -0.02851,-0.12412 -0.145067,-0.71754 -0.259021,-1.3187 -0.385685,-2.03468 -0.329052,-1.93235 -1.192582,-2.1548 -1.304831,-0.33613 -1.988245,-1.12825 -2.187534,-2.53548 -0.129017,-0.91103 0.0041,-1.67499 0.404076,-2.31932 0.637886,-1.02753 1.489449,-1.38669 2.835737,-1.19603 l 0.705602,0.0999 0.613815,-0.58548 c 0.770916,-0.73532 1.191966,-0.95418 1.845487,-0.95924 0.721492,-0.006 1.226292,0.23733 1.972736,0.94932 l 0.643488,0.61378 0.740997,-0.13191 c 0.999525,-0.17794 1.524528,-0.0317 2.21946,0.61836 0.817953,0.7651 1.006474,1.25391 0.953219,2.47155 -0.05993,1.37032 -0.408347,2.11368 -1.203557,2.56785 -0.302238,0.17261 -0.861962,0.37279 -1.243829,0.44485 -0.563348,0.10629 -0.704283,0.17486 -0.747197,0.3635 -0.02909,0.12787 -0.153819,0.82057 -0.277171,1.53932 -0.123353,0.71876 -0.246857,1.38462 -0.274455,1.47968 -0.04406,0.15177 -0.285733,0.16721 -1.981483,0.12659 -1.062218,-0.0255 -2.287851,-0.002 -2.72363,0.0528 -0.752862,0.0942 -0.794906,0.0879 -0.844158,-0.12658 z m 1.429564,-3.31652 c 0.233599,-0.1726 0.643202,-0.54015 0.910234,-0.81676 0.267029,-0.27662 0.539201,-0.50294 0.604823,-0.50294 0.06562,0 0.2882,0.1775 0.494614,0.39445 0.206412,0.21694 0.612475,0.58449 0.902361,0.81676 0.828889,0.66417 1.596529,0.53478 1.596529,-0.26909 0,-0.39906 -0.135374,-0.62064 -0.955359,-1.56372 -0.323293,-0.37182 -0.560219,-0.72068 -0.526502,-0.77523 0.03372,-0.0546 0.265965,-0.13192 0.51611,-0.17192 0.324715,-0.0519 0.574604,-0.19253 0.873631,-0.49155 0.388397,-0.3884 0.418826,-0.46418 0.418826,-1.04297 v -0.62413 l -0.326706,0.0668 c -0.179689,0.0367 -0.467922,0.096 -0.640518,0.13173 -0.398724,0.0825 -0.520445,-0.10226 -0.294538,-0.44703 0.09501,-0.145 0.172741,-0.38788 0.172741,-0.53973 0,-0.26157 -0.03104,-0.27608 -0.590609,-0.27608 -0.837565,0 -1.182239,0.31082 -1.487927,1.34179 -0.127495,0.42999 -0.256573,0.82282 -0.286838,0.87294 -0.07641,0.12656 -0.721545,-0.51845 -1.070114,-1.0699 -0.299735,-0.47419 -0.758885,-0.81813 -1.092189,-0.81813 -0.303599,0 -0.590735,0.33087 -0.590735,0.68072 0,0.46609 0.265034,0.84225 0.93466,1.32654 1.037012,0.74999 1.029278,0.68068 0.178421,1.59896 -0.409892,0.44238 -0.828019,0.92549 -0.92917,1.07359 -0.212478,0.31109 -0.244929,1.09634 -0.05323,1.28804 0.230893,0.23089 0.793455,0.1479 1.241483,-0.18315 z"
       id="path35110" />
  </g>
</svg>
