<?xml version="1.0" encoding="UTF-8" standalone="no"?>
<!-- Created with Inkscape (http://www.inkscape.org/) -->

<svg
   width="176.38889mm"
   height="176.38889mm"
   viewBox="0 0 176.38889 176.38889"
   version="1.1"
   id="svg100556"
   xml:space="preserve"
   xmlns:inkscape="http://www.inkscape.org/namespaces/inkscape"
   xmlns:sodipodi="http://sodipodi.sourceforge.net/DTD/sodipodi-0.dtd"
   xmlns="http://www.w3.org/2000/svg"
   xmlns:svg="http://www.w3.org/2000/svg"><sodipodi:namedview
     id="namedview100558"
     pagecolor="#505050"
     bordercolor="#eeeeee"
     borderopacity="1"
     inkscape:showpageshadow="0"
     inkscape:pageopacity="0"
     inkscape:pagecheckerboard="0"
     inkscape:deskcolor="#505050"
     inkscape:document-units="mm"
     showgrid="false" /><defs
     id="defs100553"><clipPath
       clipPathUnits="userSpaceOnUse"
       id="clipPath100594"><path
         d="M 0,0 H 5000 V 5000 H 0 Z"
         id="path100592" /></clipPath></defs><g
     id="g100586"
     transform="matrix(0.03527778,0,0,-0.03527778,-5.4127905e-7,176.3889)"><g
       id="g100588"><g
         id="g100590"
         clip-path="url(#clipPath100594)"><path
           d="M 5000,0 H 0 V 5000 H 5000 V 0 M 762.777,1360.12 V 457.961 H 4208.27 v 346.281 c 171.11,157.477 279.64,376.708 306.48,602.878 32.5,273.8 -45.77,549.35 -34.28,824.68 14.12,338.78 162.55,684.31 53.78,1007.22 -97.33,288.95 -391.67,490.98 -703.91,554.13 -108.92,22.04 -221.24,29.8 -332.54,40.48 -5.9,7.46 -12.92,14 -21,19.19 -14.42,9.27 -31.2,13.52 -48.23,13.52 -20.94,0 -42.25,-6.43 -60,-17.92 -50.57,7.16 -100.56,16.34 -149.55,29.23 v 633.87 c 0,16.86 -13.66,30.52 -30.52,30.52 h -36.89 -360.19 c -4.52,0 -8.78,-1.15 -12.48,-3.17 h -145.05 c -14.4,0 -26.07,-11.67 -26.07,-26.06 v -280.04 c -13,7.96 -26.12,15.72 -39.4,23.23 -190.9,107.94 -411.99,159.77 -634.27,159.77 -180.14,0 -361.08,-34.06 -527.22,-99.89 -237.8,-94.24 -444.946,-249.08 -608.254,-439.1 H 518.445 c -25.355,0 -45.906,-20.55 -45.906,-45.91 0,-25.35 20.551,-45.9 45.906,-45.9 H 725.18 C 664.867,3703.98 612.039,3617.89 567.594,3528.4 395.922,3182.79 343.949,2789.75 382.75,2409.35 420.672,2037.53 545.977,1670.85 762.777,1360.12"
           style="fill:#ffffff;fill-opacity:1;fill-rule:nonzero;stroke:none"
           id="path100596" /><path
           d="M 4208.27,804.242 V 1952.45 h 27.8 c 22.09,0 40,17.91 40,40 v 85.14 c 0,22.09 -17.91,40 -40,40 h -394.5 c -21.01,80.78 -45.34,160.7 -72.78,239.54 85.71,70.52 161.8,148.37 206.86,242.55 14.16,29.6 25.12,61.11 24.07,93.19 -1.23,37.27 -18.5,72.55 -36.25,106.45 -16.07,30.65 -32.76,61.04 -49.46,91.43 -43.82,79.77 -89.12,161.36 -161.88,222.87 -5.16,4.36 -10.88,9.28 -17.01,14.38 h 14.06 c 16.56,0 24.83,20.05 13.09,31.73 l -285.61,283.85 c 23.43,52.76 32.84,86.79 27.82,141.31 -2.58,28.03 -9.75,56.6 -23.83,80.61 1.3,1.67 2.76,3.2 4.03,4.9 20.37,27.44 35.01,60.22 35.56,94.39 0.4,24.57 -7.36,49.75 -22.44,68.84 111.3,-10.68 223.62,-18.44 332.54,-40.48 312.24,-63.15 606.58,-265.18 703.91,-554.13 108.77,-322.91 -39.66,-668.44 -53.78,-1007.22 -11.49,-275.33 66.78,-550.88 34.28,-824.68 -26.84,-226.17 -135.37,-445.401 -306.48,-602.878 M 762.777,1360.12 c -216.8,310.73 -342.105,677.41 -380.027,1049.23 -38.801,380.4 13.172,773.44 184.844,1119.05 44.445,89.49 97.273,175.58 157.586,256.57 h 634.53 c 0,-80.28 0,-160.54 0,-240.81 -1.21,-4.15 -0.91,-8.73 0,-13.23 0,-11.77 0,-23.54 0,-35.31 -108.02,-8.44 -193.03,-98.75 -193.03,-208.93 0,-88.73 55.13,-164.57 133.01,-195.15 -0.76,-1.6 -1.49,-3.27 -2.21,-4.98 l -0.42,-0.58 c -77.39,-141.49 -128.88,-461.96 -140.25,-537.71 -1.62,-10.82 1.5,-21.72 8.36,-30.25 66.16,-82.36 157.23,-136.48 236.65,-171.02 -0.26,-27.54 -0.52,-55.07 -0.77,-82.6 -7.04,1.74 -14.22,2.73 -21.46,2.9 -1.85,0.45 -3.65,1.1 -5.52,1.47 -6.14,1.21 -12.5,1.91 -18.82,1.91 -12.82,0 -25.49,-2.87 -35.93,-10.09 -11.18,-7.74 -18.79,-19.79 -23.51,-32.52 -6.32,-17.07 -7.31,-36.32 -2.74,-53.83 3.04,-11.67 8.49,-22.59 16.71,-31.52 9.39,-10.18 21.54,-17.37 33.85,-23.73 0.91,-0.47 1.83,-0.94 2.75,-1.4 H 722.422 c -22.09,0 -40,-17.91 -40,-40 v -85.14 c 0,-22.09 17.91,-40 40,-40 h 40.355 v -592.33 m 2250.663,757.47 h -389.9 c 14.72,6.44 27.66,16.58 35.33,30.53 11.06,20.14 7.89,48.68 -10.73,62.16 -3.29,2.39 -6.89,4.17 -10.65,5.6 0.03,-0.82 0.05,-1.64 0.05,-2.46 0,0.82 -0.02,1.64 -0.05,2.46 -8.4,3.18 -17.69,4.41 -26.72,5.19 -14.08,1.23 -28.16,1.8 -42.23,1.8 -48.38,0 -96.63,-6.67 -144.55,-15.87 -2.27,8.96 -7.66,16.93 -15.88,21.13 -2.67,1.36 -5.5,2.25 -8.4,2.87 0.56,-2.87 0.84,-5.79 0.85,-8.71 -0.01,2.92 -0.29,5.84 -0.85,8.71 -3.8,0.8 -7.74,1.07 -11.69,1.07 -2.8,0 -5.6,-0.14 -8.37,-0.32 -37.98,-2.56 -74.92,-11.59 -111.18,-23.43 -4.5,40.67 -11.35,81.1 -18.17,121.28 -9.94,58.5 -19.92,117.19 -35.65,173.66 -8.22,29.55 -17.99,58.39 -26.93,87.61 -40.87,133.65 -64.18,274.5 -94.31,412.56 -13.48,61.78 -21.71,124.57 -65.77,156.93 l -0.01,-0.05 c -5.07,4.45 -10.89,8.22 -16.82,11.34 -15.35,8.07 -31.94,13.3 -48.69,17.93 -0.47,1.63 -1.13,3.17 -1.92,4.34 -2.03,2.99 -5.85,5.67 -9.49,6.16 -0.83,0.11 -1.67,0.17 -2.52,0.17 -2.91,0 -5.85,-0.7 -8.22,-2.46 l -1.83,-1.62 c -69.25,19.66 -90.65,36.98 -165.24,56.9 -1.15,4.64 -2.24,9.3 -3.19,14 l -0.34,1.86 0.64,-0.17 v 0 c 0,0 -3.65,14.5 -5.31,36.16 -1.55,24.22 0.33,48.57 7.22,71.61 10.42,15.73 19.36,33.83 26.79,47.97 10.51,19.97 16.24,41.25 18.51,63.09 5.18,1.3 9.92,4.53 13.75,8.35 17.98,17.95 19.11,46.48 16.54,71.75 -0.84,8.36 -2.53,17.67 -9.36,22.55 -1.5,1.07 -3.16,1.79 -4.9,2.29 24.68,15.76 44.99,37.71 56.59,64.65 14.8,34.34 14.8,72.32 10.88,109.99 -1.36,13.03 -3.17,26 -5.02,38.79 -0.69,4.77 -1.78,10.17 -5.93,12.63 -1.46,0.87 -3.03,1.23 -4.65,1.23 -3.89,0 -8.06,-2.06 -11.66,-4 -20.14,-10.87 -42.23,-18.58 -65.04,-20.4 -3.81,-0.3 -7.63,-0.44 -11.43,-0.44 -1.28,0 -2.55,0.02 -3.83,0.05 10.5,8.41 17.23,21.34 17.23,35.84 0,25.36 -20.56,45.91 -45.91,45.91 H 798.676 c 163.308,190.02 370.454,344.86 608.254,439.1 166.14,65.83 347.08,99.89 527.22,99.89 222.28,0 443.37,-51.83 634.27,-159.77 13.28,-7.51 26.4,-15.27 39.4,-23.23 v -536.31 h 154.57 l -502.99,-539.33 -2.06,-2.2 c -26.66,-2.22 -54.27,-3.38 -82.93,-3.38 -23.5,0 -47.67,0.78 -72.54,2.41 l -2.63,-2.81 c -9.32,-10.01 -2.23,-26.32 11.45,-26.32 h 878.37 c -7.53,-1.02 -14.95,-2.09 -22.22,-3.21 -82.03,-8.18 -150.27,-17.41 -208.53,-38.24 -17.42,-6.23 -34.91,-13.53 -48.66,-25.91 -11.37,-10.25 -19.67,-23.61 -25.33,-37.84 -7.78,-19.55 -15.99,-49.68 7.48,-90.02 8.18,-14.08 18.06,-16.3 29.98,-16.3 2.73,0 5.57,0.12 8.53,0.23 2.95,0.12 6.01,0.24 9.19,0.24 6,0 12.41,-0.42 19.27,-2.02 18.3,-4.29 36.77,-7.88 55.33,-10.79 9.87,-10.97 20.81,-20.51 30.13,-28.39 35.55,-30.06 65.13,-59.22 96.29,-97.13 13.28,-16.16 48.84,-67.31 48.77,-91.43 -0.02,-10.04 -5.47,-18.58 -12.63,-26.65 -1.28,1.79 -2.61,3.54 -3.89,5.33 -7.57,10.58 -15.09,21.19 -22.56,31.85 -2.3,3.26 -5.03,5.82 -8.99,6.91 -1.22,0.33 -2.57,0.5 -3.95,0.5 -2.71,0 -5.53,-0.66 -7.64,-2.02 -3.2,-2.07 -6.04,-5.15 -6.91,-8.99 -0.85,-3.75 -0.78,-8.3 1.52,-11.58 10.27,-14.65 20.83,-29.11 31.3,-43.61 -7.85,-8.58 -13.95,-17.63 -13.76,-28.38 0.37,-20.26 2.43,-25.16 13.48,-38.91 11.05,-13.75 12,-28.11 19.88,-45.37 10.89,-23.82 27.86,-29.93 46.87,-41.18 3.04,-1.79 6.28,-3.08 9.6,-3.85 -11.72,-119.62 -12.97,-240.31 -18.17,-360.48 m -675.09,0 h -64.7 c 0.04,5.81 -0.01,11.61 -0.13,17.41 2.93,0.44 5.85,0.88 8.77,1.31 14.68,-12.13 35.73,-16.51 56.06,-18.72 m -199.03,0 h -81.89 l -4.1,24.78 c 15.93,-3.74 31.79,-7.73 47.5,-12.32 11.38,-3.32 22.76,-6.84 34.31,-9.42 1.34,-1.12 2.73,-2.14 4.18,-3.04 m 301.7,26.44 v 0 c 0.01,0 0.02,0 0.03,0 -0.01,0 -0.02,0 -0.03,0 m -0.05,0 c -23.93,0 -47.86,0.65 -71.73,2.09 v 0 c 23.88,-1.44 47.8,-2.09 71.73,-2.09 m 105.86,3.7 c 0.19,0.01 0.39,0.02 0.58,0.04 -0.19,-0.02 -0.39,-0.03 -0.58,-0.04 m 2.05,0.13 c 0.53,0.04 1.07,0.07 1.6,0.11 -0.53,-0.04 -1.07,-0.07 -1.6,-0.11 m -436.72,29.53 c -22.75,8.07 -45.6,15.83 -68.49,23.49 l -38.54,233.34 c -1.67,49.67 -1.74,99.42 -0.68,149.17 1,9.4 1.96,18.81 2.81,28.22 8.05,-50.04 20.25,-98.88 32.54,-147.57 24.12,-95.54 48.24,-191.1 72.36,-286.65 m -710.98,368.45 c -21.36,14.88 -38.11,28.27 -46.68,39.51 -2.72,11.21 -3.77,22.83 -3,34.32 1.05,5.07 2.28,10.65 3.68,16.62 l 0.66,-0.23 5.8,22.31 c -0.93,-1.9 -1.74,-3.85 -2.54,-5.8 7.22,29.19 16.64,63.56 24.26,90.68 10.9,-64.95 15.78,-131.04 17.82,-197.41 m 1634.16,281.38 c -13.03,20.34 -27.36,43.29 -42.02,66.9 14.78,1.16 29.51,2.74 44.2,4.74 -1.09,-24.36 -1.79,-48.23 -2.18,-71.64 m -1260.67,419.19 c -0.59,2.2 -1.21,4.39 -1.76,6.6 0.12,-0.21 1.56,-2.92 1.76,-6.6 m -364.36,298.03 c -3.74,4.05 -7.81,7.3 -12.01,8.85 -1.81,0.67 -3.64,1.28 -5.5,1.8 0,61.12 0,122.23 0,183.35 0,15.51 0,31.02 0,46.53 h 203.3 c -13.05,-10.21 -20.97,-21.07 -25.34,-28.43 -23.29,-4.3 -46.58,-9.55 -68.11,-19.4 -22.4,-10.26 -42.96,-25.92 -55.29,-47.25 -5.66,-9.78 -9.46,-20.5 -13.24,-31.15 -8.31,-23.48 -16.69,-47.22 -19.32,-71.98 -1.57,-14.63 -3.63,-28.53 -4.49,-42.32 m 1808.71,160.72 v 172.49 c 48.99,-12.89 98.98,-22.07 149.55,-29.23 -2.21,-1.42 -4.35,-2.93 -6.44,-4.5 -32.56,-24.64 -51.14,-64.36 -57.77,-104.65 -0.55,-3.36 -0.99,-6.75 -1.36,-10.15 -25.57,-3.17 -50.73,-9.71 -74.46,-19.73 -3.2,-1.34 -6.37,-2.76 -9.52,-4.23 m -1713.31,22.78 25.01,10.72 c -4.33,-2.6 -8.23,-5.63 -11.73,-8.88 -4.44,-0.54 -8.87,-1.16 -13.28,-1.84 m 40.86,17.52 23.65,10.15 c -2.79,-4.85 -3.93,-7.95 -3.93,-7.95 -0.86,0.03 -1.72,0.05 -2.56,0.05 -6.19,0 -11.91,-0.81 -17.16,-2.25"
           style="fill:#ecf9fb;fill-opacity:1;fill-rule:nonzero;stroke:none"
           id="path100598" /><path
           d="m 3219.02,3877.65 c -30.62,8.06 -60.83,17.56 -90.56,28.93 -61.46,23.49 -118.75,54.16 -173.93,88.5 l 39.55,543.79 h -215.14 c 3.7,2.02 7.96,3.17 12.48,3.17 h 360.19 36.89 c 16.86,0 30.52,-13.66 30.52,-30.52 v -633.87"
           style="fill:#e3f6f9;fill-opacity:1;fill-rule:nonzero;stroke:none"
           id="path100600" /><path
           d="m 3749.18,3128 h -14.06 c -25.55,21.22 -58.34,45.52 -88.36,45.52 -0.96,0 -1.91,-0.02 -2.86,-0.07 v -0.01 c -17.58,23.82 -46.79,32.58 -73.33,32.58 -5.03,0 -9.96,-0.31 -14.7,-0.9 l -124.9,124.14 c -1.66,7.94 -3.14,15.92 -4.43,23.93 4.22,3.29 15.03,20.73 16.12,23 16.78,35.23 19.45,34.99 31.87,62.59 l 0.51,1.16 c 0.55,1.22 1.09,2.44 1.62,3.64 l 285.61,-283.85 c 11.74,-11.68 3.47,-31.73 -13.09,-31.73 m -1491.84,26.93 2.06,2.2 502.99,539.33 h 170.42 l -2.65,-36.5 c 0,0 -142.62,-460.88 -672.82,-505.03 m 1386.56,18.4 -0.07,0.03 0.07,0.08 v -0.11 m -514.85,455.98 -67.56,67.15 h -128.68 l 21.72,298.62 c 55.18,-34.34 112.47,-65.01 173.93,-88.5 29.73,-11.37 59.94,-20.87 90.56,-28.93 v -172.49 c -29.25,-13.74 -56.12,-33.11 -75.61,-58.82 -3.05,-4.03 -5.83,-8.28 -8.45,-12.63 -2.04,-1.33 -4.01,-2.82 -5.91,-4.4"
           style="fill:#daf3f8;fill-opacity:1;fill-rule:nonzero;stroke:none"
           id="path100602" /><path
           d="m 2930.16,3659.96 2.65,36.5 h -324.99 l -505.95,-542.5 c 658.43,-43.12 828.29,506 828.29,506"
           style="fill:#fbe668;fill-opacity:1;fill-rule:nonzero;stroke:none"
           id="path100604" /><path
           d="m 3604.74,3156.56 -543.25,539.9 h -128.68 l -2.65,-36.5 c 0,0 -169.86,-549.11 -828.29,-506 l -2.63,-2.81 c -9.32,-10.01 -2.23,-26.32 11.45,-26.32 h 1480.96 c 16.56,0 24.83,20.05 13.09,31.73"
           style="fill:#ebd253;fill-opacity:1;fill-rule:nonzero;stroke:none"
           id="path100606" /><path
           d="m 3061.49,3696.46 v 811.88 c 0,16.86 -13.67,30.53 -30.52,30.53 h -36.89 l -61.27,-842.41 h 128.68"
           style="fill:#ebd253;fill-opacity:1;fill-rule:nonzero;stroke:none"
           id="path100608" /><path
           d="m 2994.08,4538.87 h -360.19 c -14.4,0 -26.07,-11.67 -26.07,-26.06 v -816.35 h 324.99 l 61.27,842.41"
           style="fill:#fbe668;fill-opacity:1;fill-rule:nonzero;stroke:none"
           id="path100610" /><path
           d="m 2727.88,3868.91 h -32.91 c -4.46,0 -8.08,14.31 -8.08,31.96 v 418.2 c 0,26.15 5.36,47.35 11.97,47.35 h 36.99 c 4.69,0 8.39,-15.77 8.05,-34.28 l -7.96,-433.59 c -0.31,-16.7 -3.83,-29.64 -8.06,-29.64"
           style="fill:#fcee98;fill-opacity:1;fill-rule:nonzero;stroke:none"
           id="path100612" /><path
           d="m 3497.8,3833.63 c -43.31,4.15 -86.49,8.75 -129.23,14.79 17.75,11.49 39.06,17.92 60,17.92 17.03,0 33.81,-4.25 48.23,-13.52 8.08,-5.19 15.1,-11.73 21,-19.19"
           style="fill:#e3f6f9;fill-opacity:1;fill-rule:nonzero;stroke:none"
           id="path100614" /><path
           d="M 3841.57,2117.59 H 3741.2 c -20.24,76.79 -43.46,152.81 -69.57,227.81 85.66,70.49 161.63,148.35 206.67,242.48 14.16,29.6 25.13,61.11 24.07,93.18 -1.23,37.28 -18.49,72.56 -36.26,106.46 -16.05,30.65 -32.75,61.04 -49.44,91.43 -43.84,79.78 -89.13,161.36 -161.89,222.87 -9.09,7.69 -19.92,17.11 -31.72,26.18 h 112.06 c 6.13,-5.1 11.85,-10.02 17.01,-14.38 72.76,-61.51 118.06,-143.1 161.88,-222.87 16.7,-30.39 33.39,-60.78 49.46,-91.43 17.75,-33.9 35.02,-69.18 36.25,-106.45 1.05,-32.08 -9.91,-63.59 -24.07,-93.19 -45.06,-94.18 -121.15,-172.03 -206.86,-242.55 27.44,-78.84 51.77,-158.76 72.78,-239.54 m -809.96,360.48 c -3.32,0.77 -6.56,2.06 -9.6,3.85 -19.01,11.25 -35.98,17.36 -46.87,41.18 -7.88,17.26 -8.83,31.62 -19.88,45.37 -11.05,13.75 -13.11,18.65 -13.48,38.91 -0.19,10.75 5.91,19.8 13.76,28.38 -10.47,14.5 -21.03,28.96 -31.3,43.61 -2.3,3.28 -2.37,7.83 -1.52,11.58 0.87,3.84 3.71,6.92 6.91,8.99 2.11,1.36 4.93,2.02 7.64,2.02 1.38,0 2.73,-0.17 3.95,-0.5 3.96,-1.09 6.69,-3.65 8.99,-6.91 7.47,-10.66 14.99,-21.27 22.56,-31.85 1.28,-1.79 2.61,-3.54 3.89,-5.33 7.16,8.07 12.61,16.61 12.63,26.65 0.07,24.12 -35.49,75.27 -48.77,91.43 -31.16,37.91 -60.74,67.07 -96.29,97.13 -9.32,7.88 -20.26,17.42 -30.13,28.39 39.28,-6.15 79.04,-9.21 118.79,-9.21 20.17,0 40.33,0.79 60.43,2.36 14.66,-23.61 28.99,-46.56 42.02,-66.9 -1.56,-95.26 2.19,-183.11 6.98,-267.8 -2.7,-12.23 -4.36,-24.71 -5.87,-37.16 -1.79,-14.71 -3.4,-29.44 -4.84,-44.19 m 581.73,38.47 c -8.45,83.04 -2.58,167.21 -2.99,250.9 8.12,-24.47 16.96,-48.11 26.48,-70.54 2.43,-5.99 4.36,-10.33 6.01,-13.79 0.99,-2.22 1.99,-4.44 3,-6.63 4.12,-8.98 8.4,-18.16 12.06,-27.46 0,-0.01 0.01,-0.02 0.01,-0.04 1.02,-2.93 2.08,-5.75 3.13,-8.5 5.84,-17.08 8.81,-34.46 4.17,-51.63 -0.32,-1.22 -0.69,-2.43 -1.09,-3.63 -4.68,-12.37 -12.37,-23.8 -20.92,-34.01 -1.98,-2.37 -4.06,-4.76 -5.63,-7.4 -0.58,-0.69 -1.17,-1.37 -1.76,-2.05 -7.35,-8.51 -14.85,-16.91 -22.47,-25.22 m -646.5,605.08 c 7.27,1.12 14.69,2.19 22.22,3.21 h 11.03 c -11.33,-1.07 -22.41,-2.13 -33.25,-3.21 m 509.82,321.96 -257.64,256.05 v 5.53 c 3.15,1.47 6.32,2.89 9.52,4.23 23.73,10.02 48.89,16.56 74.46,19.73 0.37,3.4 0.81,6.79 1.36,10.15 6.63,40.29 25.21,80.01 57.77,104.65 2.09,1.57 4.23,3.08 6.44,4.5 42.74,-6.04 85.92,-10.64 129.23,-14.79 15.08,-19.09 22.84,-44.27 22.44,-68.84 -0.55,-34.17 -15.19,-66.95 -35.56,-94.39 -1.27,-1.7 -2.73,-3.23 -4.03,-4.9 14.08,-24.01 21.25,-52.58 23.83,-80.61 5.02,-54.52 -4.39,-88.55 -27.82,-141.31"
           style="fill:#daf3f8;fill-opacity:1;fill-rule:nonzero;stroke:none"
           id="path100616" /><path
           d="m 3735.12,3128 h -112.06 c -4.43,3.41 -8.99,6.77 -13.66,9.97 1.9,6.13 0.72,13.24 -4.66,18.59 l -48.87,48.56 c 4.74,0.59 9.67,0.9 14.7,0.9 26.54,0 55.75,-8.76 73.33,-32.58 v 0.01 c 0.95,0.05 1.9,0.07 2.86,0.07 30.02,0 62.81,-24.3 88.36,-45.52 m -91.22,45.44 -0.07,-0.08 0.07,-0.03 v 0.11 m -212.93,155.82 -108.37,107.7 c 0.48,19.11 2.04,38.2 4.7,57.14 l -24.87,-37.09 -1.11,1.1 c -5.39,55.04 -29.42,107.9 -64.64,150.76 l -84.59,30.67 c -6.2,-0.1 -11.9,-2.44 -17.13,-5.83 2.62,4.35 5.4,8.6 8.45,12.63 19.49,25.71 46.36,45.08 75.61,58.82 v -5.53 l 257.64,-256.05 c -0.53,-1.2 -1.07,-2.42 -1.62,-3.64 l -0.51,-1.16 c -12.42,-27.6 -15.09,-27.36 -31.87,-62.59 -1.09,-2.27 -11.9,-19.71 -16.12,-23 1.29,-8.01 2.77,-15.99 4.43,-23.93"
           style="fill:#cdeff4;fill-opacity:1;fill-rule:nonzero;stroke:none"
           id="path100618" /><path
           d="m 3000.09,3124.83 h -11.03 c 16.95,2.29 34.57,4.35 52.9,6.3 -0.25,-0.82 -0.5,-1.64 -0.75,-2.46 -14.06,-1.31 -27.77,-2.58 -41.12,-3.84 m 45.17,4.22 c 1.29,0.9 2.54,1.84 3.76,2.82 28.1,2.92 57.86,5.64 89.44,8.59 8.13,26.04 12.46,53.26 12.61,80.54 0.07,11.2 -0.54,22.34 -1.67,33.41 7.85,-4.74 16.57,-7.99 25.68,-7.99 0.31,0 0.62,0.01 0.93,0.02 3.96,0.09 7.87,0.6 11.7,1.45 -1.8,-11.6 -3.95,-23.15 -6.48,-34.61 -6.06,-27.49 -16.26,-56.84 -39.13,-72.48 12.53,1.18 25.34,2.39 38.44,3.67 -1.42,-0.58 -2.84,-1.18 -4.27,-1.78 -46.89,-5.6 -90.45,-9.84 -131.01,-13.64 m 564.14,8.92 c -19.3,13.24 -40.24,23.76 -60,23.76 -0.95,0 -1.9,-0.03 -2.85,-0.08 -0.01,0.01 -0.02,0.01 -0.03,0.02 -8.77,11.87 -20.44,20.01 -33.22,25.17 1.12,1.18 2.27,2.33 3.46,3.45 7.56,7.13 22.09,12.73 39.11,14.83 l 48.87,-48.56 c 5.38,-5.35 6.56,-12.46 4.66,-18.59 m -196.41,33.98 c -3.61,0.66 -6.86,1.57 -9.31,2.82 -13.88,7.09 -18.57,13.25 -23.07,13.25 -0.55,0 -1.09,-0.09 -1.65,-0.28 -38.96,76.69 -58.54,163.23 -56.36,249.22 l 108.37,-107.7 c 9.4,-45.03 24.69,-88.8 45.52,-129.79 0.5,0.15 0.99,0.22 1.48,0.22 3.02,0 6.13,-2.73 12.04,-6.66 -5.63,0.82 -11.27,1.2 -16.79,1.2 -23.08,0 -44.14,-6.63 -53.81,-15.73 -2.23,-2.11 -4.36,-4.29 -6.42,-6.55 m -111.45,283.75 c -0.07,0.8 -0.14,1.61 -0.22,2.41 l 1.11,-1.1 -0.89,-1.31"
           style="fill:#d5dd91;fill-opacity:1;fill-rule:nonzero;stroke:none"
           id="path100620" /><path
           d="m 3205.46,3312.39 c 19.09,-51.84 16.25,-111.36 -7.7,-161.14 -11.11,-23.12 -27.04,-47.18 -21.34,-72.18 2.08,-9.12 6.99,-17.4 13.01,-24.55 27.76,-32.92 76.09,-40.34 118.79,-34.79 53.93,7.01 105.46,31.39 145.09,68.63 -18.38,11.88 -32.08,29.67 -44.23,47.87 -69.48,104.04 -99.17,233.97 -81.78,357.87 l -121.84,-181.71"
           style="fill:#f8a677;fill-opacity:1;fill-rule:nonzero;stroke:none"
           id="path100622" /><path
           d="m 3206.37,3294.61 c 7.37,-36.61 8.56,-74.45 3.53,-111.46 33.6,32.61 55.86,75.71 68.25,120.85 12.39,45.15 15.33,92.43 14.13,139.23 l -85.91,-148.62"
           style="fill:#f59363;fill-opacity:1;fill-rule:nonzero;stroke:none"
           id="path100624" /><path
           d="m 3039.57,3602.8 c -39.39,-54.82 -37.42,-129.12 -23.53,-195.18 13.88,-66.05 38.08,-130.92 37.69,-198.42 -0.17,-28.2 -4.7,-56.38 -13.38,-83.22 26.13,14.67 37.08,46.24 43.54,75.5 20.19,91.63 17.04,188.3 -9.1,278.41 l -35.22,122.91"
           style="fill:#361721;fill-opacity:1;fill-rule:nonzero;stroke:none"
           id="path100626" /><path
           d="m 3152.09,3639.54 c -11.47,-0.18 -21.26,-8.03 -29.43,-16.07 -57.44,-56.53 -84.76,-145.29 -65.01,-223.42 5.92,-23.46 6.83,-38.44 16.54,-60.62 12.97,-29.63 34.58,-55.16 68.67,-80.6 9.67,-7.22 21.07,-12.69 33.15,-12.39 19.7,0.47 37.81,11.08 52.93,23.74 48.05,40.23 74.02,103.77 73.52,166.44 -0.49,62.66 -25.99,123.84 -65.78,172.25 l -84.59,30.67"
           style="fill:#f8a677;fill-opacity:1;fill-rule:nonzero;stroke:none"
           id="path100628" /><path
           d="m 3143.11,3461.47 c -4,6.85 41.37,21.4 52.39,21.08 11.01,-0.31 20.64,-1.46 31.38,-3.92 -44.28,-6.6 -40.32,-11.17 -61.22,-19.81 -3.78,-1.56 -7.86,-2.53 -11.95,-2.47 -4.08,0.06 -8.38,1.69 -10.6,5.12"
           style="fill:#52191f;fill-opacity:1;fill-rule:nonzero;stroke:none"
           id="path100630" /><path
           d="m 3085.04,3448.93 c -0.97,7.5 -39.63,0.03 -46.93,-5.02 -7.32,-5.05 -13.24,-10.2 -19.2,-16.94 33.63,13.69 33.39,8.12 52.24,9.93 3.41,0.32 6.71,1.28 9.46,3.11 2.74,1.83 4.77,5.07 4.43,8.92"
           style="fill:#52191f;fill-opacity:1;fill-rule:nonzero;stroke:none"
           id="path100632" /><path
           d="m 3117.99,3437.98 c 1.04,-7.92 1.89,-15.89 2.05,-23.88 0.07,-3.78 -0.02,-7.57 -0.31,-11.34 -0.07,-0.91 -0.16,-1.83 -0.26,-2.74 l -0.15,-1.41 -0.08,-0.66 -0.04,-0.29 -0.01,-0.07 c -0.26,-1.87 -0.58,-3.74 -0.95,-5.6 -1.61,-7.92 -4.47,-15.48 -7.44,-22.98 -0.75,-1.91 -1.51,-3.83 -2.27,-5.75 -0.36,-0.95 -0.73,-1.9 -1.08,-2.85 -0.39,-1.04 -0.81,-2.04 -0.89,-3.16 -0.09,-1.2 0.4,-2.46 1.33,-3.24 0.79,-0.68 1.73,-1.07 2.71,-1.39 1.41,-0.47 2.85,-0.83 4.29,-1.14 7.42,-1.56 15.15,-1.88 22.7,-1.61 0.97,0.03 1.94,0.08 2.91,0.14 1.04,0.06 2.05,0.87 2,2 -0.04,1.03 -0.88,2.07 -2,2 -3.9,-0.24 -7.8,-0.28 -11.71,-0.12 -1.87,0.07 -3.73,0.19 -5.59,0.37 l -2.65,0.3 -0.16,0.02 -0.09,0.01 -0.61,0.09 -1.35,0.21 c -1.54,0.27 -3.09,0.58 -4.6,0.97 l -2.02,0.6 -0.49,0.17 -0.23,0.08 0.13,-0.06 -0.53,0.29 0.11,-0.1 -0.25,0.24 0.11,-0.13 0.01,-0.06 -0.02,-0.06 v 0.28 l -0.03,-0.1 0.06,0.28 0.24,0.77 c 0.33,0.95 0.7,1.89 1.06,2.83 0.73,1.9 1.48,3.79 2.22,5.68 2.95,7.44 5.9,14.91 7.64,22.74 1.63,7.33 2.31,14.86 2.31,22.36 -0.01,7.82 -0.73,15.61 -1.7,23.35 -0.11,0.99 -0.24,1.98 -0.38,2.96 l -0.58,1.42 -1.41,0.59 c -0.97,-0.05 -2.15,-0.89 -2,-2.01"
           style="fill:#e97d51;fill-opacity:1;fill-rule:nonzero;stroke:none"
           id="path100634" /><path
           d="m 3118.93,3323.49 c 17.21,5.17 51.21,11.53 79.84,17.24 -7.54,-11.66 -17,-22.07 -27.9,-30.67 -5.33,-4.21 -11.29,-8.1 -18.04,-8.91 -7.09,-0.86 -14.28,1.87 -19.96,6.2 -5.69,4.32 -10.06,10.15 -13.94,16.14"
           style="fill:#ffffff;fill-opacity:1;fill-rule:nonzero;stroke:none"
           id="path100636" /><path
           d="m 3157.43,3426.21 c 2.91,-2.84 6.44,-4.92 10.26,-6.29 3.68,-1.32 7.67,-1.91 11.58,-1.8 3.95,0.12 7.89,0.95 11.55,2.45 1.9,0.78 3.74,1.68 5.5,2.75 1.78,1.07 3.47,2.31 5.07,3.64 3.08,2.56 5.77,5.57 8.06,8.86 l 0.79,1.16 0.2,1.54 -0.92,1.19 c -0.99,0.53 -2.12,0.22 -2.73,-0.72 -0.64,-0.97 -1.32,-1.92 -2.03,-2.84 l 0.31,0.4 c -1.71,-2.21 -3.63,-4.27 -5.74,-6.11 l -1.86,-1.53 0.4,0.31 c -2.53,-1.95 -5.29,-3.6 -8.23,-4.85 l 0.48,0.21 c -2.63,-1.11 -5.37,-1.89 -8.2,-2.27 l 0.54,0.07 c -2.72,-0.36 -5.49,-0.36 -8.21,0.01 l 0.54,-0.08 c -2.56,0.35 -5.07,1.02 -7.45,2.02 l 0.48,-0.2 c -2.09,0.87 -4.06,2 -5.85,3.38 l 0.4,-0.31 -2.11,1.83 -1.41,0.59 -1.42,-0.59 v -2.82"
           style="fill:#e97d51;fill-opacity:1;fill-rule:nonzero;stroke:none"
           id="path100638" /><path
           d="m 3058.19,3400.98 c 1.23,-1.41 2.64,-2.65 4.15,-3.74 1.49,-1.07 3.09,-1.9 4.77,-2.6 3.1,-1.3 6.56,-1.88 9.92,-1.73 1.78,0.08 3.57,0.35 5.27,0.81 1.71,0.46 3.37,1.13 4.96,1.92 3.14,1.56 5.99,3.73 8.47,6.2 2.6,2.59 4.86,5.57 6.72,8.73 l 0.68,1.18 0.2,1.55 -0.92,1.19 -1.54,0.2 -1.19,-0.92 c -1.11,-1.99 -2.35,-3.9 -3.74,-5.7 l 0.31,0.4 c -1.49,-1.93 -3.16,-3.74 -5.01,-5.35 l -1.57,-1.3 0.4,0.31 c -1.93,-1.48 -4.02,-2.74 -6.25,-3.69 l 0.48,0.2 c -1.88,-0.79 -3.84,-1.35 -5.86,-1.63 l 0.53,0.07 c -1.95,-0.25 -3.92,-0.25 -5.86,0 l 0.52,-0.06 c -1.89,0.26 -3.75,0.76 -5.51,1.5 l 0.47,-0.2 c -1.71,0.72 -3.32,1.66 -4.78,2.78 l 0.41,-0.31 c -1.16,0.9 -2.24,1.91 -3.19,3.02 l -1.42,0.59 -1.42,-0.59 -0.58,-1.41 0.58,-1.42"
           style="fill:#e97d51;fill-opacity:1;fill-rule:nonzero;stroke:none"
           id="path100640" /><path
           d="m 3228.12,3358.49 c -17.1,0 -30.97,13.87 -30.97,30.98 0,17.1 13.87,30.97 30.97,30.97 17.11,0 30.98,-13.87 30.98,-30.97 0,-17.11 -13.87,-30.98 -30.98,-30.98"
           style="fill:#f79566;fill-opacity:1;fill-rule:nonzero;stroke:none"
           id="path100642" /><path
           d="m 3077.67,3332 c -7.14,4.07 -12.14,11.82 -12.56,20.91 -0.15,3.19 0.27,6.27 1.18,9.12 1.89,-7.07 4.28,-14.34 7.9,-22.6 1.1,-2.5 2.26,-4.98 3.48,-7.43"
           style="fill:#6f1c1e;fill-opacity:1;fill-rule:nonzero;stroke:none"
           id="path100644" /><path
           d="m 3089.21,3328.92 c -4.16,0 -8.1,1.11 -11.54,3.08 -1.22,2.45 -2.38,4.93 -3.48,7.43 -3.62,8.26 -6.01,15.53 -7.9,22.6 3.03,9.55 11.44,16.62 21.65,17.1 0.37,0.02 0.73,0.03 1.09,0.03 8.82,0 16.63,-4.99 20.84,-12.5 -0.44,-1.14 -0.89,-2.27 -1.34,-3.4 -0.36,-0.95 -0.73,-1.9 -1.08,-2.85 -0.39,-1.04 -0.81,-2.04 -0.89,-3.16 -0.09,-1.2 0.4,-2.46 1.33,-3.24 0.79,-0.68 1.73,-1.07 2.71,-1.39 0.82,-0.27 1.66,-0.51 2.5,-0.72 -0.96,-12.39 -10.59,-22.38 -22.8,-22.96 -0.36,-0.01 -0.73,-0.02 -1.09,-0.02 m 23.88,27.14 -1.37,0.4 -0.49,0.17 -0.16,0.05 -0.45,0.25 -0.06,0.06 v 0.12 l -0.03,-0.1 v 0 l 0.06,0.28 0.24,0.77 c 0.33,0.95 0.7,1.89 1.06,2.83 0.07,0.17 0.14,0.34 0.2,0.51 0.51,-1.71 0.85,-3.49 1,-5.34 m -2.53,0.77 v 0.13 l 0.01,-0.01 0.01,-0.06 -0.02,-0.06"
           style="fill:#f79566;fill-opacity:1;fill-rule:nonzero;stroke:none"
           id="path100646" /><path
           d="m 3113.1,3351.9 c -0.84,0.21 -1.68,0.45 -2.5,0.72 -0.98,0.32 -1.92,0.71 -2.71,1.39 -0.93,0.78 -1.42,2.04 -1.33,3.24 0.08,1.12 0.5,2.12 0.89,3.16 0.35,0.95 0.72,1.9 1.08,2.85 0.45,1.13 0.9,2.26 1.34,3.4 0.92,-1.64 1.67,-3.4 2.22,-5.26 -0.06,-0.17 -0.13,-0.34 -0.2,-0.51 -0.36,-0.94 -0.73,-1.88 -1.06,-2.83 l -0.24,-0.77 -0.06,-0.28 v 0 l 0.03,0.1 v -0.12 l 0.06,-0.06 0.45,-0.25 0.16,-0.05 0.49,-0.17 1.37,-0.4 c 0.02,-0.3 0.04,-0.6 0.05,-0.89 0.06,-1.11 0.04,-2.2 -0.04,-3.27 m -1.97,4.75 v 0 m -0.57,0.31 v -0.13 l 0.02,0.06 -0.01,0.06 -0.01,0.01 m 0.15,-0.12 v 0"
           style="fill:#f07547;fill-opacity:1;fill-rule:nonzero;stroke:none"
           id="path100648" /><path
           d="m 3210.02,3671.2 c -6.76,17.76 -6.09,37.52 -3.01,56.27 6.62,40.29 25.22,80.01 57.77,104.64 32.55,24.64 80.33,30.99 114.67,8.92 28.75,-18.48 44,-53.87 43.44,-88.04 -0.55,-34.17 -15.19,-66.95 -35.57,-94.39 -20.37,-27.44 -46.29,-50.2 -72.37,-72.3"
           style="fill:#361721;fill-opacity:1;fill-rule:nonzero;stroke:none"
           id="path100650" /><path
           d="m 3036.04,3619.23 c -14.96,-25.71 -22.43,-55.9 -17.91,-85.18 l 30.13,26.63 c -3.1,-22.91 15.48,-44.01 36.82,-52.91 21.34,-8.91 45.14,-8.94 68.13,-11.39 40.96,-4.36 82.67,-17.89 111.48,-47.33 28.94,-29.58 42.9,-55.47 55.1,-95.01 1.26,-4.09 3.95,-12.77 8.19,-13.31 2.77,-0.36 16.12,21.13 17.32,23.66 16.79,35.23 19.46,34.99 31.88,62.58 l 0.51,1.17 c -26.66,41.39 -36.97,102.25 -92.59,158.16 -69.07,69.43 -192.96,47.62 -249.06,32.93"
           style="fill:#361721;fill-opacity:1;fill-rule:nonzero;stroke:none"
           id="path100652" /><path
           d="m 3407.14,3573.09 c -3.77,40.91 -16.96,83.25 -47.81,110.37 -23.89,20.99 -55.85,30.63 -87.44,34.28 -47.58,5.5 -96.57,-1.51 -140.7,-20.14 -32.91,-13.89 -63.55,-34.59 -85.13,-63.05 -3.68,-4.86 -6.95,-10.03 -10.02,-15.32 56.1,14.69 179.99,36.5 249.06,-32.93 55.62,-55.91 65.93,-116.77 92.59,-158.16 24.61,54.87 34.58,89.19 29.45,144.95"
           style="fill:#52191f;fill-opacity:1;fill-rule:nonzero;stroke:none"
           id="path100654" /><path
           d="m 3274.89,3410.05 c 2.19,32.16 3.69,46.3 24.25,59.4 4.52,2.89 15.75,4.68 20.92,3.19 4.32,-1.23 7.47,-5.16 8.86,-9.44 1.38,-4.27 1.26,-8.87 0.87,-13.35 -1.68,-20.11 -8.31,-39.8 -19.13,-56.84 -2.52,-3.99 -5.35,-7.9 -9.19,-10.65 -3.83,-2.75 -8.86,-4.18 -13.36,-2.75 -5.58,1.77 -9.08,7.43 -10.55,13.1 -1.49,5.66 -1.45,11.61 -2.67,17.34"
           style="fill:#f8a677;fill-opacity:1;fill-rule:nonzero;stroke:none"
           id="path100656" /><path
           d="m 3277.22,3415.92 c 1.08,16.03 1.83,23.07 12.08,29.6 2.25,1.44 7.85,2.33 10.42,1.59 2.15,-0.62 3.72,-2.57 4.41,-4.7 0.68,-2.13 0.63,-4.43 0.44,-6.66 -0.84,-10.02 -4.14,-19.82 -9.53,-28.31 -1.26,-1.99 -2.67,-3.94 -4.58,-5.31 -1.92,-1.37 -4.42,-2.08 -6.66,-1.37 -2.78,0.88 -4.52,3.7 -5.26,6.53 -0.74,2.82 -0.72,5.78 -1.32,8.63"
           style="fill:#f59363;fill-opacity:1;fill-rule:nonzero;stroke:none"
           id="path100658" /><path
           d="m 3617.46,2483.9 c -14.4,94.76 -6.44,191.3 -7.13,287.15 -0.73,103.89 -11.66,207.41 -23.04,310.68 -2.77,25.06 -6.65,52.38 -25.09,69.56 -20.45,19.06 -51.6,19.15 -79.53,18.12 -10.47,-0.39 -16.12,0.09 -21.77,0.57 -5.64,0.47 -11.29,0.95 -21.75,0.56 -9.37,-0.34 -27.12,-0.04 -35.47,4.23 -18.53,9.46 -20.67,17.27 -27.88,10.98 -47.52,-41.52 -126.64,-71.12 -178.04,-34.5 -6.76,-2.49 -14.04,-5.42 -21.49,-8.56 -183.51,-21.93 -316.01,-22.86 -417.96,-59.31 -17.42,-6.23 -34.91,-13.53 -48.66,-25.91 -11.37,-10.25 -19.67,-23.61 -25.33,-37.84 -7.78,-19.55 -15.99,-49.68 7.48,-90.02 10.06,-17.31 22.67,-16.69 38.51,-16.07 8.51,0.34 17.97,0.67 28.46,-1.78 91.08,-21.33 186.06,-25.55 278.75,-12.9 -14.31,-320.34 37.74,-552.91 12.34,-839.09 -1.39,-15.71 -1,-35.41 13.2,-42.3 4.6,-2.24 9.87,-2.55 14.99,-2.81 161.26,-8.58 322.53,-17.14 483.79,-25.71 47.62,-2.53 97.15,-4.75 141.12,13.74 5.98,2.51 12.14,5.7 15.35,11.32 2.66,4.66 2.87,10.28 2.92,15.64 1.43,155.84 -80.34,300.16 -103.77,454.25"
           style="fill:#f8cdc0;fill-opacity:1;fill-rule:nonzero;stroke:none"
           id="path100660" /><path
           d="m 3529.36,2680.38 c -17.25,31.31 -35.89,61.84 -55.86,91.47 3.96,50.97 7.93,101.95 11.89,152.92 3.86,49.52 7.76,99.37 20.62,147.35 0.51,1.92 1.03,3.86 1.56,5.83 l 6.25,14.45 c -12.55,-83.47 0.93,-168.53 10.32,-252.53 5.9,-52.74 10.02,-106.85 5.22,-159.49 m -15.54,412.02 c 0.27,1.79 0.55,3.59 0.85,5.38 0.59,3.58 1.25,7.2 2,10.8 5.96,17.44 13.62,34.42 24.69,47.49 l -27.54,-63.67"
           style="fill:#f3c3b6;fill-opacity:1;fill-rule:nonzero;stroke:none"
           id="path100662" /><path
           d="m 3055.76,2600.05 c 4.15,63.79 31.11,125.57 61.35,182.71 8.78,16.6 18.3,33.48 31.07,46.98 0.53,-7.76 1.09,-15.51 1.62,-23.27 -6.46,-4.47 -10.32,-12.18 -13.5,-19.57 -25.05,-58.07 -50.09,-116.13 -75.14,-174.2 -1.81,-4.21 -3.63,-8.42 -5.4,-12.65 m 237.51,205.72 c -39.47,1.52 -78.93,3.04 -118.39,4.56 -0.86,12.63 -1.7,25.25 -2.51,37.88 27.12,14.06 60.1,13.45 91.09,13.73 17.14,0.16 34.28,0.76 51.39,1.79 -6.25,-19.65 -13.46,-39.01 -21.58,-57.96"
           style="fill:#f3c3b6;fill-opacity:1;fill-rule:nonzero;stroke:none"
           id="path100664" /><path
           d="m 2712.46,2989.91 c 17.32,30.39 50.12,37.51 79.39,37.06 31.42,-0.49 63.61,-7.26 90.62,-27.93 8.03,-6.15 15.98,-14.3 18.53,-25.87 4.5,-20.39 -9.38,-39.39 -22.59,-52.03 -21.19,-20.28 -44.21,-37.39 -68.45,-50.92"
           style="fill:#edbaad;fill-opacity:1;fill-rule:nonzero;stroke:none"
           id="path100666" /><path
           d="m 3597.96,2536.52 c -15.59,36.74 -31.91,73.18 -50,108.75 -22.78,44.76 -48.35,88.1 -76.54,129.66 -4.91,7.23 -10.1,14.62 -17.55,19.19 -9.22,5.67 -20.59,6.24 -31.41,6.66 -82.52,3.19 -165.05,6.37 -247.58,9.55 -1.96,28.87 -3.85,57.74 -5.42,86.63 -2.65,48.85 -4.49,97.76 -4.69,146.69 -0.12,27.45 0.28,54.9 1.33,82.33 0.26,6.64 -6.01,12.98 -12.68,12.69 -7.09,-0.32 -12.41,-5.57 -12.69,-12.69 -1.87,-48.88 -1.68,-97.82 -0.19,-146.7 1.48,-48.93 4.25,-97.81 7.45,-146.65 0.57,-8.72 1.22,-17.44 1.81,-26.16 -6.46,-4.47 -10.32,-12.18 -13.5,-19.57 -25.05,-58.07 -50.09,-116.13 -75.14,-174.2 -5.95,-13.8 -11.93,-27.66 -16.04,-42.12 -4.48,-15.76 -6.7,-32.06 -8.67,-48.32 -18.93,-155.57 -17.05,-313.28 -26.29,-469.63 425.45,-120.64 552.75,269.73 590.08,478.33 -0.78,1.85 -1.49,3.72 -2.28,5.56"
           style="fill:#f46d34;fill-opacity:1;fill-rule:nonzero;stroke:none"
           id="path100668" /><path
           d="m 3546.54,3161.64 c -32.86,44.54 -106.35,36.44 -127.13,16.86 -20.78,-19.59 -33.5,-46.2 -43.3,-73.02 -26.73,-73.24 -34.86,-151.91 -56.69,-226.76 -18.74,-64.3 -47.63,-125.62 -85.29,-181.01 8.13,-12.91 25.69,-15.64 40.94,-15.07 15.23,0.56 31.46,2.93 44.96,-4.18 8.82,-4.65 15.22,-12.79 23.29,-18.65 8.08,-5.85 19.78,-9.11 27.71,-3.06 4.25,3.24 6.47,8.47 10.09,12.42 10.23,11.17 28.54,9.28 42.34,3.04 13.79,-6.25 26.37,-15.98 41.33,-18.32 2.6,-0.4 5.53,-0.49 7.58,1.16 3.03,2.44 2.52,7.1 1.84,10.94 -6.19,34.71 -3.48,70.33 -0.74,105.49 3.97,51.09 7.95,102.19 11.92,153.29 3.86,49.52 7.76,99.37 20.62,147.35 8.13,30.37 18.03,67.57 40.53,89.52"
           style="fill:#f9ac19;fill-opacity:1;fill-rule:nonzero;stroke:none"
           id="path100670" /><path
           d="m 3325.54,2709.54 c -1.08,0 -2.13,0.18 -3.06,0.7 -4.18,2.33 -2.72,8.62 -0.68,12.94 10.18,21.66 20.85,43.18 28.32,65.92 8.7,26.49 12.92,54.2 18.19,81.58 17.33,89.97 46.48,177.66 86.43,260.12 7.31,15.1 27.59,47.34 43.59,56.88 -15.66,-18.27 -24.29,-39.22 -33.19,-63.54 -43.02,-117.35 -50.78,-247.5 -93.83,-364.85 -7.9,-21.55 -20.58,-45.33 -43.16,-49.47 -0.85,-0.16 -1.74,-0.28 -2.61,-0.28"
           style="fill:#f6a312;fill-opacity:1;fill-rule:nonzero;stroke:none"
           id="path100672" /><path
           d="m 3426.62,2720.33 c -8.19,28.58 -5.15,59.03 -1.78,88.57 7.03,61.76 15.15,123.4 24.34,184.87 2.24,14.94 5.1,30.99 15.96,41.48 -26.21,-89.08 -7.1,-195.09 -24.49,-286.31 -2.03,-10.71 -5.13,-22.31 -14.03,-28.61"
           style="fill:#f6a312;fill-opacity:1;fill-rule:nonzero;stroke:none"
           id="path100674" /><path
           d="m 2875.16,2662.28 c 17.52,-21.92 35.27,-43.64 53.27,-65.16 18,-21.51 36.23,-42.83 54.7,-63.95 19.1,-21.84 38.4,-43.49 57.97,-64.92 18.93,-20.7 38.08,-41.2 57.45,-61.49 19.38,-20.29 38.98,-40.35 58.8,-60.21 2.41,-2.42 4.83,-4.83 7.24,-7.23 2.64,-2.63 7.28,-3.96 10.89,-3.73 3.68,0.23 7.97,2.13 10.33,5.05 2.44,3.03 4.16,6.91 3.73,10.89 -0.45,4.11 -2.13,7.41 -5.07,10.34 -23.42,23.34 -46.54,46.98 -69.34,70.92 -22.67,23.78 -45.02,47.86 -67.05,72.23 -12.45,13.76 -24.81,27.62 -37.05,41.56 0.85,-0.96 1.68,-1.93 2.53,-2.89 -15.13,17.23 -30.11,34.6 -44.93,52.1 -14.82,17.5 -29.48,35.13 -43.98,52.9 -8.23,10.07 -16.42,20.2 -24.54,30.36 -2.49,3.11 -5.38,5.5 -9.4,6.33 -3.65,0.76 -8.41,0.02 -11.47,-2.24 -3.07,-2.27 -5.7,-5.52 -6.33,-9.4 -0.62,-3.8 -0.25,-8.34 2.25,-11.46"
           style="fill:#071016;fill-opacity:1;fill-rule:nonzero;stroke:none"
           id="path100676" /><path
           d="m 2824.05,3000.16 c -39.36,34.4 -85.44,27.3 -113.78,-16.38 -9.51,-14.64 -13.61,-30.39 -11.91,-49.73 3.29,-37.31 39.06,-65.59 63.82,-83.98 37.37,-27.77 68.72,-55.01 102.2,-90.89 14.26,-15.29 52.97,-64.1 54.43,-88.17 1.8,-29.91 -45.02,-49.62 -42.6,-79.49 1.64,-20.19 4,-24.95 15.9,-37.98 11.89,-13.02 13.74,-27.3 22.69,-44.02 12.38,-23.09 29.69,-28.12 49.38,-38.15 14.37,-7.32 32.23,-3.83 41.8,11.52 9.56,15.36 11.65,15.86 17.96,34.09 6.62,19.14 15.02,37.24 19.54,57.56 9.36,42.18 0.64,89.51 -16.09,128.75 -16.74,39.23 -40.85,71.91 -64.65,104.04 -41.28,55.76 -97.4,137.08 -138.69,192.83"
           style="fill:#f8a677;fill-opacity:1;fill-rule:nonzero;stroke:none"
           id="path100678" /><path
           d="m 3421.69,2416.03 c -2.81,3.35 -7.11,5.56 -12,5.56 h -448.33 c -5.27,0 -9.53,-4.03 -9.53,-8.99 v -78.48 c 0,-32.73 7.68,-63.76 21.34,-91.63 306.63,-125.81 415.29,76.74 448.52,173.54"
           style="fill:#8bd8df;fill-opacity:1;fill-rule:nonzero;stroke:none"
           id="path100680" /><path
           d="m 2973.17,2242.49 c 36.7,-74.84 116.9,-126.79 209.98,-126.79 h 20.65 c 122.17,0 221.22,93.53 221.22,208.89 v 82.53 c 0,3.37 -1.28,6.43 -3.33,8.91 -33.23,-96.8 -141.89,-299.35 -448.52,-173.54"
           style="fill:#74d1d1;fill-opacity:1;fill-rule:nonzero;stroke:none"
           id="path100682" /><path
           d="m 3546.54,3161.65 c 37.95,2.01 80.9,-36.72 108.24,-59.83 72.76,-61.51 118.05,-143.09 161.89,-222.87 16.69,-30.39 33.39,-60.78 49.44,-91.43 17.77,-33.9 35.03,-69.18 36.26,-106.46 1.06,-32.07 -9.91,-63.58 -24.07,-93.18 -70.03,-146.36 -214.83,-253.37 -354.56,-354.53 -4.62,-3.34 -10.19,-6.9 -16.04,-5.74 -3.42,0.68 -6.14,2.88 -8.69,4.99 -23.46,19.49 -46.93,38.98 -70.4,58.47 -5.45,4.54 -11.29,9.79 -11.44,16.36 -0.14,5.6 3.93,10.52 7.85,14.93 66.91,75.53 144.93,143.17 210.79,219.4 12.42,14.38 24.68,29.55 29.4,47.09 7.95,29.46 -6.47,59.55 -19.37,87.63 -64.23,139.9 -100.13,334.41 -99.3,485.17"
           style="fill:#f8cdc0;fill-opacity:1;fill-rule:nonzero;stroke:none"
           id="path100684" /><path
           d="m 3637.57,2543.81 c 1.57,2.64 3.65,5.03 5.63,7.4 8.55,10.21 16.24,21.64 20.92,34.01 -5.07,-15.21 -15.61,-28.65 -26.55,-41.41 m 23.47,96.67 c -1.05,2.75 -2.11,5.57 -3.13,8.5 0,0.02 -0.01,0.03 -0.01,0.04 1.11,-2.84 2.17,-5.68 3.14,-8.54 m -18.2,42.63 c -1.65,3.46 -3.58,7.8 -6.01,13.79 1.97,-4.66 3.97,-9.24 6.01,-13.79"
           style="fill:#e0dad8;fill-opacity:1;fill-rule:nonzero;stroke:none"
           id="path100686" /><path
           d="m 3687.43,2500.91 c -14.78,0 -29,3.44 -40.54,12.54 -7.98,6.32 -14.32,16.73 -11.15,26.4 0.46,1.39 1.09,2.7 1.83,3.96 10.94,12.76 21.48,26.2 26.55,41.41 2.51,6.65 4.15,13.56 4.59,20.7 0.79,12.82 -3.31,23.15 -7.67,34.56 -0.97,2.86 -2.03,5.7 -3.14,8.54 -7.23,20.85 -9.48,22.34 -15.06,34.09 -2.04,4.55 -4.04,9.13 -6.01,13.79 -0.03,0.06 -0.06,0.13 -0.08,0.2 17.94,14.05 44.4,34.13 65.91,41.66 9,3.16 18.74,4.95 28.34,4.95 13.31,0 26.38,-3.43 36.97,-11.38 4.88,-3.68 9.28,-8.5 10.7,-14.45 3.57,-14.88 -11.88,-27.05 -16.7,-41.57 -5.1,-15.36 2.26,-32 11.21,-45.49 8.95,-13.49 19.93,-26.4 23.19,-42.26 3.93,-19.19 -4.72,-39.42 -18.62,-53.23 -13.9,-13.81 -32.4,-22.03 -51.12,-27.83 -12.48,-3.87 -26.06,-6.59 -39.2,-6.59"
           style="fill:#f3c3b6;fill-opacity:1;fill-rule:nonzero;stroke:none"
           id="path100688" /><path
           d="m 3428.61,2291.07 c 0,0 -112.17,-70.82 -130.07,-108.25 -17.88,-37.44 -28.92,-65.23 -9.15,-65.23 19.78,0 42.58,-3.77 56.52,-1.89 13.93,1.89 33.38,1.89 44.43,1.89 11.06,0 26.83,5.62 26.83,5.62 0,0 39.4,91.62 64.2,124.05"
           style="fill:#f8a677;fill-opacity:1;fill-rule:nonzero;stroke:none"
           id="path100690" /><path
           d="M 725.18,3784.97 H 518.445 c -25.355,0 -45.906,20.55 -45.906,45.9 0,25.36 20.551,45.91 45.906,45.91 h 280.231 c -25.594,-29.77 -50.106,-60.41 -73.496,-91.81"
           style="fill:#b6e7ea;fill-opacity:1;fill-rule:nonzero;stroke:none"
           id="path100692" /><path
           d="m 1596.1,3784.97 h -203.3 c 0,9.86 0,19.72 0,29.59 0,10.65 -8.28,15.98 -16.56,15.98 -8.27,0 -16.53,-5.32 -16.53,-15.98 0,-9.86 0,-19.74 0,-29.59 H 725.18 c 23.39,31.4 47.902,62.04 73.496,91.81 h 965.804 c 25.35,0 45.91,-20.55 45.91,-45.91 0,-14.5 -6.73,-27.43 -17.23,-35.84 -24.33,0.57 -48.5,6.47 -72.55,10.96 -15.23,2.85 -30.93,5.07 -46.41,5.07 -7.37,0 -14.69,-0.5 -21.89,-1.68 -1,-0.15 -1.93,-0.23 -3.02,-0.46 l -2.45,-0.61 c -2.16,-0.47 -4.3,-1.01 -6.42,-1.61 -18.96,-5.17 -33.43,-13.22 -44.32,-21.73"
           style="fill:#afe5ea;fill-opacity:1;fill-rule:nonzero;stroke:none"
           id="path100694" /><path
           d="m 931.566,3085.32 142.484,140.39 c 4.91,4.83 12.99,3.7 16.41,-2.28 14.69,-25.67 41.14,-90.98 -24.43,-151.24 0,0 -49.92,-57.24 -132.608,-3.52 -5.762,3.74 -6.746,11.83 -1.856,16.65"
           style="fill:#86d7df;fill-opacity:1;fill-rule:nonzero;stroke:none"
           id="path100696" /><path
           d="m 1089.47,3204.75 c 0,177.9 0,355.8 0,533.69 0,25.37 0,50.74 0,76.12 0,14.19 -22.06,14.21 -22.06,0 0,-177.9 0,-355.8 0,-533.7 0,-25.37 0,-50.74 0,-76.11 0,-14.2 22.06,-14.22 22.06,0"
           style="fill:#86d7df;fill-opacity:1;fill-rule:nonzero;stroke:none"
           id="path100698" /><path
           d="m 657.922,3275.68 142.476,140.39 c 4.911,4.84 12.997,3.71 16.415,-2.27 14.691,-25.67 41.14,-90.98 -24.434,-151.24 0,0 -49.922,-57.25 -132.606,-3.53 -5.757,3.75 -6.75,11.83 -1.851,16.65"
           style="fill:#86d7df;fill-opacity:1;fill-rule:nonzero;stroke:none"
           id="path100700" /><path
           d="m 815.82,3319.8 c 0,153.44 0,306.88 0,460.32 0,21.88 0,43.77 0,65.65 0,12.24 -22.058,12.26 -22.058,0 0,-153.44 0,-306.88 0,-460.32 0,-21.89 0,-43.77 0,-65.65 0,-12.25 22.058,-12.27 22.058,0"
           style="fill:#86d7df;fill-opacity:1;fill-rule:nonzero;stroke:none"
           id="path100702" /><path
           d="m 1392.8,3204.75 c 0,177.9 0,355.8 0,533.69 0,25.37 0,50.74 0,76.12 0,21.29 -33.09,21.32 -33.09,0 0,-177.9 0,-355.8 0,-533.7 0,-25.37 0,-50.74 0,-76.11 0,-21.29 33.09,-21.33 33.09,0"
           style="fill:#86d7df;fill-opacity:1;fill-rule:nonzero;stroke:none"
           id="path100704" /><path
           d="m 1585.82,3286.69 c 0,-115.75 -93.82,-209.58 -209.56,-209.58 -115.75,0 -209.58,93.83 -209.58,209.58 0,115.74 93.83,209.57 209.58,209.57 115.74,0 209.56,-93.83 209.56,-209.57"
           style="fill:#86d7df;fill-opacity:1;fill-rule:nonzero;stroke:none"
           id="path100706" /><path
           d="m 1511.59,3286.69 c 0,-74.75 -60.59,-135.34 -135.33,-135.34 -74.75,0 -135.34,60.59 -135.34,135.34 0,74.74 60.59,135.34 135.34,135.34 74.74,0 135.33,-60.6 135.33,-135.34"
           style="fill:#74d0d3;fill-opacity:1;fill-rule:nonzero;stroke:none"
           id="path100708" /><path
           d="m 2597.1,2263.51 c -1.96,0.68 -3.98,1.2 -6.05,1.48 -29.12,3.92 -58.19,-5.74 -82.91,-21.04 -7.07,-4.38 -13.79,-9.23 -20.31,-14.37 3.22,5.03 5.99,10.35 8.23,15.89 0.88,2.17 1.69,4.55 1,6.78 -1.35,4.38 -7.21,5.16 -11.75,4.57 -20.73,-2.72 -38.22,-16.66 -52.44,-31.98 -14.23,-15.3 -26.52,-32.62 -42.95,-45.53 l 1.22,-8.91 c 156.18,13.56 195.92,67.32 205.96,93.11"
           style="fill:#93d44d;fill-opacity:1;fill-rule:nonzero;stroke:none"
           id="path100710" /><path
           d="m 2610.03,2253.84 c -3.05,4.65 -7.72,7.85 -12.93,9.67 -10.04,-25.79 -49.78,-79.55 -205.96,-93.11 l 1.19,-8.66 c 39.69,1.42 79.43,1.44 119.13,0.06 15.4,-0.54 32.21,-0.76 46.15,4.64 9.28,3.61 9.3,17.08 0,20.64 -2.88,1.1 -5.88,1.9 -8.94,2.4 19.37,5.94 37.39,16.29 51.97,30.36 9.15,8.83 17.63,21.4 9.39,34"
           style="fill:#88c539;fill-opacity:1;fill-rule:nonzero;stroke:none"
           id="path100712" /><path
           d="m 2408.11,2228.13 c -2.67,1.36 -5.5,2.25 -8.4,2.87 2.73,-13.83 -1.15,-29.04 -10.93,-39.28 -11.48,-12 -28.57,-16.44 -44.77,-20.09 -57.59,-12.96 -116.09,-22.67 -175.09,-24.72 -10.41,-0.36 -21.3,-0.29 -31.6,1.49 l -0.04,-1.11 c 0.22,-2.67 1.8,-5.04 3.56,-7.06 14.07,-16.14 38.78,-15.87 60.13,-14.3 43.6,2.88 92.06,13.85 135.65,16.72 16.91,1.11 34.1,2.28 49.99,8.18 15.89,5.89 30.59,17.29 36.37,33.21 5.78,15.94 0.23,36.37 -14.87,44.09"
           style="fill:#f29f14;fill-opacity:1;fill-rule:nonzero;stroke:none"
           id="path100714" /><path
           d="m 2344.01,2171.63 c 16.2,3.65 33.29,8.09 44.77,20.09 9.78,10.24 13.66,25.45 10.93,39.28 -6.48,1.36 -13.39,1.2 -20.06,0.75 -68.28,-4.6 -133.18,-30.1 -196.81,-55.3 -12.5,-4.96 -25.08,-9.94 -36.56,-16.95 -4.22,-2.59 -8.68,-6.33 -8.96,-11.1 10.3,-1.78 21.19,-1.85 31.6,-1.49 59,2.05 117.5,11.76 175.09,24.72"
           style="fill:#f9ac19;fill-opacity:1;fill-rule:nonzero;stroke:none"
           id="path100716" /><path
           d="m 2908.73,2218.26 c -2.48,1.33 -5.08,2.45 -7.79,3.25 -38.2,11.33 -79.16,4.46 -115.48,-10.89 -10.37,-4.39 -20.4,-9.5 -30.21,-15.01 5.37,6.07 10.19,12.61 14.35,19.58 1.63,2.7 3.21,5.74 2.75,8.86 -0.9,6.15 -8.58,8.42 -14.79,8.58 -28.33,0.67 -54.68,-14.36 -76.93,-31.9 -22.25,-17.55 -42.33,-38.19 -67.04,-52.07 l -0.22,-12.18 c 212.08,-14.41 276.53,49.33 295.36,81.78"
           style="fill:#93d44d;fill-opacity:1;fill-rule:nonzero;stroke:none"
           id="path100718" /><path
           d="m 2924.03,2202.62 c -3.1,6.86 -8.69,12.13 -15.3,15.64 -18.83,-32.45 -83.28,-96.19 -295.36,-81.78 l -0.22,-11.85 c 53.48,-6.37 106.73,-14.63 159.62,-24.77 20.52,-3.93 43,-7.73 62.8,-3.4 13.21,2.89 16.04,20.93 4.31,27.65 -3.62,2.08 -7.48,3.78 -11.46,5.08 27.18,3.92 53.48,14.02 75.95,29.84 14.09,9.92 28.09,24.98 19.66,43.59"
           style="fill:#88c539;fill-opacity:1;fill-rule:nonzero;stroke:none"
           id="path100720" /><path
           d="m 2648.14,2210.28 c -3.29,2.39 -6.89,4.17 -10.65,5.6 0.77,-19.09 -7.6,-38.66 -22.84,-50.33 -17.87,-13.7 -41.7,-16.08 -64.17,-17.58 -79.86,-5.35 -160.27,-6.17 -239.74,3.4 -14.02,1.68 -28.6,4.04 -42.02,8.57 l -0.29,-1.47 c -0.27,-3.63 1.35,-7.13 3.29,-10.21 15.49,-24.55 48.65,-29.34 77.59,-31.7 59.01,-5.23 126.22,-0.65 185.22,-5.89 22.89,-2.04 46.17,-4.05 68.69,0.53 22.52,4.58 44.58,16.78 55.65,36.92 11.06,20.14 7.89,48.68 -10.73,62.16"
           style="fill:#f29f14;fill-opacity:1;fill-rule:nonzero;stroke:none"
           id="path100722" /><path
           d="m 2550.48,2147.97 c 22.47,1.5 46.3,3.88 64.17,17.58 15.24,11.67 23.61,31.24 22.84,50.33 -8.4,3.18 -17.69,4.41 -26.72,5.19 -92.44,8.08 -184.72,-12.54 -275.22,-33.04 -17.79,-4.03 -35.68,-8.08 -52.51,-15.08 -6.21,-2.58 -12.95,-6.66 -14.32,-13.01 13.42,-4.53 28,-6.89 42.02,-8.57 79.47,-9.57 159.88,-8.75 239.74,-3.4"
           style="fill:#f9ac19;fill-opacity:1;fill-rule:nonzero;stroke:none"
           id="path100724" /><path
           d="m 2273.65,2117.59 h -134.33 c -1.45,0.9 -2.84,1.92 -4.18,3.04 -11.55,2.58 -22.93,6.1 -34.31,9.42 -15.71,4.59 -31.57,8.58 -47.5,12.32 l 4.1,-24.78 h -711.05 c -0.92,0.46 -1.84,0.93 -2.75,1.4 -12.31,6.36 -24.46,13.55 -33.85,23.73 -8.22,8.93 -13.67,19.85 -16.71,31.52 -4.57,17.51 -3.58,36.76 2.74,53.83 4.72,12.73 12.33,24.78 23.51,32.52 10.44,7.22 23.11,10.09 35.93,10.09 6.32,0 12.68,-0.7 18.82,-1.91 1.87,-0.37 3.67,-1.02 5.52,-1.47 7.24,-0.17 14.42,-1.16 21.46,-2.9 0.25,27.53 0.51,55.06 0.77,82.6 -79.42,34.54 -170.49,88.66 -236.65,171.02 -6.86,8.53 -9.98,19.43 -8.36,30.25 11.37,75.75 62.86,396.22 140.25,537.71 l 0.42,0.58 c 0.72,1.71 1.45,3.38 2.21,4.98 23.71,-9.31 49.54,-14.43 76.57,-14.43 71.32,0 134.33,35.64 172.18,90.08 28.89,-7.68 58.77,-11.6 88.66,-11.6 19.74,0 39.48,1.71 58.93,5.18 -16.08,38.55 -32.25,77.4 -40.6,118.33 -0.12,0.62 -0.25,1.24 -0.37,1.86 0.23,-0.06 0.45,-0.11 0.68,-0.17 0,0 -4.49,17.67 -5.79,43.22 -0.76,21.81 1.42,43.62 7.6,64.36 10.46,15.76 19.43,33.97 26.89,48.16 10.51,19.98 16.28,41.25 18.55,63.1 5.16,1.3 9.89,4.53 13.7,8.34 17.99,17.95 19.12,46.48 16.55,71.76 -0.84,8.36 -2.52,17.66 -9.36,22.55 -3.04,2.16 -6.71,3.1 -10.45,3.1 -2.97,0 -5.98,-0.59 -8.74,-1.62 -3.74,-1.4 -7.21,-3.41 -10.45,-5.77 -0.55,2.29 -1.12,4.57 -1.71,6.84 -14.59,56.46 -41.81,107.5 -98.28,122.04 -13.96,3.6 -28.3,5.03 -42.72,5.03 -10.84,0 -21.73,-0.81 -32.54,-2.12 3.5,3.25 7.4,6.28 11.73,8.88 l 15.85,6.8 c 5.25,1.44 10.97,2.25 17.16,2.25 0.84,0 1.7,-0.02 2.56,-0.05 0,0 1.14,3.1 3.93,7.95 l 3.39,1.46 c -0.95,-0.18 -1.9,-0.35 -2.85,-0.53 4.37,7.36 12.29,18.22 25.34,28.43 h 168.38 c 10.85,0 20.82,3.76 28.68,10.06 1.28,-0.03 2.55,-0.05 3.83,-0.05 3.8,0 7.62,0.14 11.43,0.44 22.81,1.82 44.9,9.53 65.04,20.4 3.6,1.94 7.77,4 11.66,4 1.62,0 3.19,-0.36 4.65,-1.23 4.15,-2.46 5.24,-7.86 5.93,-12.63 1.85,-12.79 3.66,-25.76 5.02,-38.79 3.92,-37.67 3.92,-75.65 -10.88,-109.99 -11.6,-26.94 -31.91,-48.89 -56.59,-64.65 1.74,-0.5 3.4,-1.22 4.9,-2.29 6.83,-4.88 8.52,-14.19 9.36,-22.55 2.57,-25.27 1.44,-53.8 -16.54,-71.75 -3.83,-3.82 -8.57,-7.05 -13.75,-8.35 -2.27,-21.84 -8,-43.12 -18.51,-63.09 -7.43,-14.14 -16.37,-32.24 -26.79,-47.97 -6.89,-23.04 -8.77,-47.39 -7.22,-71.61 1.66,-21.66 5.31,-36.16 5.31,-36.16 l -0.64,0.17 0.34,-1.86 c 0.95,-4.7 2.04,-9.36 3.19,-14 74.59,-19.92 95.99,-37.24 165.24,-56.9 l 1.83,1.62 c 2.37,1.76 5.31,2.46 8.22,2.46 0.85,0 1.69,-0.06 2.52,-0.17 3.64,-0.49 7.46,-3.17 9.49,-6.16 0.79,-1.17 1.45,-2.71 1.92,-4.34 16.75,-4.63 33.34,-9.86 48.69,-17.93 5.93,-3.12 11.75,-6.89 16.82,-11.34 l 0.01,0.05 c 44.06,-32.36 52.29,-95.15 65.77,-156.93 30.13,-138.06 53.44,-278.91 94.31,-412.56 8.94,-29.22 18.71,-58.06 26.93,-87.61 15.73,-56.47 25.71,-115.16 35.65,-173.66 6.82,-40.18 13.67,-80.61 18.17,-121.28 -28.91,-9.45 -57.4,-20.69 -85.63,-31.87 -12.5,-4.96 -25.08,-9.94 -36.56,-16.95 -4.22,-2.59 -8.68,-6.33 -8.96,-11.1 v 0 l -0.04,-1.11 c 0.22,-2.67 1.8,-5.04 3.56,-7.06 10.59,-12.15 27.21,-15 43.88,-15 5.48,0 10.97,0.31 16.25,0.7 23.29,1.54 47.97,5.38 72.55,9.07 0.12,-5.8 0.17,-11.6 0.13,-17.41 m -266.39,494.02 c -0.85,-9.41 -1.81,-18.82 -2.81,-28.22 -1.06,-49.75 -0.99,-99.5 0.68,-149.17 l 38.54,-233.34 c 22.89,-7.66 45.74,-15.42 68.49,-23.49 -24.12,95.55 -48.24,191.11 -72.36,286.65 -12.29,48.69 -24.49,97.53 -32.54,147.57 m -652.08,24.68 c -1.4,-5.97 -2.63,-11.55 -3.68,-16.62 -0.77,-11.49 0.28,-23.11 3,-34.32 8.57,-11.24 25.32,-24.63 46.68,-39.51 -2.04,66.37 -6.92,132.46 -17.82,197.41 -7.62,-27.12 -17.04,-61.49 -24.26,-90.68 0.8,1.95 1.61,3.9 2.54,5.8 l -5.8,-22.31 -0.66,0.23 m 417.73,616.72 c 0.55,-2.21 1.17,-4.4 1.76,-6.6 -0.2,3.68 -1.64,6.39 -1.76,6.6 m 386.77,-1106.27 v 0 c 0.01,0 0.02,0 0.03,0 -0.01,0 -0.02,0 -0.03,0 m 0,0 c -7.38,0 -14.83,0.39 -22.01,1.6 7.18,-1.21 14.63,-1.6 22.01,-1.6 m -22.02,1.6 c -0.11,0.02 -0.22,0.04 -0.34,0.06 0.12,-0.02 0.23,-0.04 0.34,-0.06"
           style="fill:#daf3f8;fill-opacity:1;fill-rule:nonzero;stroke:none"
           id="path100726" /><path
           d="M 1764.48,3784.97 H 1596.1 c 10.89,8.51 25.36,16.56 44.32,21.73 2.12,0.6 4.26,1.14 6.42,1.61 l 2.45,0.61 c 1.09,0.23 2.02,0.31 3.02,0.46 7.2,1.18 14.52,1.68 21.89,1.68 15.48,0 31.18,-2.22 46.41,-5.07 24.05,-4.49 48.22,-10.39 72.55,-10.96 -7.86,-6.3 -17.83,-10.06 -28.68,-10.06"
           style="fill:#b5e6ec;fill-opacity:1;fill-rule:nonzero;stroke:none"
           id="path100728" /><path
           d="m 1376.26,3077.11 c -27.03,0 -52.86,5.12 -76.57,14.43 2.5,5.33 5.2,9.86 7.9,12.31 17.23,15.67 41.97,31.74 70.42,47.51 39.15,0.5 74.29,17.62 98.69,44.63 0.99,-1.12 2.44,-1.95 3.8,-2.66 21.61,-11.15 44.45,-19.89 67.94,-26.14 -37.85,-54.44 -100.86,-90.08 -172.18,-90.08"
           style="fill:#9bdee6;fill-opacity:1;fill-rule:nonzero;stroke:none"
           id="path100730" /><path
           d="m 1378.01,3151.36 c 14.65,8.13 30.3,16.19 46.41,24.07 l -0.23,1.19 c -0.69,2.58 -0.69,5.16 0,7.74 0.49,1.16 0.98,2.32 1.47,3.48 1.78,3.37 5.17,5.55 8.7,6.7 1.12,0.36 2.35,0.52 3.61,0.52 2.68,0 5.49,-0.75 7.61,-1.99 1.83,-1.07 3.77,-2.99 5.12,-5.11 8.23,3.84 16.51,7.62 24.77,11.33 -0.02,-0.34 0,-0.68 0.06,-1.02 0.16,-0.88 0.59,-1.63 1.17,-2.28 -24.4,-27.01 -59.54,-44.13 -98.69,-44.63"
           style="fill:#8fdadd;fill-opacity:1;fill-rule:nonzero;stroke:none"
           id="path100732" /><path
           d="m 2184.72,2125.23 c -16.67,0 -33.29,2.85 -43.88,15 -1.76,2.02 -3.34,4.39 -3.56,7.06 l 0.04,1.11 v 0 0 0 c 0.12,-0.02 0.23,-0.04 0.34,-0.06 h 0.01 c 7.18,-1.21 14.63,-1.6 22.01,-1.6 v 0 0 0 c 0.01,0 0.02,0 0.03,0 3.09,0 6.17,0.07 9.21,0.17 33.35,1.16 66.54,4.77 99.5,10.03 0.2,-3.08 1.63,-6.04 3.3,-8.68 0.48,-0.76 0.98,-1.5 1.49,-2.22 0.13,-3.68 0.24,-7.36 0.31,-11.04 -24.58,-3.69 -49.26,-7.53 -72.55,-9.07 -5.28,-0.39 -10.77,-0.7 -16.25,-0.7"
           style="fill:#d9bc66;fill-opacity:1;fill-rule:nonzero;stroke:none"
           id="path100734" /><path
           d="m 2159.68,2146.74 v 0 c -7.38,0 -14.83,0.39 -22.01,1.6 h -0.01 c -0.11,0.02 -0.22,0.04 -0.34,0.06 v 0 0 c 0.28,4.77 4.74,8.51 8.96,11.1 11.48,7.01 24.06,11.99 36.56,16.95 28.23,11.18 56.72,22.42 85.63,31.87 1.56,-14.03 2.83,-28.08 3.73,-42.17 -1.71,-1.78 -2.97,-3.84 -3.48,-6.21 v 0 l -0.29,-1.47 c -0.04,-0.52 -0.04,-1.03 -0.01,-1.53 -32.96,-5.26 -66.15,-8.87 -99.5,-10.03 -3.04,-0.1 -6.12,-0.17 -9.21,-0.17 -0.01,0 -0.02,0 -0.03,0 v 0"
           style="fill:#e1c667;fill-opacity:1;fill-rule:nonzero;stroke:none"
           id="path100736" /><path
           d="m 2273.21,2146.04 c -0.51,0.72 -1.01,1.46 -1.49,2.22 -1.67,2.64 -3.1,5.6 -3.3,8.68 -0.03,0.5 -0.03,1.01 0.01,1.53 l 0.29,1.47 v 0 0 c 1.29,-0.44 2.6,-0.85 3.91,-1.25 0.23,-4.22 0.42,-8.43 0.58,-12.65"
           style="fill:#d9bc66;fill-opacity:1;fill-rule:nonzero;stroke:none"
           id="path100738" /><path
           d="m 2272.63,2158.69 c -1.31,0.4 -2.62,0.81 -3.91,1.25 v 0 c 0.51,2.37 1.77,4.43 3.48,6.21 0.15,-2.48 0.3,-4.98 0.43,-7.46"
           style="fill:#e1c667;fill-opacity:1;fill-rule:nonzero;stroke:none"
           id="path100740" /><path
           d="m 1485.86,3423.29 c 26.67,-70.6 23.3,-152 -9.14,-220.14 -0.73,-1.54 -1.5,-3.2 -1.19,-4.88 0.44,-2.38 2.82,-3.82 4.97,-4.94 65.73,-33.91 142.71,-45.54 215.53,-32.56 -16.08,38.55 -32.25,77.4 -40.6,118.33 -8.35,40.92 -8.48,84.55 7,123.35 l -176.57,20.84"
           style="fill:#f8a677;fill-opacity:1;fill-rule:nonzero;stroke:none"
           id="path100742" /><path
           d="m 1655.74,3280.79 c -0.23,0.06 -0.45,0.11 -0.68,0.17 -2.8,14.14 -4.6,28.59 -5.11,43.05 1.3,-25.55 5.79,-43.22 5.79,-43.22"
           style="fill:#dacbc1;fill-opacity:1;fill-rule:nonzero;stroke:none"
           id="path100744" /><path
           d="m 1655.06,3280.96 c -71.98,17.9 -117.45,59.1 -142.82,90.27 13.75,-6.43 30.6,-12.13 52.26,-17.31 10.13,-2.42 20.48,-4.04 30.54,-4.04 15.01,0 29.36,3.61 41.32,13.55 6.26,5.2 12.13,12.06 17.61,19.75 -4.32,-21.31 -4.89,-42.02 -4.02,-59.17 0.51,-14.46 2.31,-28.91 5.11,-43.05"
           style="fill:#f69768;fill-opacity:1;fill-rule:nonzero;stroke:none"
           id="path100746" /><path
           d="m 1674.92,3547.38 c 0.04,11.57 2.81,35.92 13.09,45.44 4.9,4.54 10.42,8.6 16.68,10.94 6.26,2.34 13.75,2.4 19.19,-1.48 6.84,-4.89 8.52,-14.19 9.36,-22.55 2.57,-25.28 1.44,-53.81 -16.55,-71.76 -5.08,-5.07 -11.77,-9.12 -18.95,-8.95 -10.06,0.24 -18.35,8.86 -21.5,18.42 -3.14,9.56 -2.25,19.92 -1.32,29.94"
           style="fill:#f8a677;fill-opacity:1;fill-rule:nonzero;stroke:none"
           id="path100748" /><path
           d="m 1704.11,3527.55 c -0.31,15.32 -2.03,30.77 -4.75,46.11 1.53,1.11 3.16,2.05 4.92,2.71 1.3,0.48 2.71,0.76 4.11,0.76 1.76,0 3.49,-0.44 4.91,-1.46 3.22,-2.3 4.01,-6.68 4.41,-10.61 1.21,-11.89 0.68,-25.32 -7.78,-33.76 -1.64,-1.64 -3.64,-3.05 -5.82,-3.75"
           style="fill:#f69768;fill-opacity:1;fill-rule:nonzero;stroke:none"
           id="path100750" /><path
           d="m 1573.61,3757.07 c -24.23,-4.41 -48.56,-9.68 -70.96,-19.93 -22.4,-10.26 -42.96,-25.92 -55.29,-47.25 -5.66,-9.78 -9.46,-20.5 -13.24,-31.15 -8.31,-23.48 -16.69,-47.22 -19.32,-71.98 -3.23,-30.27 -8.63,-57.43 -0.95,-86.89 9.37,-35.92 18.39,-53.58 41.77,-82.41 23.38,-28.84 45.71,-48.44 108.88,-63.54 25.25,-6.03 51.9,-7.08 71.86,9.51 19.96,16.59 36,50.12 48.08,73.1 27.14,51.6 22.67,111.85 8.09,168.3 -14.59,56.46 -41.81,107.5 -98.28,122.04 -28.78,7.41 -59.17,5.62 -88.54,1.07 l 67.9,29.13"
           style="fill:#f8a677;fill-opacity:1;fill-rule:nonzero;stroke:none"
           id="path100752" /><path
           d="m 1427.8,3516.33 c -4.47,10.67 -16.36,32.1 -29.5,36.96 -6.27,2.32 -12.92,3.96 -19.59,3.72 -6.68,-0.24 -13.63,-3.05 -17.17,-8.72 -4.44,-7.13 -2.43,-16.37 -0.01,-24.42 7.31,-24.32 19.28,-50.26 42.76,-59.94 6.65,-2.74 14.38,-3.92 20.95,-1.01 9.2,4.07 13.56,15.21 12.8,25.25 -0.76,10.03 -5.55,19.26 -10.24,28.16"
           style="fill:#f8a677;fill-opacity:1;fill-rule:nonzero;stroke:none"
           id="path100754" /><path
           d="m 1407.5,3486.79 c -1.99,0 -4.03,0.51 -5.88,1.28 -11.05,4.55 -16.69,16.75 -20.13,28.2 -1.13,3.79 -2.08,8.13 0.01,11.49 1.66,2.67 4.94,3.99 8.07,4.11 0.2,0 0.4,0.01 0.6,0.01 2.94,0 5.86,-0.74 8.62,-1.77 6.19,-2.28 11.78,-12.37 13.89,-17.39 2.2,-4.19 4.46,-8.52 4.81,-13.25 0.36,-4.72 -1.69,-9.96 -6.02,-11.88 -1.26,-0.56 -2.6,-0.8 -3.97,-0.8"
           style="fill:#f69768;fill-opacity:1;fill-rule:nonzero;stroke:none"
           id="path100756" /><path
           d="m 1581.24,3564.33 c 1.43,-9.76 3.85,-19.36 7.2,-28.63 3.37,-9.32 7.64,-18.33 12.79,-26.79 2.52,-4.16 5.26,-8.19 8.2,-12.06 1.54,-2.02 3.12,-4.01 4.76,-5.95 0.78,-0.92 1.58,-1.82 2.36,-2.73 l 0.29,-0.34 0.04,-0.09 0.44,-0.71 0.03,-0.07 -0.03,0.08 0.13,-0.41 h 0.01 l -0.01,-0.27 0.03,0.28 v -0.02 l -0.16,-0.24 -0.15,-0.21 0.09,0.13 -1.02,-1.09 -0.34,-0.3 -0.08,-0.08 -0.65,-0.46 -0.86,-0.56 c -1.07,-0.7 -2.11,-1.44 -3.16,-2.16 -1.95,-1.37 -3.9,-2.72 -5.98,-3.88 -1.12,-0.63 -2.28,-1.19 -3.47,-1.71 l 0.15,0.06 -0.25,-0.1 -0.48,-0.19 -1.02,-0.4 -2.24,-0.76 c -3.92,-1.23 -7.98,-2.02 -12.03,-2.65 l -1.94,-0.3 -0.97,-0.13 -0.18,-0.03 -0.55,-0.07 -1.41,-0.58 -0.59,-1.42 c 0.04,-0.96 0.89,-2.14 2,-2 7.92,1.04 16.03,2.35 23.26,5.91 2.2,1.09 4.26,2.4 6.27,3.79 1.02,0.7 2.03,1.41 3.05,2.11 1.44,1 3.01,1.88 4.3,3.08 l 1.93,2.34 c 0.8,1.52 0.43,3.25 -0.41,4.66 -0.67,1.11 -1.6,2.05 -2.45,3.03 -0.79,0.92 -1.57,1.84 -2.33,2.77 -0.81,0.98 -1.59,1.97 -2.37,2.96 l 0.02,-0.02 -0.29,0.37 -0.57,0.76 -1.13,1.52 c -1.47,2 -2.89,4.05 -4.24,6.12 -2.7,4.13 -5.19,8.4 -7.46,12.78 -1.15,2.22 -2.24,4.47 -3.27,6.75 -0.51,1.11 -1,2.24 -1.48,3.37 l -0.05,0.11 -0.18,0.44 -0.31,0.74 -0.72,1.78 c -3.66,9.32 -6.38,19.01 -8.09,28.87 -0.21,1.22 -0.4,2.44 -0.58,3.66 -0.15,1.04 -1.52,1.7 -2.46,1.4 -1.13,-0.37 -1.56,-1.35 -1.39,-2.46"
           style="fill:#e97d51;fill-opacity:1;fill-rule:nonzero;stroke:none"
           id="path100758" /><path
           d="m 1548.59,3579 c 1.31,8.81 -51.55,3.59 -63.44,0.15 -15.46,-4.49 -29.3,-8.8 -31.1,-17.17 42.06,5.84 46.71,5.15 72.11,4.86 4.59,-0.06 9.26,0.64 13.5,2.4 4.24,1.77 8.04,5.26 8.93,9.76"
           style="fill:#361721;fill-opacity:1;fill-rule:nonzero;stroke:none"
           id="path100760" /><path
           d="m 1631.34,3445.16 c -20.1,-1.79 -58.22,-9.33 -90.47,-15.31 12.72,-9.02 26.94,-15.93 41.89,-20.36 7.32,-2.17 15.16,-3.74 22.53,-1.78 7.76,2.07 14.11,7.91 18.24,14.79 4.13,6.89 6.26,14.78 7.81,22.66"
           style="fill:#ffffff;fill-opacity:1;fill-rule:nonzero;stroke:none"
           id="path100762" /><path
           d="m 1544.56,3538.14 c -0.91,-2.04 -2.07,-3.96 -3.43,-5.73 l 0.31,0.41 c -1.62,-2.1 -3.52,-3.96 -5.61,-5.58 l 0.41,0.31 c -2.33,-1.8 -4.9,-3.28 -7.61,-4.43 l 0.48,0.21 c -2.8,-1.18 -5.74,-1.99 -8.74,-2.4 l 0.53,0.08 c -3.4,-0.46 -6.86,-0.43 -10.27,0.03 l 0.53,-0.07 c -3.89,0.53 -7.7,1.61 -11.33,3.13 l 0.48,-0.2 c -3.22,1.35 -6.28,3.06 -9.15,5.06 l -1.54,0.2 -1.19,-0.92 -0.2,-1.54 0.92,-1.19 c 3.89,-2.73 8.17,-4.89 12.68,-6.43 4.46,-1.53 9.21,-2.38 13.93,-2.41 4.36,-0.01 8.76,0.69 12.86,2.19 4.04,1.48 7.78,3.61 11.08,6.38 3.13,2.63 5.8,5.89 7.67,9.54 l 0.64,1.34 0.2,1.54 -0.92,1.2 -1.54,0.2 -1.19,-0.92"
           style="fill:#e97d51;fill-opacity:1;fill-rule:nonzero;stroke:none"
           id="path100764" /><path
           d="m 1667.53,3563.59 -0.59,-1.55 0.2,0.48 c -0.82,-1.93 -1.87,-3.75 -3.15,-5.41 l 0.31,0.41 c -1.27,-1.64 -2.74,-3.11 -4.38,-4.38 l 0.4,0.32 c -1.67,-1.29 -3.5,-2.36 -5.45,-3.18 l 0.48,0.2 c -2.01,-0.85 -4.12,-1.42 -6.28,-1.72 l 0.53,0.07 c -2.46,-0.32 -4.96,-0.29 -7.41,0.04 l 0.53,-0.07 c -3.17,0.42 -6.26,1.33 -9.19,2.57 l 0.47,-0.21 c -2.84,1.21 -5.55,2.73 -8.1,4.48 l -2.16,1.59 0.4,-0.32 -1.18,0.95 -1.42,0.58 -1.41,-0.58 -0.59,-1.41 0.59,-1.42 c 3.41,-2.79 7.12,-5.22 11.15,-7.02 2.01,-0.89 4.07,-1.67 6.21,-2.23 2.05,-0.55 4.17,-0.91 6.29,-1.08 3.74,-0.3 7.59,0.11 11.14,1.35 3.55,1.24 6.82,3.17 9.57,5.74 1.38,1.29 2.6,2.75 3.68,4.3 1.12,1.61 2,3.34 2.73,5.16 l 0.49,1.27 -0.2,1.55 -1.2,0.92 -1.54,-0.2 -0.92,-1.2"
           style="fill:#e97d51;fill-opacity:1;fill-rule:nonzero;stroke:none"
           id="path100766" /><path
           d="m 1494.41,3437.87 c -12.13,0 -23.61,7.28 -28.39,19.23 -6.27,15.68 1.36,33.46 17.04,39.73 3.72,1.49 7.55,2.19 11.33,2.19 12.13,0 23.62,-7.27 28.4,-19.23 6.26,-15.67 -1.36,-33.46 -17.04,-39.73 -3.72,-1.48 -7.56,-2.19 -11.34,-2.19"
           style="fill:#f79566;fill-opacity:1;fill-rule:nonzero;stroke:none"
           id="path100768" /><path
           d="m 1664.72,3466.23 c -12.13,0 -23.61,7.28 -28.39,19.23 -6.27,15.68 1.35,33.47 17.03,39.73 3.72,1.49 7.56,2.19 11.34,2.19 12.13,0 23.61,-7.27 28.4,-19.23 6.26,-15.67 -1.37,-33.46 -17.05,-39.73 -3.72,-1.48 -7.55,-2.19 -11.33,-2.19"
           style="fill:#f79566;fill-opacity:1;fill-rule:nonzero;stroke:none"
           id="path100770" /><path
           d="m 1718.43,3712.51 c -43.15,-27.11 -95.7,-38.93 -146.3,-32.92 -44.71,5.31 -89.25,24 -133.34,14.88 -26.54,-5.49 -51.11,-21.67 -64.95,-44.98 -0.87,-1.46 -1.55,-3.03 -2.34,-4.55 -0.08,-21.76 1.49,-43.76 8.31,-64.41 6.97,-21.08 19.86,-40.79 38.66,-52.62 22.57,37.55 46.11,73.55 46.04,113.91 45.88,-39.65 104.87,-66.72 165.49,-64.82 60.6,1.91 121.58,36.52 145.57,92.21 14.8,34.34 14.8,72.32 10.88,109.99 -17.67,-26.67 -40.92,-49.66 -68.02,-66.69"
           style="fill:#361721;fill-opacity:1;fill-rule:nonzero;stroke:none"
           id="path100772" /><path
           d="m 1781.43,3817.99 c -0.69,4.77 -1.79,10.17 -5.93,12.63 -4.98,2.96 -11.22,-0.02 -16.31,-2.77 -20.14,-10.87 -42.23,-18.58 -65.04,-20.39 -29.49,-2.35 -58.73,5.13 -87.81,10.57 -22.48,4.19 -45.97,7.03 -68.3,3.38 -1,-0.15 -1.93,-0.23 -3.02,-0.46 l -2.45,-0.61 c -2.16,-0.46 -4.29,-1 -6.42,-1.6 -58.29,-15.91 -74.13,-59.05 -74.13,-59.05 -39,1.39 -59.51,-29.01 -68.2,-46.94 l -0.21,-0.37 -0.35,-0.81 c -1.17,-2.47 -2.12,-4.67 -2.83,-6.46 l -0.39,-1.03 c -0.94,-2.48 -1.44,-4.07 -1.44,-4.07 h 0.06 c -5.65,-17.08 -7.03,-35.57 -7.16,-53.68 v -1.39 c 0.79,1.52 1.47,3.09 2.34,4.55 13.84,23.31 38.41,39.49 64.95,44.98 44.09,9.12 88.63,-9.57 133.34,-14.88 50.6,-6.01 103.15,5.81 146.3,32.92 27.1,17.03 50.35,40.02 68.02,66.69 -1.36,13.02 -3.17,26.01 -5.02,38.79"
           style="fill:#52191f;fill-opacity:1;fill-rule:nonzero;stroke:none"
           id="path100774" /><path
           d="m 1658.61,3265.11 c 78.55,-20.98 98.01,-39.07 176.56,-60.04 20.97,-5.6 42.15,-11.28 61.36,-21.39 13.26,-6.98 26.13,-16.96 30.69,-31.22 3.15,-9.84 1.95,-20.48 0.73,-30.75 -16.83,-142.81 -28.39,-286.25 -34.64,-429.92 -6.46,-148.55 -7.19,-298.07 14.82,-445.13 0.63,-4.21 1.19,-8.89 -1.21,-12.42 -2.69,-3.99 -8.03,-4.96 -12.8,-5.6 -197.66,-26.05 -397.35,-36.65 -596.65,-31.66 -3.18,0.08 -6.7,0.31 -8.94,2.57 -2.31,2.33 -2.42,6 -2.39,9.28 0.53,56.38 1.06,112.75 1.59,169.14 1.58,167.82 2.7,338.86 -47.31,499.06 -18.65,59.7 -44.15,116.99 -66.8,175.29 -3.96,10.17 -1.57,8.73 0.83,19.37 2.43,10.74 10.72,36.79 18.87,44.19 63.15,57.44 227.11,120.23 305.29,154.51 0,0 32.28,-35.79 119.26,-33.16 55.74,1.69 40.74,27.88 40.74,27.88"
           style="fill:#4188c9;fill-opacity:1;fill-rule:nonzero;stroke:none"
           id="path100776" /><path
           d="m 1386.76,2321.73 c -11.41,48.4 -26.84,95.85 -46.08,141.7 -12.82,30.55 -27.4,60.6 -35.39,92.75 -13.07,52.62 -7.81,107.96 0.21,161.58 4.43,29.62 10.18,60.33 28.09,84.33 19.53,26.17 51.25,40.84 83.24,47.42 31.99,6.58 64.94,6.07 97.55,7.75 34.09,1.76 69.09,5.86 101.74,-4.1 37,-11.27 66.44,-39.28 91.11,-69.06 63.74,-76.94 105.21,-172.11 118.16,-271.18"
           style="fill:#3279b5;fill-opacity:1;fill-rule:nonzero;stroke:none"
           id="path100778" /><path
           d="m 1879.26,2510.3 c 7.85,51.43 13.52,102.97 16.99,154.55 3.72,55.23 4.59,111.82 -26.13,164.13 -6.03,10.28 -14.21,21 -30.14,26.68 -18.63,6.65 -43.94,4.39 -61.62,-3.08 -17.68,-7.47 -28.68,-19.22 -35.45,-31.29 -16.29,-29.02 -10.92,-60.43 -6.5,-90.85 15.52,-106.95 17,-214.59 4.42,-321.68"
           style="fill:#3279b5;fill-opacity:1;fill-rule:nonzero;stroke:none"
           id="path100780" /><path
           d="m 1913.37,3172.39 c 44.06,-32.35 52.29,-95.15 65.77,-156.93 30.12,-138.06 53.43,-278.91 94.31,-412.55 8.94,-29.23 18.71,-58.07 26.93,-87.62 15.72,-56.47 25.7,-115.16 35.65,-173.66 12.14,-71.47 24.35,-143.7 23.3,-216.77 -32.88,-2.78 -65.86,-3.82 -98.81,-3.13 -16.1,0.34 -33.92,2.01 -45.1,16.53 -6.73,8.76 -9.87,20.8 -12.8,32.4 -25.7,101.81 -51.39,203.62 -77.09,305.41 -12.79,50.68 -25.61,101.49 -33.62,153.69 -21.11,137.58 -8.17,279.37 4.84,418.52"
           style="fill:#4188c9;fill-opacity:1;fill-rule:nonzero;stroke:none"
           id="path100782" /><path
           d="m 1640.67,2444.16 c 97.31,159.05 148.2,281.21 165.01,324.72 l -23.12,87.44 H 1417.7 l -124.87,-588.28 c 84.6,3.14 257.51,28.48 347.84,176.12"
           style="fill:#ffffff;fill-opacity:1;fill-rule:nonzero;stroke:none"
           id="path100784" /><path
           d="m 1949.79,2089.42 -59.14,358.08 -84.97,321.38 c -16.81,-43.51 -67.7,-165.67 -165.01,-324.72 -90.33,-147.64 -263.24,-172.98 -347.84,-176.12 l -28.85,-135.92 685.81,-42.7"
           style="fill:#f3edec;fill-opacity:1;fill-rule:nonzero;stroke:none"
           id="path100786" /><path
           d="m 1439.68,2855.27 c -5.73,22.45 -12.34,44.66 -19.42,66.72 -7.09,22.11 -14.65,44.08 -22.26,66.02 -7.61,21.95 -15.28,43.87 -22.58,65.92 -7.28,21.97 -14.2,44.06 -20.34,66.38 -6.15,22.34 -11.51,44.9 -15.62,67.71 -0.5,2.79 -0.99,5.58 -1.46,8.37 -0.56,3.39 -3.84,7.04 -6.69,8.71 -3.12,1.82 -7.72,2.6 -11.22,1.47 -3.52,-1.15 -6.93,-3.33 -8.7,-6.7 -0.5,-1.16 -0.98,-2.32 -1.47,-3.48 -0.7,-2.58 -0.7,-5.16 0,-7.74 3.8,-22.76 8.86,-45.28 14.77,-67.58 5.93,-22.35 12.7,-44.48 19.88,-66.47 7.2,-22.08 14.81,-44.01 22.43,-65.94 7.62,-21.95 15.24,-43.9 22.45,-65.99 7.22,-22.13 14.04,-44.39 20,-66.9 0.73,-2.74 1.44,-5.49 2.15,-8.24 0.9,-3.51 3.59,-6.89 6.69,-8.71 3.12,-1.82 7.72,-2.6 11.22,-1.46 7.63,2.46 12.19,10 10.17,17.91"
           style="fill:#ffffff;fill-opacity:1;fill-rule:nonzero;stroke:none"
           id="path100788" /><path
           d="m 1792.95,2843.57 c 4.51,22.72 8.11,45.61 11.23,68.57 3.13,23.02 5.78,46.1 8.37,69.18 2.59,23.08 5.12,46.17 8.03,69.21 2.91,22.96 6.18,45.88 10.25,68.66 4.09,22.81 8.97,45.48 15.09,67.84 0.75,2.73 1.51,5.46 2.3,8.18 0.95,3.3 -0.44,8.01 -2.29,10.74 -2.03,2.99 -5.85,5.67 -9.49,6.16 -3.68,0.49 -7.69,-0.02 -10.75,-2.29 -0.93,-0.84 -1.88,-1.67 -2.82,-2.51 -1.74,-2.03 -2.85,-4.36 -3.33,-6.98 -6.38,-22.18 -11.52,-44.69 -15.79,-67.35 -4.29,-22.73 -7.72,-45.62 -10.72,-68.55 -3.02,-23.02 -5.59,-46.1 -8.18,-69.18 -2.58,-23.08 -5.17,-46.17 -8.18,-69.21 -3.02,-23.08 -6.46,-46.11 -10.78,-68.99 -0.52,-2.79 -1.07,-5.58 -1.62,-8.36 -0.7,-3.55 0.28,-7.77 2.29,-10.74 2.03,-2.99 5.85,-5.67 9.49,-6.16 7.95,-1.06 15.32,3.77 16.9,11.78"
           style="fill:#ffffff;fill-opacity:1;fill-rule:nonzero;stroke:none"
           id="path100790" /><path
           d="m 1715.02,2284.37 c 64.72,-21.57 129.43,-43.14 194.14,-64.7 68.81,-22.94 137.77,-45.93 203.87,-75.79 -23.23,-12.17 -50.17,-17.14 -76.22,-14.06 -17.14,2.04 -33.68,7.42 -50.25,12.26 -80.19,23.41 -163.38,34.47 -246.19,45.47 0.14,21.71 0.27,43.43 0.41,65.15"
           style="fill:#c3bcbc;fill-opacity:1;fill-rule:nonzero;stroke:none"
           id="path100792" /><path
           d="m 1547.46,2326.28 c 57.8,-29.52 116.76,-56.76 176.71,-81.61 17.41,-7.22 35.27,-14.32 54.08,-15.47 5.92,-0.36 13.18,0.71 15.43,6.2 1.1,2.66 0.65,5.68 -0.2,8.43 -4.63,15.07 -19.5,24.26 -33.49,31.5 -66.12,34.24 -138.72,55.88 -201.46,95.95"
           style="fill:#071016;fill-opacity:1;fill-rule:nonzero;stroke:none"
           id="path100794" /><path
           d="m 1480.11,2408.46 c 11.82,-7.73 26.81,-8.13 40.93,-8.27 19.06,-0.21 38.13,-0.41 57.2,-0.62 16.71,-0.18 33.63,-0.38 49.78,-4.67 11.51,-3.05 22.37,-8.11 33.16,-13.14 18.11,-8.45 36.21,-16.9 54.05,-25.89 17.21,-8.66 34.46,-18.06 47.86,-31.91 7.77,-8.03 14.05,-17.36 20.28,-26.65 8.79,-13.08 17.59,-26.18 26.38,-39.27 1.83,-2.73 3.59,-6.62 1.29,-8.97 -1.75,-1.77 -4.67,-1.3 -7.08,-0.65 -27.64,7.4 -53.53,20.41 -77.71,35.72 -5.4,3.42 -10.97,7.05 -17.31,7.87 -6.35,0.82 -13.7,-2.16 -15.61,-8.26 -3.12,-9.98 9.01,-22.44 1.77,-30 -5.55,-5.8 -15.03,-0.54 -23.04,-0.06 -13.7,0.83 -23.29,-13.03 -35.72,-18.84 -9.88,-4.62 -21.6,-3.92 -31.95,-0.46 -10.35,3.47 -19.63,9.48 -28.78,15.43 -20.32,13.22 -40.65,26.44 -60.98,39.65 -29.29,19.06 -61.03,41.52 -68.41,75.67"
           style="fill:#f8a677;fill-opacity:1;fill-rule:nonzero;stroke:none"
           id="path100796" /><path
           d="m 1203.02,3097.83 c 19.06,-38.24 61.1,-136.91 79.27,-293.2 0.18,-1.54 0.07,-3.05 -0.37,-4.54 -5.41,-18.53 -43.62,-150.14 -47.92,-187.01 -4.53,-38.8 189.77,-127.21 261.66,-203.93 3.01,-3.21 3.74,-7.92 2.07,-11.99 l -34.37,-83.92 c -2.08,-5.08 -7.42,-7.97 -12.8,-6.85 -47.98,9.93 -270.98,63.48 -399.67,223.66 -6.85,8.53 -9.98,19.43 -8.35,30.25 11.37,75.75 62.86,396.22 140.24,537.71 4.45,8.13 16.11,8.11 20.24,-0.18"
           style="fill:#4188c9;fill-opacity:1;fill-rule:nonzero;stroke:none"
           id="path100798" /><path
           d="m 1241.57,2648.1 c -27.49,12.2 -62.43,4.78 -82.59,-17.54 -6.39,-7.09 -11.34,-18.09 -5.66,-25.77 1.82,-2.47 4.48,-4.15 6.68,-6.28 11.46,-11.13 7.49,-29.81 7.01,-45.79 -0.64,-21.48 7.08,-43.11 21.18,-59.34 7.85,-9.03 18.42,-16.72 30.38,-17.14 10.2,-0.36 19.83,4.58 28.3,10.27 7.95,5.33 15.37,11.44 22.13,18.21 6.08,6.08 11.97,13.69 11.33,22.26 -0.68,8.99 -8.17,15.68 -14.37,22.22 -29.92,31.56 -37.68,82.12 -18.6,121.21"
           style="fill:#3279b5;fill-opacity:1;fill-rule:nonzero;stroke:none"
           id="path100800" /><path
           d="m 3777.95,1961.84 c -40.65,194.86 -100.28,385.74 -177.71,569.12 -37.33,-208.6 -164.63,-598.97 -590.08,-478.33 -4.62,-78.12 -11.97,-155.9 -26.18,-232.88 -1.73,-9.42 -1.13,-22.64 8.3,-24.24 l 795.47,40.17 c 6.68,41.9 -1.15,84.62 -9.8,126.16"
           style="fill:#f25927;fill-opacity:1;fill-rule:nonzero;stroke:none"
           id="path100802" /><path
           d="m 1279.58,2169.18 c 35.64,0.71 72.23,5.71 103.26,23.27 10.99,6.22 21.23,14.04 28.96,24.02 9.54,12.32 14.8,27.8 15.1,43.35 -11.91,9.98 -28.94,14.54 -44.89,14.27 -22.15,-0.37 -43.51,-7.74 -65.38,-11.19 l 2.37,-8.66 c -17.89,12.43 -37.83,22.33 -59.21,26.56 -18.59,3.68 -39.15,2.61 -54.74,-8.18 -11.18,-7.74 -18.79,-19.78 -23.51,-32.52 -6.33,-17.07 -7.31,-36.32 -2.75,-53.82 l 1.4,-0.72 c 30.84,-13.98 65.54,-17.05 99.39,-16.38"
           style="fill:#f46d34;fill-opacity:1;fill-rule:nonzero;stroke:none"
           id="path100804" /><path
           d="m 1438.14,2245.78 c -2.69,5.58 -6.61,10.18 -11.24,14.04 -0.3,-15.55 -5.56,-31.03 -15.1,-43.35 -7.73,-9.98 -17.97,-17.8 -28.96,-24.02 -31.03,-17.56 -67.62,-22.56 -103.26,-23.27 -33.85,-0.67 -68.55,2.4 -99.39,16.38 l -1.4,0.72 c 3.05,-11.68 8.5,-22.6 16.72,-31.52 9.38,-10.19 21.54,-17.38 33.85,-23.73 18,-9.31 37.1,-17.28 57.27,-19.31 12.16,-1.23 24.46,-0.26 36.55,1.61 28.32,4.4 56.35,14.14 78.82,31.94 22.47,17.81 38.88,44.31 40.68,72.92 0.58,9.41 -0.44,19.1 -4.54,27.59"
           style="fill:#f25927;fill-opacity:1;fill-rule:nonzero;stroke:none"
           id="path100806" /><path
           d="m 1374.49,2259.33 c -15.91,1.58 -32.17,3.36 -47.3,8.14 2.21,14.25 3.22,37.45 1.45,50.17 -0.57,4.13 -1.4,8.38 -3.77,11.81 -2.37,3.44 -6.65,5.87 -10.71,4.91 -3.74,-0.9 -6.39,-4.47 -7.28,-8.22 -0.89,-3.74 -0.35,-7.66 0.32,-11.45 2.21,-12.67 9.34,-32.27 6.97,-45.64 -4.17,0.81 -17.62,4.72 -21.71,5.99 -15.45,4.81 -32.08,5.76 -47.97,2.71 -1.5,-0.28 -3.16,-0.72 -3.9,-2.05 -1.4,-2.46 1.51,-5.13 4.14,-6.18 13.6,-5.4 30.68,-1.12 42.98,-7.87 2.2,-1.21 2.9,-4.17 1.22,-6.03 -4.28,-4.78 -9.14,-9.07 -13.09,-14.12 -4.84,-6.17 -8.36,-14.15 -6.55,-21.78 0.72,-3.09 2.8,-6.31 5.95,-6.61 3.48,-0.35 6.16,2.91 7.91,5.92 6.44,11.1 10.48,24.65 21.4,31.38 1.91,1.18 4.24,2.12 6.37,1.41 1.82,-0.62 3.06,-2.3 4,-3.97 3.08,-5.49 4.23,-11.82 6.54,-17.67 2.32,-5.85 6.4,-11.64 12.5,-13.2 13.57,-2.82 -1.72,18.45 -1.55,27.7 0.06,2.94 0.52,6.41 3.14,7.74 4.27,2.15 8.01,-3.42 10.9,-7.24 6.94,-9.23 20.53,-11.22 31.56,-7.79 2.27,0.72 4.46,1.6 6.57,2.63 8.89,4.33 6.44,17.66 -3.38,18.63 l -6.71,0.68"
           style="fill:#93d44d;fill-opacity:1;fill-rule:nonzero;stroke:none"
           id="path100808" /><path
           d="M 2202.54,2117.59 H 1726.19 V 2140 h 476.35 v -22.41"
           style="fill:#552223;fill-opacity:1;fill-rule:nonzero;stroke:none"
           id="path100810" /><path
           d="m 762.777,457.961 h 3445.49 v 1581.08 H 762.777 Z"
           style="fill:#bee9f1;fill-opacity:1;fill-rule:nonzero;stroke:none"
           id="path100812" /><path
           d="M 4236.07,1952.45 H 722.422 c -22.09,0 -40,17.91 -40,40 v 85.14 c 0,22.09 17.91,40 40,40 H 4236.07 c 22.09,0 40,-17.91 40,-40 v -85.14 c 0,-22.09 -17.91,-40 -40,-40"
           style="fill:#86d7df;fill-opacity:1;fill-rule:nonzero;stroke:none"
           id="path100814" /><path
           d="m 762.777,1276.37 v 676.08 H 4208.27 V 1586.76 L 762.777,1276.37"
           style="fill:#b2e6ed;fill-opacity:1;fill-rule:nonzero;stroke:none"
           id="path100816" /><path
           d="m 762.777,1952.45 h 3445.49 v 48.5898 H 762.777 Z"
           style="fill:#86d7df;fill-opacity:1;fill-rule:nonzero;stroke:none"
           id="path100818" /><path
           d="m 1603.88,568.18 v 5 H 841.137 V 1882.01 H 1598.88 V 568.18 h 5 v 5 -5 h 5 V 1892.01 H 831.137 V 563.18 h 777.743 v 5 h -5"
           style="fill:#86d7df;fill-opacity:1;fill-rule:nonzero;stroke:none"
           id="path100820" /><path
           d="m 2447.63,568.18 v 5 h -762.74 v 1308.83 h 757.74 V 568.18 h 5 v 5 -5 h 5 V 1892.01 H 1674.89 V 563.18 h 777.74 v 5 h -5"
           style="fill:#86d7df;fill-opacity:1;fill-rule:nonzero;stroke:none"
           id="path100822" /><path
           d="m 3289.39,568.18 v 5 h -762.74 v 1308.83 h 757.74 V 568.18 h 5 v 5 -5 h 5 V 1892.01 H 2516.65 V 563.18 h 777.74 v 5 h -5"
           style="fill:#86d7df;fill-opacity:1;fill-rule:nonzero;stroke:none"
           id="path100824" /><path
           d="m 4133.14,568.18 v 5 H 3370.4 v 1308.83 h 757.74 V 568.18 h 5 v 5 -5 h 5 V 1892.01 H 3360.4 V 563.18 h 777.74 v 5 h -5"
           style="fill:#86d7df;fill-opacity:1;fill-rule:nonzero;stroke:none"
           id="path100826" /><path
           d="m 1506.49,1248.8 c 4.62,15.51 20.94,24.33 36.45,19.73 15.52,-4.62 24.35,-20.94 19.73,-36.46 -4.62,-15.51 -20.94,-24.35 -36.45,-19.73 -15.51,4.62 -24.34,20.94 -19.73,36.46"
           style="fill:#ffffff;fill-opacity:1;fill-rule:nonzero;stroke:none"
           id="path100828" /><path
           d="m 1724.61,1248.8 c 4.61,15.51 20.94,24.33 36.45,19.73 15.51,-4.62 24.35,-20.94 19.73,-36.46 -4.62,-15.51 -20.94,-24.35 -36.45,-19.73 -15.52,4.62 -24.35,20.94 -19.73,36.46"
           style="fill:#ffffff;fill-opacity:1;fill-rule:nonzero;stroke:none"
           id="path100830" /><path
           d="m 3195.79,1248.8 c 4.62,15.51 20.94,24.33 36.45,19.73 15.51,-4.62 24.34,-20.94 19.72,-36.46 -4.61,-15.51 -20.93,-24.35 -36.44,-19.73 -15.52,4.62 -24.35,20.94 -19.73,36.46"
           style="fill:#ffffff;fill-opacity:1;fill-rule:nonzero;stroke:none"
           id="path100832" /><path
           d="m 3413.91,1248.8 c 4.62,15.51 20.93,24.33 36.44,19.73 15.52,-4.62 24.35,-20.94 19.74,-36.46 -4.62,-15.51 -20.94,-24.35 -36.46,-19.73 -15.51,4.62 -24.34,20.94 -19.72,36.46"
           style="fill:#ffffff;fill-opacity:1;fill-rule:nonzero;stroke:none"
           id="path100834" /><path
           d="m 4017.69,2380.05 c 0.77,30.14 3.14,60.25 7.2,90.13 4.07,29.87 9.75,59.52 16.98,88.79 7.22,29.27 16,58.16 26.28,86.5 10.3,28.36 22.1,56.16 35.39,83.25 13.28,27.07 28,53.42 44.14,78.89 1.98,3.15 4,6.28 6.03,9.39 2.98,4.58 -4.34,8.82 -7.3,4.27 -16.61,-25.47 -31.81,-51.85 -45.54,-78.98 -13.77,-27.23 -26.07,-55.21 -36.86,-83.74 -10.76,-28.44 -20,-57.46 -27.65,-86.88 -7.66,-29.43 -13.75,-59.26 -18.21,-89.34 -4.46,-30.06 -7.35,-60.37 -8.55,-90.74 -0.15,-3.85 -0.27,-7.69 -0.37,-11.54 -0.14,-5.45 8.32,-5.44 8.46,0"
           style="fill:#7cbc2b;fill-opacity:1;fill-rule:nonzero;stroke:none"
           id="path100836" /><path
           d="m 4025.75,2474.05 c 0.83,23.83 -0.54,47.68 -3.52,71.33 -3,23.83 -7.51,47.45 -12.9,70.86 -5.39,23.46 -11.62,46.71 -17.99,69.93 -6.4,23.3 -12.93,46.56 -18.94,69.96 -5.97,23.32 -11.42,46.79 -15.62,70.5 -0.52,2.92 -1.01,5.84 -1.49,8.76 -0.37,2.25 -3.17,3.51 -5.2,2.95 -2.39,-0.66 -3.32,-2.94 -2.95,-5.21 3.87,-23.63 9.04,-47.04 14.84,-70.27 5.82,-23.33 12.27,-46.51 18.65,-69.69 6.38,-23.12 12.7,-46.26 18.3,-69.59 5.56,-23.22 10.41,-46.64 13.78,-70.29 3.32,-23.29 5.1,-46.84 4.8,-70.37 -0.04,-2.96 -0.12,-5.91 -0.22,-8.87 -0.19,-5.44 8.27,-5.43 8.46,0"
           style="fill:#7cbc2b;fill-opacity:1;fill-rule:nonzero;stroke:none"
           id="path100838" /><path
           d="m 4037.29,2541.38 c 10.66,13.2 21.67,26.12 32.99,38.75 11.27,12.54 22.85,24.79 34.75,36.74 11.92,11.98 24.17,23.65 36.71,35 12.54,11.35 25.36,22.38 38.47,33.06 3.29,2.68 6.6,5.34 9.92,7.98 1.66,1.31 3.32,2.63 4.99,3.94 l 2.37,1.85 1.06,0.82 0.67,0.51 0.33,0.27 c 6.62,5.12 13.32,10.14 20.07,15.09 1.72,1.25 3.43,2.5 5.16,3.74 1.78,1.29 2.83,3.74 1.51,5.79 -1.14,1.77 -3.87,2.9 -5.79,1.51 -13.96,-10.08 -27.65,-20.52 -41.07,-31.3 -13.22,-10.63 -26.17,-21.61 -38.81,-32.91 -12.66,-11.31 -25.02,-22.94 -37.07,-34.88 -12.01,-11.91 -23.71,-24.13 -35.09,-36.64 -11.38,-12.51 -22.42,-25.31 -33.14,-38.4 -1.35,-1.64 -2.68,-3.29 -4.01,-4.94 -0.73,-0.9 -1.24,-1.78 -1.24,-2.99 0,-1.04 0.46,-2.27 1.24,-2.99 1.54,-1.41 4.49,-1.83 5.98,0"
           style="fill:#7cbc2b;fill-opacity:1;fill-rule:nonzero;stroke:none"
           id="path100840" /><path
           d="m 4022.29,2457.73 c -10.14,13.19 -20.47,26.23 -31.04,39.09 -10.32,12.58 -20.86,25 -31.58,37.25 -10.76,12.29 -21.71,24.41 -32.86,36.35 -11.15,11.94 -22.48,23.71 -34.01,35.29 -11.52,11.58 -23.22,22.98 -35.1,34.19 -1.46,1.38 -2.92,2.75 -4.39,4.12 -1.62,1.51 -4.4,1.72 -5.99,0 -1.5,-1.64 -1.71,-4.36 0,-5.98 11.9,-11.12 23.61,-22.43 35.13,-33.93 11.52,-11.49 22.87,-23.17 34.02,-35.03 11.21,-11.89 22.21,-23.97 33.02,-36.21 10.77,-12.21 21.36,-24.58 31.74,-37.12 10.38,-12.55 20.56,-25.24 30.54,-38.1 l 0.94,-1.23 0.4,-0.5 1.89,-2.45 c 0.7,-0.92 1.37,-1.63 2.52,-1.95 1.02,-0.28 2.36,-0.15 3.26,0.42 1.73,1.12 2.96,3.92 1.51,5.79"
           style="fill:#7cbc2b;fill-opacity:1;fill-rule:nonzero;stroke:none"
           id="path100842" /><path
           d="m 4147.37,2800.65 c -18.94,0.64 -29.38,1.76 -39.55,3.72 -15.01,2.88 -29.83,7.71 -42.6,16.1 -12.76,8.39 -23.38,20.58 -28.03,35.14 -2.56,8.04 -3.18,17.12 0.58,24.67 3.83,7.7 11.76,12.76 20.07,14.95 8.32,2.2 17.08,1.89 25.66,1.23 -28.67,15.25 -47.13,47.88 -45.46,80.3 0.83,16.06 6.65,32.41 18.63,43.13 5.42,4.85 12.2,8.49 19.45,8.96 16.2,1.04 28.91,-13.04 38.91,-25.84 6.42,-8.21 12.83,-16.41 19.25,-24.62 -0.02,16.96 2.98,34.2 11.04,49.12 8.08,14.92 21.59,27.31 37.95,31.79 16.36,4.47 35.4,0.07 46.56,-12.69 10.69,-12.21 12.94,-30.04 9.79,-45.95 -3.16,-15.91 -11.06,-30.42 -18.84,-44.65 21.37,5.79 45.63,-0.74 61.21,-16.46 6.24,-6.29 11.33,-14.79 10.07,-23.55 -1.46,-10.17 -10.69,-17.13 -19.17,-22.93 -8.56,-5.86 -17.12,-11.72 -25.68,-17.58 16.85,-4.27 35.23,-11.04 42.83,-26.68 8.56,-17.61 -1.22,-39.99 -17.46,-50.93 -16.23,-10.95 -36.95,-12.74 -56.5,-11.68 -23.46,1.26 -46.72,6.16 -68.71,14.45"
           style="fill:#93d44d;fill-opacity:1;fill-rule:nonzero;stroke:none"
           id="path100844" /><path
           d="m 4149.7,2813.31 c -1.54,2.5 -3.3,4.81 -5.09,7.13 l 0.29,-0.39 c -1,1.31 -1.97,2.63 -2.81,4.04 -1.1,1.85 -1.95,3.82 -2.83,5.78 -1.84,4.09 -3.87,8.09 -6.1,11.99 -2.23,3.92 -4.67,7.72 -7.29,11.41 -2.69,3.77 -5.55,7.41 -8.58,10.9 -2.95,3.39 -6.08,6.64 -9.36,9.72 l -1.22,1.14 h -2.68 v -2.68 c 4.44,-4.06 8.59,-8.42 12.44,-13.04 1.09,-1.31 2.15,-2.64 3.2,-3.98 l -0.29,0.38 c 3.82,-4.96 7.32,-10.19 10.44,-15.63 1.57,-2.73 3.04,-5.51 4.41,-8.34 0.68,-1.4 1.34,-2.82 1.97,-4.25 0.63,-1.42 1.24,-2.82 1.97,-4.17 1.32,-2.43 3,-4.57 4.68,-6.74 l -0.29,0.38 c 1.38,-1.79 2.68,-3.63 3.88,-5.56 l 2.58,-0.68 c 0.84,0.54 1.23,1.69 0.68,2.59"
           style="fill:#7cbc2b;fill-opacity:1;fill-rule:nonzero;stroke:none"
           id="path100846" /><path
           d="m 4149.89,2812.86 c -2.31,9.9 -4.85,19.76 -7.59,29.56 -2.76,9.9 -5.73,19.74 -8.9,29.52 -3.19,9.81 -6.57,19.56 -10.16,29.23 -3.57,9.65 -7.34,19.22 -11.32,28.7 -3.93,9.43 -8.06,18.78 -12.4,28.03 -0.55,1.16 -1.09,2.31 -1.64,3.47 -0.44,0.92 -1.77,1.16 -2.59,0.68 -0.94,-0.55 -1.12,-1.66 -0.68,-2.59 4.35,-9.14 8.51,-18.39 12.46,-27.71 3.97,-9.35 7.72,-18.8 11.3,-28.31 3.61,-9.61 7.03,-19.29 10.24,-29.05 3.22,-9.72 6.22,-19.51 9.03,-29.36 2.79,-9.8 5.38,-19.66 7.75,-29.57 0.29,-1.2 0.58,-2.4 0.85,-3.61 0.23,-0.99 1.38,-1.58 2.33,-1.32 1.02,0.28 1.56,1.33 1.32,2.33"
           style="fill:#7cbc2b;fill-opacity:1;fill-rule:nonzero;stroke:none"
           id="path100848" /><path
           d="m 4150.31,2813.07 c 2.87,23.8 5.38,47.64 7.52,71.52 2.14,23.88 3.91,47.79 5.31,71.72 0.8,13.49 1.47,26.98 2.03,40.48 0.09,2.43 -3.69,2.42 -3.78,0 -1,-23.96 -2.35,-47.89 -4.08,-71.8 -1.71,-23.92 -3.81,-47.8 -6.27,-71.65 -1.39,-13.44 -2.9,-26.86 -4.52,-40.27 -0.11,-1.02 0.96,-1.89 1.9,-1.89 1.12,0 1.77,0.87 1.89,1.89"
           style="fill:#7cbc2b;fill-opacity:1;fill-rule:nonzero;stroke:none"
           id="path100850" /><path
           d="m 4149.7,2811.4 c 3.88,9.16 8.21,18.13 12.95,26.87 4.73,8.74 9.87,17.25 15.39,25.52 5.48,8.22 11.32,16.2 17.38,23.75 6.25,7.79 12.83,15.31 19.73,22.54 6.84,7.18 13.98,14.08 21.4,20.67 0.92,0.82 1.84,1.64 2.77,2.45 v 2.67 h -2.67 c -7.53,-6.57 -14.79,-13.44 -21.76,-20.61 -6.96,-7.15 -13.62,-14.61 -19.95,-22.34 -6.36,-7.76 -12.39,-15.79 -18.06,-24.08 -5.6,-8.21 -10.84,-16.66 -15.67,-25.34 -4.86,-8.71 -9.31,-17.66 -13.31,-26.8 -0.5,-1.12 -0.99,-2.26 -1.46,-3.39 -0.39,-0.91 -0.31,-2.07 0.67,-2.59 0.81,-0.43 2.18,-0.29 2.59,0.68"
           style="fill:#7cbc2b;fill-opacity:1;fill-rule:nonzero;stroke:none"
           id="path100852" /><path
           d="m 4149.02,2810.72 c 1.12,0.77 2.29,1.46 3.49,2.07 l 1.86,0.89 0.42,0.18 -0.02,-0.01 0.22,0.09 1.01,0.41 c 2.72,1.05 5.53,1.86 8.37,2.55 5.75,1.4 11.62,2.31 17.46,3.27 7.13,1.17 14.27,2.24 21.43,3.22 l 1.39,0.18 0.28,0.04 0.79,0.11 2.66,0.35 c 1.81,0.23 3.62,0.46 5.43,0.68 3.58,0.44 7.18,0.85 10.77,1.24 7.18,0.77 14.38,1.46 21.58,2.04 l 2.68,0.21 c 0.98,0.08 1.94,0.81 1.89,1.89 -0.05,0.96 -0.84,1.97 -1.89,1.89 -7.28,-0.56 -14.53,-1.22 -21.79,-1.99 -7.26,-0.76 -14.5,-1.62 -21.73,-2.58 -7.29,-0.98 -14.58,-2.04 -21.85,-3.21 -6.06,-0.97 -12.14,-1.9 -18.13,-3.23 -5.71,-1.27 -11.5,-2.96 -16.57,-5.96 l -1.66,-1.06 c -0.81,-0.56 -1.26,-1.69 -0.67,-2.59 l 2.58,-0.68"
           style="fill:#7cbc2b;fill-opacity:1;fill-rule:nonzero;stroke:none"
           id="path100854" /><path
           d="m 4155.9,2668.71 c -6.04,11.18 -8.93,17.61 -11.23,24.16 -3.41,9.67 -5.63,19.89 -5.08,30.13 0.54,10.23 4,20.51 10.87,28.12 3.78,4.21 8.84,7.64 14.48,8.02 5.76,0.38 11.37,-2.5 15.46,-6.57 4.08,-4.08 6.87,-9.25 9.39,-14.45 -0.86,21.77 11.78,43.5 31.13,53.5 9.58,4.95 21.02,7.12 31.29,3.8 4.65,-1.5 9.04,-4.19 11.76,-8.24 6.1,-9.03 2.23,-21.15 -1.79,-31.27 -2.59,-6.5 -5.17,-12.99 -7.76,-19.48 9.82,5.74 20.82,9.84 32.2,10.21 11.37,0.38 23.13,-3.26 31.25,-11.22 8.13,-7.97 12.02,-20.48 8.4,-31.27 -3.46,-10.32 -13.02,-17.66 -23.3,-21.21 -10.28,-3.56 -21.37,-3.89 -32.24,-4.19 10.58,-10.42 15.01,-26.68 11.17,-41.04 -1.53,-5.74 -4.73,-11.56 -10.23,-13.79 -6.39,-2.6 -13.54,0.4 -19.77,3.35 -6.29,2.97 -12.58,5.95 -18.87,8.93 3.23,-11.21 5.52,-24.15 -0.97,-33.85 -7.3,-10.91 -23.57,-12.82 -35.41,-7.12 -11.83,5.7 -19.88,17.1 -25.88,28.78 -7.21,14.02 -12.24,29.15 -14.87,44.7"
           style="fill:#93d44d;fill-opacity:1;fill-rule:nonzero;stroke:none"
           id="path100856" /><path
           d="m 4164.01,2671.64 c 0.93,1.73 1.67,3.54 2.42,5.36 l -0.13,-0.3 c 0.42,1.02 0.86,2.03 1.39,3 0.7,1.26 1.55,2.42 2.39,3.59 1.75,2.45 3.38,4.98 4.88,7.58 1.51,2.63 2.89,5.33 4.14,8.09 1.28,2.83 2.42,5.72 3.41,8.66 0.97,2.86 1.8,5.77 2.47,8.71 l 0.24,1.09 -0.9,1.55 -1.55,-0.9 c -0.86,-3.94 -1.98,-7.83 -3.35,-11.62 -0.39,-1.07 -0.8,-2.14 -1.23,-3.2 l 0.13,0.3 c -1.58,-3.9 -3.42,-7.69 -5.52,-11.34 -1.05,-1.83 -2.17,-3.62 -3.34,-5.37 l -1.79,-2.59 -1.75,-2.55 c -0.96,-1.58 -1.63,-3.28 -2.33,-4.99 l 0.12,0.3 c -0.57,-1.4 -1.19,-2.79 -1.9,-4.13 l 0.48,-1.72 1.72,0.48"
           style="fill:#7cbc2b;fill-opacity:1;fill-rule:nonzero;stroke:none"
           id="path100858" /><path
           d="m 4163.82,2671.37 c 4.96,4.7 9.81,9.5 14.56,14.4 4.8,4.95 9.49,10 14.08,15.15 4.61,5.16 9.11,10.42 13.5,15.77 4.38,5.34 8.65,10.76 12.8,16.27 4.13,5.47 8.14,11.02 12.03,16.66 l 1.47,2.13 -0.49,1.73 -1.73,-0.48 c -3.83,-5.62 -7.77,-11.15 -11.84,-16.59 -4.07,-5.47 -8.27,-10.84 -12.57,-16.13 -4.35,-5.34 -8.8,-10.6 -13.36,-15.76 -4.55,-5.15 -9.2,-10.21 -13.96,-15.16 -4.73,-4.94 -9.57,-9.77 -14.5,-14.5 l -1.81,-1.71 0.02,-1.8 1.8,0.02"
           style="fill:#7cbc2b;fill-opacity:1;fill-rule:nonzero;stroke:none"
           id="path100860" /><path
           d="m 4164.08,2671.2 c 14.77,6.39 29.43,13 43.98,19.84 14.56,6.85 29.01,13.91 43.35,21.19 8.07,4.11 16.12,8.28 24.13,12.53 1.43,0.76 0.15,2.95 -1.29,2.19 -14.21,-7.54 -28.53,-14.85 -42.97,-21.94 -14.43,-7.09 -28.98,-13.96 -43.62,-20.6 -8.26,-3.75 -16.54,-7.42 -24.86,-11.02 l -0.46,-1.73 1.74,-0.46"
           style="fill:#7cbc2b;fill-opacity:1;fill-rule:nonzero;stroke:none"
           id="path100862" /><path
           d="m 4162.91,2670.99 c 6.62,0.85 13.28,1.38 19.94,1.59 6.67,0.22 13.34,0.12 19.99,-0.28 6.62,-0.39 13.21,-1.07 19.65,-2.03 6.62,-0.99 13.2,-2.26 19.73,-3.8 6.47,-1.54 12.89,-3.35 19.22,-5.41 l 2.35,-0.78 1.54,0.91 -0.9,1.55 c -6.35,2.14 -12.79,4.02 -19.29,5.63 -6.51,1.61 -13.08,2.95 -19.7,4 -6.64,1.05 -13.34,1.83 -20.06,2.31 -6.65,0.47 -13.32,0.64 -19.98,0.51 -6.69,-0.14 -13.38,-0.59 -20.03,-1.36 l -2.46,-0.3 -1.27,-1.27 1.27,-1.27"
           style="fill:#7cbc2b;fill-opacity:1;fill-rule:nonzero;stroke:none"
           id="path100864" /><path
           d="m 4162.29,2671.16 2.38,-1.33 1.14,-0.77 0.25,-0.19 -0.02,0.02 0.13,-0.1 0.58,-0.45 c 1.53,-1.22 2.96,-2.57 4.31,-3.98 2.76,-2.86 5.27,-5.95 7.8,-9.01 3.09,-3.73 6.13,-7.51 9.12,-11.33 l 0.57,-0.74 0.12,-0.15 0.32,-0.42 1.11,-1.43 c 0.75,-0.96 1.49,-1.93 2.23,-2.91 1.47,-1.93 2.92,-3.87 4.36,-5.82 2.89,-3.9 5.71,-7.83 8.49,-11.81 l 1.02,-1.48 1.74,-0.46 0.46,1.74 c -2.78,4.02 -5.63,8 -8.53,11.95 -2.89,3.94 -5.84,7.85 -8.84,11.71 -3.03,3.9 -6.12,7.76 -9.25,11.58 -2.62,3.18 -5.21,6.38 -8.01,9.4 -2.67,2.88 -5.61,5.67 -9.06,7.58 l -1.17,0.6 -1.73,-0.48 0.48,-1.72"
           style="fill:#7cbc2b;fill-opacity:1;fill-rule:nonzero;stroke:none"
           id="path100866" /><path
           d="m 3980.98,2707.79 c -12.37,-2.96 -19.32,-4.09 -26.24,-4.64 -10.22,-0.8 -20.67,-0.32 -30.42,2.84 -9.75,3.15 -18.79,9.14 -24.39,17.73 -3.09,4.74 -5.11,10.51 -4.02,16.06 1.11,5.66 5.33,10.34 10.32,13.25 4.99,2.9 10.7,4.26 16.37,5.36 -21.25,4.76 -39.01,22.57 -43.69,43.84 -2.33,10.53 -1.48,22.14 4.36,31.21 2.65,4.1 6.38,7.66 10.99,9.26 10.3,3.56 21.01,-3.29 29.76,-9.78 5.62,-4.17 11.22,-8.34 16.84,-12.5 -3.04,10.96 -4.16,22.65 -1.6,33.74 2.56,11.08 9.1,21.5 18.88,27.31 9.79,5.81 22.89,6.36 32.38,0.09 9.08,-6 13.72,-17.13 14.51,-27.98 0.78,-10.85 -1.74,-21.64 -4.24,-32.23 12.79,7.55 29.64,7.65 42.53,0.25 5.15,-2.96 9.95,-7.54 10.7,-13.44 0.86,-6.83 -3.87,-12.98 -8.32,-18.24 -4.49,-5.31 -8.98,-10.63 -13.47,-15.94 11.66,0.24 24.74,-0.87 32.45,-9.63 8.67,-9.87 6.33,-26.08 -2.22,-36.05 -8.55,-9.97 -21.63,-14.82 -34.47,-17.62 -15.4,-3.36 -31.32,-4.34 -47.01,-2.89"
           style="fill:#93d44d;fill-opacity:1;fill-rule:nonzero;stroke:none"
           id="path100868" /><path
           d="m 3980.23,2716.4 c -1.44,1.33 -2.99,2.52 -4.57,3.7 l 0.27,-0.2 -2.54,2.11 c -1.05,1 -1.94,2.12 -2.86,3.24 -1.92,2.32 -3.95,4.54 -6.08,6.66 -2.15,2.14 -4.4,4.17 -6.74,6.08 -2.42,1.97 -4.92,3.81 -7.5,5.53 -2.51,1.67 -5.11,3.21 -7.78,4.62 l -0.99,0.52 -1.73,-0.48 0.48,-1.72 c 3.58,-1.85 7.05,-3.93 10.36,-6.23 0.93,-0.65 1.86,-1.32 2.77,-2.01 l -0.25,0.2 c 3.36,-2.53 6.55,-5.29 9.54,-8.25 1.49,-1.48 2.94,-3.02 4.33,-4.61 l 2.03,-2.4 2.03,-2.34 c 1.28,-1.34 2.75,-2.43 4.21,-3.53 l -0.25,0.2 c 1.21,-0.92 2.38,-1.87 3.5,-2.91 l 1.79,0.02 -0.02,1.8"
           style="fill:#7cbc2b;fill-opacity:1;fill-rule:nonzero;stroke:none"
           id="path100870" /><path
           d="m 3980.44,2716.14 c -3.27,5.99 -6.66,11.92 -10.18,17.77 -3.54,5.91 -7.22,11.74 -11.01,17.5 -3.81,5.78 -7.74,11.48 -11.78,17.1 -4.02,5.6 -8.17,11.12 -12.43,16.55 -4.23,5.39 -8.57,10.7 -13.01,15.92 l -1.68,1.95 -1.8,-0.02 0.02,-1.8 c 4.45,-5.14 8.77,-10.38 12.99,-15.7 4.24,-5.35 8.35,-10.78 12.36,-16.3 4.05,-5.57 7.98,-11.23 11.8,-16.96 3.8,-5.72 7.49,-11.52 11.07,-17.38 3.54,-5.85 6.97,-11.76 10.27,-17.75 l 1.19,-2.18 1.74,-0.44 0.45,1.74"
           style="fill:#7cbc2b;fill-opacity:1;fill-rule:nonzero;stroke:none"
           id="path100872" /><path
           d="m 3980.66,2716.35 c -2.37,15.9 -5,31.77 -7.87,47.6 -2.86,15.82 -5.97,31.6 -9.33,47.33 -1.89,8.86 -3.86,17.71 -5.9,26.54 -0.37,1.59 -2.81,0.92 -2.44,-0.68 3.62,-15.67 7.01,-31.39 10.15,-47.16 3.14,-15.78 6.04,-31.6 8.69,-47.46 1.5,-8.94 2.92,-17.89 4.26,-26.85 l 1.57,-0.88 0.87,1.56"
           style="fill:#7cbc2b;fill-opacity:1;fill-rule:nonzero;stroke:none"
           id="path100874" /><path
           d="m 3980.57,2715.16 c 0.89,6.61 2.09,13.18 3.59,19.68 1.5,6.5 3.31,12.92 5.41,19.25 2.08,6.29 4.43,12.49 7.01,18.46 2.66,6.15 5.58,12.19 8.74,18.08 3.16,5.87 6.55,11.61 10.17,17.19 l 1.36,2.07 -0.48,1.74 -1.73,-0.48 c -3.7,-5.59 -7.18,-11.33 -10.4,-17.2 -3.22,-5.87 -6.21,-11.88 -8.93,-18 -2.72,-6.16 -5.2,-12.43 -7.38,-18.8 -2.17,-6.3 -4.05,-12.7 -5.64,-19.18 -1.59,-6.5 -2.87,-13.08 -3.83,-19.7 l -0.34,-2.45 0.9,-1.56 1.55,0.9"
           style="fill:#7cbc2b;fill-opacity:1;fill-rule:nonzero;stroke:none"
           id="path100876" /><path
           d="m 3980.25,2714.6 1.89,1.96 1.04,0.9 0.25,0.2 -0.02,-0.01 0.13,0.09 0.58,0.45 c 1.57,1.16 3.24,2.19 4.95,3.14 3.48,1.93 7.11,3.56 10.72,5.22 4.4,2.03 8.83,4 13.29,5.9 l 0.86,0.37 0.18,0.07 0.49,0.21 1.66,0.7 c 1.12,0.47 2.26,0.94 3.39,1.41 2.23,0.92 4.49,1.83 6.75,2.72 4.5,1.78 9.03,3.5 13.59,5.16 l 1.69,0.62 0.89,1.55 -1.56,0.89 c -4.6,-1.66 -9.18,-3.38 -13.74,-5.16 -4.56,-1.79 -9.09,-3.64 -13.59,-5.55 -4.55,-1.92 -9.07,-3.91 -13.56,-5.96 -3.74,-1.71 -7.52,-3.39 -11.16,-5.32 -3.46,-1.84 -6.91,-3.96 -9.65,-6.8 l -0.88,-0.99 0.02,-1.79 1.79,0.02"
           style="fill:#7cbc2b;fill-opacity:1;fill-rule:nonzero;stroke:none"
           id="path100878" /><path
           d="m 3918.2,2567.27 c -9,-11.05 -14.42,-16.79 -20.22,-21.98 -8.57,-7.67 -18.2,-14.34 -29.04,-18.16 -10.83,-3.81 -22.97,-4.62 -33.79,-0.77 -5.98,2.13 -11.7,5.9 -14.51,11.58 -2.86,5.81 -2.27,12.85 0.2,18.82 2.47,5.98 6.64,11.08 10.95,15.91 -22.18,-10.2 -50.11,-6.4 -68.75,9.37 -9.23,7.81 -16.37,18.74 -17.33,30.79 -0.44,5.45 0.47,11.16 3.5,15.72 6.76,10.18 20.97,11.36 33.17,11.52 7.83,0.1 15.68,0.2 23.51,0.3 -10.16,7.71 -19.11,17.36 -24.37,28.99 -5.25,11.62 -6.51,25.35 -1.73,37.18 4.77,11.83 16.07,21.21 28.79,22.08 12.17,0.83 23.87,-5.93 31.96,-15.07 8.07,-9.14 13.16,-20.46 18.13,-31.61 6.27,15.43 21.22,26.98 37.74,29.14 6.6,0.87 14,0.04 18.67,-4.7 5.42,-5.51 5.38,-14.2 4.99,-21.92 -0.39,-7.79 -0.79,-15.58 -1.18,-23.37 10.23,8.14 22.65,16.06 35.48,13.48 14.43,-2.9 23.36,-18.94 22.52,-33.64 -0.84,-14.7 -9.2,-27.92 -18.74,-39.13 -11.44,-13.47 -24.97,-25.16 -39.95,-34.53"
           style="fill:#93d44d;fill-opacity:1;fill-rule:nonzero;stroke:none"
           id="path100880" /><path
           d="m 3911.7,2574.42 c -2.2,0.22 -4.39,0.22 -6.59,0.2 h 0.37 c -1.24,-0.01 -2.47,0.02 -3.7,0.16 -1.61,0.18 -3.18,0.56 -4.75,0.93 -3.28,0.77 -6.6,1.38 -9.95,1.82 -3.36,0.44 -6.75,0.72 -10.15,0.83 -3.47,0.11 -6.96,0.06 -10.43,-0.17 -3.37,-0.23 -6.74,-0.61 -10.07,-1.17 l -1.24,-0.21 -1.23,-1.6 1.61,-1.22 c 4.45,0.8 8.95,1.3 13.46,1.5 1.28,0.06 2.56,0.09 3.84,0.1 h -0.36 c 4.72,0.03 9.43,-0.26 14.11,-0.87 2.34,-0.31 4.68,-0.69 7,-1.16 1.16,-0.23 2.3,-0.49 3.44,-0.76 1.13,-0.27 2.26,-0.54 3.4,-0.72 2.05,-0.31 4.1,-0.28 6.16,-0.27 h -0.36 c 1.7,0.01 3.4,-0.05 5.09,-0.21 l 1.59,1.24 -1.24,1.58"
           style="fill:#7cbc2b;fill-opacity:1;fill-rule:nonzero;stroke:none"
           id="path100882" /><path
           d="m 3912.05,2574.33 c -6.98,3.13 -14.03,6.1 -21.14,8.93 -7.19,2.85 -14.43,5.55 -21.72,8.11 -7.32,2.56 -14.7,4.97 -22.12,7.23 -7.4,2.25 -14.84,4.36 -22.33,6.3 -7.44,1.94 -14.91,3.72 -22.42,5.34 -0.94,0.2 -1.88,0.4 -2.83,0.6 l -1.58,-1.24 1.24,-1.58 c 7.45,-1.56 14.87,-3.29 22.26,-5.17 7.4,-1.89 14.76,-3.93 22.09,-6.13 7.39,-2.21 14.74,-4.58 22.05,-7.1 7.27,-2.51 14.5,-5.16 21.68,-7.96 7.13,-2.8 14.21,-5.74 21.22,-8.84 l 2.55,-1.13 1.84,0.79 -0.79,1.85"
           style="fill:#7cbc2b;fill-opacity:1;fill-rule:nonzero;stroke:none"
           id="path100884" /><path
           d="m 3912.12,2574.68 c -12.93,12.56 -26.07,24.91 -39.38,37.07 -13.31,12.16 -26.81,24.1 -40.49,35.84 -7.72,6.62 -15.48,13.16 -23.3,19.64 -1.42,1.17 -3.14,-1.09 -1.72,-2.26 13.87,-11.5 27.58,-23.21 41.11,-35.13 13.53,-11.92 26.87,-24.05 40.01,-36.39 7.41,-6.95 14.76,-13.96 22.05,-21.04 l 1.99,0.28 -0.27,1.99"
           style="fill:#7cbc2b;fill-opacity:1;fill-rule:nonzero;stroke:none"
           id="path100886" /><path
           d="m 3912.84,2573.55 c -3.71,6.5 -7.11,13.17 -10.18,19.99 -3.08,6.81 -5.83,13.76 -8.27,20.83 -2.43,7.02 -4.54,14.15 -6.29,21.22 -1.82,7.29 -3.31,14.65 -4.51,22.06 -1.18,7.37 -2.05,14.79 -2.62,22.23 -0.07,0.92 -0.14,1.84 -0.2,2.77 l -1.6,1.22 -1.22,-1.6 c 0.51,-7.5 1.31,-14.98 2.42,-22.41 1.11,-7.42 2.55,-14.8 4.29,-22.11 1.75,-7.34 3.81,-14.61 6.19,-21.77 2.35,-7.09 5.03,-14.08 8.02,-20.92 3.01,-6.88 6.34,-13.61 9.98,-20.17 l 1.36,-2.42 1.86,-0.78 0.77,1.86"
           style="fill:#7cbc2b;fill-opacity:1;fill-rule:nonzero;stroke:none"
           id="path100888" /><path
           d="m 3912.94,2572.84 c 0.05,1.02 0.17,2.03 0.35,3.03 l 0.31,1.51 0.09,0.34 -0.01,-0.01 0.05,0.16 0.22,0.8 c 0.61,2.1 1.4,4.16 2.28,6.16 1.78,4.09 3.91,8.01 6,11.94 2.54,4.8 5.15,9.56 7.83,14.29 l 0.52,0.91 0.1,0.19 0.3,0.52 1,1.75 c 0.69,1.19 1.38,2.38 2.07,3.56 1.37,2.35 2.76,4.69 4.16,7.01 2.81,4.66 5.68,9.27 8.61,13.85 l 1.09,1.7 -0.27,1.99 -2,-0.27 c -2.96,-4.61 -5.87,-9.26 -8.73,-13.94 -2.84,-4.69 -5.62,-9.42 -8.35,-14.18 -2.73,-4.81 -5.42,-9.66 -8.03,-14.54 -2.17,-4.07 -4.39,-8.13 -6.32,-12.32 -1.84,-3.99 -3.47,-8.23 -3.98,-12.63 l -0.11,-1.48 1.23,-1.58 1.59,1.24"
           style="fill:#7cbc2b;fill-opacity:1;fill-rule:nonzero;stroke:none"
           id="path100890" /><path
           d="m 4133.15,2399.91 c -2.92,8.04 -7.93,13.6 -13.86,13.6 H 3880.3 c -10.61,0 -18.49,-17.46 -16.17,-35.83 l 23.54,-186.33 c 155.23,-48.53 222.1,122.03 245.48,208.56"
           style="fill:#fbe668;fill-opacity:1;fill-rule:nonzero;stroke:none"
           id="path100892" /><path
           d="m 3887.67,2191.35 6.62,-52.39 c 1.7,-13.42 8.41,-22.96 16.17,-22.96 h 181.37 c 7.87,0 14.65,9.83 16.24,23.51 l 27.46,238.72 c 0.91,7.91 -0.14,15.51 -2.38,21.68 -23.38,-86.53 -90.25,-257.09 -245.48,-208.56"
           style="fill:#ebd253;fill-opacity:1;fill-rule:nonzero;stroke:none"
           id="path100894" /></g></g></g></svg>
