<?xml version="1.0" encoding="UTF-8" standalone="no"?>
<!-- Created with Inkscape (http://www.inkscape.org/) -->

<svg
   width="39.602341mm"
   height="88.251259mm"
   viewBox="0 0 39.602341 88.251259"
   version="1.1"
   id="svg21595"
   xmlns:inkscape="http://www.inkscape.org/namespaces/inkscape"
   xmlns:sodipodi="http://sodipodi.sourceforge.net/DTD/sodipodi-0.dtd"
   xmlns="http://www.w3.org/2000/svg"
   xmlns:svg="http://www.w3.org/2000/svg">
  <sodipodi:namedview
     id="namedview21597"
     pagecolor="#505050"
     bordercolor="#eeeeee"
     borderopacity="1"
     inkscape:showpageshadow="0"
     inkscape:pageopacity="0"
     inkscape:pagecheckerboard="0"
     inkscape:deskcolor="#505050"
     inkscape:document-units="mm"
     showgrid="false"
     inkscape:zoom="0.51669473"
     inkscape:cx="396.75265"
     inkscape:cy="562.22753"
     inkscape:window-width="1370"
     inkscape:window-height="746"
     inkscape:window-x="70"
     inkscape:window-y="27"
     inkscape:window-maximized="1"
     inkscape:current-layer="layer1" />
  <defs
     id="defs21592" />
  <g
     inkscape:label="Calque 1"
     inkscape:groupmode="layer"
     id="layer1"
     transform="translate(-87.131701,-49.73078)">
    <path
       d="m 125.85527,124.3754 c -0.17382,-1.39824 -0.0911,-2.54776 0.0622,-4.19415 0.27769,-2.96981 0.28829,-6.10417 0.39357,-9.18548 0.13778,-4.00621 0.23599,-8.2181 0.17947,-12.3375 -0.11306,-8.4789 -0.13001,-16.92459 -0.15474,-23.80804 -0.007,-1.59827 0.18512,-3.09692 -0.17099,-4.44365 -0.1067,-0.40204 -0.51368,-0.66277 -0.28405,-1.14041 -3.1167,-2.9655 -6.7711,-5.43144 -10.54633,-7.78293 -0.14485,-1.71132 0.10033,-3.78724 -0.38791,-5.17636 -0.32008,-0.0911 -0.70375,-0.12295 -1.12628,-0.12012 -4.75808,-1.99042 -9.13955,-4.91423 -14.221238,-6.45598 -0.85142,1.15101 -0.58928,3.4926 -0.74897,5.38198 -1.39407,1.31918 -2.89271,2.5253 -4.24793,3.88899 -1.3651,1.37076 -2.71324,2.78391 -4.25216,3.96883 -0.24377,0.87757 -1.00829,1.2033 -1.35804,1.97064 -0.0424,0.31372 -0.37943,-0.0926 -0.56809,0.14132 -0.0707,0.40416 0.31019,0.38579 0.2141,0.81538 -0.61048,0.66489 -0.64723,1.68377 -0.66277,2.88283 -0.0883,6.33444 -0.31725,13.23839 -0.5158,19.83214 -0.0572,1.88232 0.2148,3.70387 0.29605,5.49433 0.19785,4.34268 -0.50732,8.91641 -0.45644,13.38048 0.0247,2.14297 0.077,4.26849 0.10457,6.3774 0.0304,2.23568 0.236,4.51933 0.0198,6.53448 -0.0509,0.47418 -0.28192,0.97013 -0.2911,1.44346 -0.0198,0.95338 0.55748,1.7162 0.39144,2.67728 3.80632,4.24221 9.23846,7.16178 13.508298,10.86854 0.61896,0.53685 1.40467,1.0422 1.71203,1.83271 0.34269,0.21417 0.74543,-0.12004 0.96801,0.0334 0.17523,0.26914 -0.12295,0.49517 0.0551,0.72707 0.50237,-0.0453 0.37378,-0.76868 0.60271,-1.10791 0.94115,-0.12005 1.54457,-0.9023 2.52529,-0.72064 0.13991,-0.36819 0.47482,-0.40713 0.74544,-0.53904 4.6104,-2.24147 10.42905,-3.23343 14.64518,-5.95516 1.35097,-0.0855 1.90987,-1.01817 3.03191,-1.34828 0.21763,0.08 -0.15332,0.27577 0.0671,0.40437 0.24023,-0.78218 1.3764,-0.84294 1.34885,-1.7292 -0.0155,-0.55586 -0.63804,-0.8062 -0.76098,-1.31621 -0.0869,-0.35611 -0.0622,-0.84379 -0.11729,-1.29452"
       style="fill:#231615;fill-opacity:1;fill-rule:evenodd;stroke:none;stroke-width:0.0706575"
       id="path17630" />
    <path
       d="m 100.54434,55.08945 c 1.99395,0.86767 3.84094,1.87383 5.79462,2.77825 0.0431,-1.23509 0.0841,-2.47089 0.12718,-3.70599 -1.70284,-0.93267 -3.72082,-1.57 -5.5671,-2.36914 -0.0403,1.18281 -0.16816,2.27022 -0.3547,3.29688"
       style="fill:#ffffff;fill-opacity:1;fill-rule:evenodd;stroke:none;stroke-width:0.0706575"
       id="path17632" />
    <path
       d="m 106.7834,54.33483 c 0.0636,1.21389 0.10669,2.44757 0.0318,3.79218 0.2473,0.10599 0.49531,0.21268 0.71506,0.34622 -0.14627,-1.1178 -0.1392,-2.59736 0.048,-3.78936 -0.2798,-0.10386 -0.42465,-0.33279 -0.79489,-0.34904"
       style="fill:#ffffff;fill-opacity:1;fill-rule:evenodd;stroke:none;stroke-width:0.0706575"
       id="path17634" />
    <path
       d="m 107.97609,54.85769 c 0.26356,1.13688 -0.37165,3.61131 0.50591,4.05291 0.32997,-1.13546 -0.0671,-2.61362 0.20703,-3.70527 -0.24942,-0.10458 -0.41617,-0.28687 -0.71294,-0.34764"
       style="fill:#ffffff;fill-opacity:1;fill-rule:evenodd;stroke:none;stroke-width:0.0706575"
       id="path17636" />
    <path
       d="m 109.15961,55.62503 c 0.0459,0.56597 0.0805,1.38842 0.0862,2.1819 0.008,0.68114 -0.33704,1.69437 0.50732,1.71133 0.0155,-1.31988 0.10669,-2.55922 0.21127,-3.78442 -0.29253,-0.0926 -0.54619,-0.21903 -0.79631,-0.35046 -0.003,0.0813 -0.006,0.1611 -0.008,0.24165"
       style="fill:#ffffff;fill-opacity:1;fill-rule:evenodd;stroke:none;stroke-width:0.0706575"
       id="path17638" />
    <path
       d="m 110.4378,55.99174 c 0.36459,1.09025 -0.59635,3.83388 0.42677,4.04797 -0.14908,-1.13476 0.0615,-2.60726 0.0523,-3.86991 -0.23741,0.0127 -0.24165,-0.19148 -0.47906,-0.17806"
       style="fill:#ffffff;fill-opacity:1;fill-rule:evenodd;stroke:none;stroke-width:0.0706575"
       id="path17640" />
    <path
       d="m 112.98147,57.12792 c -0.017,1.37428 -0.0805,2.6977 -0.52569,3.61271 -0.24306,-1.15383 -0.17029,-2.60019 -0.10528,-4.03949 -0.21692,-0.13495 -0.5808,-0.13212 -0.79772,-0.2692 -0.0148,1.39266 -0.20279,2.94783 0.0205,4.11721 0.50237,0.3872 1.16655,0.62744 1.74312,0.94611 0.036,-1.33119 0.57727,-3.77382 -0.33492,-4.36734"
       style="fill:#ffffff;fill-opacity:1;fill-rule:evenodd;stroke:none;stroke-width:0.0706575"
       id="path17642" />
    <path
       d="m 99.448442,56.50401 c -1.08742,1.49017 -2.44404,2.67156 -3.76463,3.90524 -1.26124,1.17715 -2.70477,2.20805 -3.67631,3.66854 2.3529,1.80742 4.93896,3.3958 7.6621,4.85911 2.003848,-3.1167 4.519248,-5.68581 6.512498,-8.81452 -2.24832,-1.15242 -4.14971,-2.62493 -6.655928,-3.5357 -0.004,-0.0495 -0.01,-0.0954 -0.0777,-0.0827"
       style="fill:#ffffff;fill-opacity:1;fill-rule:evenodd;stroke:none;stroke-width:0.0706575"
       id="path17644" />
    <path
       d="m 100.14159,69.27606 c 0.27062,0.11164 0.45645,0.30241 0.71082,0.42818 2.06461,-3.08208 4.21825,-6.06665 6.51603,-8.89578 -0.28546,-0.19925 -0.57374,-0.39921 -0.95034,-0.5165 -2.02999,3.05947 -4.26065,5.90838 -6.27651,8.9841"
       style="fill:#ffffff;fill-opacity:1;fill-rule:evenodd;stroke:none;stroke-width:0.0706575"
       id="path17646" />
    <path
       d="m 101.32581,70.04199 c 0.37802,0.0636 0.48118,0.38225 0.87192,0.43313 2.03705,-3.13649 4.35674,-5.97268 6.59658,-8.89296 -0.41688,-0.10316 -0.59211,-0.43454 -1.02948,-0.51862 -2.17908,2.95913 -4.46697,5.79886 -6.43902,8.97845"
       style="fill:#ffffff;fill-opacity:1;fill-rule:evenodd;stroke:none;stroke-width:0.0706575"
       id="path17648" />
    <path
       d="m 102.67113,70.81357 c 0.24942,0.10457 0.41688,0.28686 0.71364,0.34763 2.17484,-2.96267 4.49594,-5.76848 6.51745,-8.89578 -0.30878,-0.10174 -0.44726,-0.36176 -0.79349,-0.4303 -2.09499,3.04816 -4.50865,5.75293 -6.4376,8.97845"
       style="fill:#ffffff;fill-opacity:1;fill-rule:evenodd;stroke:none;stroke-width:0.0706575"
       id="path17650" />
    <path
       d="m 104.09417,71.67064 c 0.32927,0.0813 0.54477,0.27062 0.87615,0.35187 2.57335,-2.75634 5.04354,-5.62504 7.54976,-8.45699 -0.77229,-0.31867 -1.4725,-0.70516 -2.2243,-1.04361 -1.71698,3.42547 -4.2875,5.93593 -6.20161,9.14873"
       style="fill:#ffffff;fill-opacity:1;fill-rule:evenodd;stroke:none;stroke-width:0.0706575"
       id="path17652" />
    <path
       d="m 115.1012,63.57259 c 0.85142,0.81962 1.51913,1.80741 2.99729,2.03988 0.0148,0.22045 0.0897,0.38296 0.22469,0.49107 0.31372,0.17523 0.48047,-0.17099 0.89169,-0.13001 0.25225,0.21126 0.0523,0.36176 -0.0219,0.64439 0.1611,0.006 0.32291,0.0113 0.484,0.017 0.97296,1.24852 2.52389,1.95933 3.7717,2.95207 0.0495,-0.44726 0.32856,-0.65005 0.74968,-0.70163 -3.32868,-1.59756 -5.8886,-3.91372 -8.9191,-5.79038 0.0756,0.30383 -0.20844,0.22187 -0.17805,0.47765"
       style="fill:#ffffff;fill-opacity:1;fill-rule:evenodd;stroke:none;stroke-width:0.0706575"
       id="path17654" />
    <path
       d="m 99.058412,70.28646 c -0.17169,-0.1724 0.0798,-0.25719 -0.0664,-0.40487 -2.88706,-1.33401 -5.14103,-3.26225 -7.74194,-4.86265 -0.1406,0.35047 -0.45574,0.51439 -0.51792,0.95035 3.29971,1.52267 6.08927,3.52086 9.348698,5.07886 0.094,-0.17665 0.14767,-0.3978 0.26072,-0.55466 -0.498128,-0.27062 -0.796308,-0.69881 -1.283138,-0.20703"
       style="fill:#ffffff;fill-opacity:1;fill-rule:evenodd;stroke:none;stroke-width:0.0706575"
       id="path17656" />
    <path
       d="m 117.01107,66.70483 c -1.34461,0.20562 -2.3642,1.47392 -3.46434,2.22218 1.22591,-0.66489 2.40024,-1.38559 3.46434,-2.22218"
       style="fill:#ffffff;fill-opacity:1;fill-rule:evenodd;stroke:none;stroke-width:0.0706575"
       id="path17658" />
    <path
       d="m 103.60946,83.51496 c -0.13283,-3.417 -0.77299,-6.89971 -1.37146,-9.48719 -0.44726,-0.036 -0.31655,0.90654 -0.74826,0.61967 0.0784,-0.41829 0.40416,-0.57162 0.44019,-1.03372 -3.862838,-2.34865 -8.074728,-4.37228 -11.872568,-6.77888 -0.0841,0.72989 -0.45504,1.58273 -0.56315,2.31969 -0.26637,1.82861 -0.0367,4.08259 0.0304,6.21432 0.065,2.05472 0.20066,4.12923 0.1936,6.13873 -0.0113,4.25852 -0.37519,8.65695 -0.52075,12.89358 -0.3017,8.84547 0.11659,18.51148 -0.51862,27.0108 4.48957,3.50694 9.0279,6.9669 13.605798,10.3875 0.11023,-13.85247 -0.12718,-27.47997 1.01041,-41.43638 -0.094,-0.17664 -0.37166,0.59635 -0.57586,0.30241 0.8062,-1.68376 0.9885,-4.59697 0.89028,-7.15053"
       style="fill:#ffffff;fill-opacity:1;fill-rule:evenodd;stroke:none;stroke-width:0.0706575"
       id="path17660" />
    <path
       d="m 100.4751,71.30463 c 0.33421,0.13001 0.52781,0.39074 0.95387,0.43596 0.0523,-0.16675 0.20703,-0.22328 0.17665,-0.47835 -0.39074,-0.0516 -0.4939,-0.37024 -0.87192,-0.43384 -0.006,0.24589 -0.18088,0.30948 -0.2586,0.47623"
       style="fill:#ffffff;fill-opacity:1;fill-rule:evenodd;stroke:none;stroke-width:0.0706575"
       id="path17662" />
    <path
       d="m 101.90096,72.07904 c 0.25084,0.10457 0.41688,0.28687 0.71506,0.34622 -0.0523,-0.24801 0.2261,-0.14626 0.17523,-0.39709 -0.27486,-0.0805 -0.33986,-0.35894 -0.71506,-0.34552 -0.0403,0.15192 -0.17947,0.19502 -0.17523,0.39639"
       style="fill:#ffffff;fill-opacity:1;fill-rule:evenodd;stroke:none;stroke-width:0.0706575"
       id="path17664" />
    <path
       d="m 104.37539,72.88878 c -0.33421,-0.12931 -0.52852,-0.39003 -0.95388,-0.43596 -0.0523,0.16816 -0.20844,0.22398 -0.17805,0.47906 0.44584,0.0452 0.68467,0.6345 1.0323,0.52004 0.13425,-0.28263 -0.27132,-0.0594 -0.23458,-0.25084 0.20561,-0.003 0.31654,-0.10669 0.33421,-0.3123"
       style="fill:#ffffff;fill-opacity:1;fill-rule:evenodd;stroke:none;stroke-width:0.0706575"
       id="path17666" />
    <path
       d="m 110.63918,73.74868 c -0.14627,0.12294 -0.43314,0.094 -0.65005,0.13919 -0.49531,0.73837 -0.87757,1.5898 -1.3757,2.45535 -0.56597,0.98709 -1.45979,2.02575 -1.31777,3.18241 1.08883,-1.95297 2.1925,-3.88898 3.49967,-5.6102 -0.007,-0.0975 -0.0177,-0.19007 -0.15615,-0.16675"
       style="fill:#ffffff;fill-opacity:1;fill-rule:evenodd;stroke:none;stroke-width:0.0706575"
       id="path17668" />
    <path
       d="m 105.93056,76.97702 c 0.0113,-0.45292 -0.0579,-0.83093 -0.12012,-1.21319 0.0389,-0.14909 0.45998,-0.56738 0.094,-0.40063 -0.30878,0.0869 -0.19078,0.84506 -0.20562,1.28385 -0.25366,7.41903 -0.52569,16.33954 -0.95529,23.28666 0.16181,-0.3836 0.30666,-0.78437 0.59918,-1.02948 0.34128,0.74466 -0.45645,1.26547 -0.63168,1.99522 -0.14767,0.6155 -0.029,1.30031 0.008,2.09797 0.68326,-1.83159 2.18615,-2.78271 1.9657,-5.58145 -0.48189,0.26362 -0.49461,1.03089 -0.93339,1.34058 -0.16393,-0.91664 0.69598,-1.48515 0.88605,-2.30908 0.48329,-2.09507 -0.15051,-4.57727 0.23316,-6.85032 -0.23175,-0.10104 -0.31159,0.37519 -0.4084,0.14626 0.52428,-0.58363 0.43596,-1.75584 0.33563,-2.73091 -0.2572,0.61543 -0.61402,1.12275 -0.94399,1.66116 0.012,-1.99254 1.67671,-2.69205 1.06269,-5.12832 -0.35187,0.59917 -0.63521,1.27113 -1.03089,1.82226 -0.36318,-1.71274 1.42516,-2.17555 1.02241,-3.91938 -0.39497,0.58222 -0.73271,1.66681 -1.19481,1.89574 -0.23741,-2.03422 1.4725,-2.43132 1.27042,-4.15254 -0.43455,0.67761 -0.71011,1.52267 -1.20189,2.1381 0.14626,-3.35129 2.27305,-4.58355 3.22693,-7.0714 -1.79965,0.0784 -2.20169,1.65338 -3.07784,2.7189"
       style="fill:#ffffff;fill-opacity:1;fill-rule:evenodd;stroke:none;stroke-width:0.0706575"
       id="path17670" />
    <path
       d="m 103.11133,74.45949 c 0.32714,0.65853 0.29534,1.64915 0.56455,2.35996 10e-4,-0.91219 0.30877,-2.52388 -0.56455,-2.35996"
       style="fill:#ffffff;fill-opacity:1;fill-rule:evenodd;stroke:none;stroke-width:0.0706575"
       id="path17672" />
    <path
       d="m 108.43961,86.18016 c 0.50803,-1.34815 1.63643,-2.47867 1.28172,-4.47404 -0.59281,1.26265 -1.8378,2.51188 -1.28172,4.47404"
       style="fill:#ffffff;fill-opacity:1;fill-rule:evenodd;stroke:none;stroke-width:0.0706575"
       id="path17674" />
    <path
       d="m 107.24479,88.07519 c 0.73625,-0.63097 1.18634,-2.01374 0.9242,-3.43678 -0.64581,0.78288 -1.02807,1.84911 -0.9242,3.43678"
       style="fill:#ffffff;fill-opacity:1;fill-rule:evenodd;stroke:none;stroke-width:0.0706575"
       id="path17676" />
    <path
       d="m 109.61535,84.84968 c -0.20561,0.78147 -1.03937,1.44212 -1.2146,2.45958 -0.3215,1.88091 0.22115,4.27337 0.11163,6.21645 0.20562,-0.66771 0.94116,-1.17292 1.11781,-2.05896 0.36318,-1.8159 -0.21198,-5.13609 -0.0148,-6.61707"
       style="fill:#ffffff;fill-opacity:1;fill-rule:evenodd;stroke:none;stroke-width:0.0706575"
       id="path17678" />
    <path
       d="m 113.11925,86.17874 c -0.52851,1.44778 -2.00102,2.74646 -1.3757,4.87537 0.17806,-0.2579 0.35046,-0.95882 0.67195,-0.78359 -0.52003,0.87615 -1.05562,1.98477 -0.68043,3.36612 0.18513,-0.95387 1.26124,-1.74453 1.46968,-2.85527 0.27062,-1.44212 -0.17664,-3.00859 -0.0855,-4.60263"
       style="fill:#ffffff;fill-opacity:1;fill-rule:evenodd;stroke:none;stroke-width:0.0706575"
       id="path17680" />
    <path
       d="m 108.06018,87.8611 c -1.26124,1.27607 -0.87121,5.42367 -0.82952,7.71862 1.21319,-1.51419 0.70657,-5.31485 0.82952,-7.71862"
       style="fill:#ffffff;fill-opacity:1;fill-rule:evenodd;stroke:none;stroke-width:0.0706575"
       id="path17682" />
    <path
       d="m 111.64251,96.37603 c 0.85001,-1.09307 1.97912,-2.29495 1.51843,-4.30587 -0.537,1.40326 -1.67458,2.16212 -1.51843,4.30587"
       style="fill:#ffffff;fill-opacity:1;fill-rule:evenodd;stroke:none;stroke-width:0.0706575"
       id="path17684" />
    <path
       d="m 108.50179,96.18808 c 0.68325,-1.021 1.47815,-2.22853 1.02382,-4.00062 -0.51721,1.14818 -1.5375,2.25185 -1.02382,4.00062"
       style="fill:#ffffff;fill-opacity:1;fill-rule:evenodd;stroke:none;stroke-width:0.0706575"
       id="path17686" />
    <path
       d="m 110.18555,96.48915 c 0.52711,-0.99775 1.30081,-2.17137 0.93834,-3.84383 -0.69315,0.9786 -1.31282,2.13668 -0.93834,3.84383"
       style="fill:#ffffff;fill-opacity:1;fill-rule:evenodd;stroke:none;stroke-width:0.0706575"
       id="path17688" />
    <path
       d="m 111.77676,99.52799 c 0.45786,-1.29501 1.94308,-2.37254 1.35521,-4.2316 -0.53134,1.36941 -1.86324,2.22232 -1.35521,4.2316"
       style="fill:#ffffff;fill-opacity:1;fill-rule:evenodd;stroke:none;stroke-width:0.0706575"
       id="path17690" />
    <path
       d="m 107.21511,98.40468 c 0.46988,-0.67209 1.06269,-2.088 0.59353,-3.20863 -0.51439,0.71435 -0.99627,2.02561 -0.59353,3.20863"
       style="fill:#ffffff;fill-opacity:1;fill-rule:evenodd;stroke:none;stroke-width:0.0706575"
       id="path17692" />
    <path
       d="m 108.45586,99.8976 c 0.602,-1.23516 1.55305,-2.64831 1.0422,-4.56377 -0.8486,1.10014 -1.39125,2.579 -1.0422,4.56377"
       style="fill:#ffffff;fill-opacity:1;fill-rule:evenodd;stroke:none;stroke-width:0.0706575"
       id="path17694" />
    <path
       d="m 110.17566,99.14934 c 0.46634,-0.93847 1.38701,-1.83074 0.91926,-3.27568 -0.36742,0.97154 -1.26831,1.81589 -0.91926,3.27568"
       style="fill:#ffffff;fill-opacity:1;fill-rule:evenodd;stroke:none;stroke-width:0.0706575"
       id="path17696" />
    <path
       d="m 111.81633,103.07994 c 0.72212,-1.30412 1.99819,-2.75705 1.37994,-4.9574 -0.71859,1.38998 -1.91835,2.71897 -1.37994,4.9574"
       style="fill:#ffffff;fill-opacity:1;fill-rule:evenodd;stroke:none;stroke-width:0.0706575"
       id="path17698" />
    <path
       d="m 107.23914,102.43844 c 0.58363,-0.85559 0.91219,-2.8624 0.54618,-4.17734 -0.78783,0.92576 -0.73413,2.62846 -0.54618,4.17734"
       style="fill:#ffffff;fill-opacity:1;fill-rule:evenodd;stroke:none;stroke-width:0.0706575"
       id="path17700" />
    <path
       d="m 110.22654,102.37916 c 0.42818,-0.93706 1.41173,-2.16007 0.85001,-3.60077 -0.48683,0.9892 -1.32766,2.07803 -0.85001,3.60077"
       style="fill:#ffffff;fill-opacity:1;fill-rule:evenodd;stroke:none;stroke-width:0.0706575"
       id="path17702" />
    <path
       d="m 108.45091,102.39958 c 0.35682,-1.093 1.41669,-1.88238 1.08601,-3.43049 -0.39498,1.05294 -1.39831,1.89864 -1.08601,3.43049"
       style="fill:#ffffff;fill-opacity:1;fill-rule:evenodd;stroke:none;stroke-width:0.0706575"
       id="path17704" />
    <path
       d="m 106.32271,110.39377 c 0.32432,-0.99775 0.89028,-1.99961 0.51439,-3.28995 -0.4402,0.75405 -0.55467,1.85638 -1.2888,2.29637 -0.12718,-1.78248 1.33331,-2.58042 1.28597,-4.55522 10e-4,-0.26052 -0.47835,-0.0734 -0.38862,-0.41674 0.44303,-1.03089 0.32291,-2.81641 0.13496,-3.94997 -0.36601,1.31932 -1.75372,2.47302 -1.91976,4.21048 -0.24377,2.55088 0.19925,5.46275 0.0431,8.23379 0.45362,-0.49594 0.76027,-1.57071 1.50147,-1.48105 -0.47623,1.32652 -1.95298,2.02865 -1.66611,3.89613 0.80621,-1.30992 1.32625,-2.92459 2.62776,-3.70458 -0.19996,-0.5158 0.029,-1.43081 -0.2579,-1.86387 -0.048,0.31301 -0.43737,0.69802 -0.58646,0.62461"
       style="fill:#ffffff;fill-opacity:1;fill-rule:evenodd;stroke:none;stroke-width:0.0706575"
       id="path17706" />
    <path
       d="m 111.92161,107.11675 c 0.22893,-0.76586 1.26265,-1.33338 1.44848,-2.29079 0.18088,-0.92632 -0.0827,-2.04553 -0.13637,-3.07084 -0.89029,1.37859 -1.97205,2.9698 -1.31211,5.36163"
       style="fill:#ffffff;fill-opacity:1;fill-rule:evenodd;stroke:none;stroke-width:0.0706575"
       id="path17708" />
    <path
       d="m 108.50037,105.70918 c 0.48966,-1.25064 1.46403,-2.20034 1.02242,-4.00126 -0.50662,1.08523 -1.56224,2.33798 -1.02242,4.00126"
       style="fill:#ffffff;fill-opacity:1;fill-rule:evenodd;stroke:none;stroke-width:0.0706575"
       id="path17710" />
    <path
       d="m 110.18909,105.84823 c 0.65287,-0.91353 1.44636,-2.38878 0.94257,-4.00345 -0.5695,1.00496 -1.29657,2.28506 -0.94257,4.00345"
       style="fill:#ffffff;fill-opacity:1;fill-rule:evenodd;stroke:none;stroke-width:0.0706575"
       id="path17712" />
    <path
       d="m 107.32322,104.70005 c 0.2261,-0.62101 0.77935,-1.33613 0.48047,-2.24253 -0.21409,0.63316 -0.76875,1.34801 -0.48047,2.24253"
       style="fill:#ffffff;fill-opacity:1;fill-rule:evenodd;stroke:none;stroke-width:0.0706575"
       id="path17714" />
    <path
       d="m 108.47282,108.85422 c 0.54477,-1.01486 1.5799,-2.25963 1.021,-3.91817 -0.52004,1.21333 -1.41739,2.14735 -1.021,3.91817"
       style="fill:#ffffff;fill-opacity:1;fill-rule:evenodd;stroke:none;stroke-width:0.0706575"
       id="path17716" />
    <path
       d="m 107.461,107.77174 c 0.39922,-0.59423 0.6338,-1.79901 0.3328,-2.65184 -0.41829,0.55614 -0.64157,1.82579 -0.3328,2.65184"
       style="fill:#ffffff;fill-opacity:1;fill-rule:evenodd;stroke:none;stroke-width:0.0706575"
       id="path17718" />
    <path
       d="m 110.21806,109.72033 c 0.11093,-0.64008 0.94257,-1.06897 1.11144,-1.81582 0.18371,-0.81256 -0.0869,-1.79131 -0.15191,-2.66874 -0.81257,1.05852 -1.31635,2.60522 -0.95953,4.48456"
       style="fill:#ffffff;fill-opacity:1;fill-rule:evenodd;stroke:none;stroke-width:0.0706575"
       id="path17720" />
    <path
       d="m 111.93221,109.13381 c 0.3978,-0.99472 1.50712,-1.67091 1.39124,-2.9378 -0.41264,0.97705 -1.61876,1.55227 -1.39124,2.9378"
       style="fill:#ffffff;fill-opacity:1;fill-rule:evenodd;stroke:none;stroke-width:0.0706575"
       id="path17722" />
    <path
       d="m 119.57805,116.81781 c -1.19976,2.11287 -2.54367,4.42909 -3.78017,6.72956 -0.70092,1.30222 -1.51702,2.18819 -1.00899,3.51443 2.78249,-4.88533 5.62928,-9.90971 8.49727,-14.87757 0.419,-0.72508 1.13123,-1.52684 1.28314,-2.13378 0.2261,-0.91219 0.0784,-1.74051 0.0855,-2.49923 -1.54811,2.99023 -3.17394,5.91177 -5.07675,9.26659"
       style="fill:#ffffff;fill-opacity:1;fill-rule:evenodd;stroke:none;stroke-width:0.0706575"
       id="path17724" />
    <path
       d="m 112.06504,112.36582 c 0.73696,-1.13822 1.81025,-2.29495 1.27608,-4.31364 -0.66348,1.15949 -1.83215,2.36922 -1.27608,4.31364"
       style="fill:#ffffff;fill-opacity:1;fill-rule:evenodd;stroke:none;stroke-width:0.0706575"
       id="path17726" />
    <path
       d="m 108.51027,112.48728 c 0.80832,-1.07173 1.41809,-2.47937 1.03725,-4.40337 -0.78925,0.98503 -1.51066,2.57624 -1.03725,4.40337"
       style="fill:#ffffff;fill-opacity:1;fill-rule:evenodd;stroke:none;stroke-width:0.0706575"
       id="path17728" />
    <path
       d="m 107.60585,110.59938 c 0.33138,-0.48103 0.37802,-1.70927 0.24447,-2.4109 -0.50661,0.51092 -0.48753,1.62293 -0.24447,2.4109"
       style="fill:#ffffff;fill-opacity:1;fill-rule:evenodd;stroke:none;stroke-width:0.0706575"
       id="path17730" />
    <path
       d="m 110.21594,112.1412 c 0.30453,-0.98369 1.4831,-1.7292 1.06904,-2.94938 -0.41263,0.86859 -1.42657,1.53482 -1.06904,2.94938"
       style="fill:#ffffff;fill-opacity:1;fill-rule:evenodd;stroke:none;stroke-width:0.0706575"
       id="path17732" />
    <path
       d="m 115.87913,125.89044 c -0.66771,1.15094 -1.28455,2.0242 -0.99344,3.11169 0.96589,-0.27274 1.79541,-0.69527 2.77543,-0.95169 1.70426,-2.84891 3.37954,-5.84196 5.06331,-8.8656 0.87474,-1.57072 2.01303,-2.83761 1.62512,-5.10911 -2.36631,4.28114 -4.84074,8.8943 -7.37876,12.90051 -0.34198,0.54286 -0.64157,1.2423 -1.25982,1.49094 2.66732,-5.49857 5.90626,-10.38524 8.76436,-15.67741 -0.0304,-0.64723 0.15756,-1.50006 -0.012,-2.01727 -2.56698,4.83643 -5.76494,10.25303 -8.58418,15.11794"
       style="fill:#ffffff;fill-opacity:1;fill-rule:evenodd;stroke:none;stroke-width:0.0706575"
       id="path17734" />
    <path
       d="m 107.74151,113.75 c 0.37519,-0.75596 0.13496,-2.10425 0.10034,-2.98026 -0.53418,0.64722 -0.12154,2.10835 -0.10034,2.98026"
       style="fill:#ffffff;fill-opacity:1;fill-rule:evenodd;stroke:none;stroke-width:0.0706575"
       id="path17736" />
    <path
       d="m 112.02336,113.57477 c -0.24943,1.35931 0.3441,3.02697 -10e-4,4.76027 0.38367,-0.68757 1.45767,-1.77916 1.62159,-2.60741 0.2791,-1.3947 -0.29393,-3.02336 -0.24801,-4.52766 -0.18088,0.88605 -1.18704,1.37069 -1.37216,2.3748"
       style="fill:#ffffff;fill-opacity:1;fill-rule:evenodd;stroke:none;stroke-width:0.0706575"
       id="path17738" />
    <path
       d="m 110.1149,115.12373 c 0.80196,-0.94123 1.81095,-2.03007 1.25699,-3.75149 -0.5271,1.13772 -1.45413,1.84147 -1.25699,3.75149"
       style="fill:#ffffff;fill-opacity:1;fill-rule:evenodd;stroke:none;stroke-width:0.0706575"
       id="path17740" />
    <path
       d="m 103.96416,120.40092 c 0.39992,-1.02036 1.08036,-1.94223 1.71698,-3.00845 0.43737,-0.73555 1.60322,-2.3281 1.71768,-3.0871 0.10952,-0.72346 -0.26355,-1.56634 -0.32008,-2.43217 -1.02382,2.80171 -3.49966,4.49615 -3.11458,8.52772"
       style="fill:#ffffff;fill-opacity:1;fill-rule:evenodd;stroke:none;stroke-width:0.0706575"
       id="path17742" />
    <path
       d="m 108.49755,115.23105 c 0.27839,-1.014 1.54952,-1.84345 0.99627,-3.19449 -0.42253,0.9136 -1.36511,1.7121 -0.99627,3.19449"
       style="fill:#ffffff;fill-opacity:1;fill-rule:evenodd;stroke:none;stroke-width:0.0706575"
       id="path17744" />
    <path
       d="m 110.14669,116.57772 c -0.37943,1.70708 0.17099,3.74124 -0.029,5.56561 0.20986,-1.18626 1.47674,-2.1429 1.72899,-3.40971 0.29818,-1.49187 -0.33279,-2.95221 -0.32997,-4.52929 -0.21056,0.80345 -1.15172,1.38418 -1.37005,2.37339"
       style="fill:#ffffff;fill-opacity:1;fill-rule:evenodd;stroke:none;stroke-width:0.0706575"
       id="path17746" />
    <path
       d="m 108.47706,118.21329 c 0.38861,-1.112 1.49299,-1.9069 1.09024,-3.59222 -0.54124,0.95338 -1.4506,1.95523 -1.09024,3.59222"
       style="fill:#ffffff;fill-opacity:1;fill-rule:evenodd;stroke:none;stroke-width:0.0706575"
       id="path17748" />
    <path
       d="m 124.40537,119.56575 c -1.76007,2.15145 -2.72455,5.60321 -4.60828,7.34562 0.92067,-2.21582 2.04412,-4.34133 3.28346,-6.34235 0.64863,-1.04771 1.72616,-1.84261 1.16302,-3.34903 -1.56224,3.42329 -3.37814,6.5739 -5.17354,9.74713 0.24165,0.0601 0.21268,0.37399 0.38649,0.49821 0.52004,-0.0268 0.49107,-0.64369 1.06905,-0.61055 0.5483,0.52993 0.44302,1.669 1.2245,1.97925 -0.0127,-0.51862 -0.48189,-1.25862 -0.82952,-1.72199 0.007,-0.2981 0.3116,-0.2791 0.4197,-0.47058 0.18442,-0.89594 0.71859,-1.6478 1.12982,-2.3825 0.40486,-0.72014 0.74543,-1.58569 1.4407,-2.04772 -0.51015,1.32044 -1.53185,2.8128 -2.31827,4.11636 1.07117,0.1286 1.73464,-0.71067 2.85103,-0.79044 -0.041,-1.96351 -0.13213,-3.88066 -0.0382,-5.97141"
       style="fill:#ffffff;fill-opacity:1;fill-rule:evenodd;stroke:none;stroke-width:0.0706575"
       id="path17750" />
    <path
       d="m 111.63827,127.19761 c -0.13919,0.84153 0.23741,1.76919 0.3109,2.75288 0.70516,-2.36512 2.72384,-3.8172 2.09711,-7.10828 -0.36671,1.14818 -2.21865,3.21908 -2.40801,4.3554"
       style="fill:#ffffff;fill-opacity:1;fill-rule:evenodd;stroke:none;stroke-width:0.0706575"
       id="path17752" />
    <path
       d="m 100.71109,132.95753 c -1.791168,-1.42169 -3.627548,-2.76419 -5.343118,-4.21761 -2.30626,-1.95361 -4.4811,-3.99907 -6.81845,-5.88146 -0.0502,0.004 -0.0954,0.0114 -0.0834,0.0798 0.28899,1.26413 1.21177,1.93538 1.83851,2.88565 3.75756,2.25115 7.40137,5.00121 10.713078,7.62882 0.46776,0.37039 0.98144,1.01761 1.41881,0.93431 -0.45716,-0.60695 -1.14677,-0.97154 -1.72546,-1.42948"
       style="fill:#ffffff;fill-opacity:1;fill-rule:evenodd;stroke:none;stroke-width:0.0706575"
       id="path17754" />
    <path
       d="m 123.26072,127.11063 c -0.0657,-0.14492 -0.248,-0.24455 -0.0671,-0.40628 -0.38367,0.0897 -0.68326,0.27047 -0.98426,0.45157 0.11023,0.44436 0.0827,1.01457 0.36035,1.30271 0.64864,-0.44712 1.59121,-0.58066 2.2137,-1.05541 -0.11022,-0.31111 -0.11305,-0.72509 -0.28828,-0.97599 -0.3759,0.26496 -0.75109,0.53297 -1.23439,0.6834"
       style="fill:#ffffff;fill-opacity:1;fill-rule:evenodd;stroke:none;stroke-width:0.0706575"
       id="path17756" />
    <path
       d="m 113.74599,129.28695 c 0.19854,-0.85729 0.85283,-1.68808 0.41687,-2.72886 -0.56738,1.25911 -1.60675,2.4581 -2.05966,3.55908 0.71081,-0.40712 1.63431,-0.58871 2.37409,-0.96737 -0.0692,-0.14216 -0.0141,-0.40133 -0.14485,-0.48831 -0.21692,0.18519 -0.24023,0.57798 -0.58645,0.62546"
       style="fill:#ffffff;fill-opacity:1;fill-rule:evenodd;stroke:none;stroke-width:0.0706575"
       id="path17758" />
    <path
       d="m 120.08114,128.05178 c -0.2247,-0.075 -0.21198,0.10465 -0.40558,0.0671 0.22116,0.43801 0.49814,1.49787 1.09307,1.08523 -0.36954,-0.25281 -0.52993,-0.70163 -0.68749,-1.15236"
       style="fill:#ffffff;fill-opacity:1;fill-rule:evenodd;stroke:none;stroke-width:0.0706575"
       id="path17760" />
    <path
       d="m 110.30638,130.78397 c 0.2791,-0.23013 0.74685,-0.26052 1.0641,-0.44846 -0.001,-0.88464 -0.0756,-1.69578 -0.23953,-2.42857 -0.36883,0.89812 -1.42728,1.65684 -0.82457,2.87703"
       style="fill:#ffffff;fill-opacity:1;fill-rule:evenodd;stroke:none;stroke-width:0.0706575"
       id="path17762" />
    <path
       d="m 119.12655,130.03578 c 0.0163,-0.17806 0.3434,-0.0246 0.48683,-0.0635 -0.34339,-0.43469 -0.52004,-1.02539 -0.92137,-1.4046 -0.31231,0.35024 0.18159,1.14239 0.43454,1.46812"
       style="fill:#ffffff;fill-opacity:1;fill-rule:evenodd;stroke:none;stroke-width:0.0706575"
       id="path17764" />
    <path
       d="m 115.01146,130.05563 c -0.0113,0.29669 -0.0212,0.59282 -0.0304,0.88817 1.13122,-0.125 1.92753,-0.61133 3.08985,-0.70241 -0.19996,-0.3588 -0.16746,-0.93819 -0.52569,-1.14818 -0.79914,0.37038 -1.63148,0.70516 -2.53378,0.96242"
       style="fill:#ffffff;fill-opacity:1;fill-rule:evenodd;stroke:none;stroke-width:0.0706575"
       id="path17766" />
    <path
       d="m 113.37715,130.64626 c -0.1611,0.11595 0.1286,0.34339 -0.17523,0.39716 -0.67478,0.001 -1.26689,0.0911 -1.4725,0.59649 -0.33774,-0.39363 -0.91077,0.18986 -1.37711,0.19403 0.004,0.2001 0,0.39222 -0.17523,0.3966 -0.25155,0.0521 -0.14909,-0.22547 -0.39922,-0.17389 0.0996,0.19297 0.0156,0.55756 0.13708,0.72975 1.5912,-0.66404 3.24035,-1.26378 4.90433,-1.84755 -0.13495,-0.16039 -0.15544,-0.42811 -0.21904,-0.65443 -0.48471,0.0389 -0.75815,0.30248 -1.22308,0.36184"
       style="fill:#ffffff;fill-opacity:1;fill-rule:evenodd;stroke:none;stroke-width:0.0706575"
       id="path17768" />
    <path
       d="m 109.59203,130.43648 c -0.21126,0.14357 -0.22116,0.49241 0.0622,0.56667 -0.0431,-0.1681 0.11729,-0.52576 -0.0622,-0.56667"
       style="fill:#ffffff;fill-opacity:1;fill-rule:evenodd;stroke:none;stroke-width:0.0706575"
       id="path17770" />
    <path
       d="m 108.88122,132.34783 c -0.4084,0.006 -0.50238,0.70799 -0.35753,1.03725 0.2473,-0.0135 0.36883,-0.16258 0.57162,-0.22193 -0.0375,-0.30249 0.0593,-0.73279 -0.21409,-0.81532"
       style="fill:#ffffff;fill-opacity:1;fill-rule:evenodd;stroke:none;stroke-width:0.0706575"
       id="path17772" />
    <path
       d="m 107.00314,133.00968 c -0.0777,0.4361 0.077,0.65718 0.0438,1.05216 0.28475,-10e-4 0.36883,-0.21967 0.65287,-0.22109 0.0262,-0.41398 0.0163,-0.79348 -0.12435,-1.05435 -0.11871,0.15488 -0.42042,0.1074 -0.57233,0.22328"
       style="fill:#ffffff;fill-opacity:1;fill-rule:evenodd;stroke:none;stroke-width:0.0706575"
       id="path17774" />
    <path
       d="m 105.81892,134.5835 c 0.236,0.0304 0.25366,-0.17388 0.48966,-0.1435 0.0127,-0.37731 0.0247,-0.75272 0.0375,-1.12918 -0.24872,-0.0163 -0.38791,0.0856 -0.5688,0.14047 0.0226,0.37046 0.0996,0.68891 0.0417,1.13221"
       style="fill:#ffffff;fill-opacity:1;fill-rule:evenodd;stroke:none;stroke-width:0.0706575"
       id="path17776" />
    <path
       d="m 111.91878,62.25482 c 0.3971,0.22752 0.69386,0.5476 1.27113,0.60836 -0.19077,-0.32997 -1.22308,-0.66135 -1.27113,-0.60836"
       style="fill:#ffffff;fill-opacity:1;fill-rule:evenodd;stroke:none;stroke-width:0.0706575"
       id="path17778" />
    <path
       d="m 114.14025,65.71845 c 0.23741,-0.38649 0.93339,-0.28192 1.15384,-0.68608 -0.39215,-0.14767 -1.13123,0.44444 -1.15384,0.68608"
       style="fill:#ffffff;fill-opacity:1;fill-rule:evenodd;stroke:none;stroke-width:0.0706575"
       id="path17780" />
    <path
       d="m 115.59368,65.68807 c -0.50662,0.21127 -1.26689,0.5907 -1.40326,0.92067 0.43878,-0.42112 1.06764,-0.63945 1.56718,-0.99627 -0.0636,0.0162 -0.15827,-0.003 -0.16392,0.0756"
       style="fill:#ffffff;fill-opacity:1;fill-rule:evenodd;stroke:none;stroke-width:0.0706575"
       id="path17782" />
    <path
       d="m 117.76852,68.18299 c 0.25931,-0.16817 0.83093,0 1.05562,-0.20703 -0.2579,-0.47906 -1.06693,-0.0191 -1.05562,0.20703"
       style="fill:#ffffff;fill-opacity:1;fill-rule:evenodd;stroke:none;stroke-width:0.0706575"
       id="path17784" />
    <path
       d="m 108.13861,71.32301 c -0.40558,0.62461 -1.02807,1.45978 -1.19765,2.05896 1.13123,-0.57162 2.81782,-0.54831 3.75615,-1.32483 0.15333,0.0382 -0.007,0.36812 0.31372,0.25224 3.47989,-1.03513 7.44377,-1.55375 11.28966,-2.19674 -0.74403,-0.58009 -1.55659,-1.09307 -2.44828,-1.53468 -3.68833,1.14536 -7.43812,2.22571 -11.7136,2.74505"
       style="fill:#ffffff;fill-opacity:1;fill-rule:evenodd;stroke:none;stroke-width:0.0706575"
       id="path17786" />
    <path
       d="m 110.16436,68.72988 c -0.15969,0.49954 -0.86768,0.85142 -0.8486,1.26265 0.52852,-0.13001 0.85566,-0.47482 1.23509,-0.76452 -0.0579,-0.23176 -0.16816,-0.41546 -0.38649,-0.49813"
       style="fill:#ffffff;fill-opacity:1;fill-rule:evenodd;stroke:none;stroke-width:0.0706575"
       id="path17788" />
    <path
       d="m 111.62343,122.92057 c -0.17664,-0.47468 0.24801,-0.89862 0.44727,-1.27537 2.96973,-5.63416 5.90908,-11.40539 9.20313,-16.7105 0.47624,-0.76458 0.81963,-1.73308 1.60888,-2.20501 -3.83105,6.64732 -7.46144,13.51021 -11.25928,20.19088 z m 13.13523,-37.31345 c -0.0544,-4.92624 -0.0869,-9.59246 -0.23105,-14.53142 -1.84769,0.47341 -3.72577,0.91361 -5.76848,1.17575 -1.75371,3.31878 -3.68337,6.75697 -5.43568,10.30327 -0.81538,1.65197 -2.09499,3.16828 -1.63148,5.27034 0.24448,-1.08742 1.36652,-1.93177 1.63855,-3.09268 0.15686,-0.6663 -0.17947,-1.57566 0.23882,-2.24973 0.22611,0.38508 -0.12436,1.31282 0.10175,1.69931 1.46402,-2.75493 3.09833,-5.67097 4.71851,-8.2323 0.52851,-0.83447 1.03371,-1.81307 1.85334,-2.27517 -1.67105,2.73656 -3.36047,5.76847 -4.97641,8.705 -0.53558,0.97295 -1.43505,2.0745 -1.63501,3.01001 -0.32997,1.53609 0.0424,3.05523 0.0841,4.60051 1.68872,-2.9224 3.29264,-6.38532 5.29931,-8.6937 -1.32906,2.35713 -2.63057,4.92907 -3.96247,7.36887 -0.74614,1.36793 -1.81166,2.45252 -1.28031,4.39419 1.7523,-2.90897 3.58657,-6.27227 5.39187,-9.01448 0.24236,-0.36954 0.38862,-1.021 0.92138,-1.01676 -1.49441,2.81923 -3.07149,5.82924 -4.73194,8.63363 -0.78359,1.32201 -1.99254,2.50764 -1.51631,4.22532 1.76644,-3.09268 3.59718,-6.54006 5.56287,-9.33315 0.23599,-0.33279 0.5158,-1.05562 1.08035,-0.93126 -1.76785,2.65248 -3.48341,5.7494 -5.13821,8.70076 -0.91996,1.64279 -2.11407,2.99235 -1.47109,5.27607 1.4937,-2.56134 3.1273,-5.41809 4.70508,-7.82751 0.18442,-0.28263 0.39992,-0.8486 0.83305,-0.78006 -1.31635,2.42214 -2.70194,4.94744 -4.12357,7.36385 -0.47199,0.80211 -1.27325,1.67402 -1.45413,2.4526 -0.27486,1.17277 0.0961,2.18628 0.0438,3.38937 0.68043,-0.69527 1.00333,-2.20671 2.09217,-2.18763 -0.50096,1.49596 -2.01162,2.35572 -2.0738,4.04373 0.64722,-0.94943 1.09024,-2.11669 2.02999,-2.7548 -0.46493,1.94174 -2.69982,3.2588 -1.98618,6.22563 0.24165,-0.32431 0.25648,-0.89318 0.83517,-0.85841 0.14343,0.66411 -0.68185,1.01181 -0.86838,1.82579 -0.32432,1.39965 0.1081,3.29687 0.082,4.6824 2.59101,-4.28192 4.69307,-9.33584 7.53986,-12.89358 -1.73181,3.56326 -3.76039,6.95835 -5.59819,10.3781 -0.7412,1.38001 -1.75725,2.66315 -2.08298,4.28608 -0.20844,0.1811 -0.24801,-0.2473 -0.40699,0.0679 -0.52852,1.07611 -1.29727,1.89425 -1.56224,3.25384 -0.041,-0.1435 0.11305,-0.46923 -0.065,-0.48548 -0.57798,0.88456 -1.0634,1.86521 -1.78269,2.60217 -0.077,0.36042 0.12153,1.01902 -0.19996,1.12225 -0.15898,-1.93319 -0.0982,-4.07001 -0.2791,-5.98137 -0.48966,1.06432 -1.25841,1.82883 -1.40326,3.26021 0.0191,-0.19791 0.029,-0.39052 -0.14626,-0.40769 -0.33986,0.67266 -0.6776,1.54591 -1.04785,2.30357 -0.34622,0.71209 -0.66771,1.67671 -1.35238,1.81088 0.32149,-0.88187 0.63097,-1.80091 1.0641,-2.78962 0.57162,-1.30491 1.57071,-2.3789 1.27113,-4.15113 -0.9991,1.49235 -1.64915,3.35764 -2.90049,4.58086 0.35328,-1.05428 0.88816,-1.94887 1.39054,-2.93808 0.69597,-1.36644 1.76149,-2.62619 1.44212,-4.38846 -0.21622,0.1871 -0.10316,0.72424 -0.27416,0.96023 -0.004,-0.12859 0.0191,-0.27987 -0.15332,-0.24871 -0.84436,1.38835 -1.68942,2.93285 -2.65107,4.3477 -0.54618,0.80535 -1.22167,1.23346 -0.88746,2.38878 0.065,0.063 0.36742,0.0423 0.39215,0.33619 10e-4,3.37969 0.0954,6.67438 0.14202,10.01104 1.01818,0.31435 2.14728,-0.6114 3.33715,-0.85453 0.69669,-2.1747 -0.19784,-5.68298 0.59423,-7.96805 0.29535,2.32534 -0.0219,5.22314 0.2254,7.59293 1.93743,-0.98921 0.20985,-4.5389 1.19199,-6.5761 0.25013,1.22323 0.10528,2.81443 0.34764,4.04649 0.13849,-0.7383 0.89735,-1.23071 1.03796,-2.06172 0.0777,-0.46203 -0.36036,-1.39965 0.22257,-1.76919 0.30453,0.10457 0.0742,0.71067 0.12506,1.05435 0.537,-0.62405 0.89735,-1.4005 1.36652,-2.21384 0.39639,-0.68396 1.10649,-1.56358 1.28738,-2.29503 0.20702,-0.83156 -0.1505,-1.76368 0.33138,-2.57044 0.16675,0.64997 -0.0509,1.3008 0.18088,1.78134 2.59172,-4.57232 5.50069,-9.15099 8.12985,-13.60157 0.35188,-0.59507 0.67902,-1.37866 1.34674,-1.64773 -2.14305,4.26842 -4.71286,8.24149 -7.1993,12.3416 -1.10013,1.81583 -2.96761,3.82265 -2.32675,6.69699 3.20573,-6.00588 6.45245,-11.97008 10.11816,-17.48497 0.0989,-4.78839 0.58645,-9.48994 0.47905,-14.02332 -0.0579,-2.42073 -0.44443,-4.93967 -0.47199,-7.44024"
       style="fill:#ffffff;fill-opacity:1;fill-rule:evenodd;stroke:none;stroke-width:0.0706575"
       id="path17790" />
    <path
       d="m 109.30587,77.33525 c -0.71576,1.28244 -1.9452,2.69558 -2.0851,4.36663 0.67619,-0.93409 1.27536,-2.12679 1.88514,-3.24459 0.60765,-1.10932 1.02665,-2.43415 1.95862,-3.00011 -0.903,1.86182 -1.86606,3.79218 -2.85385,5.6321 -0.67619,1.257 -1.22874,2.20805 -0.86414,4.00487 1.22025,-2.16 2.45958,-4.64785 3.70245,-6.8135 0.38932,-0.67619 0.79207,-1.62018 1.59544,-1.79965 -0.9037,1.90352 -2.92168,3.49755 -2.47442,6.28923 0.96306,-1.8371 1.72758,-3.88758 3.24177,-5.13398 -0.55749,0.92491 -1.12346,1.98901 -1.72193,3.16828 -0.51226,1.00475 -1.45342,2.19463 -1.64561,3.25308 -0.0579,0.3229 0.0417,0.63591 0.0488,0.96871 0.0594,2.6334 -0.0954,5.59183 0.11729,8.39623 0.63592,-0.85001 1.16161,-1.81731 1.00758,-3.51804 -0.40063,0.10246 -0.5483,0.91643 -0.83658,0.86132 0.43171,-1.15243 0.99909,-2.16071 0.8599,-3.92361 -0.18795,-0.19572 -0.38509,0.74826 -0.58363,0.54265 0.85425,-1.20189 0.50096,-3.69539 0.91077,-5.3728 0.38508,0.62673 -0.10952,2.07592 0.14485,2.8263 2.042,-4.29951 4.35815,-8.75446 6.64039,-12.52051 -2.24549,0.5476 -4.55246,1.02948 -6.98591,1.3757 -0.71717,1.12911 -1.33542,2.33947 -2.06178,3.64169"
       style="fill:#ffffff;fill-opacity:1;fill-rule:evenodd;stroke:none;stroke-width:0.0706575"
       id="path17792" />
  </g>
</svg>
