<?xml version="1.0" encoding="UTF-8" standalone="no"?>
<!-- Created with Inkscape (http://www.inkscape.org/) -->

<svg
   width="91.884804mm"
   height="51.022064mm"
   viewBox="0 0 91.884804 51.022064"
   version="1.1"
   id="svg21595"
   xmlns:inkscape="http://www.inkscape.org/namespaces/inkscape"
   xmlns:sodipodi="http://sodipodi.sourceforge.net/DTD/sodipodi-0.dtd"
   xmlns="http://www.w3.org/2000/svg"
   xmlns:svg="http://www.w3.org/2000/svg">
  <sodipodi:namedview
     id="namedview21597"
     pagecolor="#505050"
     bordercolor="#eeeeee"
     borderopacity="1"
     inkscape:showpageshadow="0"
     inkscape:pageopacity="0"
     inkscape:pagecheckerboard="0"
     inkscape:deskcolor="#505050"
     inkscape:document-units="mm"
     showgrid="false"
     inkscape:zoom="0.51669473"
     inkscape:cx="396.75265"
     inkscape:cy="562.22753"
     inkscape:window-width="1370"
     inkscape:window-height="746"
     inkscape:window-x="70"
     inkscape:window-y="27"
     inkscape:window-maximized="1"
     inkscape:current-layer="layer1" />
  <defs
     id="defs21592" />
  <g
     inkscape:label="Calque 1"
     inkscape:groupmode="layer"
     id="layer1"
     transform="translate(93.923083,-164.57136)">
    <path
       d="m -2.7041992,190.41966 c -0.225398,-0.4084 -0.360354,-0.9454 -0.553955,-1.26689 -0.276977,-0.45927 -0.734131,-0.73696 -0.94893,-1.09872 -0.385084,-0.64228 -0.594936,-1.34815 -0.95105,-1.94167 -0.367419,-0.61401 -0.751089,-1.18563 -1.187046,-1.77492 -1.595446,-2.15434 -3.419822,-4.48109 -5.3007248,-6.33444 -0.994857,-0.98002 -1.802472,-2.10913 -2.849616,-3.0411 -1.30787,-1.16373 -2.859509,-2.16424 -4.274072,-3.12518 -3.012835,-2.04836 -5.968438,-3.85648 -9.416524,-5.49079 -1.728282,-0.81822 -3.728595,-1.56083 -5.618683,-1.77351 -0.02544,-0.002 -0.0537,-7e-4 -0.07843,0 -1.053503,0.036 -2.479371,0.39569 -3.561844,0.67549 -1.031599,0.26779 -2.05684,0.655 -3.086319,0.92985 -6.259547,1.66823 -12.379192,3.59082 -18.517915,5.40601 -4.164553,1.23085 -8.302255,2.27376 -12.345277,3.63179 -4.045141,1.35804 -8.028104,2.8581 -12.186297,3.80067 -0.760981,0.64369 -1.74948,0.71788 -2.612208,1.01464 -0.869793,0.29747 -1.705671,0.69315 -2.610794,1.01252 -1.743827,0.61614 -3.975897,1.08318 -4.669753,2.70336 -0.322905,0.75674 -0.634505,3.08773 -0.316546,4.39207 0.06783,0.27203 0.370245,0.53699 0.633091,0.92985 1.51843,2.26033 2.750696,5.17637 4.115799,7.18021 0.936918,1.37429 1.958626,2.40519 2.848203,3.5463 3.810559,4.88809 8.547437,8.62092 13.374757,12.24777 1.630774,1.22732 3.292639,2.29213 5.302138,2.95773 0.602001,0.19854 0.929852,0.56455 1.265475,0.59069 0.568086,0.0452 1.975584,-0.67478 2.84891,-1.01323 2.963376,-1.14818 5.88153,-2.28365 8.625867,-3.20997 4.281137,-1.44494 8.180724,-2.47018 11.949594,-3.80066 1.872424,-0.66206 3.732836,-1.51207 5.69782,-2.19674 4.942492,-1.72122 10.427633,-2.8263 15.035914,-4.64503 0.949637,-0.3759 1.774916,-0.86838 2.690638,-1.26689 1.095191,-0.47764 2.391756,-0.75815 3.64098,-1.09872 1.178567,-0.32149 2.336643,-0.84577 3.482001,-1.26689 1.172914,-0.43172 2.3776248,-0.78076 3.5604308,-1.18281 1.207537,-0.40981 2.362787,-1.00969 3.482001,-1.35167 1.080353,-0.32997 2.202394,-0.32856 2.690637,-0.84507 0.260727,-0.27485 0.618253,-1.41103 0.474819,-2.19603 -0.05511,-0.29747 -0.366006,-0.6119 -0.633091,-1.09802"
       style="fill:#231615;fill-opacity:1;fill-rule:evenodd;stroke:none;stroke-width:0.0706575"
       id="path11942" />
    <path
       d="m -38.63212,169.64071 c -0.0042,0.1074 -0.10104,0.11729 -0.07843,0.25366 -0.102453,0.51085 -0.07984,1.15383 -0.158979,1.68942 0.178763,-0.26144 0.265672,-1.35027 0.633091,-1.68942 0.07278,0.92208 -0.214092,1.46049 -0.237409,2.28011 0.476938,-0.16745 1.220255,-0.0495 1.820137,-0.0841 0.09609,-0.74261 0.238822,-1.43435 0.316545,-2.19603 -0.715053,-0.13779 -1.399018,-0.30948 -2.294955,-0.25366"
       style="fill:#ffffff;fill-opacity:1;fill-rule:evenodd;stroke:none;stroke-width:0.0706575"
       id="path11944" />
    <path
       d="m -39.581757,169.80958 c -0.01625,0.88322 -0.12789,1.6661 -0.07914,2.61856 0.508734,-0.58221 0.288283,-1.94449 0.633091,-2.70335 -0.250127,-0.0417 -0.279097,0.15262 -0.553955,0.0848"
       style="fill:#ffffff;fill-opacity:1;fill-rule:evenodd;stroke:none;stroke-width:0.0706575"
       id="path11946" />
    <path
       d="m -35.941483,172.17448 c 0.149794,0.094 0.373778,0.10811 0.553955,0.16958 0.05017,-0.73554 0.281217,-1.27678 0.395682,-1.94308 -0.238822,-0.0834 -0.471285,-0.1724 -0.712228,-0.25366 -0.08974,0.66418 -0.202787,1.30504 -0.237409,2.02716"
       style="fill:#ffffff;fill-opacity:1;fill-rule:evenodd;stroke:none;stroke-width:0.0706575"
       id="path11948" />
    <path
       d="m -41.164484,173.52687 c 0.239529,-0.87121 0.166751,-2.5253 0.237409,-3.29476 -0.119411,0.15403 -0.341276,0.19855 -0.474819,0.33774 0.03533,1.0316 -0.03604,2.17837 0.23741,2.95702"
       style="fill:#ffffff;fill-opacity:1;fill-rule:evenodd;stroke:none;stroke-width:0.0706575"
       id="path11950" />
    <path
       d="m -34.6753,172.59702 c 0.247301,-0.46846 0.363886,-1.07541 0.553954,-1.60393 -0.12789,-0.11729 -0.250127,-0.24023 -0.395682,-0.33845 0.02049,0.62532 -0.452914,1.58273 -0.158272,1.94238"
       style="fill:#ffffff;fill-opacity:1;fill-rule:evenodd;stroke:none;stroke-width:0.0706575"
       id="path11952" />
    <path
       d="m -41.560166,174.96192 c -0.496722,-0.90512 -0.30736,-2.54367 -0.474819,-3.80066 -0.827399,1.11356 -0.226104,2.90826 0.474819,3.80066"
       style="fill:#ffffff;fill-opacity:1;fill-rule:evenodd;stroke:none;stroke-width:0.0706575"
       id="path11954" />
    <path
       d="m -33.725664,172.93476 c 0.17735,-0.40204 0.250834,-0.91431 0.475525,-1.26689 -0.197841,0.0134 -0.245888,-0.13284 -0.395682,-0.16887 0.0431,0.46281 -0.498135,1.12981 -0.07984,1.43576"
       style="fill:#ffffff;fill-opacity:1;fill-rule:evenodd;stroke:none;stroke-width:0.0706575"
       id="path11956" />
    <path
       d="m -32.776027,172.00561 c 0.0078,0.48895 -0.610481,1.32483 0,1.43576 0.0085,-0.46846 0.30948,-0.62673 0.395682,-1.01323 -0.09821,-0.17664 -0.230344,-0.31725 -0.395682,-0.42253"
       style="fill:#ffffff;fill-opacity:1;fill-rule:evenodd;stroke:none;stroke-width:0.0706575"
       id="path11958" />
    <path
       d="m -31.905527,172.76589 c 0.03886,0.43737 -0.372365,0.838 -0.158273,1.1828 0.04946,-0.3985 0.35894,-0.51721 0.395682,-0.92844 -0.149794,-0.01 -0.05511,-0.28051 -0.237409,-0.25436"
       style="fill:#ffffff;fill-opacity:1;fill-rule:evenodd;stroke:none;stroke-width:0.0706575"
       id="path11960" />
    <path
       d="m -36.099755,173.44137 c -1.635721,-0.14273 -2.976801,-0.366 -3.877684,0.25366 -1.570716,4.95945 5.846908,6.97602 8.467594,3.88617 0.08408,-2.56417 -2.084396,-3.91938 -4.58991,-4.13983"
       style="fill:#ffffff;fill-opacity:1;fill-rule:evenodd;stroke:none;stroke-width:0.0706575"
       id="path11962" />
    <path
       d="m -51.609781,173.8639 c 0.06006,1.02171 -0.09963,1.80884 -0.07914,2.78744 0.756035,0.094 1.502884,0.19714 2.294248,0.25366 0.308773,-1.0217 0.688911,-1.96781 1.10791,-2.87222 -0.857076,-0.4727 -2.290716,-0.51863 -3.323022,-0.16888"
       style="fill:#ffffff;fill-opacity:1;fill-rule:evenodd;stroke:none;stroke-width:0.0706575"
       id="path11964" />
    <path
       d="m -31.351572,174.87784 c 0.231756,0.0219 0.243062,-0.19148 0.474112,-0.16887 -0.10528,-0.39356 -0.20632,-0.79349 -0.474112,-1.01394 -0.0092,0.50591 -0.2579,0.83729 0,1.18281"
       style="fill:#ffffff;fill-opacity:1;fill-rule:evenodd;stroke:none;stroke-width:0.0706575"
       id="path11966" />
    <path
       d="m -52.717691,174.03278 c 0.05158,0.92985 -0.105986,2.08298 0.07843,2.87222 0.629559,-0.53911 0.20844,-2.19956 0.633798,-2.95631 -0.318665,-0.0579 -0.451501,0.0806 -0.712228,0.0841"
       style="fill:#ffffff;fill-opacity:1;fill-rule:evenodd;stroke:none;stroke-width:0.0706575"
       id="path11968" />
    <path
       d="m -53.826307,174.53939 c 0.212679,0.70304 -0.163925,2.03423 0.316546,2.4497 0.248714,-0.5582 0.249421,-2.2568 0.07914,-2.70195 -0.118704,0.0975 -0.192895,0.24306 -0.395682,0.25225"
       style="fill:#ffffff;fill-opacity:1;fill-rule:evenodd;stroke:none;stroke-width:0.0706575"
       id="path11970" />
    <path
       d="m -48.761578,177.24275 c 0.212679,0.11093 0.421119,0.22681 0.633091,0.33845 0.349755,-0.95105 0.75109,-1.84558 1.10791,-2.78815 -0.278391,-0.0678 -0.367419,-0.34057 -0.711521,-0.33774 -0.269205,1.00899 -0.644396,1.9028 -1.02948,2.78744"
       style="fill:#ffffff;fill-opacity:1;fill-rule:evenodd;stroke:none;stroke-width:0.0706575"
       id="path11972" />
    <path
       d="m -54.301125,177.66528 c 0.102453,-0.49107 0.08267,-2.04271 -0.158273,-2.70336 -0.35682,0.72 -0.102453,2.09641 0.158273,2.70336"
       style="fill:#ffffff;fill-opacity:1;fill-rule:evenodd;stroke:none;stroke-width:0.0706575"
       id="path11974" />
    <path
       d="m -46.465916,175.21558 c -0.187242,1.00899 -1.046437,2.11478 -0.8705,2.95631 0.647929,-0.65994 0.915721,-1.72475 1.344612,-2.61786 -0.278391,0.0141 -0.26002,-0.28616 -0.474112,-0.33845"
       style="fill:#ffffff;fill-opacity:1;fill-rule:evenodd;stroke:none;stroke-width:0.0706575"
       id="path11976" />
    <path
       d="m -46.624895,178.59372 c 0.187242,0.0261 0.146967,0.29393 0.395682,0.25436 0.265672,-0.84365 0.732011,-1.47179 1.028773,-2.28153 -0.110226,-0.19148 -0.273445,-0.32714 -0.395682,-0.50661 -0.30524,0.88463 -0.722826,1.64915 -1.028773,2.53378"
       style="fill:#ffffff;fill-opacity:1;fill-rule:evenodd;stroke:none;stroke-width:0.0706575"
       id="path11978" />
    <path
       d="m -44.963031,177.07387 c -0.106693,0.86909 -1.278901,1.76997 -0.712228,2.53378 0.23317,-0.82174 0.830933,-1.25276 1.10791,-2.02645 -0.134249,-0.16676 -0.184416,-0.42254 -0.395682,-0.50733"
       style="fill:#ffffff;fill-opacity:1;fill-rule:evenodd;stroke:none;stroke-width:0.0706575"
       id="path11980" />
    <path
       d="m -54.696807,178.67851 c -0.0049,-0.41618 -0.132836,-0.70234 -0.316545,-0.92915 0.02402,0.3978 0.03745,0.8055 0.316545,0.92915"
       style="fill:#ffffff;fill-opacity:1;fill-rule:evenodd;stroke:none;stroke-width:0.0706575"
       id="path11982" />
    <path
       d="m -52.005463,177.83344 c -0.341276,0.3978 -0.614014,0.86556 -1.107909,1.09873 -0.224691,0.29676 -0.144848,0.91642 -0.15898,1.43646 0.74261,0.45928 1.264769,1.6866 2.295662,2.02717 0.146261,0.0487 0.346928,-0.0608 0.474112,0 0.163925,0.077 0.224691,0.33774 0.395682,0.42182 0.144141,0.0714 0.416879,0.006 0.633797,0.0848 0.696683,0.25366 1.600393,0.8917 2.610795,0.50662 -0.0318,-0.82246 0.789244,-0.73414 1.187045,-1.09732 -0.954582,-2.67368 -2.822766,-4.81036 -6.330204,-4.47827"
       style="fill:#ffffff;fill-opacity:1;fill-rule:evenodd;stroke:none;stroke-width:0.0706575"
       id="path11984" />
    <path
       d="m -65.854331,178.08781 c -0.01696,0.75321 -0.318666,1.61735 -0.238116,2.19674 0.56526,-0.32856 0.524279,-1.74948 0.633798,-2.28153 0.01342,0.18371 -0.280511,0.0375 -0.395682,0.0848"
       style="fill:#ffffff;fill-opacity:1;fill-rule:evenodd;stroke:none;stroke-width:0.0706575"
       id="path11986" />
    <path
       d="m -64.825558,178.08781 c -0.172404,0.71717 -0.326438,1.45413 -0.395682,2.28082 0.223278,-0.0707 0.204907,0.11871 0.395682,0.0841 0.232463,-0.76522 0.390736,-1.61029 0.633091,-2.36491 -0.302414,0.0756 -0.505908,-0.13849 -0.633091,0"
       style="fill:#ffffff;fill-opacity:1;fill-rule:evenodd;stroke:none;stroke-width:0.0706575"
       id="path11988" />
    <path
       d="m -66.725538,180.19906 c -0.04027,-0.70163 0.58999,-1.55164 0.316545,-1.94238 -0.37943,0.29959 -0.451501,1.37429 -0.316545,1.94238"
       style="fill:#ffffff;fill-opacity:1;fill-rule:evenodd;stroke:none;stroke-width:0.0706575"
       id="path11990" />
    <path
       d="m -45.20044,180.28455 c 0.09256,-0.82669 1.15737,-1.34037 0.8705,-2.02787 -0.20208,0.71293 -0.920667,1.32554 -0.8705,2.02787"
       style="fill:#ffffff;fill-opacity:1;fill-rule:evenodd;stroke:none;stroke-width:0.0706575"
       id="path11992" />
    <path
       d="m -64.192467,180.62159 c 0.497429,0.20137 0.912895,0.48965 1.423748,0.67619 0.188656,-0.7843 0.443023,-1.49935 0.553955,-2.36561 -0.53629,-0.13143 -0.913601,-0.43243 -1.423748,-0.59141 -0.172405,0.7737 -0.366006,1.52409 -0.553955,2.28083"
       style="fill:#ffffff;fill-opacity:1;fill-rule:evenodd;stroke:none;stroke-width:0.0706575"
       id="path11994" />
    <path
       d="m -67.596038,180.45272 c -0.02544,-0.52287 0.386496,-1.42375 0.158272,-1.60464 -0.223984,0.29677 -0.343395,1.15031 -0.158272,1.60464"
       style="fill:#ffffff;fill-opacity:1;fill-rule:evenodd;stroke:none;stroke-width:0.0706575"
       id="path11996" />
    <path
       d="m -62.214764,181.7196 c 0.167458,0.0756 0.233877,0.25649 0.475525,0.25437 0.242355,-0.78288 0.563847,-1.48239 0.791364,-2.28153 -0.332797,-0.0113 -0.379431,-0.32714 -0.712227,-0.33774 -0.202081,0.77087 -0.411227,1.53256 -0.554662,2.3649"
       style="fill:#ffffff;fill-opacity:1;fill-rule:evenodd;stroke:none;stroke-width:0.0706575"
       id="path11998" />
    <path
       d="m -60.947875,182.73354 c 0.199254,-0.88534 0.644396,-1.50854 0.8705,-2.36491 -0.151207,-0.0367 -0.199254,-0.18229 -0.396388,-0.16957 0.04451,0.95246 -0.960236,1.93036 -0.474112,2.53448"
       style="fill:#ffffff;fill-opacity:1;fill-rule:evenodd;stroke:none;stroke-width:0.0706575"
       id="path12000" />
    <path
       d="m -60.39392,183.5779 c 0.553248,-0.64723 0.706575,-1.72263 1.265475,-2.36491 -0.166045,-0.10457 -0.308066,-0.23458 -0.474818,-0.33774 -0.160392,0.95882 -0.795603,1.84557 -0.790657,2.70265"
       style="fill:#ffffff;fill-opacity:1;fill-rule:evenodd;stroke:none;stroke-width:0.0706575"
       id="path12002" />
    <path
       d="m -65.775901,181.7196 c -1.16161,-1.11497 -2.121138,0.48613 -2.610795,1.35098 1.331187,2.60584 3.420529,4.85275 6.647457,5.15305 -0.483297,-1.20259 -1.713444,-2.05614 -1.662571,-3.54772 0.516506,0.24095 0.747556,0.89665 1.028773,1.52055 0.254367,0.56244 0.375192,1.53398 1.02948,1.43576 -0.141315,-0.69456 -1.12628,-1.66893 -1.02948,-2.61856 0.922081,0.42394 1.284554,1.44494 1.662571,2.44969 0.354701,-0.0148 0.588577,-0.15968 0.712228,-0.42253 -0.722826,-3.05806 -2.741511,-4.73193 -5.777663,-5.32122"
       style="fill:#ffffff;fill-opacity:1;fill-rule:evenodd;stroke:none;stroke-width:0.0706575"
       id="path12004" />
    <path
       d="m -58.732763,181.80369 c -0.283336,0.77016 -0.985672,1.89079 -0.790657,2.61856 0.502375,-0.56102 0.661354,-1.48946 1.186339,-2.02645 -0.06783,-0.26497 -0.195721,-0.46705 -0.395682,-0.59211"
       style="fill:#ffffff;fill-opacity:1;fill-rule:evenodd;stroke:none;stroke-width:0.0706575"
       id="path12006" />
    <path
       d="m -23.121388,183.15466 c 0.01625,-0.48966 0.337037,-0.65358 0.316546,-1.18069 -0.108813,0.002 -0.173818,-0.0403 -0.237409,-0.0855 0.0092,0.40698 -0.293935,0.92278 -0.07914,1.26618"
       style="fill:#ffffff;fill-opacity:1;fill-rule:evenodd;stroke:none;stroke-width:0.0706575"
       id="path12008" />
    <path
       d="m -58.732763,185.43619 c 0.225398,-0.7737 1.011109,-1.39831 0.712228,-2.4497 -0.171698,0.83094 -0.813974,1.60817 -0.712228,2.4497"
       style="fill:#ffffff;fill-opacity:1;fill-rule:evenodd;stroke:none;stroke-width:0.0706575"
       id="path12010" />
    <path
       d="m -80.5737,186.45083 c 0.357527,-1.02736 0.577272,-2.19957 0.869794,-3.29617 -0.236702,0 -0.474112,0 -0.711521,0 0.05935,1.11144 -0.416879,2.53236 -0.158273,3.29617"
       style="fill:#ffffff;fill-opacity:1;fill-rule:evenodd;stroke:none;stroke-width:0.0706575"
       id="path12012" />
    <path
       d="m -79.940608,186.53491 c 0.718586,0.0424 0.657821,-0.99203 0.791363,-1.52125 0.166752,-0.66348 0.409814,-1.31494 0.553249,-1.859 -0.236703,0 -0.474819,0 -0.712228,0 -0.260726,1.07399 -0.428891,2.24549 -0.632384,3.38025"
       style="fill:#ffffff;fill-opacity:1;fill-rule:evenodd;stroke:none;stroke-width:0.0706575"
       id="path12014" />
    <path
       d="m -78.991678,186.70308 c 0.186535,-0.001 0.233169,0.14626 0.475525,0.0848 0.488949,-1.139 0.700922,-2.57406 1.424455,-3.46293 -0.302415,-0.0721 -0.605535,-0.14202 -0.949637,-0.17028 -0.411227,1.08318 -0.577272,2.42496 -0.950343,3.54842"
       style="fill:#ffffff;fill-opacity:1;fill-rule:evenodd;stroke:none;stroke-width:0.0706575"
       id="path12016" />
    <path
       d="m -20.747296,183.40903 c -0.320078,0.89664 -0.621786,1.81448 -0.94893,2.70335 0.362473,0.16393 0.58575,0.86909 0.94893,0.76028 0.191482,-1.06411 0.661354,-1.82862 0.791364,-2.95702 -0.215506,-0.21975 -0.416879,-0.45574 -0.791364,-0.50661"
       style="fill:#ffffff;fill-opacity:1;fill-rule:evenodd;stroke:none;stroke-width:0.0706575"
       id="path12018" />
    <path
       d="m -73.847107,185.77393 c -0.404867,1.20118 -0.647929,2.57547 -1.582727,3.20997 0.07348,-1.58273 0.623905,-2.65601 1.423748,-3.46292 -0.582924,-1.01182 -1.385593,-1.78622 -2.689931,-2.02787 -0.313719,1.27113 -0.729185,2.43203 -1.107909,3.6325 1.232267,0.45786 1.887968,1.53185 2.769067,2.36491 0.544769,-1.02383 1.297272,-1.82509 1.820844,-2.87153 -0.23105,-0.26072 -0.296762,-0.69668 -0.633092,-0.84506"
       style="fill:#ffffff;fill-opacity:1;fill-rule:evenodd;stroke:none;stroke-width:0.0706575"
       id="path12020" />
    <path
       d="m -81.760745,183.66269 c -0.862728,0.26213 -0.683965,2.0851 -0.553955,3.12518 0.61472,-0.58222 0.287576,-2.1699 0.633091,-3.0411 -0.0042,-0.0516 -0.01131,-0.10034 -0.07914,-0.0841"
       style="fill:#ffffff;fill-opacity:1;fill-rule:evenodd;stroke:none;stroke-width:0.0706575"
       id="path12022" />
    <path
       d="m -20.589023,187.29448 c 0.332797,-0.0177 0.33209,0.32079 0.633091,0.33774 0.337743,-0.99132 0.773699,-1.87737 1.186339,-2.78673 -0.240235,-0.19431 -0.458567,-0.41122 -0.711521,-0.59211 -0.335623,1.04927 -0.532051,2.24974 -1.107909,3.0411"
       style="fill:#ffffff;fill-opacity:1;fill-rule:evenodd;stroke:none;stroke-width:0.0706575"
       id="path12024" />
    <path
       d="m -83.026927,186.61899 c 0.02685,-0.46633 0.25154,-1.56647 0,-1.7735 -0.307361,0.42889 -0.221158,1.25064 0,1.7735"
       style="fill:#ffffff;fill-opacity:1;fill-rule:evenodd;stroke:none;stroke-width:0.0706575"
       id="path12026" />
    <path
       d="m -19.322841,188.3925 c 0.386496,-0.88251 0.807615,-1.72899 1.343905,-2.4497 -0.0643,-0.26708 -0.22893,-0.42959 -0.394268,-0.59069 -0.09963,0.85283 -1.613111,2.62633 -0.949637,3.04039"
       style="fill:#ffffff;fill-opacity:1;fill-rule:evenodd;stroke:none;stroke-width:0.0706575"
       id="path12028" />
    <path
       d="m -20.43075,188.56137 c -0.907243,-0.9348 -1.618764,-2.48573 -3.244592,-2.78744 -1.657625,-0.30736 -2.971148,0.13708 -3.640274,1.18281 0.243061,1.20471 1.228733,2.34583 2.136682,3.29405 1.318469,1.37782 2.875053,2.81994 5.302845,2.19603 0.234583,-0.0989 -0.26002,-0.10528 -0.238116,-0.25295 1.173621,-0.85566 0.30948,-2.76836 -0.316545,-3.6325"
       style="fill:#ffffff;fill-opacity:1;fill-rule:evenodd;stroke:none;stroke-width:0.0706575"
       id="path12030" />
    <path
       d="m -17.740113,186.28055 c -0.237409,1.06056 -1.303631,2.0745 -1.10791,3.04109 0.445849,-0.95952 1.256997,-1.52973 1.424455,-2.78673 -0.151913,-0.0346 -0.06218,-0.32855 -0.316545,-0.25436"
       style="fill:#ffffff;fill-opacity:1;fill-rule:evenodd;stroke:none;stroke-width:0.0706575"
       id="path12032" />
    <path
       d="m -38.790393,186.53491 c 0.04734,0.17523 -0.09751,0.55466 0.07984,0.5907 -0.06218,-0.20773 0.28687,-0.58505 -0.07984,-0.5907"
       style="fill:#ffffff;fill-opacity:1;fill-rule:evenodd;stroke:none;stroke-width:0.0706575"
       id="path12034" />
    <path
       d="m -38.473847,188.56137 c 0.911481,-0.0403 0.544063,-1.44707 0.949637,-2.02646 -0.211266,0 -0.421826,0 -0.632385,0 -0.01837,0.76876 -0.08903,1.48098 -0.317252,2.02646"
       style="fill:#ffffff;fill-opacity:1;fill-rule:evenodd;stroke:none;stroke-width:0.0706575"
       id="path12036" />
    <path
       d="m -39.898302,186.70308 c -0.0749,0.75321 -0.123651,1.92259 0.07984,2.44969 0.12365,-0.76875 0.371658,-1.85476 0.315839,-2.53378 0.01342,0.18371 -0.28051,0.0382 -0.395682,0.0841"
       style="fill:#ffffff;fill-opacity:1;fill-rule:evenodd;stroke:none;stroke-width:0.0706575"
       id="path12038" />
    <path
       d="m -37.60264,188.56137 c 0.486123,-0.0134 0.778645,0.183 1.265475,0.16887 -0.0028,-0.62249 0.302414,-0.91643 0.316546,-1.51984 -0.464926,-0.0947 -0.679019,-0.45857 -1.186339,-0.50732 -0.06289,0.69385 -0.2042,1.30363 -0.395682,1.85829"
       style="fill:#ffffff;fill-opacity:1;fill-rule:evenodd;stroke:none;stroke-width:0.0706575"
       id="path12040" />
    <path
       d="m -40.847939,189.74488 c 0.197135,-0.72636 0.335623,-2.39317 0.237409,-2.87222 -0.771579,0.34904 -0.233876,2.04412 -0.237409,2.87222"
       style="fill:#ffffff;fill-opacity:1;fill-rule:evenodd;stroke:none;stroke-width:0.0706575"
       id="path12042" />
    <path
       d="m -41.797575,187.29448 c -1.391246,1.06128 -0.646516,3.95823 0.07914,5.15234 0.09327,-1.71697 -0.134249,-3.52227 0.158273,-5.15234 -0.07843,0 -0.158273,0 -0.237409,0"
       style="fill:#ffffff;fill-opacity:1;fill-rule:evenodd;stroke:none;stroke-width:0.0706575"
       id="path12044" />
    <path
       d="m -72.898176,187.37927 c -0.281924,0.57656 -0.673366,1.09166 -1.028067,1.60463 -0.288989,0.41688 -0.867674,0.92349 -0.553955,1.43576 0.705162,-0.76734 1.353798,-1.59544 2.05684,-2.36561 -0.237409,-0.1392 -0.149794,-0.62673 -0.474818,-0.67478"
       style="fill:#ffffff;fill-opacity:1;fill-rule:evenodd;stroke:none;stroke-width:0.0706575"
       id="path12046" />
    <path
       d="m -35.704074,189.06869 c 0.546183,-0.065 0.404868,-0.86343 0.712228,-1.18281 -0.117291,-0.0445 -0.199254,-0.12506 -0.316546,-0.16887 -0.158979,0.42112 -0.258606,0.90654 -0.395682,1.35168"
       style="fill:#ffffff;fill-opacity:1;fill-rule:evenodd;stroke:none;stroke-width:0.0706575"
       id="path12048" />
    <path
       d="m -75.034859,191.26402 c -1.129813,-2.06603 -3.706692,-4.23592 -6.725886,-2.95631 -0.322198,0.52357 0.183003,1.14606 0.474111,1.52125 1.368636,1.75938 3.572443,3.35482 6.015072,3.5463 0.361767,-0.40133 0.202081,-1.36015 0.236703,-2.11124"
       style="fill:#ffffff;fill-opacity:1;fill-rule:evenodd;stroke:none;stroke-width:0.0706575"
       id="path12050" />
    <path
       d="m -34.278912,188.3925 c -0.145554,0.38084 -0.344809,0.70304 -0.396388,1.1821 0.243768,-0.0622 0.151913,0.23246 0.396388,0.17028 0.125064,-0.37307 0.288283,-0.70516 0.395682,-1.09872 -0.248714,0.0403 -0.209853,-0.22752 -0.395682,-0.25366"
       style="fill:#ffffff;fill-opacity:1;fill-rule:evenodd;stroke:none;stroke-width:0.0706575"
       id="path12052" />
    <path
       d="m -33.725664,190.25079 c 0.373778,-0.10811 0.380137,-0.60765 0.633091,-0.84436 -0.112345,-0.0205 -0.132836,-0.13919 -0.237409,-0.16958 -0.135662,0.33492 -0.288989,0.64935 -0.395682,1.01394"
       style="fill:#ffffff;fill-opacity:1;fill-rule:evenodd;stroke:none;stroke-width:0.0706575"
       id="path12054" />
    <path
       d="m -36.811983,189.74488 c -1.401845,-0.30524 -3.412757,0.64157 -3.561137,1.85759 -0.03745,0.30241 0.156153,1.13264 0.316545,1.52055 0.173818,0.41829 0.905829,1.70002 1.108616,1.94308 1.135466,1.36227 4.770087,2.25185 6.567614,1.09872 0.230343,-0.91077 0.541236,-1.71556 0.237409,-2.78956 -0.337743,-1.19199 -2.992345,-3.26649 -4.669047,-3.63038"
       style="fill:#ffffff;fill-opacity:1;fill-rule:evenodd;stroke:none;stroke-width:0.0706575"
       id="path12056" />
    <path
       d="m -32.617754,189.99713 c -0.02968,0.31866 -0.610481,0.96942 -0.07914,1.09872 -0.175937,-0.54123 0.474819,-0.85566 0.07914,-1.09872"
       style="fill:#ffffff;fill-opacity:1;fill-rule:evenodd;stroke:none;stroke-width:0.0706575"
       id="path12058" />
    <path
       d="m -17.265295,190.84219 c 0.05229,0 0.106693,0 0.158979,0 0.0042,0.0523 0.0106,0.10034 0.07843,0.0841 0,-0.15051 0.214092,-0.49037 0,-0.5907 0.0431,0.29888 -0.279803,0.20773 -0.237409,0.50661"
       style="fill:#ffffff;fill-opacity:1;fill-rule:evenodd;stroke:none;stroke-width:0.0706575"
       id="path12060" />
    <path
       d="m -32.380345,191.60247 c 0.149087,0.009 0.05511,0.27909 0.237409,0.25366 -0.0318,-0.2042 0.144848,-0.18371 0.07914,-0.42253 -0.147674,0.012 -0.264259,0.0551 -0.316545,0.16887"
       style="fill:#ffffff;fill-opacity:1;fill-rule:evenodd;stroke:none;stroke-width:0.0706575"
       id="path12062" />
    <path
       d="m -53.509761,191.60247 c 0,0.56243 0,1.12557 0,1.68871 0.224691,-0.0134 0.32997,-0.15474 0.553955,-0.16816 -0.01978,-0.58434 0.0212,-1.10438 0.158979,-1.52055 -0.176644,-0.17806 -0.382257,0.089 -0.712934,0"
       style="fill:#ffffff;fill-opacity:1;fill-rule:evenodd;stroke:none;stroke-width:0.0706575"
       id="path12064" />
    <path
       d="m -52.322715,191.60247 c -0.0021,0.53205 0.0318,1.10367 -0.07843,1.52055 0.288283,-0.0756 0.421825,0.14908 0.553248,0 -0.04239,-0.55184 0.04875,-0.96165 0.07984,-1.43647 -0.250127,0.041 -0.279804,-0.15191 -0.554661,-0.0841"
       style="fill:#ffffff;fill-opacity:1;fill-rule:evenodd;stroke:none;stroke-width:0.0706575"
       id="path12066" />
    <path
       d="m -54.380261,191.77205 c -0.0021,0.76239 0.02897,1.48875 0.158272,2.11124 0.07843,-0.62108 0.276271,-1.56294 0.07914,-2.19674 -0.01272,0.0989 -0.124357,0.0926 -0.237409,0.0855"
       style="fill:#ffffff;fill-opacity:1;fill-rule:evenodd;stroke:none;stroke-width:0.0706575"
       id="path12068" />
    <path
       d="m -55.329191,192.02429 c -0.0028,0.87474 0.02826,1.71557 0.157566,2.4497 0.421118,-0.45292 0.220451,-2.01657 0.237409,-2.61786 -0.06642,0.12577 -0.254367,0.12153 -0.394975,0.16816"
       style="fill:#ffffff;fill-opacity:1;fill-rule:evenodd;stroke:none;stroke-width:0.0706575"
       id="path12070" />
    <path
       d="m -50.186033,192.02429 c -0.341982,0 -0.501668,-0.19572 -0.869793,-0.16816 -0.112346,0.44373 -0.126477,0.99132 -0.158273,1.51913 0.479058,-0.004 0.71788,0.24731 1.107203,0.33845 -0.263553,-0.44161 -0.113052,-1.10155 -0.07914,-1.68942"
       style="fill:#ffffff;fill-opacity:1;fill-rule:evenodd;stroke:none;stroke-width:0.0706575"
       id="path12072" />
    <path
       d="m -72.265085,192.36274 c -0.553248,0.62037 -1.572836,0.74191 -2.294249,1.18281 1.045024,-0.0396 2.420019,-0.17594 2.294249,-1.18281"
       style="fill:#ffffff;fill-opacity:1;fill-rule:evenodd;stroke:none;stroke-width:0.0706575"
       id="path12074" />
    <path
       d="m -55.883853,192.36274 c -0.487536,0.65358 -0.223277,2.41508 0.07914,3.0411 -0.274151,-0.90088 0.221158,-2.41154 -0.07914,-3.0411"
       style="fill:#ffffff;fill-opacity:1;fill-rule:evenodd;stroke:none;stroke-width:0.0706575"
       id="path12076" />
    <path
       d="m -49.235689,194.22174 c 0.204906,0.0325 0.238115,0.25083 0.474111,0.25225 0.09185,-0.54901 0.38791,-0.88039 0.553955,-1.35097 -0.248714,-0.0728 -0.33421,-0.31938 -0.632384,-0.33845 -0.149794,0.45998 -0.299588,0.91925 -0.395682,1.43717"
       style="fill:#ffffff;fill-opacity:1;fill-rule:evenodd;stroke:none;stroke-width:0.0706575"
       id="path12078" />
    <path
       d="m -56.832783,193.46076 c -0.0049,0.25578 -0.239529,0.7518 0.07843,0.84506 -0.04946,-0.25719 0.101747,-0.72848 -0.07843,-0.84506"
       style="fill:#ffffff;fill-opacity:1;fill-rule:evenodd;stroke:none;stroke-width:0.0706575"
       id="path12080" />
    <path
       d="m -47.732098,193.62963 c -0.04522,0.47199 -0.628145,1.13123 -0.316546,1.43647 0.185123,-0.39356 0.248715,-0.91714 0.633092,-1.09873 -0.0099,-0.2148 -0.115879,-0.32714 -0.316546,-0.33774"
       style="fill:#ffffff;fill-opacity:1;fill-rule:evenodd;stroke:none;stroke-width:0.0706575"
       id="path12082" />
    <path
       d="m -51.847897,198.6986 c -0.04663,-0.91643 1.367223,-0.29676 1.503592,0.42182 -0.575152,0.35329 -1.478155,0.0784 -1.503592,-0.42182 z m -1.97841,-3.88616 c -0.678311,0.68255 -0.945397,1.806 -0.949636,3.20926 1.741,1.78057 3.738488,4.32918 7.280548,3.38025 2.837604,-2.99234 -2.847497,-8.31921 -6.330912,-6.58951"
       style="fill:#ffffff;fill-opacity:1;fill-rule:evenodd;stroke:none;stroke-width:0.0706575"
       id="path12084" />
    <path
       d="m -45.121304,198.10649 c -0.0049,-0.33138 -0.03815,-0.63521 -0.158273,-0.84506 -0.180883,0.20561 -0.860608,0.57444 -1.107909,0.17028 -0.03604,-0.602 0.536997,-0.55395 0.8705,-0.76098 -0.279097,-0.94116 -0.741197,-1.68589 -1.345318,-2.28082 -0.108813,0.58787 -0.505201,0.86767 -0.712228,1.35238 0.457861,0.92844 1.608165,1.99113 1.661864,3.37813 0.03321,0.84365 -0.483297,1.84628 -0.394975,2.11125 0.495309,-0.59706 0.954583,-1.23227 1.186339,-2.11125 -0.25578,-0.0374 -0.683964,0.11023 -0.712227,-0.16957 -0.0537,-0.59211 0.476938,-0.56032 0.712227,-0.84436"
       style="fill:#ffffff;fill-opacity:1;fill-rule:evenodd;stroke:none;stroke-width:0.0706575"
       id="path12086" />
    <path
       d="m -68.229129,199.20451 c 0.426771,-0.61543 0.548302,-1.55517 0.712934,-2.44899 -0.185123,0 -0.369539,0 -0.554662,0 0.135663,0.91289 -0.312306,2.07521 -0.158272,2.44899"
       style="fill:#ffffff;fill-opacity:1;fill-rule:evenodd;stroke:none;stroke-width:0.0706575"
       id="path12088" />
    <path
       d="m -66.804674,196.75552 c 0.005,0.82881 -0.448676,2.04341 -0.316546,2.44899 0.592816,-0.43737 0.420412,-1.69154 0.791364,-2.36491 -0.241649,0.0622 -0.232463,-0.14626 -0.474818,-0.0841"
       style="fill:#ffffff;fill-opacity:1;fill-rule:evenodd;stroke:none;stroke-width:0.0706575"
       id="path12090" />
    <path
       d="m -69.732721,199.28859 c -0.128596,-0.44161 -0.128596,-1.41527 0,-1.85688 -0.748263,0.60836 -1.234386,1.49723 -1.186339,2.9556 0.4084,-0.32573 1.181393,-0.99061 1.97841,-1.1828 -0.148381,-0.69386 0.135662,-1.65551 0.237409,-2.36491 -1.112149,-0.004 0.05865,2.42709 -1.02948,2.44899"
       style="fill:#ffffff;fill-opacity:1;fill-rule:evenodd;stroke:none;stroke-width:0.0706575"
       id="path12092" />
    <path
       d="m -66.488129,199.37338 c 0.559607,0.0509 0.87262,0.36388 1.346025,0.50732 0.168165,-0.8055 0.508734,-1.42799 0.712228,-2.19674 -0.587871,-0.16039 -0.916428,-0.59918 -1.583435,-0.67478 0.0431,0.95317 -0.399214,1.81448 -0.474818,2.3642"
       style="fill:#ffffff;fill-opacity:1;fill-rule:evenodd;stroke:none;stroke-width:0.0706575"
       id="path12094" />
    <path
       d="m -63.955058,198.10649 c -0.09256,0.88675 -0.418999,1.52337 -0.633091,2.28082 0.264259,0.0551 0.387203,0.26214 0.633091,0.33845 0.25366,-0.602 0.580805,-1.12628 0.790657,-1.77491 -0.230343,-0.31726 -0.494602,-0.59777 -0.790657,-0.84436"
       style="fill:#ffffff;fill-opacity:1;fill-rule:evenodd;stroke:none;stroke-width:0.0706575"
       id="path12096" />
    <path
       d="m -62.609739,199.54296 c -0.272738,0.52427 -0.474819,1.12628 -0.792071,1.60463 0.113052,0.32997 0.325025,0.55466 0.633091,0.67478 0.204907,-0.5695 0.462807,-1.08318 0.791364,-1.51914 -0.102453,-0.36954 -0.399215,-0.53134 -0.632384,-0.76027"
       style="fill:#ffffff;fill-opacity:1;fill-rule:evenodd;stroke:none;stroke-width:0.0706575"
       id="path12098" />
    <path
       d="m -64.588149,201.23167 c -1.321295,-1.0429 -3.547006,-1.44353 -4.986299,-0.25225 -0.143435,0.49249 -0.161806,1.12204 -0.395682,1.51914 0.938331,1.14041 2.204514,2.0745 3.482001,2.87223 0.436663,0.27203 0.860608,0.78359 1.266889,0.92985 0.824573,0.29535 1.738174,-0.0106 2.769067,0.0841 0.515093,-1.82932 -0.378724,-3.43042 -1.186339,-4.39207 -0.429598,-0.0212 -0.565967,-0.45715 -0.949637,-0.76098"
       style="fill:#ffffff;fill-opacity:1;fill-rule:evenodd;stroke:none;stroke-width:0.0706575"
       id="path12100" />
    <path
       d="m -61.50183,200.80985 c -0.14838,0.72141 -1.069754,1.39901 -0.712934,2.11124 0.333504,-0.63097 0.712934,-1.21036 1.108616,-1.7735 -0.223984,-0.0148 -0.09892,-0.40134 -0.395682,-0.33774"
       style="fill:#ffffff;fill-opacity:1;fill-rule:evenodd;stroke:none;stroke-width:0.0706575"
       id="path12102" />
    <path
       d="m -61.897512,203.85024 c 0.400628,-0.17311 1.271835,-0.99981 1.10791,-1.77351 -0.284043,0.68185 -0.757448,1.16303 -1.10791,1.77351"
       style="fill:#ffffff;fill-opacity:1;fill-rule:evenodd;stroke:none;stroke-width:0.0706575"
       id="path12104" />
    <path
       d="m -60.710466,203.85024 c -0.06924,0.46351 -0.74049,0.72848 -0.553955,1.1821 0.159686,-0.30595 0.46846,-0.45645 0.711521,-0.67478 -0.04734,-0.17523 0.12789,-0.58646 -0.157566,-0.50732"
       style="fill:#ffffff;fill-opacity:1;fill-rule:evenodd;stroke:none;stroke-width:0.0706575"
       id="path12106" />
    <path
       d="m -38.394711,204.61051 c 0.09398,-0.26638 0.246595,-0.46916 0.395682,-0.67619 -0.366006,-0.0763 -0.48259,0.55042 -0.395682,0.67619"
       style="fill:#ffffff;fill-opacity:1;fill-rule:evenodd;stroke:none;stroke-width:0.0706575"
       id="path12108" />
    <path
       d="m -39.581757,204.35756 c -0.06076,0.18795 -0.165338,0.32855 -0.157566,0.59069 0.398508,-0.0247 0.568793,-0.29252 0.633091,-0.67619 -0.242355,-0.0608 -0.233169,0.14626 -0.475525,0.0855"
       style="fill:#ffffff;fill-opacity:1;fill-rule:evenodd;stroke:none;stroke-width:0.0706575"
       id="path12110" />
    <path
       d="m -40.689666,204.69459 c -0.06147,0.18725 -0.166045,0.32997 -0.158273,0.59211 0.190775,0.0346 0.171698,-0.15474 0.395682,-0.0841 0.01342,-0.24023 0.144848,-0.35329 0.158273,-0.59211 -0.190069,-0.0346 -0.171698,0.15403 -0.395682,0.0841"
       style="fill:#ffffff;fill-opacity:1;fill-rule:evenodd;stroke:none;stroke-width:0.0706575"
       id="path12112" />
    <path
       d="m -41.955848,205.11642 c 0.0106,0.20985 0.01201,0.40911 -0.07914,0.50803 0.411934,0.0721 0.329971,-0.37943 0.474819,-0.59211 -0.190069,-0.0339 -0.171698,0.15474 -0.395682,0.0841"
       style="fill:#ffffff;fill-opacity:1;fill-rule:evenodd;stroke:none;stroke-width:0.0706575"
       id="path12114" />
    <path
       d="m -78.753563,205.45487 c 0.06359,0.29393 -0.117998,0.32573 -0.07914,0.59211 0.204907,0.1187 0.364593,0.28545 0.553955,0.42253 0,-0.25437 0,-0.50661 0,-0.76098 -0.28051,0.0459 -0.195015,-0.29888 -0.474818,-0.25366"
       style="fill:#ffffff;fill-opacity:1;fill-rule:evenodd;stroke:none;stroke-width:0.0706575"
       id="path12116" />
    <path
       d="m -77.72479,206.21514 c -0.01272,0.3646 -0.206319,0.73837 0.158273,0.84436 -0.05441,-0.43454 0.217625,-0.72283 -0.158273,-0.84436"
       style="fill:#ffffff;fill-opacity:1;fill-rule:evenodd;stroke:none;stroke-width:0.0706575"
       id="path12118" />
    <path
       d="m -76.934132,206.80584 c 0.05511,0.34128 -0.0756,0.4833 -0.07843,0.76169 0.222571,-0.0396 0.310893,-0.7518 0.07843,-0.76169"
       style="fill:#ffffff;fill-opacity:1;fill-rule:evenodd;stroke:none;stroke-width:0.0706575"
       id="path12120" />
    <path
       d="m -76.380178,208.07414 c 0.278391,0.065 0.185123,-0.69668 0.07984,-0.76027 0.06147,0.34763 -0.12153,0.43313 -0.07984,0.76027"
       style="fill:#ffffff;fill-opacity:1;fill-rule:evenodd;stroke:none;stroke-width:0.0706575"
       id="path12122" />
    <path
       d="m -52.243579,209.00258 c -2.7189,0.78571 -5.59042,1.40962 -8.150341,2.36561 0.113758,0.27204 0.07419,0.70799 0.07914,1.09873 1.218842,-0.43879 2.553562,-0.85425 3.877683,-1.35239 1.362983,-0.51368 3.441727,-1.14041 4.352502,-1.94308 -0.0092,-0.10245 -0.02402,-0.19855 -0.15898,-0.16887"
       style="fill:#ffffff;fill-opacity:1;fill-rule:evenodd;stroke:none;stroke-width:0.0706575"
       id="path12124" />
    <path
       d="m -61.185991,211.62115 c 0.02685,0.42182 0.03745,0.86202 0.15898,1.1821 0.252953,-0.12507 0.20208,-1.01818 0.07914,-1.26689 -0.01413,0.0996 -0.125064,0.0926 -0.238116,0.0848"
       style="fill:#ffffff;fill-opacity:1;fill-rule:evenodd;stroke:none;stroke-width:0.0706575"
       id="path12126" />
    <path
       d="m -62.135628,212.04297 c 0,0.36742 0,0.73272 0,1.09873 0.185123,-0.0276 0.327145,-0.10104 0.475526,-0.16817 -0.04663,-0.44443 0.139195,-0.64086 0.07843,-1.09872 -0.283336,-0.0495 -0.382963,0.0982 -0.553955,0.16816"
       style="fill:#ffffff;fill-opacity:1;fill-rule:evenodd;stroke:none;stroke-width:0.0706575"
       id="path12128" />
    <path
       d="m -63.164401,213.47944 c 0.245182,0.008 0.378725,-0.10316 0.554662,-0.16817 0,-0.36671 0,-0.73271 0,-1.09872 -0.245182,-0.008 -0.378018,0.10387 -0.554662,0.16887 -0.04381,0.50732 0.113759,0.72142 0,1.09802"
       style="fill:#ffffff;fill-opacity:1;fill-rule:evenodd;stroke:none;stroke-width:0.0706575"
       id="path12130" />
    <path
       d="m -64.192467,212.80325 c 0.0056,0.36035 0.132836,0.59069 0.07843,1.01464 0.242355,0.0608 0.23317,-0.14626 0.475525,-0.0841 7.06e-4,-0.34905 -0.200667,-0.80197 0,-1.09873 -0.28475,-0.0495 -0.382964,0.0982 -0.553955,0.16817"
       style="fill:#ffffff;fill-opacity:1;fill-rule:evenodd;stroke:none;stroke-width:0.0706575"
       id="path12132" />
    <path
       d="m -64.667285,214.07155 c 0,-0.33774 0,-0.67619 0,-1.01394 -0.07914,0 -0.158273,0 -0.23741,0 -0.04805,0.17806 -0.09963,0.97578 0.23741,1.01394"
       style="fill:#ffffff;fill-opacity:1;fill-rule:evenodd;stroke:none;stroke-width:0.0706575"
       id="path12134" />
    <path
       d="m -65.616922,213.31127 c -0.134249,0.24731 -0.10316,0.91785 0.158273,1.01323 -0.01343,-0.0911 0.137075,-0.9567 -0.158273,-1.01323"
       style="fill:#ffffff;fill-opacity:1;fill-rule:evenodd;stroke:none;stroke-width:0.0706575"
       id="path12136" />
    <path
       d="m -40.293984,172.76589 c -0.0035,-0.0106 -0.0042,-0.0304 -0.0078,-0.041 0,0.0148 7.06e-4,0.0297 0.0014,0.0445 0.0021,-7.1e-4 0.0035,-0.004 0.0064,-0.004"
       style="fill:#ffffff;fill-opacity:1;fill-rule:evenodd;stroke:none;stroke-width:0.0706575"
       id="path12138" />
    <path
       d="m -40.135005,169.97845 c -0.406987,-0.0396 -0.226104,0.71576 -0.238115,1.09872 -0.01978,0.65994 -0.0219,1.3319 0.07136,1.64774 -0.01978,-0.83518 0.261432,-2.29637 0.166751,-2.74646"
       style="fill:#ffffff;fill-opacity:1;fill-rule:evenodd;stroke:none;stroke-width:0.0706575"
       id="path12140" />
    <path
       d="m -40.293984,172.93476 c -0.0049,-0.0488 -0.0042,-0.11023 -0.0064,-0.16534 -0.07278,0.0106 -0.08974,0.14555 0.0064,0.16534"
       style="fill:#ffffff;fill-opacity:1;fill-rule:evenodd;stroke:none;stroke-width:0.0706575"
       id="path12142" />
    <path
       d="m -44.883895,181.21299 c 0.138489,-0.6981 1.050677,-1.01817 0.791364,-1.85829 -0.218331,0.56385 -0.834465,1.57566 -0.791364,1.85829"
       style="fill:#ffffff;fill-opacity:1;fill-rule:evenodd;stroke:none;stroke-width:0.0706575"
       id="path12144" />
    <path
       d="m -44.963031,182.14214 c 0.10316,0.20985 -0.175937,0.40981 0,0.42253 0.431011,-0.41264 1.099431,-1.02242 1.028773,-1.68942 -0.287576,0.48047 -0.373778,1.17715 -1.028773,1.26689"
       style="fill:#ffffff;fill-opacity:1;fill-rule:evenodd;stroke:none;stroke-width:0.0706575"
       id="path12146" />
    <path
       d="m -28.660935,183.07058 c -0.221864,0.57585 -0.30524,2.28859 0.07914,2.70335 0.248715,-0.77511 0.118705,-1.95792 0.791364,-2.28082 -0.05864,0.19713 -0.05441,0.47623 0.07914,0.67619 -0.03392,-0.13637 0.294641,-0.28263 0.316545,-0.0841 -0.155446,0.42465 -0.402041,0.75179 -0.316545,1.43576 0.600588,-0.11235 0.352581,-0.9242 0.395682,-1.43576 0.07772,-0.92632 0.226104,-2.02081 0.712227,-2.36562 0.318665,0.83376 -0.264965,2.05119 -0.07843,3.29406 0.18583,0.001 0.232464,-0.14556 0.474112,-0.0841 0.134956,-1.2365 0.01837,-2.73939 0.712228,-3.37813 0.08267,0.91148 -0.118705,2.23207 -0.157567,3.29405 0.604829,-0.87474 0.200668,-2.8263 1.107203,-3.37884 0.0064,1.18987 -0.416879,2.36985 -0.237409,3.46292 0.254367,-1.16443 0.209853,-2.64824 0.94893,-3.29405 0,0.0841 0.065,0.0996 0.08055,0.16817 -0.18371,0.6776 -0.138489,1.59898 -0.317959,2.28153 -0.0643,0.19996 0.112345,0.38861 0.07984,0.0841 0.132836,-0.87191 0.406281,-1.59474 0.553955,-2.4497 -1.844867,-0.72706 -4.559528,-0.36388 -5.223002,1.35098"
       style="fill:#ffffff;fill-opacity:1;fill-rule:evenodd;stroke:none;stroke-width:0.0706575"
       id="path12148" />
    <path
       d="m -22.330024,182.31171 c -0.133542,0.98214 -0.418292,1.8053 -0.553955,2.78603 0.0049,0.20632 0.251541,-0.69386 0.395682,-1.09731 0.18583,-0.52216 0.49107,-1.10579 0.553955,-1.52055 -0.243768,0.0622 -0.151913,-0.23176 -0.395682,-0.16817"
       style="fill:#ffffff;fill-opacity:1;fill-rule:evenodd;stroke:none;stroke-width:0.0706575"
       id="path12150" />
    <path
       d="m -81.207497,185.52098 c 0.0028,-0.89877 0.30312,-1.47957 0.316545,-2.36632 -0.539823,0.22116 -0.309479,2.13597 -0.316545,2.36632"
       style="fill:#ffffff;fill-opacity:1;fill-rule:evenodd;stroke:none;stroke-width:0.0706575"
       id="path12152" />
    <path
       d="m -91.177976,191.09585 c 0.718587,1.2895 1.41315,2.49633 2.215819,3.46293 -1.100843,-2.31262 -2.739391,-5.56993 -4.115798,-8.02387 0.08832,1.92118 1.148184,3.2128 1.899979,4.56094"
       style="fill:#ffffff;fill-opacity:1;fill-rule:evenodd;stroke:none;stroke-width:0.0706575"
       id="path12154" />
    <path
       d="m -18.373204,189.91305 c 0.252247,-0.77158 1.255583,-1.19411 1.107909,-2.11125 -0.285456,0.73625 -0.967301,1.50147 -1.107909,2.11125"
       style="fill:#ffffff;fill-opacity:1;fill-rule:evenodd;stroke:none;stroke-width:0.0706575"
       id="path12156" />
    <path
       d="m -73.688834,191.01177 c 0.514387,-0.43737 1.069048,-0.83022 1.741001,-1.09872 0.05229,-0.39427 -0.125064,-0.54265 -0.15898,-0.84436 -0.552541,0.56385 -1.279607,1.39195 -1.582021,1.94308"
       style="fill:#ffffff;fill-opacity:1;fill-rule:evenodd;stroke:none;stroke-width:0.0706575"
       id="path12158" />
    <path
       d="m -7.6890852,189.82896 c -0.968715,0.15333 -0.931266,-1.19269 -1.02948,-1.69012 0.609774,0.26496 1.676702,0.85849 1.02948,1.69012 z m -0.792071,1.77351 c -1.30999,0.54901 -2.9739738,0.94893 -4.3525008,1.43576 -1.887968,0.667 -3.795014,1.52549 -5.539547,2.11195 -1.931776,0.64864 -3.959646,1.08318 -5.855387,1.859 -8.172951,3.33715 -17.098406,5.79745 -25.799169,8.78414 -0.929852,0.31866 -1.940961,0.80832 -2.928046,0.50732 0.866261,-0.5589 1.899273,-0.63733 2.84891,-0.92985 10.39089,-3.20715 20.325333,-7.20142 30.784055,-10.64314 1.780569,-0.58646 3.689028,-1.33402 5.539547,-2.02787 2.049067,-0.76664 4.1207448,-1.5156 6.0942088,-1.7735 0.602708,0.30029 -0.51368,0.5589 -0.792071,0.67619 z m -48.0357878,7.09613 c -0.414053,-0.4833 -0.831638,-1.18987 -1.028773,-1.7735 -0.204907,-0.61048 -0.108106,-1.28385 -0.316545,-2.02717 -0.12789,-0.46068 -0.494603,-0.70304 -0.395682,-1.52267 0.06076,-0.50166 0.546889,-1.18139 0.8705,-1.51913 0.999097,-1.04361 2.811461,-1.63148 4.352501,-1.60534 4.269832,0.0721 6.717408,3.01142 8.388458,5.82924 0.03321,0.18936 0.419705,0.001 0.475524,0.16887 0.03674,0.26497 -0.213385,0.22328 -0.238115,0.42183 1.30363,2.67862 0.02826,5.79603 -2.769774,5.9967 -0.02614,0 -0.05299,0 -0.07914,0 -0.20632,0.16534 0.226104,0.0276 0.317252,0 -1.151717,1.45554 -3.589401,0.16251 -5.223002,0.0855 -1.608871,-1.5361 -3.040392,-2.5253 -4.353208,-4.05433 z m -1.266182,9.37554 c -2.422139,0.78359 -5.05625,1.62159 -7.596387,2.28153 2.355014,-1.73393 6.295583,-2.19603 9.099978,-3.38025 0.139196,-0.0579 0.314426,-0.33916 0.633798,-0.0841 -0.399921,0.80478 -1.392659,0.94115 -2.137389,1.1828 z m -6.963296,3.04039 c 0.03392,0.22752 0.296762,0.43313 0.07914,0.6762 -1.444945,0.0841 -2.621393,-0.92632 -3.71941,-1.60534 -3.410637,-2.10701 -5.974091,-4.90858 -8.625866,-7.855 -3.486241,-3.87344 -7.0283,-7.79422 -10.366867,-11.74186 3.369656,3.24389 6.810675,6.84813 10.366867,10.64314 2.481491,2.64966 4.972874,5.37562 8.30932,7.51866 1.553759,0.99769 2.820647,2.30909 4.90575,1.85759 -0.10104,0.39851 -0.43313,0.55183 -0.94893,0.50661 z m -19.863233,-25.59355 c 0.106693,-0.7412 0.635917,-1.76715 1.028773,-2.28083 0.704455,-0.92278 1.986182,-1.28314 3.402864,-1.43646 2.492797,-0.26921 4.223905,0.64369 6.014366,2.11195 1.122041,0.91996 2.869401,2.44263 3.164749,3.71658 0.04593,0.19714 -0.0325,0.58081 0,0.92915 0.115172,1.21884 0.15262,3.47988 -0.474818,4.47686 -0.652876,1.03796 -2.128911,1.52055 -3.243886,1.60534 -1.63996,0.12435 -3.675602,-0.51156 -4.986299,-1.52055 -0.558194,-0.43031 -1.09943,-1.14748 -1.661157,-1.68942 -1.140412,-1.09943 -1.3863,-1.63926 -2.215819,-3.0411 -0.5695,-0.96024 -1.255584,-1.31211 -1.028773,-2.87152 z m 25.086235,20.01938 c -1.223788,2.03706 -4.536211,2.50623 -6.648163,1.51914 -0.48895,-0.22893 -0.98002,-0.6769 -1.424455,-1.01252 -0.43737,-0.33139 -0.839411,-0.88887 -1.265476,-1.09873 -0.359647,-0.17523 -0.762394,-0.0756 -1.108616,-0.25366 -0.97578,-0.49954 -1.561531,-1.72404 -2.136683,-2.95631 -0.397095,-0.85142 -0.847889,-2.55144 -0.395681,-4.05432 0.426771,-1.41457 2.482197,-2.21794 4.353207,-2.28012 1.078234,-0.0367 1.890795,0.42536 2.84891,0.33845 1.174328,0.51863 1.77421,1.65197 3.085613,2.02575 1.052797,1.68659 3.097625,3.0736 2.849617,5.91333 -0.06006,0.68325 -0.438077,1.05703 -0.158273,1.85899 z m -9.655346,-27.36847 c 1.044318,-1.27395 4.79835,-1.65056 6.647457,-0.67478 0.302414,0.15828 0.549715,0.47199 0.871207,0.67478 1.063395,0.67478 1.658331,1.15243 2.610794,2.11266 0.622492,0.62532 1.249224,1.10014 1.503591,1.60393 1.545279,3.063 0.255074,7.06433 -3.007183,7.60204 -0.382963,0.0636 -0.586457,-0.0438 -1.028773,-0.0841 -0.481177,-0.0438 -0.992031,0.19219 -1.344612,0.16817 -1.644906,-0.1074 -3.145671,-1.25983 -3.878389,-2.61786 -0.329971,0.0431 -0.535584,-0.0466 -0.711521,-0.16887 -1.312817,-1.28456 -1.907046,-3.45233 -2.374092,-5.49009 -0.08338,-0.36177 -0.264259,-0.58787 -0.238116,-1.01323 0.0318,-0.50661 0.649343,-1.74524 0.949637,-2.11266 z m 13.216484,-3.37884 c 0.719293,-1.98759 3.043218,-2.86799 5.697113,-2.44899 0.734838,0.11588 1.526908,0.74332 2.374092,1.09731 0.336329,0.14132 0.777232,0.13213 1.028773,0.25366 0.613307,0.29535 2.071677,1.79541 2.532364,2.45041 0.599882,0.85071 0.940451,1.73817 1.503591,2.70264 -0.04946,1.15031 0.02261,2.18332 -0.553954,3.54772 -0.694563,1.64278 -1.481688,3.12164 -3.718704,2.87152 -1.510657,-0.16817 -2.872227,-0.80338 -4.035956,-1.52055 -1.404671,-0.86485 -1.870304,-0.94399 -2.928753,-2.28012 -0.73837,-0.93338 -1.921883,-1.77138 -2.215819,-3.0411 -0.269205,-1.16514 0.0219,-2.81782 0.317253,-3.6325 z m 12.502842,14.52859 c -0.03745,-0.50025 -0.216212,-0.90583 -0.158272,-1.35167 0.184416,-1.41033 2.290009,-2.99094 3.956819,-3.20927 3.164749,-0.41476 5.819351,1.42234 7.280548,3.29335 0.539116,0.69174 1.866771,2.76271 2.057546,3.718 0.193601,0.96588 -0.06571,2.408 -0.316546,3.20997 -0.398508,1.27112 -1.584847,2.7627 -2.690637,2.9556 -0.333503,0.0579 -0.558901,-0.13637 -0.94893,-0.16958 -1.482394,-0.12577 -3.217035,-0.0622 -4.431638,-0.5907 -1.847693,-0.80337 -4.392776,-3.92502 -4.74889,-6.6736 -0.05582,-0.43171 0.02756,-0.81326 0,-1.1821 z m 1.266183,-19.68093 c 0.903002,-0.71364 2.397408,-1.01323 3.878389,-1.09802 2.169892,-0.12506 3.627556,0.78783 5.143159,2.02716 1.531854,1.25205 4.113679,3.89606 3.007183,6.75698 -0.295349,0.76593 -1.212483,1.45696 -1.820137,1.85829 -1.515603,1.00263 -4.103787,1.62371 -6.171932,0.6769 -0.727772,-0.3335 -1.818017,-1.34956 -2.533071,-2.11266 -0.867674,-0.92561 -1.809538,-1.75372 -2.136683,-2.53378 -0.174524,-0.41688 -0.133542,-1.0959 -0.316545,-1.68871 -0.115878,-0.3759 -0.447969,-0.62037 -0.474818,-1.09873 -0.05865,-1.04361 0.79631,-2.29071 1.424455,-2.78743 z m 13.13664,-1.51985 c 1.796114,0.77017 3.746967,1.28173 4.669047,2.70195 -1.854052,-0.53912 -3.930676,-1.98124 -6.093502,-2.19604 -1.468263,-0.91007 -3.699626,-1.00616 -4.985592,-2.11124 1.915524,-0.28475 4.458487,0.76734 6.410047,1.60533 z m 10.287024,15.28817 c 1.117802,1.03089 3.027674,3.21208 3.166162,4.89868 0.142022,1.73252 -0.593523,3.65087 -1.502885,4.73052 -1.858998,0.19713 -3.762511,1.09519 -5.856799,0.33703 -0.429597,-0.15403 -0.997684,-0.47481 -1.582728,-0.75956 -1.493699,-0.72636 -1.957919,-1.32413 -2.928046,-2.78674 -1.007576,-1.52054 -2.547203,-3.06088 -2.453228,-5.65966 0.05935,-1.63007 1.059156,-2.72031 2.056839,-3.54771 3.678429,-1.04715 6.773227,0.64015 9.100685,2.78744 z m -2.215112,-11.06497 c 4.234503,1.53186 6.868614,5.88153 9.417937,9.54442 0.827399,1.18916 1.8667708,2.28506 2.1359758,3.6325 -0.7546218,0.0155 -1.1616098,-0.92774 -1.5028848,-1.43576 -1.223788,-1.82014 -2.478665,-3.64876 -3.799253,-5.4915 -1.715564,-2.39105 -3.867791,-4.34403 -6.330912,-5.9967 -0.07702,-0.002 -0.06147,-0.10316 -0.07914,-0.16888 0.0643,-0.0163 0.07843,-0.0841 0.158273,-0.0841 z m 13.5316158,12.6696 c -0.386497,-0.56668 -0.960942,-1.08318 -1.424455,-1.68872 -2.3889298,-3.12377 -4.4655538,-5.86104 -7.3596838,-8.36302 -1.139706,-0.98638 -2.425672,-2.11407 -3.560431,-2.70194 -0.305947,-0.15898 -0.644397,-0.19148 -0.949637,-0.33845 -1.137586,-0.5476 -2.083689,-1.53468 -3.244592,-2.11195 -1.904219,-0.94681 -3.722943,-1.70214 -5.776956,-2.53378 -1.137586,-0.46139 -3.508145,-1.77138 -4.985593,-1.2676 -2.347242,0.80055 -4.846397,1.21107 -7.280548,1.859 -4.911402,1.30575 -9.535228,2.8369 -14.165413,4.30728 -2.367026,0.7518 -4.816721,1.34744 -7.201412,2.02787 -4.787751,1.36511 -9.421469,3.08067 -14.08557,4.39137 -2.326752,0.65429 -4.558115,1.62159 -6.80573,2.44969 -2.223591,0.81963 -4.658448,1.26689 -6.489184,2.78744 0.404161,2.58253 2.193916,4.13488 2.769774,6.25107 -1.239332,-1.83215 -2.963375,-3.14426 -3.244592,-5.9967 -0.496722,0.17311 -0.797723,0.55537 -1.187046,0.84435 0.699509,1.39266 1.643493,2.5253 2.057546,4.2232 0.187949,0.2367 0.182297,-0.43242 0.474819,-0.0841 1.271835,1.79753 2.086515,3.82893 3.402864,5.49009 1.740294,2.19744 4.103787,3.75827 5.538841,6.25107 3.168282,2.89766 6.128831,5.87022 9.575503,8.4471 1.654798,1.23509 3.175348,2.60373 5.143865,3.37813 4.535505,-2.06037 9.315484,-3.5894 14.086984,-4.98347 4.781393,-1.39619 9.329615,-3.50391 14.085571,-5.06826 2.394582,-0.78854 4.854169,-1.29374 7.200705,-2.3642 3.396505,-1.55023 7.159017,-2.62917 10.842391,-3.46363 1.269716,-0.28758 2.398822,-0.75674 3.640981,-1.18281 4.271952,-1.46685 8.4011748,-2.45393 12.2654338,-4.13911 -0.360354,-1.12134 -1.036546,-2.11549 -1.661865,-3.20997 -0.58363,-1.02383 -1.006869,-2.24903 -1.66257,-3.20997"
       style="fill:#ffffff;fill-opacity:1;fill-rule:evenodd;stroke:none;stroke-width:0.0706575"
       id="path12160" />
    <path
       d="m -72.02697,190.67332 c -0.221158,0.46846 -1.008989,0.78006 -1.107909,1.09873 0.362473,-0.2042 0.79207,-0.33845 1.187046,-0.50803 -0.04734,-0.17382 0.09751,-0.55466 -0.07914,-0.5907"
       style="fill:#ffffff;fill-opacity:1;fill-rule:evenodd;stroke:none;stroke-width:0.0706575"
       id="path12162" />
    <path
       d="m -3.1790182,192.27866 c -0.99627,0.14767 -1.358037,0.97154 -2.294955,1.1821 0.358233,0.008 1.672463,-0.40416 2.373385,-0.5914 -0.02473,-0.19855 -0.124357,-0.31655 -0.07843,-0.5907"
       style="fill:#ffffff;fill-opacity:1;fill-rule:evenodd;stroke:none;stroke-width:0.0706575"
       id="path12164" />
    <path
       d="m -22.488297,198.95085 c -2.540136,0.79489 -4.724159,1.81024 -7.517957,2.70335 -1.76785,0.56456 -3.890401,0.98921 -6.093501,1.60534 -0.227518,0.0629 -1.710618,0.42889 -1.582022,0.84436 0.117292,0.38084 0.527105,0.0692 0.790658,0 5.265396,-1.36934 10.64667,-3.22905 15.351752,-4.98348 2.405888,-0.75603 4.929774,-1.63501 7.440234,-2.53377 2.034936,-0.72989 4.5913238,-1.30293 6.4884768,-2.19674 0.238823,-0.11306 0.748263,-0.32715 0.553249,-0.42254 -5.3982328,1.04927 -10.3817048,3.40499 -15.4308898,4.98348"
       style="fill:#ffffff;fill-opacity:1;fill-rule:evenodd;stroke:none;stroke-width:0.0706575"
       id="path12166" />
    <path
       d="m -56.357964,196.16482 c -0.195722,-0.43949 -0.184416,-1.10014 -0.396389,-1.52125 0.01342,0.57868 0.186536,1.43293 0.396389,1.52125"
       style="fill:#ffffff;fill-opacity:1;fill-rule:evenodd;stroke:none;stroke-width:0.0706575"
       id="path12168" />
    <path
       d="m -80.178018,204.1039 c -2.541549,-2.52036 -4.994071,-5.4915 -7.280547,-7.93908 0.178057,0.0353 0.0021,0.44656 0.158273,0.50591 -0.198548,0.11234 -0.248008,-0.3335 -0.316546,-0.0841 1.237919,1.54457 2.524592,3.24318 3.877683,4.8153 1.021707,1.18634 2.266692,2.09571 3.323728,3.12448 0.368832,0.35823 0.662061,0.9673 1.028773,0.84436 0.164632,-0.60836 -0.479058,-0.95671 -0.791364,-1.26689"
       style="fill:#ffffff;fill-opacity:1;fill-rule:evenodd;stroke:none;stroke-width:0.0706575"
       id="path12170" />
    <path
       d="m -83.422609,199.12042 c -0.46634,-0.37519 -0.702336,-0.99627 -1.108616,-1.43646 0.04169,0.7744 0.813267,1.2146 1.108616,1.43646"
       style="fill:#ffffff;fill-opacity:1;fill-rule:evenodd;stroke:none;stroke-width:0.0706575"
       id="path12172" />
    <path
       d="m -49.235689,208.66484 c 0.546182,-0.23317 1.194111,-0.35753 1.424455,-0.92844 -0.628852,0.0904 -1.381354,0.49531 -1.424455,0.92844"
       style="fill:#ffffff;fill-opacity:1;fill-rule:evenodd;stroke:none;stroke-width:0.0706575"
       id="path12174" />
    <path
       d="m -47.020577,207.99006 c 0.07772,-0.19996 0.457154,-0.0763 0.554661,-0.25366 -0.291815,-0.0791 -0.74049,0.10316 -0.554661,0.25366"
       style="fill:#ffffff;fill-opacity:1;fill-rule:evenodd;stroke:none;stroke-width:0.0706575"
       id="path12176" />
    <path
       d="m -51.134963,209.25695 c 0.536291,-0.18795 1.004043,-0.44868 1.265476,-0.92915 -0.568086,0.0982 -1.317762,0.45009 -1.265476,0.92915"
       style="fill:#ffffff;fill-opacity:1;fill-rule:evenodd;stroke:none;stroke-width:0.0706575"
       id="path12178" />
    <path
       d="m -68.222064,212.9594 c -1.284553,-0.51227 -2.400941,-1.20471 -3.567496,-1.84487 0.158979,1.56931 2.55992,1.50148 3.567496,1.84487"
       style="fill:#ffffff;fill-opacity:1;fill-rule:evenodd;stroke:none;stroke-width:0.0706575"
       id="path12180" />
    <path
       d="m -68.222064,212.9594 c 0.07843,0.0311 0.151207,0.0685 0.230344,0.0982 -0.06359,-0.0367 -0.143435,-0.0685 -0.230344,-0.0982"
       style="fill:#ffffff;fill-opacity:1;fill-rule:evenodd;stroke:none;stroke-width:0.0706575"
       id="path12182" />
  </g>
</svg>
