<?xml version="1.0" encoding="UTF-8" standalone="no"?>
<!-- Created with Inkscape (http://www.inkscape.org/) -->

<svg
   width="21.024399mm"
   height="35.539162mm"
   viewBox="0 0 21.024399 35.539162"
   version="1.1"
   id="svg21595"
   xmlns:inkscape="http://www.inkscape.org/namespaces/inkscape"
   xmlns:sodipodi="http://sodipodi.sourceforge.net/DTD/sodipodi-0.dtd"
   xmlns="http://www.w3.org/2000/svg"
   xmlns:svg="http://www.w3.org/2000/svg">
  <sodipodi:namedview
     id="namedview21597"
     pagecolor="#505050"
     bordercolor="#eeeeee"
     borderopacity="1"
     inkscape:showpageshadow="0"
     inkscape:pageopacity="0"
     inkscape:pagecheckerboard="0"
     inkscape:deskcolor="#505050"
     inkscape:document-units="mm"
     showgrid="false"
     inkscape:zoom="0.51669473"
     inkscape:cx="396.75265"
     inkscape:cy="562.22753"
     inkscape:window-width="1370"
     inkscape:window-height="746"
     inkscape:window-x="70"
     inkscape:window-y="27"
     inkscape:window-maximized="1"
     inkscape:current-layer="layer1" />
  <defs
     id="defs21592" />
  <g
     inkscape:label="Calque 1"
     inkscape:groupmode="layer"
     id="layer1"
     transform="translate(-21.90511,-71.256185)">
    <path
       d="m 36.351034,71.622007 c -2.831245,-0.9673 -4.720626,0.17099 -6.502608,1.24357 -1.229441,0.73979 -2.477252,1.59545 -3.368243,2.62493 -0.30736,1.87525 -0.748969,4.03101 -0.295348,5.58336 0.102453,0.35187 0.524278,0.83234 0.515093,1.18845 -0.01272,0.38367 -0.523572,1.13688 -0.739784,1.69437 -1.900687,4.89515 -3.532875,10.48275 -4.055033,16.161493 0.763807,0.68184 0.809028,1.78339 1.321295,2.67721 0.329264,0.57445 0.711521,1.32624 1.295858,1.81519 0.609774,0.51015 1.521962,0.70234 2.516113,1.04008 2.719607,0.9136 6.5231,1.39125 9.26461,1.01606 0.26214,-0.54265 0.857074,-0.83942 1.293034,-1.36228 0.43313,-0.52145 0.80337,-1.13405 1.08812,-1.84769 1.25629,-0.9991 1.56083,-3.18807 1.6972,-5.145993 0.15403,-2.23066 0.0276,-4.69802 0.0177,-7.07423 -0.01,-2.42072 0.003,-4.80683 -0.12789,-6.96117 1.81095,-0.24942 2.05189,-2.88566 2.26669,-4.94179 0.0636,-0.24377 0.42395,-0.10881 0.38933,-0.48118 -0.50026,-1.47108 -1.18776,-3.11599 -2.29991,-4.38429 -0.92208,-1.05351 -2.89837,-2.37551 -4.276187,-2.84609"
       style="fill:#231615;fill-opacity:1;fill-rule:evenodd;stroke:none;stroke-width:0.0706575"
       id="path17794" />
    <path
       d="m 38.392331,77.562887 c -0.34622,-0.42606 0.35329,-1.22378 0.74755,-0.70092 -0.12082,0.39922 -0.27203,0.75816 -0.74755,0.70092 z m -0.29464,-1.35874 c -0.20915,0.1293 -0.39781,0.16958 -0.66772,0.0495 -0.22045,-0.36459 0.009,-1.03937 0.5695,-0.85566 -0.0177,0.30807 0.22045,0.41688 0.0982,0.8062 z m -3.339276,-1.86889 c 0.160392,-0.36318 0.832345,-0.54194 1.20471,-0.11588 0.551835,1.47957 -1.847694,1.55517 -1.20471,0.11588 z m -2.13103,0.65994 c -1.073288,-0.0487 -0.237409,-1.78905 0.370952,-0.87827 -0.03816,0.40063 -0.126477,0.73978 -0.370952,0.87827 z m 7.253696,0.70234 c -0.0254,-0.25296 0.25437,-0.2791 0.12083,-0.44726 -0.55255,-0.2579 -0.91219,-0.66207 -1.40114,-0.96872 -0.002,0.17523 -0.11729,0.20279 -0.28475,0.16393 -0.007,-0.5052 -0.6451,-0.51863 -1.03513,-0.72424 -0.0332,0.58504 -0.42607,0.71081 -0.999807,0.60412 -0.396389,-0.40134 -0.548303,-0.85637 -0.416173,-1.44071 -0.234583,-0.1611 -0.585751,-0.23741 -0.904416,-0.17805 0.158979,1.56506 -1.697899,1.35379 -1.391953,0.0254 -1.12416,0.35046 -2.338762,0.11871 -3.084906,0.87333 -0.594229,0.60412 -0.825279,1.43223 -1.446358,2.07026 1.375701,1.04432 3.018488,1.88232 4.618173,2.75423 0.238822,0.029 0.142022,-0.36954 0.430304,-0.27768 1.550932,0.10386 3.128716,0.24023 4.599806,0.24165 0.47058,-0.25225 0.30312,-1.32483 0.90229,-1.41033 0.44938,0.21127 0.22328,1.00193 -0.0304,1.31918 0.21833,0.0806 0.26143,-0.0657 0.46281,-0.009 0.18936,-0.59635 0.29464,-1.58696 0.27485,-2.2137 -0.11658,-0.14484 -0.39426,-0.16604 -0.41405,-0.38225"
       style="fill:#ffffff;fill-opacity:1;fill-rule:evenodd;stroke:none;stroke-width:0.0706575"
       id="path17796" />
    <path
       d="m 41.273031,78.318217 c 0.30242,0.0318 0.44797,-0.13425 0.68468,-0.18088 -0.065,-0.42112 -0.3003,-0.70799 -0.53912,-0.99344 -0.0481,0.39144 -0.0968,0.78217 -0.14556,1.17432"
       style="fill:#ffffff;fill-opacity:1;fill-rule:evenodd;stroke:none;stroke-width:0.0706575"
       id="path17798" />
    <path
       d="m 28.717199,81.454707 c 0.198548,0.029 0.184416,-0.2148 0.41476,-0.14767 1.453424,1.22308 3.907359,1.66327 6.426298,2.05401 0.469873,-1.15666 1.05421,-2.16707 1.647024,-3.16899 -3.862843,-0.4402 -7.365334,-1.16161 -9.558543,-2.90332 -0.189362,1.81308 0.07278,3.27569 1.070461,4.16597"
       style="fill:#ffffff;fill-opacity:1;fill-rule:evenodd;stroke:none;stroke-width:0.0706575"
       id="path17800" />
    <path
       d="m 40.080341,79.954647 c 0.16109,0.01 0.31654,0.0261 0.30806,0.16958 -0.28263,1.12487 -1.02524,2.05684 -1.23438,3.02273 1.01322,-1.04079 1.53538,-2.71042 2.51964,-3.78866 0.0692,0.006 0.0629,-0.077 -0.0558,-0.0728 -0.37024,0.40417 -1.05138,0.41406 -1.5375,0.66913"
       style="fill:#ffffff;fill-opacity:1;fill-rule:evenodd;stroke:none;stroke-width:0.0706575"
       id="path17802" />
    <path
       d="m 34.599435,78.812117 c 0.02897,0.10457 1.001217,0.26214 1.220962,0.28263 0.01131,-0.10599 -1.234387,-0.33068 -1.220962,-0.28263"
       style="fill:#ffffff;fill-opacity:1;fill-rule:evenodd;stroke:none;stroke-width:0.0706575"
       id="path17804" />
    <path
       d="m 39.199941,80.110797 c -0.24659,1.2033 -1.58696,2.05614 -1.1284,3.23188 0.58293,-1.16444 1.26477,-2.2024 1.86889,-3.34069 0.0692,0.006 0.0629,-0.0763 -0.0558,-0.0721 -0.17805,0.12436 -0.48117,0.0883 -0.68467,0.18088"
       style="fill:#ffffff;fill-opacity:1;fill-rule:evenodd;stroke:none;stroke-width:0.0706575"
       id="path17806" />
    <path
       d="m 37.604501,80.177217 c -0.52852,1.13264 -1.104379,2.20522 -1.723339,3.2234 0.262139,0.0855 0.347635,-0.0565 0.595643,0.008 -0.01201,-0.21551 0.08267,-0.29677 0.120824,-0.44868 0.146972,-0.0968 0.122942,0.0664 0.268502,-0.0318 0.51297,-0.92843 1.06975,-1.79823 1.59332,-2.71324 -0.33774,-0.0784 -0.50732,0.0544 -0.85495,-0.0382"
       style="fill:#ffffff;fill-opacity:1;fill-rule:evenodd;stroke:none;stroke-width:0.0706575"
       id="path17808" />
    <path
       d="m 30.051919,99.475197 c 0.497429,-0.3434 0.782179,-1.67812 1.537507,-1.19765 -0.213385,0.78077 -1.035839,0.78501 -1.537507,1.19765 z m 5.148105,-14.30673 c -2.793797,-0.39074 -5.690754,-1.01676 -7.41833,-2.04342 0.112345,0.32927 -0.0085,0.0311 -0.194308,-0.0254 -1.257703,5.46111 -3.270029,9.83552 -4.577192,15.04015 0.298174,0.21762 0.554661,0.47058 0.985672,0.58504 0.169578,0.0396 -0.01555,-0.37307 0.22681,-0.23741 1.638547,1.05845 4.349675,1.2789 6.725887,1.760793 0.679018,-0.311603 0.890284,-1.223083 1.635014,-1.449193 0.241649,0.68044 -0.707281,1.02242 -0.92632,1.603933 0.368126,0.0452 0.737665,0.0911 1.10579,0.13637 0.43737,-0.597763 0.565967,-1.589803 1.227321,-1.897863 0.189362,0.61472 -0.522866,1.25911 -0.640864,1.971343 0.238116,-0.0721 0.602002,0.0148 0.920667,0.0466 1.550226,-1.207543 1.321295,-3.175353 1.272542,-5.462543 -0.06924,-3.33362 -0.292522,-6.92019 -0.342689,-10.02841"
       style="fill:#ffffff;fill-opacity:1;fill-rule:evenodd;stroke:none;stroke-width:0.0706575"
       id="path17810" />
    <path
       d="m 38.089911,84.800337 c 0.22046,4.86689 0.26285,9.87509 -0.10033,15.19772 0.31513,-0.0495 0.87403,-0.4402 1.26972,-0.63733 -0.18301,-4.83862 -0.0481,-9.92526 -0.21692,-14.77448 -0.301,0.0954 -0.65288,0.12012 -0.95247,0.21409"
       style="fill:#ffffff;fill-opacity:1;fill-rule:evenodd;stroke:none;stroke-width:0.0706575"
       id="path17812" />
    <path
       d="m 36.835041,85.306247 c 0.0841,4.5242 0.3116,8.93605 0.1618,13.64184 0.10387,-0.29111 0.30171,-0.46493 0.47835,-0.66771 0.0262,-4.35392 0.29041,-8.89437 0.0283,-13.025 -0.18725,0.0636 -0.38155,0.11446 -0.66842,0.0509"
       style="fill:#ffffff;fill-opacity:1;fill-rule:evenodd;stroke:none;stroke-width:0.0706575"
       id="path17814" />
    <path
       d="m 36.307227,85.304837 c -0.173111,-0.0205 -0.346928,-0.0424 -0.522159,-0.0629 -0.0078,0.0643 -0.01625,0.1293 -0.02402,0.19431 0.06854,2.01232 0.09963,4.01617 0.176644,6.04051 0.08055,2.10418 0.117998,4.87536 0.275564,6.846 -0.341275,0.57727 -0.161099,1.35521 -0.331383,2.140923 0.412639,-0.11729 0.617546,-0.536993 0.707281,-0.904413 0.252947,-1.04008 -7.06e-4,-2.39812 -0.01908,-3.57244 -0.05653,-3.53712 -0.104573,-7.43317 -0.262846,-10.682"
       style="fill:#ffffff;fill-opacity:1;fill-rule:evenodd;stroke:none;stroke-width:0.0706575"
       id="path17816" />
    <path
       d="m 36.948801,100.39728 c 0.20632,0.065 0.30806,-0.008 0.4628,-0.008 0.0495,-0.33421 0.07,-0.642993 -0.0254,-0.862733 -0.12295,0.32078 -0.32715,0.534173 -0.43737,0.871213"
       style="fill:#ffffff;fill-opacity:1;fill-rule:evenodd;stroke:none;stroke-width:0.0706575"
       id="path17818" />
    <path
       d="m 35.214155,100.51315 c 0.192895,0.0707 0.245182,-0.0389 0.398509,-0.0177 -0.0049,-0.23105 0.0325,-0.4946 -0.04946,-0.667013 -0.115878,0.227523 -0.241648,0.445853 -0.349048,0.684673"
       style="fill:#ffffff;fill-opacity:1;fill-rule:evenodd;stroke:none;stroke-width:0.0706575"
       id="path17820" />
    <path
       d="m 34.05184,102.41879 c 0.473405,0.004 0.948223,0.01 1.049263,-0.46493 -0.503081,-0.45009 -0.854955,0.0742 -1.049263,0.46493"
       style="fill:#ffffff;fill-opacity:1;fill-rule:evenodd;stroke:none;stroke-width:0.0706575"
       id="path17822" />
    <path
       d="m 32.130663,102.44493 c 0.478351,0.0445 0.647222,0.13001 1.043611,0.13001 0.146261,-0.31443 0.399214,-0.4939 0.558194,-0.79066 -0.944691,-0.30806 -1.335427,0.0954 -1.601805,0.66065"
       style="fill:#ffffff;fill-opacity:1;fill-rule:evenodd;stroke:none;stroke-width:0.0706575"
       id="path17824" />
  </g>
</svg>
