<?xml version="1.0" encoding="UTF-8" standalone="no"?>
<!-- Created with Inkscape (http://www.inkscape.org/) -->

<svg
   width="54.025879mm"
   height="55.620132mm"
   viewBox="0 0 54.025879 55.620132"
   version="1.1"
   id="svg21595"
   xmlns:inkscape="http://www.inkscape.org/namespaces/inkscape"
   xmlns:sodipodi="http://sodipodi.sourceforge.net/DTD/sodipodi-0.dtd"
   xmlns="http://www.w3.org/2000/svg"
   xmlns:svg="http://www.w3.org/2000/svg">
  <sodipodi:namedview
     id="namedview21597"
     pagecolor="#505050"
     bordercolor="#eeeeee"
     borderopacity="1"
     inkscape:showpageshadow="0"
     inkscape:pageopacity="0"
     inkscape:pagecheckerboard="0"
     inkscape:deskcolor="#505050"
     inkscape:document-units="mm"
     showgrid="false"
     inkscape:zoom="0.51669473"
     inkscape:cx="396.75265"
     inkscape:cy="562.22753"
     inkscape:window-width="1370"
     inkscape:window-height="746"
     inkscape:window-x="70"
     inkscape:window-y="27"
     inkscape:window-maximized="1"
     inkscape:current-layer="layer1" />
  <defs
     id="defs21592" />
  <g
     inkscape:label="Calque 1"
     inkscape:groupmode="layer"
     id="layer1"
     transform="translate(-141.31734,-53.512251)">
    <path
       d="m 146.37902,95.686998 c 0.23654,0.19989 0.38972,0.56999 0.6442,0.76868 0.87328,0.68453 2.36837,1.39273 3.86356,2.0822 2.32781,1.07697 4.93443,2.540922 7.86036,3.367542 1.57347,0.44437 3.53669,1.11229 5.13369,1.5404 0.94837,0.25225 1.90168,0.30885 2.80199,0.54619 0.76431,0.20123 1.48162,0.57027 2.24507,0.80903 1.558,0.48244 3.18645,0.88816 4.75031,1.32482 2.08383,0.57932 3.94304,0.83574 6.14282,1.51773 2.23037,0.68891 3.73764,1.08607 5.82649,1.32624 2.3259,0.26906 4.34374,0.30248 6.00942,-0.68036 0.76981,0.0331 1.36128,-0.31026 1.89538,-0.77808 0.7648,-1.73662 0.39576,-2.93999 -0.34141,-3.96813 2.8359,-6.756342 2.71006,-13.444002 0.40903,-18.226032 -0.66573,-1.37867 -1.59862,-2.60083 -2.23899,-4.03383 1.02785,-0.50372 0.87325,-1.95086 0.5719,-2.86714 -0.56251,-1.71154 -2.34526,-4.12216 -4.29386,-5.15885 -0.68502,-0.36459 -1.47497,-0.64588 -2.17349,-1.01323 -2.06292,-1.08466 -4.60242,-2.2823 -7.11019,-3.09621 0.98722,-0.26638 2.2315,0.0163 3.14341,-0.40628 0.10959,-0.20151 -0.10182,-0.25366 -0.17389,-0.37095 0.54039,0.0113 0.56278,-0.4154 1.02842,-0.93536 0.22737,-0.2531 0.30743,-0.0765 0.35102,-0.33563 0.0337,-0.19021 -0.39165,-0.82393 -0.75094,-1.11646 -0.99974,-0.81397 -3.29137,-2.26323 -5.03908,-2.65961 -0.29613,-0.0657 -0.58787,-0.0105 -0.82196,-0.0643 -0.99634,-0.22547 -2.17625,-0.88873 -3.1851,-0.76233 -0.69357,0.0883 -1.53595,0.49595 -1.65268,1.17497 -0.0654,0.37809 0.43355,1.37563 0.62376,1.68447 0.52386,0.84923 1.38305,1.38694 1.89228,2.21794 -5.90986,-1.78544 -11.85279,-3.64296 -15.56344,-0.75731 -2.26351,-3.11755 -3.70867,-6.62004 -5.29981,-10.05406 0.32595,-1.54952 -0.0538,-2.76398 -1.98201,-3.25081 -1.71238,0.12146 -2.27651,2.579 -1.99473,4.04874 1.22435,1.81583 2.35572,3.6761 3.73849,5.41795 0.12972,0.28044 0.0651,0.64863 0.20759,0.92052 0.18378,0.19156 0.26525,0.0784 0.54343,0.19565 1.02347,1.59425 1.87546,3.49974 3.29857,4.72303 -4.61733,2.0921 -8.59345,5.44395 -12.07195,10.26272 -1.10816,1.53489 -2.82078,3.53867 -2.71286,5.40339 -0.11758,0.27048 -0.35605,0.45843 -0.63647,0.61599 v 7.20657 c 0.40021,0.36099 0.83271,0.70707 1.29695,1.02588 1.17468,0.8062 2.66097,1.4159 3.76472,2.35431"
       style="fill:#231615;fill-opacity:1;fill-rule:evenodd;stroke:none;stroke-width:0.0706575"
       id="path17962" />
    <path
       d="m 151.40646,54.369248 c -0.0687,-0.0254 -0.13637,-0.0502 -0.20448,-0.0734 -0.30997,1.46388 -0.3434,2.80008 -0.32658,4.10944 0.29344,-1.07894 0.22773,-2.47937 0.68587,-3.82681 -0.0345,-0.0784 -0.17247,-0.1074 -0.15481,-0.20922"
       style="fill:#ffffff;fill-opacity:1;fill-rule:evenodd;stroke:none;stroke-width:0.0706575"
       id="path17964" />
    <path
       d="m 151.82793,54.904128 c 0.12804,1.0535 -0.37314,2.40016 0.22081,3.23399 0.34029,-1.02736 0.48358,-2.45259 -0.0599,-3.25166 -0.0747,-0.0403 -0.12697,-0.029 -0.16089,0.0177"
       style="fill:#ffffff;fill-opacity:1;fill-rule:evenodd;stroke:none;stroke-width:0.0706575"
       id="path17966" />
    <path
       d="m 150.31459,56.975808 c 0.0502,-0.83518 0.0883,-1.66264 0.31273,-2.579 -0.76896,0.53629 -0.75271,2.05761 -0.31273,2.579"
       style="fill:#ffffff;fill-opacity:1;fill-rule:evenodd;stroke:none;stroke-width:0.0706575"
       id="path17968" />
    <path
       d="m 180.57175,66.248258 c -0.9172,-0.52308 -2.27792,-1.0629 -3.50913,-1.57213 -1.45872,-0.60002 -2.9922,-1.34115 -4.163,-1.0345 1.59333,1.07343 4.1028,1.78135 6.11435,2.66019 0.73031,0.32015 1.35493,0.90802 2.17929,0.78437 0.11432,-0.40353 -0.32927,-0.67125 -0.62151,-0.83793"
       style="fill:#ffffff;fill-opacity:1;fill-rule:evenodd;stroke:none;stroke-width:0.0706575"
       id="path17970" />
    <path
       d="m 173.16953,64.814688 c -0.18964,0.19261 0.54265,0.90498 0.86309,1.23347 -0.10825,-0.22604 0.15594,-0.27769 0.19649,-0.54541 -0.38889,-0.21197 -0.74741,-0.44019 -1.05958,-0.68806"
       style="fill:#ffffff;fill-opacity:1;fill-rule:evenodd;stroke:none;stroke-width:0.0706575"
       id="path17972" />
    <path
       d="m 176.33612,67.337088 c 1.26272,0.40268 2.41649,0.57296 3.35623,0.28539 -0.83185,-0.32432 -2.13795,-0.61826 -3.22431,-1.0817 -0.0458,0.26638 0.0392,0.47065 -0.13192,0.79631"
       style="fill:#ffffff;fill-opacity:1;fill-rule:evenodd;stroke:none;stroke-width:0.0706575"
       id="path17974" />
    <path
       d="m 152.82018,59.412708 c 0.14739,0.0333 0.12584,-0.29259 0.25726,-0.28955 0.12832,1.14514 0.75731,2.05458 1.3957,2.96267 -0.478,-1.41676 -1.2577,-2.68774 -1.66483,-4.13707 -0.15156,0.33838 -0.16895,1.09738 0.0119,1.46395"
       style="fill:#ffffff;fill-opacity:1;fill-rule:evenodd;stroke:none;stroke-width:0.0706575"
       id="path17976" />
    <path
       d="m 175.49402,67.112398 c 0.37703,0.0276 0.18718,-0.5512 0.36241,-0.79214 -0.13609,-0.0488 -0.27295,-0.0982 -0.40847,-0.14626 0.0721,0.28404 -0.23819,0.75186 0.0461,0.9384"
       style="fill:#ffffff;fill-opacity:1;fill-rule:evenodd;stroke:none;stroke-width:0.0706575"
       id="path17978" />
    <path
       d="m 151.77219,60.189948 c 0.26002,-0.38784 0.17523,-1.10021 -0.0119,-1.46537 -0.25204,0.38508 -0.16725,1.0966 0.0119,1.46537"
       style="fill:#ffffff;fill-opacity:1;fill-rule:evenodd;stroke:none;stroke-width:0.0706575"
       id="path17980" />
    <path
       d="m 156.8962,66.031268 c 0.082,0.45023 0.28927,0.84379 0.56695,1.204 0.36848,-0.25867 -0.0615,-1.17362 -0.56695,-1.204"
       style="fill:#ffffff;fill-opacity:1;fill-rule:evenodd;stroke:none;stroke-width:0.0706575"
       id="path17982" />
    <path
       d="m 188.57894,78.815898 c 0.0546,0.81976 1.01323,1.09187 1.85088,1.05074 -0.34333,-0.7135 -0.95883,-1.29586 -1.85088,-1.05074"
       style="fill:#ffffff;fill-opacity:1;fill-rule:evenodd;stroke:none;stroke-width:0.0706575"
       id="path17984" />
    <path
       d="m 187.54805,78.904218 c -3.93145,-0.18216 -9.64616,-1.42008 -14.60872,-3.40979 0.1038,0.21692 -0.13107,0.32983 -0.19593,0.54399 5.40113,1.78686 10.77385,3.51168 15.38206,3.61434 -0.11234,-0.22278 -0.31329,-0.7342 -0.57741,-0.74854"
       style="fill:#ffffff;fill-opacity:1;fill-rule:evenodd;stroke:none;stroke-width:0.0706575"
       id="path17986" />
    <path
       d="m 161.58418,70.946978 c -0.0278,0.3511 0.55947,0.41398 0.85453,0.61607 0.14541,-0.40911 -0.71209,-0.34425 -0.85453,-0.61607"
       style="fill:#ffffff;fill-opacity:1;fill-rule:evenodd;stroke:none;stroke-width:0.0706575"
       id="path17988" />
    <path
       d="m 163.21319,71.763148 c -0.13941,0.27266 0.24504,0.29944 0.2851,0.48654 0.16258,0.0262 0.18216,-0.34028 0.14683,-0.40818 -0.16478,-0.0693 -0.3246,-0.1286 -0.43193,-0.0784"
       style="fill:#ffffff;fill-opacity:1;fill-rule:evenodd;stroke:none;stroke-width:0.0706575"
       id="path17990" />
    <path
       d="m 165.84214,72.786828 c 0.13248,0.2401 -0.26553,0.727 -0.0213,0.91495 -0.0218,-0.30941 0.2454,-0.73117 0.25034,-0.91085 -0.10351,-0.0579 -0.14188,0.0235 -0.22907,-0.004"
       style="fill:#ffffff;fill-opacity:1;fill-rule:evenodd;stroke:none;stroke-width:0.0706575"
       id="path17992" />
    <path
       d="m 164.57391,72.252728 c 0.0209,0.36735 -0.23797,0.86556 0.15672,1.05548 0.19049,-0.11729 0.24016,-0.52993 0.36325,-0.79051 -0.0613,-0.14075 -0.32708,-0.18654 -0.51997,-0.26497"
       style="fill:#ffffff;fill-opacity:1;fill-rule:evenodd;stroke:none;stroke-width:0.0706575"
       id="path17994" />
    <path
       d="m 166.74854,74.111658 c 0.43553,0.24455 0.4096,-0.491 0.59062,-0.78635 -0.18102,-0.0651 -0.36268,-0.13001 -0.54484,-0.19649 0.0285,0.3094 -0.13771,0.70657 -0.0458,0.98284"
       style="fill:#ffffff;fill-opacity:1;fill-rule:evenodd;stroke:none;stroke-width:0.0706575"
       id="path17996" />
    <path
       d="m 171.05836,74.739808 c -0.14103,0.0726 -0.0646,0.3624 -0.22081,0.61415 0.47694,0.17085 0.95332,0.3417 1.42997,0.51283 0.47998,-0.79214 -0.58151,-0.857 -1.20916,-1.12698"
       style="fill:#ffffff;fill-opacity:1;fill-rule:evenodd;stroke:none;stroke-width:0.0706575"
       id="path17998" />
    <path
       d="m 169.24804,74.857168 c 0.29507,0.10598 0.589,0.21197 0.88485,0.31845 0.13305,-0.0797 0.0875,-0.41532 0.24483,-0.68029 -0.38558,-0.13912 -0.77144,-0.27768 -1.1573,-0.41681 0.0591,0.236 -5.7e-4,0.52859 0.0276,0.77865"
       style="fill:#ffffff;fill-opacity:1;fill-rule:evenodd;stroke:none;stroke-width:0.0706575"
       id="path18000" />
    <path
       d="m 167.86252,74.435978 c 0.13545,0.048 0.27154,0.0982 0.40791,0.14626 0.12669,-0.0869 0.11093,-0.46924 0.26934,-0.74826 -0.18102,-0.0657 -0.36233,-0.13079 -0.54477,-0.19707 -0.0793,0.28405 -0.053,0.51503 -0.13248,0.79907"
       style="fill:#ffffff;fill-opacity:1;fill-rule:evenodd;stroke:none;stroke-width:0.0706575"
       id="path18002" />
    <path
       d="m 182.51674,80.708168 c -2.11336,-0.48739 -4.27725,-1.38552 -6.7232,-2.0355 -0.93819,-0.2473 -1.90167,-0.34919 -2.84453,-0.63867 -4.0515,-1.2382 -8.18362,-2.51194 -11.40016,-4.64022 -0.22518,0.14485 0.18159,0.52852 0.32432,0.80896 0.7891,1.56082 1.54012,2.97256 2.4752,4.65647 0.2945,0.53134 0.61027,1.58124 1.03231,1.83215 0.23098,0.13856 0.7838,0.14767 1.1385,0.25557 2.45033,0.759 5.511,2.67862 8.15592,3.39735 0.23798,0.0649 0.53905,10e-4 0.82168,0.0649 0.33513,0.0764 0.62214,0.29259 0.88463,0.31881 0.32955,0.0317 0.7742,-0.23324 1.0817,-0.22745 0.85948,0.0204 1.9317,0.57296 2.74624,0.91219 0.77829,0.32573 1.51886,0.77589 2.25963,1.19757 0.70269,0.40049 1.35464,0.93487 2.0071,1.26053 1.24675,0.62101 2.75514,1.09795 4.12689,1.56224 1.04714,0.35463 1.89362,0.84153 2.70293,0.8197 0.50725,0.26913 0.88873,0.5984 1.28314,0.9213 -0.46754,-3.68055 -1.85533,-6.92853 -3.90771,-9.86308 -1.92125,-0.11036 -4.06415,-0.11863 -6.16459,-0.60278"
       style="fill:#ffffff;fill-opacity:1;fill-rule:evenodd;stroke:none;stroke-width:0.0706575"
       id="path18004" />
    <path
       d="m 163.15327,72.356528 c -0.0974,0.15043 0.44352,0.43885 0.4756,0.17113 -0.0919,-0.20427 -0.2526,-0.0262 -0.4756,-0.17113"
       style="fill:#ffffff;fill-opacity:1;fill-rule:evenodd;stroke:none;stroke-width:0.0706575"
       id="path18006" />
    <path
       d="m 158.42692,70.963798 c 0.14245,0.23324 0.196,0.50951 0.44055,0.69661 0.0853,-0.0579 0.15594,-0.14902 0.19014,-0.3157 -0.29281,-0.0911 -0.321,-0.64143 -0.63069,-0.38091"
       style="fill:#ffffff;fill-opacity:1;fill-rule:evenodd;stroke:none;stroke-width:0.0706575"
       id="path18008" />
    <path
       d="m 157.47114,71.695248 c -2.30605,1.70842 -4.88555,2.83315 -7.44031,4.012 0.27465,-0.61691 1.0723,-1.09328 1.68313,-1.46975 1.83046,-1.12776 4.01314,-1.96654 5.71082,-3.48073 -0.0461,-0.0747 -0.0582,-0.16032 -0.0637,-0.25359 -0.9136,0.25084 -2.97369,0.94752 -4.04189,1.62011 -0.76423,0.48273 -1.56188,1.26908 -2.53922,1.93177 -1.7935,1.21192 -3.03331,2.91046 -4.50801,4.83587 -0.70713,0.92413 -1.72365,2.02151 -1.99276,2.97263 -0.34059,1.21164 -0.0489,2.98027 0.28815,4.33187 0.58927,2.36484 1.78161,4.11086 4.51599,5.3899 0.33591,-0.78663 -0.64171,-1.15454 -1.06068,-1.53405 -1.38251,-1.25198 -2.79842,-2.74348 -3.39486,-4.45064 0.027,-0.34142 0.28152,-0.19869 0.33148,-0.49538 -0.05,-1.36793 0.1369,-3.25024 1.1261,-5.05286 0.33838,-0.61663 0.70878,-1.35217 1.0687,-1.68998 0.16781,-0.15757 0.38502,-0.14273 0.55698,-0.26221 0.39772,-0.28044 0.6188,-0.73336 0.71234,-1.12607 0.58462,-0.24045 1.008,-0.82253 1.51638,-1.2233 -0.0306,0.33838 -0.56907,0.63098 -0.75596,1.03365 1.00878,0.0538 1.78163,0.43886 2.78101,0.38671 1.22548,-0.0624 2.62733,-0.76593 3.51796,0.26631 1.63954,0.16392 3.54009,0.87742 5.43074,1.57079 0.1192,-0.24596 -0.10959,-0.60201 -0.23183,-0.8515 -0.9945,-2.05542 -2.45457,-4.26206 -3.21053,-6.46155"
       style="fill:#ffffff;fill-opacity:1;fill-rule:evenodd;stroke:none;stroke-width:0.0706575"
       id="path18010" />
    <path
       d="m 159.63198,73.164918 c 0.17333,-0.19431 0.31881,-0.8628 0.0718,-1.05018 -0.16562,0.19296 -0.0298,0.72869 -0.0718,1.05018"
       style="fill:#ffffff;fill-opacity:1;fill-rule:evenodd;stroke:none;stroke-width:0.0706575"
       id="path18012" />
    <path
       d="m 160.31651,74.256578 c 0.21169,-0.0136 0.12775,-0.3547 0.17135,-0.47644 -0.25995,-0.12917 -0.0836,0.32877 -0.17135,0.47644"
       style="fill:#ffffff;fill-opacity:1;fill-rule:evenodd;stroke:none;stroke-width:0.0706575"
       id="path18014" />
    <path
       d="m 161.01948,75.508488 c 0.24702,-0.28313 0.0323,-0.34827 -0.009,-0.61825 -0.21416,0.0883 -0.24596,0.56526 0.009,0.61825"
       style="fill:#ffffff;fill-opacity:1;fill-rule:evenodd;stroke:none;stroke-width:0.0706575"
       id="path18016" />
    <path
       d="m 161.97725,77.544908 c 0.40847,-0.32708 -0.37096,-0.96299 -0.40077,-1.44989 -0.55756,0.58377 0.5211,0.88597 0.40077,1.44989"
       style="fill:#ffffff;fill-opacity:1;fill-rule:evenodd;stroke:none;stroke-width:0.0706575"
       id="path18018" />
    <path
       d="m 181.02658,89.551668 c -0.44825,-0.20201 -0.0927,-1.12777 0.40599,-0.70156 0.43476,0.37448 -0.0444,0.86138 -0.40599,0.70156 z m -3.03686,-1.1708 c -0.12754,0.24179 -0.28814,0.33562 -0.64864,0.3039 -0.8871,-1.08749 1.31685,-1.58125 0.64864,-0.3039 z m -2.3784,-1.08749 c -0.16725,-0.24504 -0.0124,-0.80041 0.23246,-1.06891 0.86414,-0.15763 0.71512,1.63092 -0.23246,1.06891 z m -1.5939,-0.26496 c -0.54095,-0.12415 -0.68481,-0.43299 -0.43553,-0.92541 0.56307,-0.3867 1.06538,0.5984 0.43553,0.92541 z m -2.62789,-0.17799 c -0.3477,-0.0897 -0.49072,-0.55035 -0.22631,-1.07894 1.07039,-0.30658 1.01019,1.28455 0.22631,1.07894 z m -0.8139,-1.36708 c -0.50372,-0.1399 -0.50485,-0.96603 0.003,-1.07696 0.50068,0.11319 0.26108,0.95112 -0.003,1.07696 z m -0.79794,1.78686 c -0.50788,-0.15623 -0.67845,-0.4968 -0.55226,-0.81257 0.30913,-0.78302 1.51554,0.1132 0.55226,0.81257 z m -1.26081,-3.7575 c 0.60638,-0.21699 0.99168,0.70933 0.49849,1.1785 -0.57296,-0.20067 -0.69358,-0.6155 -0.49849,-1.1785 z m -6.26916,0.97288 c -0.44274,-0.26002 0.15898,-1.1857 0.56689,-0.72063 0.36933,0.42394 -0.21254,0.92766 -0.56689,0.72063 z m -0.58243,-0.51806 c -0.11284,-0.0408 -0.22659,-0.0825 -0.34,-0.1228 -0.14824,-0.21614 0.0908,-0.88046 0.34304,-0.95303 0.58653,0.0726 0.33591,0.91629 -0.003,1.07583 z m -1.75591,-2.16911 c 0.0326,-0.45016 0.35746,-1.10572 0.69386,-1.28865 0.64037,0.32149 -0.0552,1.6088 -0.69386,1.28865 z m 0.25748,1.63007 c -0.16696,-0.0345 -0.29393,0.0163 -0.50061,-0.10239 -0.17226,-0.32841 0.0334,-0.78083 0.3003,-1.0458 0.70954,-0.12556 0.56547,0.76593 0.20031,1.14819 z m -1.21135,-1.9734 c -0.72177,-0.17311 -0.14739,-1.0889 0.30029,-1.04636 0.25946,0.24285 -0.0563,0.86831 -0.30029,1.04636 z m -1.14543,-0.87417 c -0.7082,-0.10154 -0.45405,-1.21799 0.0947,-1.11914 0.28482,0.28842 0.26829,0.8252 -0.0947,1.11914 z m -0.22907,1.91715 c -0.44274,-0.16838 -0.4703,-0.53156 -0.43582,-0.92568 0.58074,-0.62243 1.16062,0.6097 0.43582,0.92568 z m -0.82719,-1.75951 c -0.39526,-0.20837 -0.56363,-0.52414 -0.41151,-0.99196 0.59282,-0.41816 0.90223,0.57381 0.41151,0.99196 z m -1.44297,-0.9023 c -0.15784,-0.0571 -0.31711,-0.1151 -0.47609,-0.17163 -0.0356,0.16612 -0.10598,0.25861 -0.19105,0.31521 -0.51305,-0.11595 -0.46698,-0.49461 -0.46034,-0.85701 0.35301,-0.29393 1.21552,-0.29697 1.46007,0.21749 -0.035,0.32841 -0.23847,0.2981 -0.33259,0.49594 z m -4.40478,0.48966 c -0.70241,-0.0662 -0.51503,-1.19397 0.0704,-1.05132 0.2266,0.23049 0.34446,0.86775 -0.0704,1.05132 z m 38.56577,10.11122 c -0.72402,-0.18745 -1.61275,-0.14852 -2.68477,-0.65803 -1.25827,-0.60059 -3.18453,-1.42996 -4.38352,-2.34576 -0.21551,-0.0983 -0.27238,0.13941 -0.43772,0.14845 -1.34772,-0.79984 -2.72526,-1.27897 -4.23917,-1.67945 -1.86055,-0.48825 -4.71497,-0.0249 -5.95099,-1.83215 -2.0728,-0.73993 -3.68987,-1.69246 -5.917,-2.3601 -0.19346,0.21282 0.21035,0.68615 0.38862,1.0612 0.19184,0.40989 0.36269,0.84874 0.49736,1.17857 0.13722,0.10598 0.32594,0.18604 0.42783,0.3075 -0.20865,0.56879 0.24151,0.87135 0.51721,1.34193 -0.74409,0.65414 -2.74815,-0.20427 -3.71086,-0.79935 0.0235,-1.18846 -1.61466,-3.34267 -2.35847,-4.76938 -0.21282,-0.41123 -2.00491,-0.75455 -2.83408,-1.09569 -1.32532,-0.54625 -2.50304,-0.76458 -3.5682,-0.97733 -0.22518,-0.0439 -0.39992,-0.19572 -0.54484,-0.19714 -0.61599,-0.001 -1.02284,0.55043 -1.64166,0.71795 0.13001,0.43582 0.49298,1.41174 -0.19261,1.39047 -0.5755,-0.0177 -0.44415,-0.63726 -0.70855,-1.02397 -0.99281,-0.3022 -2.46524,0.006 -3.14892,0.63677 1.03089,1.02948 2.70017,1.44212 4.30707,1.70157 0.31188,0.0287 -0.23713,-0.43115 0.13354,-0.79793 0.0754,-0.0389 0.19961,0.0276 0.25309,-0.0621 0.83002,0.23183 0.0917,1.19899 1.04277,1.37422 0.39745,0.0158 -0.21085,-0.64857 0.22554,-0.84153 0.59945,-0.007 0.85672,0.60695 0.65965,1.16034 3.17104,1.46472 6.32795,3.16467 9.52492,4.50441 0.32877,0.13856 0.63259,0.35244 0.99697,0.43525 0.54039,0.12422 1.14677,0.003 1.71147,0.15403 1.26251,0.33838 2.4711,0.81313 3.74986,1.11922 0.0278,-1.01542 1.38609,-0.66355 0.77194,0.20201 0.45708,0.0494 1.02679,0.33781 1.47857,0.37816 0.30143,0.0897 -0.0682,-0.34559 0.12811,-0.57028 0.21939,-0.54618 1.57954,-0.80203 1.23043,0.21254 -0.28073,0.20427 -0.73364,0.0439 -0.8816,0.52859 0.46097,0.21967 0.78805,0.15339 1.25007,0.37229 1.8448,-0.34332 3.41693,0.99556 5.40559,1.63862 0.91932,0.2981 2.00292,0.35745 3.13733,0.89813 2.08743,0.99613 4.38847,0.60334 5.47984,1.43222 0.98779,0.0594 1.70539,-0.45927 2.29467,-1.24866 -0.46118,-0.70791 -1.36425,-1.36651 -2.40949,-1.63558"
       style="fill:#ffffff;fill-opacity:1;fill-rule:evenodd;stroke:none;stroke-width:0.0706575"
       id="path18020" />
    <path
       d="m 193.37037,91.994368 c 0.15926,0.0579 0.24264,-0.0475 0.43249,0.077 -0.0764,-0.24596 -0.38388,-0.38367 -0.37286,-0.67047 -0.19374,0.058 -0.008,0.41406 -0.0596,0.59346"
       style="fill:#ffffff;fill-opacity:1;fill-rule:evenodd;stroke:none;stroke-width:0.0706575"
       id="path18022" />
    <path
       d="m 164.60422,81.565178 c -0.0792,-0.008 -0.0941,0.12033 -0.18328,0.0883 -0.0447,0.15206 0.11785,0.20865 0.28955,0.25804 0.13913,-0.19565 -0.1907,-0.17523 -0.10627,-0.34636"
       style="fill:#ffffff;fill-opacity:1;fill-rule:evenodd;stroke:none;stroke-width:0.0706575"
       id="path18024" />
    <path
       d="m 192.49598,93.139788 c -0.52993,0.39547 -1.13765,0.62455 -1.71394,0.91989 -0.076,1.77916 -0.17918,4.07687 -1.21608,5.943012 -0.63373,-0.406292 -0.11157,-1.242092 0.0428,-1.827212 0.33647,-1.28533 0.61797,-2.77111 0.68559,-3.82822 -0.68807,0.17947 -1.51419,0.0644 -2.18127,0.28955 -0.0723,1.42806 -0.16449,3.21711 -0.55177,4.95324 -0.0988,0.446552 -0.59585,1.216582 0.0798,1.487342 0.25585,-1.359602 0.85092,-3.135152 1.09137,-4.524842 0.11284,-0.65987 0.029,-1.4217 0.47609,-1.75181 0.42479,0.3111 0.17855,1.1496 0.0922,1.87822 -0.10931,0.93183 -0.281,1.91686 -0.59593,2.9373 -0.19211,0.623762 -0.40762,1.629222 -0.90801,1.670912 0.3949,0.26913 1.14514,-0.39773 1.59777,-0.80755 0.53375,-0.485562 1.01351,-1.051312 1.40927,-1.568592 0.0886,-0.21141 0.15014,-0.40982 0.035,-0.52577 0.12005,-0.14548 0.35689,-0.043 0.41872,-0.3094 0.44769,-1.60471 1.53376,-3.93421 1.57573,-5.66115 -0.27655,-0.0883 -0.12259,0.47778 -0.33732,0.72508"
       style="fill:#ffffff;fill-opacity:1;fill-rule:evenodd;stroke:none;stroke-width:0.0706575"
       id="path18026" />
    <path
       d="m 165.24459,82.564348 c -0.2697,-0.0522 -0.37427,0.24588 -0.66658,0.14491 0.15488,0.17248 0.42613,0.28843 0.69944,0.40544 -0.10133,-0.14047 -0.19629,-0.28405 -0.0329,-0.55035"
       style="fill:#ffffff;fill-opacity:1;fill-rule:evenodd;stroke:none;stroke-width:0.0706575"
       id="path18028" />
    <path
       d="m 193.17995,94.231378 c -0.33421,0.236 0.0902,0.59699 -0.20703,1.00192 0.3754,-0.0679 0.48245,0.23734 0.7,0.40544 0.12196,-0.52831 0.0717,-0.97571 -0.12866,-1.35218 -0.0864,0.13913 -0.39109,0.23459 -0.36431,-0.0552"
       style="fill:#ffffff;fill-opacity:1;fill-rule:evenodd;stroke:none;stroke-width:0.0706575"
       id="path18030" />
    <path
       d="m 192.69276,96.439428 c 0.24406,0.29888 0.5134,0.58787 0.6644,0.93126 0.58045,-0.7455 -0.20618,-1.33479 -0.29726,-1.95304 -0.3111,0.20703 -0.15538,0.67485 -0.36714,1.02178"
       style="fill:#ffffff;fill-opacity:1;fill-rule:evenodd;stroke:none;stroke-width:0.0706575"
       id="path18032" />
    <path
       d="m 183.65164,92.725738 c -0.21444,0.0218 -0.35244,0.20978 -0.55416,0.26059 -0.28708,-0.0734 -0.10627,-0.36601 -0.28652,-0.48747 -1.5332,-0.52442 -3.35955,-0.10733 -4.4346,-1.13547 0.0605,-0.22744 0.19762,-0.2981 0.39391,-0.24313 -1.17143,-0.44578 -2.72808,-0.66771 -4.11417,-1.17143 1.83653,0.83079 4.08873,2.1954 6.15384,2.98252 1.8749,0.71569 3.69793,0.0395 5.74368,0.91361 -0.25232,-0.82528 -1.92514,-0.63098 -2.90198,-1.11922"
       style="fill:#ffffff;fill-opacity:1;fill-rule:evenodd;stroke:none;stroke-width:0.0706575"
       id="path18034" />
    <path
       d="m 168.49123,88.498158 c -1.01683,-0.0422 -2.08743,-0.97429 -2.96267,-0.52717 2.16502,0.95557 4.27174,0.74826 6.44446,1.31931 -0.89007,-0.26079 -1.85002,-0.72007 -2.83895,-0.86774 -0.21338,-0.0317 -0.40599,0.0869 -0.64284,0.0756"
       style="fill:#ffffff;fill-opacity:1;fill-rule:evenodd;stroke:none;stroke-width:0.0706575"
       id="path18036" />
    <path
       d="m 192.44829,97.119218 c -0.0737,0.20477 -0.14739,0.40904 -0.22081,0.61331 0.12472,0.24094 0.41427,0.40678 0.53432,0.65273 0.19346,0.0122 0.13085,-0.52081 0.37512,-0.4019 -0.23713,-0.28425 -0.29811,-0.6516 -0.68863,-0.86414"
       style="fill:#ffffff;fill-opacity:1;fill-rule:evenodd;stroke:none;stroke-width:0.0706575"
       id="path18038" />
    <path
       d="m 151.55746,82.788968 c -0.94978,1.90725 -1.83681,3.94417 -2.66209,6.11547 0.15099,0.11871 0.20095,0.28263 0.40267,0.37541 0.18491,-0.0158 0.11956,-0.32298 0.22003,-0.6114 0.61324,-1.71839 1.96979,-3.77439 2.78214,-5.37986 -0.16039,-0.20703 -0.65062,-0.25918 -0.74275,-0.49962"
       style="fill:#ffffff;fill-opacity:1;fill-rule:evenodd;stroke:none;stroke-width:0.0706575"
       id="path18040" />
    <path
       d="m 193.1206,98.667888 c 0.24426,-0.0635 0.12887,-0.43306 0.21995,-0.61111 -0.34467,-0.0707 -0.0141,0.38367 -0.21995,0.61111"
       style="fill:#ffffff;fill-opacity:1;fill-rule:evenodd;stroke:none;stroke-width:0.0706575"
       id="path18042" />
    <path
       d="m 149.63918,89.402648 c 0.0237,0.21338 0.38727,0.26991 0.44578,0.46923 1.07837,-2.03585 2.09739,-4.19422 3.21131,-6.14804 -0.28207,-0.0911 -0.38254,-0.27048 -0.72339,-0.33704 -0.93593,2.09351 -1.81859,4.30459 -2.9337,6.01585"
       style="fill:#ffffff;fill-opacity:1;fill-rule:evenodd;stroke:none;stroke-width:0.0706575"
       id="path18044" />
    <path
       d="m 151.50998,90.613788 c 0.50866,-0.0657 0.66156,-0.85015 0.97154,-1.41675 0.772,-1.4217 1.8255,-3.15204 2.71586,-4.56017 0.024,-0.0657 0.0486,-0.13361 0.0734,-0.20286 -0.2266,-0.0812 -0.45397,-0.16399 -0.68029,-0.24376 -0.85538,2.34858 -2.50092,4.2889 -3.08052,6.42354"
       style="fill:#ffffff;fill-opacity:1;fill-rule:evenodd;stroke:none;stroke-width:0.0706575"
       id="path18046" />
    <path
       d="m 150.74242,90.183478 c 0.5045,0.0798 0.68778,-0.84294 0.94611,-1.35104 0.70495,-1.37429 1.93538,-3.61985 2.80835,-4.59994 -0.12747,-0.223 -0.64722,-0.25917 -0.92816,-0.41123 -0.76508,2.18897 -2.32788,4.16102 -2.8263,6.36221"
       style="fill:#ffffff;fill-opacity:1;fill-rule:evenodd;stroke:none;stroke-width:0.0706575"
       id="path18048" />
    <path
       d="m 189.44033,103.3404 c -0.20533,0.10401 0.0933,0.28843 -0.12725,0.56887 -0.21636,0.14075 -0.40346,-0.0182 -0.63755,-0.15185 -0.32679,0.39858 -1.35379,0.54626 -1.32567,0.90781 1.38891,0.18519 2.76836,0.35491 3.82518,-0.1623 0.8291,-1.67176 1.58457,-3.83536 2.03253,-5.649842 -0.69004,2.322582 -2.20119,3.653772 -3.76724,4.487312"
       style="fill:#ffffff;fill-opacity:1;fill-rule:evenodd;stroke:none;stroke-width:0.0706575"
       id="path18050" />
    <path
       d="m 191.64979,98.909678 c 0.3039,0.23324 0.37371,0.57657 0.71484,0.79349 0.0569,-0.15898 0.11369,-0.3174 0.17085,-0.47496 -0.22052,-0.21833 -0.40932,-0.44995 -0.50895,-0.72346 -0.22412,-0.0742 -0.25669,0.25726 -0.37674,0.40493"
       style="fill:#ffffff;fill-opacity:1;fill-rule:evenodd;stroke:none;stroke-width:0.0706575"
       id="path18052" />
    <path
       d="m 191.07874,99.856348 c 0.18653,0.252322 0.53544,0.426142 0.57769,0.744662 0.17855,0.0213 0.24398,-0.20116 0.35103,-0.33336 -0.2986,-0.236 -0.50563,-0.517852 -0.62158,-0.839342 -0.14075,0.0607 -0.23734,0.21388 -0.30714,0.42804"
       style="fill:#ffffff;fill-opacity:1;fill-rule:evenodd;stroke:none;stroke-width:0.0706575"
       id="path18054" />
    <path
       d="m 190.5623,100.43871 c 0.10931,0.3434 0.25755,0.66906 0.59592,0.90647 0.0127,-0.21282 0.15955,-0.14217 0.19043,-0.31577 -0.19127,-0.23049 -0.41208,-0.4474 -0.50895,-0.72233 -0.16668,-0.1115 -0.18187,0.0941 -0.2774,0.13163"
       style="fill:#ffffff;fill-opacity:1;fill-rule:evenodd;stroke:none;stroke-width:0.0706575"
       id="path18056" />
    <path
       d="m 143.48703,83.422978 c -0.44851,0.36515 -0.55698,1.45399 -0.93731,1.96767 0.53655,1.06565 0.26469,2.51413 1.89367,3.06533 -0.62929,-1.53051 -1.16944,-3.10427 -0.95636,-5.033"
       style="fill:#ffffff;fill-opacity:1;fill-rule:evenodd;stroke:none;stroke-width:0.0706575"
       id="path18058" />
    <path
       d="m 189.78563,101.31204 c 0.3003,0.16032 0.24236,0.48958 0.62709,0.6097 0.0779,-0.034 0.10711,-0.17113 0.20893,-0.15544 -0.13693,-0.33421 -0.47086,-1.18295 -0.83602,-0.45426"
       style="fill:#ffffff;fill-opacity:1;fill-rule:evenodd;stroke:none;stroke-width:0.0706575"
       id="path18060" />
    <path
       d="m 189.04041,101.8886 c 0.27132,0.13828 0.3116,0.38141 0.58264,0.5192 0.25642,-0.22385 -0.25698,-0.50238 -0.25585,-0.78501 -0.14188,0.0191 -0.2815,0.0411 -0.32679,0.26581"
       style="fill:#ffffff;fill-opacity:1;fill-rule:evenodd;stroke:none;stroke-width:0.0706575"
       id="path18062" />
    <path
       d="m 188.37333,102.03409 c -0.004,0.3364 0.32206,0.77087 0.64503,0.76946 -0.0641,-0.28977 -0.37399,-0.46337 -0.41709,-0.76452 -0.0676,0.0168 -0.13552,0.0304 -0.22794,-0.005"
       style="fill:#ffffff;fill-opacity:1;fill-rule:evenodd;stroke:none;stroke-width:0.0706575"
       id="path18064" />
    <path
       d="m 187.08298,102.41493 c -0.11729,-0.0198 -0.0941,-0.10683 -0.17911,-0.14131 0.18519,-0.4248 0.75511,-0.45073 0.13276,-0.79709 -0.12972,0.36099 -0.31937,0.75321 -0.20646,1.00136 0.72615,-0.0602 0.8835,0.78274 1.39958,0.81171 -0.0524,-0.44578 -0.39879,-0.75596 -0.68389,-1.09159 -0.25232,-0.13637 -0.27408,0.21692 -0.46288,0.21692"
       style="fill:#ffffff;fill-opacity:1;fill-rule:evenodd;stroke:none;stroke-width:0.0706575"
       id="path18066" />
    <path
       d="m 190.86012,106.2346 c -0.75985,-0.1187 -1.39711,0.20286 -2.13216,0.15482 -0.77667,-0.0488 -1.63947,-0.43109 -2.41225,-0.56166 -0.71321,-0.11729 -1.52853,0.0132 -2.31156,0.0146 -2.23899,0.004 -4.66509,-0.48966 -7.42596,-1.36433 0.0381,0.82394 0.78522,0.71293 1.37563,0.87912 1.23594,0.34608 2.63666,0.83023 4.15664,1.26548 2.12693,0.60829 4.8558,0.69802 6.65834,0.93536 0.55176,0.0715 2.5164,-0.31294 3.05735,-0.59204 0.68227,-0.35053 1.07583,-1.32066 0.75929,-2.10976 -0.47581,0.67181 -1.13992,0.94257 -1.72532,1.37838"
       style="fill:#ffffff;fill-opacity:1;fill-rule:evenodd;stroke:none;stroke-width:0.0706575"
       id="path18068" />
    <path
       d="m 141.47191,86.463998 c -0.0569,-0.001 -0.10709,0.0113 -0.15456,0.029 v 2.25334 c 0.21114,-0.42062 0.39634,-0.89728 0.63454,-1.26491 -0.4372,-0.20978 -0.59038,-0.55035 -0.47998,-1.0174"
       style="fill:#ffffff;fill-opacity:1;fill-rule:evenodd;stroke:none;stroke-width:0.0706575"
       id="path18070" />
    <path
       d="m 185.60801,102.88417 c 0.26051,0.3836 0.56554,1.22795 1.14069,1.1007 -0.11036,-0.55176 -0.39745,-1.50288 -1.14069,-1.1007"
       style="fill:#ffffff;fill-opacity:1;fill-rule:evenodd;stroke:none;stroke-width:0.0706575"
       id="path18072" />
    <path
       d="m 184.55118,103.0423 c 0.12394,0.50534 0.73442,0.78444 0.74608,1.34468 0.25005,0.0883 0.37589,-0.0833 0.57458,-0.10097 -0.33258,-0.504 -0.44048,-1.49158 -1.32066,-1.24371"
       style="fill:#ffffff;fill-opacity:1;fill-rule:evenodd;stroke:none;stroke-width:0.0706575"
       id="path18074" />
    <path
       d="m 183.24706,103.0346 c 0.31739,0.51 0.93536,0.87771 1.08721,1.46692 0.25804,0.0671 0.43631,-0.0334 0.68587,0.0146 -0.65139,-0.52548 -0.68036,-1.64328 -1.77308,-1.48154"
       style="fill:#ffffff;fill-opacity:1;fill-rule:evenodd;stroke:none;stroke-width:0.0706575"
       id="path18076" />
    <path
       d="m 182.22139,102.89463 c 0.0577,0.61415 1.02397,0.79906 0.8327,1.53044 0.23932,0.10549 0.37371,-0.008 0.59452,0.0593 -0.478,-0.52138 -0.65027,-1.38552 -1.42722,-1.58979"
       style="fill:#ffffff;fill-opacity:1;fill-rule:evenodd;stroke:none;stroke-width:0.0706575"
       id="path18078" />
    <path
       d="m 180.62609,102.62966 c 0.066,0.6078 0.82994,0.88739 0.8327,1.5291 0.29754,0.14902 0.46839,0.0317 0.77419,0.20067 -0.46726,-0.60914 -0.72339,-1.31847 -1.60689,-1.72977"
       style="fill:#ffffff;fill-opacity:1;fill-rule:evenodd;stroke:none;stroke-width:0.0706575"
       id="path18080" />
    <path
       d="m 149.86274,91.559108 c -0.0485,0.13574 -0.0979,0.27211 -0.14683,0.40848 0.13609,0.1228 0.29146,0.24009 0.4946,0.33258 0.002,-0.17085 -0.0472,-0.31852 0.0356,-0.52555 -0.22519,-0.0262 -0.15729,-0.19014 -0.38339,-0.21551"
       style="fill:#ffffff;fill-opacity:1;fill-rule:evenodd;stroke:none;stroke-width:0.0706575"
       id="path18082" />
    <path
       d="m 142.04573,90.205248 c 0.29478,0.20285 0.45568,0.46648 0.76205,0.66135 0.13055,-0.36325 0.26138,-0.72699 0.39193,-1.09024 -0.26607,-0.21417 -0.42754,-0.47609 -0.5763,-0.74551 -0.2324,0.30665 -0.39,0.77313 -0.57768,1.1744"
       style="fill:#ffffff;fill-opacity:1;fill-rule:evenodd;stroke:none;stroke-width:0.0706575"
       id="path18084" />
    <path
       d="m 179.30296,102.46022 c 0.54201,0.47058 0.56936,1.45039 1.42664,1.5898 -0.523,-0.47503 -0.55452,-1.46834 -1.42664,-1.5898"
       style="fill:#ffffff;fill-opacity:1;fill-rule:evenodd;stroke:none;stroke-width:0.0706575"
       id="path18086" />
    <path
       d="m 151.05763,92.295998 c -0.23437,-0.14626 -0.27656,0.37456 -0.23876,0.45292 0.11178,0.0403 0.22632,0.0812 0.34001,0.12146 0.0411,-0.11291 0.082,-0.22604 0.12259,-0.33972 -0.008,-0.11016 -0.2584,-0.10465 -0.22384,-0.23466"
       style="fill:#ffffff;fill-opacity:1;fill-rule:evenodd;stroke:none;stroke-width:0.0706575"
       id="path18088" />
    <path
       d="m 177.86769,102.17455 c 0.14768,0.61988 0.35689,1.47413 1.38503,1.49597 -0.45433,-0.50097 -0.58766,-1.1537 -1.38503,-1.49597"
       style="fill:#ffffff;fill-opacity:1;fill-rule:evenodd;stroke:none;stroke-width:0.0706575"
       id="path18090" />
    <path
       d="m 153.08875,93.487288 c -0.002,0.17106 0.0472,0.31739 -0.0359,0.52576 0.80507,0.39356 1.56825,0.80896 2.42059,1.17991 0.0535,-1.20337 -1.09187,-1.27819 -2.38469,-1.70567"
       style="fill:#ffffff;fill-opacity:1;fill-rule:evenodd;stroke:none;stroke-width:0.0706575"
       id="path18092" />
    <path
       d="m 151.97999,92.936938 c -0.223,0.3872 -0.003,0.56801 0.37399,0.67039 -0.0817,-0.24292 0.10351,-0.61245 -0.37399,-0.67039"
       style="fill:#ffffff;fill-opacity:1;fill-rule:evenodd;stroke:none;stroke-width:0.0706575"
       id="path18094" />
    <path
       d="m 176.68171,102.05451 c -2.89505,-0.90145 -5.426,-1.4477 -8.69808,-2.744902 0.32735,0.37921 0.62157,1.167192 1.0872,1.466702 0.32128,0.20696 0.7176,0.20145 1.11258,0.32432 2.2881,0.70658 5.39816,1.65487 7.58904,2.19342 -0.34827,-0.38395 -0.79624,-1.01902 -1.09074,-1.23954"
       style="fill:#ffffff;fill-opacity:1;fill-rule:evenodd;stroke:none;stroke-width:0.0706575"
       id="path18096" />
    <path
       d="m 155.92303,94.586008 c 0.0933,0.50096 0.15679,1.01825 0.77031,1.27763 0.13142,-0.3853 0.0196,-1.14126 -0.77031,-1.27763"
       style="fill:#ffffff;fill-opacity:1;fill-rule:evenodd;stroke:none;stroke-width:0.0706575"
       id="path18098" />
    <path
       d="m 157.12336,95.093328 c 0.30694,0.49679 0.12641,1.2216 1.01902,1.44353 -0.077,-0.37787 -0.20893,-0.7325 -0.29478,-1.10515 -0.34,-0.0662 -0.44076,-0.24426 -0.72424,-0.33838"
       style="fill:#ffffff;fill-opacity:1;fill-rule:evenodd;stroke:none;stroke-width:0.0706575"
       id="path18100" />
    <path
       d="m 143.43459,91.476588 c 0.077,-0.37675 0.46617,-0.89813 0.25669,-1.13858 -0.27794,0.0362 -0.66656,1.05301 -0.25669,1.13858"
       style="fill:#ffffff;fill-opacity:1;fill-rule:evenodd;stroke:none;stroke-width:0.0706575"
       id="path18102" />
    <path
       d="m 158.57156,95.768178 c 0.23627,0.6061 0.18356,1.34744 1.10571,1.62731 -0.30446,-0.57105 -0.18491,-1.34383 -1.10571,-1.62731"
       style="fill:#ffffff;fill-opacity:1;fill-rule:evenodd;stroke:none;stroke-width:0.0706575"
       id="path18104" />
    <path
       d="m 165.84899,98.618498 c 0.6928,0.54039 0.69754,1.404612 1.9274,1.691622 -0.59621,-0.586532 -0.79461,-1.358252 -1.9274,-1.691622"
       style="fill:#ffffff;fill-opacity:1;fill-rule:evenodd;stroke:none;stroke-width:0.0706575"
       id="path18106" />
    <path
       d="m 163.12593,97.638408 c 0.72014,0.75321 1.31352,1.56938 2.74518,1.98555 -0.69195,-0.76727 -1.22054,-1.61021 -2.74518,-1.98555"
       style="fill:#ffffff;fill-opacity:1;fill-rule:evenodd;stroke:none;stroke-width:0.0706575"
       id="path18108" />
    <path
       d="m 143.88117,91.942708 c 0.16864,0.12867 0.27904,0.28482 0.47196,0.40077 -0.0533,-0.29393 0.22882,-0.74685 0.32321,-1.1137 -0.1322,-0.10648 -0.21418,-0.23734 -0.42808,-0.30658 -0.12255,0.33915 -0.24427,0.67895 -0.36709,1.01951"
       style="fill:#ffffff;fill-opacity:1;fill-rule:evenodd;stroke:none;stroke-width:0.0706575"
       id="path18110" />
    <path
       d="m 145.1472,91.631108 c -0.15097,0.35774 -0.21527,0.9023 -0.59064,0.78635 0.0207,0.25451 0.39331,0.34142 0.5832,0.51806 0.13082,-0.36459 0.2611,-0.72643 0.39165,-1.08883 -0.0519,-0.10818 -0.21225,-0.16477 -0.38421,-0.21558"
       style="fill:#ffffff;fill-opacity:1;fill-rule:evenodd;stroke:none;stroke-width:0.0706575"
       id="path18112" />
    <path
       d="m 146.16346,92.227528 c -0.25033,0.0232 -0.67981,1.05852 -0.3486,1.18133 0.33949,0 0.33011,-0.7383 0.52828,-1.03944 -0.0988,-0.0303 -0.19735,-0.0594 -0.17968,-0.14189"
       style="fill:#ffffff;fill-opacity:1;fill-rule:evenodd;stroke:none;stroke-width:0.0706575"
       id="path18114" />
    <path
       d="m 146.63626,93.473158 c 0.11785,-0.20286 0.10874,-0.1322 0.2404,-0.45207 0.0806,-0.13305 0.0185,-0.19791 0.0287,-0.29535 -0.2473,0.38226 -0.65192,1.41153 -0.2691,0.74742"
       style="fill:#ffffff;fill-opacity:1;fill-rule:evenodd;stroke:none;stroke-width:0.0706575"
       id="path18116" />
    <path
       d="m 147.30944,93.100858 c -0.0511,0.36184 -0.27325,0.8062 -0.25531,1.13688 0.37316,0.17163 0.97071,-1.14105 0.25531,-1.13688"
       style="fill:#ffffff;fill-opacity:1;fill-rule:evenodd;stroke:none;stroke-width:0.0706575"
       id="path18118" />
    <path
       d="m 156.54072,96.498778 c 0.0271,0.25225 0.44634,0.31711 0.67598,0.47418 -0.0425,-0.24539 -0.40049,-0.34064 -0.67598,-0.47418"
       style="fill:#ffffff;fill-opacity:1;fill-rule:evenodd;stroke:none;stroke-width:0.0706575"
       id="path18120" />
    <path
       d="m 163.11328,99.171608 c 0.40762,0.14626 0.81609,0.29394 1.22435,0.4402 -0.0527,-0.25416 -1.01655,-0.63232 -1.22435,-0.4402"
       style="fill:#ffffff;fill-opacity:1;fill-rule:evenodd;stroke:none;stroke-width:0.0706575"
       id="path18122" />
    <path
       d="m 147.9437,94.327398 c 0.31382,0.14492 0.36156,-0.27408 0.49324,-0.51445 -0.16093,-0.0563 -0.1579,-0.18936 -0.38532,-0.21388 -0.0502,0.25005 -0.15319,0.52413 -0.10792,0.72833"
       style="fill:#ffffff;fill-opacity:1;fill-rule:evenodd;stroke:none;stroke-width:0.0706575"
       id="path18124" />
    <path
       d="m 158.10041,97.290918 c 0.005,0.16668 0.0822,0.3003 0.33619,0.35053 -0.011,-0.16477 -0.12697,-0.27938 -0.33619,-0.35053"
       style="fill:#ffffff;fill-opacity:1;fill-rule:evenodd;stroke:none;stroke-width:0.0706575"
       id="path18126" />
    <path
       d="m 148.9326,94.145818 c -0.30248,-0.0254 -0.0963,0.33067 -0.29005,0.58787 0.0969,0.10464 0.33146,0.14633 0.36128,0.28263 0.17939,-0.0168 0.17883,-0.41816 0.28736,-0.58788 -0.17113,-0.0707 -0.31026,-0.15622 -0.35859,-0.28262"
       style="fill:#ffffff;fill-opacity:1;fill-rule:evenodd;stroke:none;stroke-width:0.0706575"
       id="path18128" />
    <path
       d="m 149.83073,94.853238 c -0.0654,0.18074 -0.13079,0.36318 -0.19565,0.54399 0.0452,0.0162 0.0894,0.0317 0.1363,0.048 0.006,-0.19156 0.34311,-0.53771 0.0593,-0.59204"
       style="fill:#ffffff;fill-opacity:1;fill-rule:evenodd;stroke:none;stroke-width:0.0706575"
       id="path18130" />
    <path
       d="m 175.03171,104.07453 c -0.006,0.2283 -0.0999,0.49962 0.26144,0.55481 -0.12669,-0.16534 0.0668,-0.48273 -0.26144,-0.55481"
       style="fill:#ffffff;fill-opacity:1;fill-rule:evenodd;stroke:none;stroke-width:0.0706575"
       id="path18132" />
    <path
       d="m 161.37362,100.1594 c -1.48331,-0.456232 -3.10314,-0.871912 -4.67668,-1.528742 -2.1973,-0.91664 -3.87705,-2.48658 -6.14748,-3.21167 -0.01,0.0897 -0.0952,0.1811 -0.0977,0.27217 -0.0121,0.37816 1.25198,0.9801 1.84564,1.2782 1.7899,0.90222 3.81028,1.97975 5.74318,2.83676 -2.87872,-0.62596 -5.34043,-2.42059 -7.85379,-3.59633 3.11444,2.85668 8.50625,3.956822 13.07609,5.321922 0.29641,-1.13765 -1.18076,-1.15398 -1.88924,-1.37231"
       style="fill:#ffffff;fill-opacity:1;fill-rule:evenodd;stroke:none;stroke-width:0.0706575"
       id="path18134" />
    <path
       d="m 173.21285,103.57364 c -0.16612,0.43603 0.40522,0.52577 0.83022,0.68333 0.20759,-0.4551 -0.42528,-0.51445 -0.83022,-0.68333"
       style="fill:#ffffff;fill-opacity:1;fill-rule:evenodd;stroke:none;stroke-width:0.0706575"
       id="path18136" />
    <path
       d="m 147.82695,94.439748 c -0.16395,0.22745 0.0632,0.27132 0.0809,0.41349 0.2186,-0.034 0.10682,-0.38452 -0.0809,-0.41349"
       style="fill:#ffffff;fill-opacity:1;fill-rule:evenodd;stroke:none;stroke-width:0.0706575"
       id="path18138" />
    <path
       d="m 171.25874,103.02329 c -0.0724,0.2042 0.0933,0.29669 0.0572,0.48464 0.31739,0.0326 0.70876,0.22194 1.00157,0.20562 0.20123,-0.58017 -0.64751,-0.51361 -1.05874,-0.69026"
       style="fill:#ffffff;fill-opacity:1;fill-rule:evenodd;stroke:none;stroke-width:0.0706575"
       id="path18140" />
    <path
       d="m 169.25518,102.61065 c -0.0209,0.33011 0.69089,0.3157 0.97133,0.50506 0.18491,-0.48881 -0.67598,-0.43221 -0.97133,-0.50506"
       style="fill:#ffffff;fill-opacity:1;fill-rule:evenodd;stroke:none;stroke-width:0.0706575"
       id="path18142" />
    <path
       d="m 148.52003,95.072908 c -0.0654,0.21968 0.20392,0.28263 0.40374,0.37647 0.0326,-0.20399 -0.28291,-0.2437 -0.40374,-0.37647"
       style="fill:#ffffff;fill-opacity:1;fill-rule:evenodd;stroke:none;stroke-width:0.0706575"
       id="path18144" />
    <path
       d="m 167.43575,102.11103 c 0.80097,0.57664 1.04997,0.0842 0,0 v 0"
       style="fill:#ffffff;fill-opacity:1;fill-rule:evenodd;stroke:none;stroke-width:0.0706575"
       id="path18146" />
    <path
       d="m 165.57498,101.51624 c -0.0589,0.21529 0.0367,0.36021 0.0325,0.55035 0.20038,-0.096 0.82775,0.0848 0.80182,-0.0933 0.0593,-0.31245 -0.59536,-0.28623 -0.83433,-0.45708"
       style="fill:#ffffff;fill-opacity:1;fill-rule:evenodd;stroke:none;stroke-width:0.0706575"
       id="path18148" />
    <path
       d="m 163.98434,101.0222 c -0.13276,0.28843 0.0685,0.42119 -0.0155,0.68616 0.27712,0.10874 0.46782,0.034 0.77172,0.20123 0.13383,-0.4775 -0.1286,-0.76868 -0.75625,-0.88739"
       style="fill:#ffffff;fill-opacity:1;fill-rule:evenodd;stroke:none;stroke-width:0.0706575"
       id="path18150" />
    <path
       d="m 185.72834,74.561818 c 0.90781,0.55311 1.56718,1.2293 2.24394,1.88373 0.69386,0.66905 1.33175,1.50783 2.24889,1.65466 -0.12669,-0.52082 -0.72537,-1.02454 -1.29092,-1.54041 -1.50641,-1.37556 -3.48645,-2.88699 -5.46429,-4.0421 -1.57326,-0.92074 -3.69271,-1.61735 -5.59466,-2.39819 -6.15519,-2.52466 -13.35321,-4.52702 -17.71433,-2.68413 -0.12697,0.11425 -0.12478,0.11863 0.0433,0.0924 2.8812,-0.88457 6.09894,-1.05492 10.08085,0.39857 -3.7705,-0.76592 -7.19159,-0.78804 -10.1402,0.19431 1.46586,2.1352 4.7898,3.11805 7.74505,4.32417 6.20846,2.53512 13.3708,5.06056 18.87989,5.64129 -1.70383,-2.38334 -5.15997,-3.94 -7.98458,-5.79476 1.00603,-0.14598 1.90387,0.53573 2.72222,0.98009 2.51584,1.36433 4.82902,2.93229 6.27086,4.79425 0.36763,0.0607 0.66382,-0.0317 1.0499,0.0685 -2.38992,-3.1131 -7.03339,-5.16796 -11.42716,-7.33849 1.74411,0.0784 3.50221,1.50508 5.25515,2.27376 1.05958,0.46422 2.13216,0.91495 3.07608,1.49236"
       style="fill:#ffffff;fill-opacity:1;fill-rule:evenodd;stroke:none;stroke-width:0.0706575"
       id="path18152" />
    <path
       d="m 190.1864,78.624628 c 0.16202,0.0938 0.27818,0.20978 0.33421,0.35187 0.12895,-0.029 0.0436,-0.43249 0.0599,-0.59366 -0.21141,-0.0869 -0.29726,0.0911 -0.39413,0.24179"
       style="fill:#ffffff;fill-opacity:1;fill-rule:evenodd;stroke:none;stroke-width:0.0706575"
       id="path18154" />
    <path
       d="m 189.63937,81.404858 c -0.0146,-0.024 -0.0295,-0.0472 -0.0444,-0.0712 0.011,0.0303 0.0265,0.0536 0.0444,0.0712"
       style="fill:#ffffff;fill-opacity:1;fill-rule:evenodd;stroke:none;stroke-width:0.0706575"
       id="path18156" />
    <path
       d="m 189.87282,81.203618 c 0.10599,0.18216 -0.11757,0.31796 -0.23345,0.20124 0.74494,1.20471 1.49314,2.33607 2.06398,3.68493 0.86025,2.03832 1.12444,4.26403 2.23228,6.18528 0.0911,-0.91798 -0.15396,-1.88373 -0.39215,-2.75423 -0.70799,-2.59313 -2.25249,-5.01088 -3.67066,-7.31722"
       style="fill:#ffffff;fill-opacity:1;fill-rule:evenodd;stroke:none;stroke-width:0.0706575"
       id="path18158" />
    <path
       d="m 163.0807,80.248898 c 0.11235,-0.20067 0.3417,-0.15453 0.57268,-0.10097 -0.24645,-0.67626 -0.75236,-1.22796 -1.00545,-1.90005 -0.23543,0.62044 -0.0751,1.54259 0.43277,2.00102"
       style="fill:#ffffff;fill-opacity:1;fill-rule:evenodd;stroke:none;stroke-width:0.0706575"
       id="path18160" />
    <path
       d="m 185.92512,94.309738 c 0.35717,2.24557 -0.18159,4.91013 -0.72862,7.580212 -0.61218,-0.35548 -0.31577,-1.11915 -0.23437,-1.69854 0.26496,-1.872422 0.55946,-4.010592 0.77751,-5.793352 0.042,-0.072 0.11404,-0.0784 0.18548,-0.0883 z m -1.72779,6.299822 c -0.15318,-1.984702 -0.0158,-4.337662 0.19516,-6.312472 0.0333,-0.0467 0.0856,-0.058 0.16117,-0.0191 0.18109,0.29117 0.20038,0.65994 -0.0278,1.14401 0.0532,1.61304 0.23317,3.47056 -0.32849,5.187532 z m -4.1064,-2.478522 c -0.28567,0.53134 -0.76126,0.85425 -1.13992,0.81948 0.64694,-1.37012 1.15151,-2.94224 1.51914,-4.21959 0.8363,0.2396 0.19706,2.33445 -0.37922,3.40011 z m -2.50092,0.33124 c 0.19763,-0.76593 0.63267,-1.75789 0.95529,-2.65517 0.17798,-0.4941 0.24483,-1.28038 0.76119,-1.26413 0.0232,0.01 0.0456,0.0162 0.069,0.0249 0.10655,0.58922 -0.8664,4.34735 -1.78551,3.89443 z m -0.79518,-1.21029 c 0.0152,-0.82804 0.42649,-2.64415 0.99005,-3.17959 0.5211,0.41815 -0.36346,2.72526 -0.99005,3.17959 z m -1.79703,-1.41456 c -0.74078,-0.33421 -0.15785,-1.57849 0.19014,-2.23702 1.10572,0.048 0.0657,1.6406 -0.19014,2.23702 z m -2.0088,1.73746 c -0.33562,-0.14491 -0.86965,-0.1943 -0.71901,-0.56745 0.26087,-0.3489 1.04913,0.0185 0.71901,0.56745 z m -2.1128,-3.5287 c -0.0657,-0.20427 -0.0105,-0.46754 0.15291,-0.63648 0.17085,0.0516 0.33096,0.10789 0.38338,0.21529 -0.12781,0.24892 -0.3152,0.36897 -0.53629,0.42119 z m -0.57988,-1.59255 c -0.46422,0.15898 -0.66079,-0.47616 -0.28101,-0.71513 0.37399,0.10677 0.45016,0.35188 0.28101,0.71513 z m -1.09738,2.83485 c -0.34036,-0.19791 -0.4869,-0.48775 -0.27521,-0.94561 0.67817,-0.23875 0.76536,0.59366 0.27521,0.94561 z m -0.0784,2.35296 c -0.0591,-0.002 -0.13496,-0.0447 -0.15983,0.0204 -1.31098,-0.76041 1.04856,-1.289 0.15983,-0.0204 z m -0.57544,-5.66256 c 0.42776,0.0634 0.32178,0.6097 0.0957,0.80316 -0.39525,-0.0966 -0.22024,-0.46202 -0.0957,-0.80316 z m -1.71648,3.91655 c -0.43857,-0.37816 -0.39886,-0.98009 -0.44436,-1.54316 1.05378,-0.64723 1.15397,1.28808 0.44436,1.54316 z m 0.01,-4.30022 c -0.10351,0.34114 -0.28263,0.52004 -0.56109,0.48966 -0.53184,-0.40572 0.38445,-1.30356 0.56109,-0.48966 z m -1.55086,3.6684 c -0.51502,-0.27182 -0.19459,-0.93346 -0.1965,-1.37641 -0.002,-0.48245 -0.17777,-1.02955 0.0811,-1.50783 0.14767,-0.0516 0.29372,-0.0983 0.52611,0.0339 -0.1565,0.90039 0.38113,2.02229 -0.41073,2.85033 z m -1.44657,-3.67144 c -0.29945,-0.19431 -0.0607,-0.89367 0.18908,-1.16281 0.86753,-0.2042 0.4703,1.44629 -0.18908,1.16281 z m 0.21558,3.46031 c -1.00214,-0.19925 -0.85701,-1.69521 -0.55777,-2.50777 0.94447,0.26355 0.39165,1.69302 0.55777,2.50777 z m -1.048,-4.99075 c -0.35244,-0.20257 -0.0591,-1.03365 0.3853,-0.85976 0.46344,0.20067 0.10768,1.08247 -0.3853,0.85976 z m -1.77004,3.20856 c 0.71018,-0.81391 1.14352,-2.21575 1.94393,-2.83817 0.0166,0.61691 -1.24837,3.32726 -1.94393,2.83817 z m -0.98086,-0.0466 c -0.10797,-0.9933 0.76811,-2.78652 1.29748,-3.60763 0.0665,0.0254 0.13439,0.0502 0.20342,0.0734 -0.037,0.0927 -0.0221,0.16117 -0.006,0.22766 -0.21226,0.74112 -0.47312,1.55227 -0.7648,2.34081 -0.1452,0.39137 -0.23847,1.17136 -0.73031,0.96574 z m -2.12828,-5.84054 c -0.57437,-0.20124 -0.366,-1.21446 0.12528,-1.41591 0.78112,0.17029 0.33506,1.2931 -0.12528,1.41591 z m 27.17798,6.93658 c -2.19314,-0.38642 -4.74924,-0.43115 -7.06214,-1.31133 -0.69337,-0.26496 -1.2818,-0.78084 -1.98725,-1.09879 -0.98673,-0.44296 -2.05599,-0.91438 -3.15005,-1.28752 -2.66541,-0.90915 -5.90103,-0.55311 -8.16977,-1.86529 -0.56971,-0.32842 -1.30886,-0.52993 -1.92457,-0.84514 -0.9001,-0.45927 -1.61163,-0.93812 -2.55116,-1.45533 1.1195,0.24511 2.28365,0.82938 3.47628,1.02093 -0.69054,-0.3547 -1.45809,-0.97295 -2.21518,-1.10515 -0.098,-0.16174 -0.0815,-0.37724 -0.2868,-0.4874 -2.43882,-1.02397 -5.3487,-2.47025 -8.1507,-3.62565 -1.9163,-0.7891 -4.26043,-1.21933 -4.90382,-2.60931 -0.57519,0.26221 -0.93179,1.48106 -1.58345,1.19758 -0.40848,1.19015 -0.67483,2.31488 -0.65109,3.30267 -0.0248,0.44027 0.19872,-0.91939 0.27959,-1.20612 0.17802,-0.62822 0.45099,-1.29586 0.76757,-1.49158 0.45431,0.27549 0.058,0.82803 -0.0513,1.21029 -0.24122,0.86202 -0.45264,1.9163 -0.65716,2.6864 0.64861,-1.22796 1.03143,-3.01347 1.76533,-4.05567 0.33395,0.44027 -0.16091,1.37153 -0.32155,1.9594 -0.33976,1.26604 -1.35739,2.70124 -0.79076,3.4832 0.80236,-1.5799 1.28813,-3.82956 2.26935,-5.02579 -0.16173,1.46699 -1.29035,3.91237 -1.98368,5.51347 0.17996,0.19707 0.2186,0.46203 0.4659,0.62737 0.8382,-1.94033 1.52711,-4.20052 2.62619,-5.59049 0.34862,0.37038 -0.12803,0.83962 -0.28044,1.20612 -0.63698,1.54316 -1.51716,3.56488 -1.85528,4.94468 1.00824,-1.62787 1.58706,-3.82243 2.71808,-5.63133 0.0207,-0.0304 0.26277,-0.0848 0.25366,-0.0635 0.0113,-0.0276 -0.14132,-0.21996 -0.1551,-0.21006 0.31323,-0.24865 1.16861,-0.14323 1.76093,0.0191 1.77633,0.49044 4.50166,1.6069 5.77455,2.54092 0.45546,0.33286 1.58626,0.85425 1.52995,1.08749 -0.0952,0.39716 -1.31218,-0.0566 -1.61989,-0.19848 -0.56717,-0.26221 -1.33423,-0.94561 -2.12361,-1.14818 -0.57848,0.44019 -0.22745,0.84294 -0.37809,1.47801 -0.19382,0.24539 -0.30143,0.0511 -0.59374,-0.0593 -1.02948,1.65409 -2.01896,3.39601 -3.09126,4.95952 0.1659,0.0345 0.25811,0.10464 0.31605,0.19077 0.46973,-0.2473 0.70961,-0.87686 1.03916,-1.39414 0.3075,-0.4833 0.68311,-0.98921 0.92766,-1.51136 0.17912,-0.37929 0.18357,-0.99479 0.6456,-1.15236 0.50393,0.20978 0.0982,0.8515 -0.0522,1.21305 -0.48464,1.17023 -1.53899,2.51908 -1.7935,3.27512 0.35386,0.1322 0.80903,-0.67047 1.10212,-1.14239 0.29895,-0.47645 0.66489,-1.11788 0.90971,-1.67127 0.29592,-0.66545 0.40381,-1.55722 0.98228,-1.87602 0.33951,0.37816 -0.0416,1.18436 -0.19869,1.62017 -0.47665,1.32483 -1.46614,2.68993 -1.91467,3.61569 0.46288,0.43249 0.72925,-0.38586 0.97903,-0.7985 0.43581,-0.72205 0.88597,-1.5296 1.2707,-2.46524 0.23296,-0.56448 0.29012,-1.31494 0.79186,-1.55948 0.38918,0.28206 0.003,0.76896 -0.095,1.11787 -0.42063,1.49872 -1.27537,3.37467 -1.93227,4.30177 0.10627,0.0444 0.2716,0.0608 0.24815,0.16675 0.78274,-0.78939 1.47963,-2.5903 2.01395,-3.88701 0.16428,-0.40183 0.1924,-1.02588 0.64559,-1.15235 0.27274,0.36106 -0.0977,0.85425 -0.21303,1.22937 -0.4226,1.38856 -1.04114,3.02195 -1.7215,4.14561 0.35633,0.0784 0.50344,0.25366 0.7913,0.3646 0.86449,-1.40764 1.31854,-3.68635 2.20175,-5.05145 0.31711,0.3039 -0.0618,0.75406 -0.16286,1.09463 -0.38445,1.29006 -0.91742,2.99439 -1.49434,4.15247 0.22667,0.11736 0.40628,0.26058 0.72403,0.33703 0.67782,-0.84513 0.88428,-2.68859 1.56987,-3.5097 0.32022,0.76621 -0.75349,2.91766 -1.18542,3.72443 3.77495,1.96435 8.89648,3.4283 13.54334,4.87318 2.59144,0.805632 5.08868,1.833772 7.54735,2.098742 0.34389,0.0649 -0.10598,0.45984 0.10514,0.34834 0.3848,0.255 0.51509,-0.029 0.77921,-0.029 1.59283,0.70523 3.25767,0.62602 4.65513,0.52279 0.22575,-2.16141 0.71456,-4.745922 1.33034,-6.901822 0.40988,0.25451 0.15481,0.92632 0.10295,1.4217 -0.0533,0.51502 -0.1168,1.09441 -0.19848,1.61876 -0.17636,1.13688 -0.52993,2.309092 -0.48937,3.283382 0.72982,-2.528762 1.22965,-4.948782 1.45293,-7.240202 -0.62878,-0.0565 -1.35352,-0.31435 -2.00357,-0.41341 -0.19756,-0.10105 -0.20448,0.20561 -0.36982,0.17388"
       style="fill:#ffffff;fill-opacity:1;fill-rule:evenodd;stroke:none;stroke-width:0.0706575"
       id="path18162" />
    <path
       d="m 155.06355,85.435868 c -0.5926,1.18711 -1.30412,2.53815 -1.91573,3.6149 0.84457,-1.16945 1.87489,-2.97948 2.80333,-4.37221 -0.51749,-0.32736 -0.74105,0.46337 -0.8876,0.75731"
       style="fill:#ffffff;fill-opacity:1;fill-rule:evenodd;stroke:none;stroke-width:0.0706575"
       id="path18164" />
    <path
       d="m 161.40033,97.094348 c 0.5264,0.50676 1.01655,1.02814 1.7044,1.45901 -0.26115,-0.40543 -0.93098,-1.10706 -1.7044,-1.45901"
       style="fill:#ffffff;fill-opacity:1;fill-rule:evenodd;stroke:none;stroke-width:0.0706575"
       id="path18166" />
    <path
       d="m 160.28062,96.999738 c -0.16202,0.0988 0.22186,0.42034 0.14683,0.66489 0.22497,0.0828 0.45291,0.16392 0.67951,0.24589 -0.21968,-0.33012 -0.64306,-0.5647 -0.82634,-0.91078"
       style="fill:#ffffff;fill-opacity:1;fill-rule:evenodd;stroke:none;stroke-width:0.0706575"
       id="path18168" />
  </g>
</svg>
