<?xml version="1.0" encoding="UTF-8" standalone="no"?>
<!-- Created with Inkscape (http://www.inkscape.org/) -->

<svg
   width="78.755798mm"
   height="82.867363mm"
   viewBox="0 0 78.755798 82.867363"
   version="1.1"
   id="svg1516"
   xmlns:inkscape="http://www.inkscape.org/namespaces/inkscape"
   xmlns:sodipodi="http://sodipodi.sourceforge.net/DTD/sodipodi-0.dtd"
   xmlns="http://www.w3.org/2000/svg"
   xmlns:svg="http://www.w3.org/2000/svg">
  <sodipodi:namedview
     id="namedview1518"
     pagecolor="#505050"
     bordercolor="#eeeeee"
     borderopacity="1"
     inkscape:showpageshadow="0"
     inkscape:pageopacity="0"
     inkscape:pagecheckerboard="0"
     inkscape:deskcolor="#505050"
     inkscape:document-units="mm"
     showgrid="false" />
  <defs
     id="defs1513" />
  <g
     inkscape:label="Calque 1"
     inkscape:groupmode="layer"
     id="layer1"
     transform="translate(-59.963472,-60.98012)">
    <path
       d="m 100.53308,72.163066 c 0,0 0.17935,0.04625 0.51493,0.133103 0.3305,0.08122 0.82399,0.195706 1.45172,0.314709 0.62998,0.108287 1.39476,0.233494 2.27798,0.309634 0.88321,0.06542 1.87923,0.106031 2.96605,0.05922 1.08287,-0.0485 2.26838,-0.191194 3.45785,-0.578659 0.59389,-0.198526 1.23684,-0.41792 1.8781,-0.685254 0.63732,-0.267334 1.28873,-0.578659 1.98188,-0.785645 1.38743,-0.447248 2.9136,-0.360393 4.41608,-0.461348 1.50925,-0.04794 3.06814,-0.0068 4.57626,0.358701 0.75406,0.171454 1.49064,0.402692 2.22609,0.61983 0.7253,0.242518 1.50023,0.366597 2.24301,0.622651 0.74109,0.25831 1.38799,0.715146 1.97624,1.203566 0.59896,0.479959 1.12968,1.021959 1.61697,1.578622 0.45796,0.582043 0.88942,1.166906 1.23459,1.782788 0.0868,0.156227 0.17991,0.294406 0.26846,0.458528 l 0.23969,0.436533 c 0.15962,0.289329 0.304,0.609678 0.46192,0.9007 0.29327,0.593887 0.60516,1.16747 0.8646,1.751769 0.25436,0.585426 0.44274,1.182697 0.54087,1.775456 0.17879,1.188902 0.15736,2.316328 -0.04,3.28358 -0.19063,0.969507 -0.52903,1.77038 -0.8804,2.377239 -0.35306,0.608551 -0.71684,1.026471 -0.97176,1.299445 -0.26226,0.267333 -0.43089,0.39254 -0.43089,0.39254 l -0.007,0.0051 c -0.14099,0.104339 -0.34065,0.07445 -0.44499,-0.06712 -0.088,-0.119003 -0.0812,-0.278614 0.007,-0.388593 0,0 0.10547,-0.131975 0.27918,-0.4151 0.17653,-0.277486 0.41341,-0.705558 0.62491,-1.280269 0.21826,-0.569635 0.41454,-1.286473 0.4918,-2.124006 0.088,-0.835276 0.044,-1.791812 -0.15228,-2.816591 -0.21657,-1.011807 -0.3446,-2.188865 -0.8426,-3.341671 -0.12296,-0.287638 -0.26452,-0.553843 -0.42075,-0.844301 l -0.24195,-0.43484 c -0.0682,-0.131411 -0.16807,-0.269026 -0.25549,-0.401001 -0.34573,-0.547075 -0.78113,-1.04339 -1.2374,-1.523914 -0.47658,-0.461348 -0.9729,-0.916492 -1.54084,-1.290985 -0.57809,-0.356445 -1.16239,-0.717402 -1.75177,-1.081179 -0.57978,-0.388592 -1.18439,-0.829636 -1.89107,-1.005603 -0.69146,-0.21319 -1.41507,-0.327681 -2.14093,-0.379005 -1.44777,-0.107723 -2.8995,-0.172018 -4.33092,-0.06542 -1.441,0.04286 -2.79572,0.537487 -4.15495,0.662694 -0.6813,0.07445 -1.36994,0.09813 -2.03095,0.197398 -0.33275,0.04794 -0.64915,0.124079 -0.96104,0.206423 -0.31866,0.09983 -0.61645,0.19627 -0.94018,0.287637 -1.2594,0.400437 -2.48722,0.677922 -3.64116,0.798617 -1.1528,0.126335 -2.22214,0.08911 -3.15216,-0.03892 -0.93172,-0.116747 -1.73147,-0.290458 -2.37555,-0.480524 -0.64916,-0.176531 -1.13871,-0.372801 -1.47428,-0.508724 -0.16977,-0.06824 -0.29441,-0.124643 -0.37563,-0.164122 -0.0818,-0.03835 -0.12464,-0.05866 -0.12464,-0.05866 -0.15904,-0.07445 -0.22729,-0.263386 -0.15284,-0.422432 0.0654,-0.140999 0.22334,-0.21037 0.36829,-0.172583"
       style="fill:#271717;fill-opacity:1;fill-rule:nonzero;stroke:none;stroke-width:0.0563995"
       id="path473" />
    <path
       d="m 74.772038,101.68877 -2.393595,16.26731 -0.292714,2.03208 c -0.09193,0.67792 -0.194578,1.35528 -0.271281,2.03489 l -0.247594,2.03772 -0.179915,2.04222 c -0.06599,0.68075 -0.08967,1.36149 -0.135922,2.04279 -0.04625,0.68131 -0.04286,1.36205 -0.0282,2.04167 -0.0051,0.68187 0.07445,1.35358 0.133667,2.02192 0.0344,0.67961 0.203038,1.30283 0.300609,1.94296 l -0.161303,-0.35306 0.25267,0.23913 0.307942,0.24873 c 0.206422,0.16412 0.40382,0.33783 0.604602,0.50646 l -0.526771,-0.18837 h 0.0079 c 0.151151,-0.005 0.293277,0.0378 0.411716,0.11336 l 0.108851,0.0694 c 0.606295,0.38521 1.15619,0.83472 1.771509,1.21034 0.618139,0.37505 1.238533,0.74729 1.853288,1.13588 l 0.115619,0.0716 c 0.03271,0.0169 -0.0282,-0.0124 -0.01579,-0.006 l 0.01523,0.008 0.03158,0.0152 0.0626,0.0316 0.251542,0.12521 0.501955,0.24816 1.009552,0.48729 c 0.668898,0.35814 1.360356,0.57133 2.043918,0.824 0.680178,0.24252 1.379532,0.50816 2.04561,0.73488 l 2.151641,0.62999 c 0.717402,0.22898 1.43142,0.34798 2.147694,0.52846 0.719658,0.17145 1.413936,0.36547 2.154461,0.5076 1.41168,0.30737 2.927135,0.5403 4.389574,0.78733 1.434804,0.15397 2.967742,0.35983 4.440897,0.2882 l 2.208605,-0.0406 c 0.747855,-0.0248 1.494585,-0.0158 2.241875,-0.013 l 1.12123,0.0293 1.10543,-0.008 2.19281,-0.0175 4.47699,-0.27072 0.52113,-0.0316 0.5561,-0.0716 1.11164,-0.14438 c 0.72924,-0.10265 1.51038,-0.17145 2.19338,-0.32035 0.35249,-0.0733 0.71063,-0.15002 1.04508,-0.24534 0.52508,-0.26169 0.0727,0.29159 0.13141,-0.24928 l -0.11844,-1.07103 -0.13536,-1.11897 c -0.19796,-1.49176 -0.3587,-2.99255 -0.45119,-4.49955 -0.0739,-1.50756 -0.053,-3.01963 0.0271,-4.52944 0.0649,-1.51038 0.19345,-3.01907 0.38521,-4.52099 0.0874,-0.75124 0.24703,-1.49571 0.36716,-2.24244 0.13028,-0.74504 0.32204,-1.48162 0.48108,-2.22101 0.18048,-0.73602 0.42695,-1.45737 0.63675,-2.18267 0.24647,-0.7174 0.5279,-1.42296 0.80144,-2.12626 0.0637,-0.16243 0.24647,-0.24308 0.40946,-0.17991 0.15115,0.0587 0.23124,0.22108 0.1912,0.37449 l -0.007,0.0242 -0.57133,2.14093 c -0.14607,0.72586 -0.30907,1.44383 -0.43991,2.16912 -0.10998,0.73038 -0.2538,1.45285 -0.33615,2.18661 -0.0722,0.73545 -0.18442,1.46301 -0.22503,2.20128 -0.1269,1.46977 -0.21657,2.94405 -0.23124,4.42228 -0.0164,0.73883 -0.0164,1.47767 0.002,2.21707 0.002,0.73883 0.0316,1.47823 0.0293,2.21819 0.0135,1.47992 0.0124,2.96492 0.0761,4.45105 l 0.0654,1.11445 0.0914,1.1607 0.022,0.32881 0.003,0.141 10e-4,0.0699 0.001,0.035 c -0.0395,0.20078 -0.0344,0.11731 -0.0598,0.19006 -0.0186,0.0361 -0.0412,0.0716 -0.0666,0.1049 -0.0423,0.0598 -0.13311,0.13593 -0.15397,0.14608 l -0.0547,0.0316 -0.11224,0.0581 c -0.0649,0.0288 -0.11054,0.044 -0.16694,0.066 -0.10998,0.0417 -0.20022,0.0649 -0.30117,0.0976 -0.38352,0.11055 -0.75688,0.19063 -1.13532,0.27072 -0.19458,0.0367 -0.34235,0.0711 -0.57528,0.10942 l -0.55441,0.0818 -1.10712,0.17541 -1.10712,0.1754 -0.55328,0.0885 -0.59558,0.0603 -4.46346,0.42864 -2.28869,0.1128 -1.13419,0.0547 h -1.12179 c -0.74673,-0.0164 -1.49402,-0.0276 -2.240751,-0.0722 -0.777749,-0.053 -1.513762,-0.17541 -2.269516,-0.25775 -0.753497,-0.0818 -1.494023,-0.19063 -2.236804,-0.26846 -0.752934,-0.0806 -1.467516,-0.11224 -2.253725,-0.21545 l -2.226653,-0.26338 -1.115018,-0.12126 c -0.19627,-0.0248 -0.347421,-0.031 -0.582043,-0.0699 l -0.553843,-0.0852 c -1.478231,-0.24703 -2.993686,-0.55441 -4.445409,-0.92326 l -2.161794,-0.59332 c -0.752369,-0.24083 -1.455107,-0.49745 -2.185481,-0.74673 -0.724733,-0.24816 -1.457363,-0.49519 -2.129645,-0.80482 l -1.032111,-0.43823 -0.517748,-0.21488 -0.260001,-0.1066 -0.06486,-0.0265 -0.03215,-0.013 -0.06373,-0.0293 -0.127463,-0.0671 -2.03715,-1.09302 c -0.342909,-0.17428 -0.649159,-0.42807 -0.967252,-0.65085 -0.316401,-0.22955 -0.63111,-0.46022 -0.939616,-0.69823 l 0.521132,0.18274 h -0.0079 l -0.08009,-0.002 c -0.173147,-0.005 -0.331065,-0.075 -0.447248,-0.18612 -0.217703,-0.20698 -0.439917,-0.40946 -0.652543,-0.62096 l -0.319221,-0.3164 -0.323733,-0.37844 -0.04625,-0.0541 c -0.07388,-0.0869 -0.112235,-0.19345 -0.115055,-0.29948 -0.01974,-0.7253 -0.101519,-1.45962 -0.04399,-2.15503 0.02312,-0.7033 0.05866,-1.40322 0.121822,-2.09242 l 0.142127,-2.07043 c 0.05189,-0.68751 0.08065,-1.3784 0.150587,-2.06309 l 0.380697,-4.11152 c 0.06091,-0.68582 0.14551,-1.36769 0.215446,-2.05182 l 0.230674,-2.05012 c 0.159046,-1.366 0.360393,-2.72579 0.552151,-4.08671 0.09193,-0.6813 0.21319,-1.35754 0.321477,-2.03602 l 0.341217,-2.03264 c 0.223342,-1.35584 0.482216,-2.70492 0.743346,-4.054 0.250414,-1.3502 0.553843,-2.69307 0.843736,-4.03538 0.03722,-0.17089 0.205295,-0.27918 0.376185,-0.24252 0.163559,0.035 0.270154,0.19458 0.246466,0.35757"
       style="fill:#271717;fill-opacity:1;fill-rule:nonzero;stroke:none;stroke-width:0.0563995"
       id="path475" />
    <path
       d="m 81.215118,102.94423 c 0,0 -0.375057,-0.0333 -1.078359,-0.0965 -0.713453,-0.0632 -1.732593,-0.16412 -3.041061,-0.32599 -0.655362,-0.093 -1.38066,-0.19683 -2.170817,-0.30906 -0.819485,-0.11393 -1.629946,-0.30343 -2.538542,-0.46925 -0.431457,-0.0711 -0.963868,-0.21262 -1.436496,-0.37393 -0.48278,-0.16299 -0.960483,-0.37336 -1.438751,-0.60573 -0.95428,-0.47093 -1.912508,-1.050157 -2.822232,-1.772071 -1.817756,-1.432547 -3.537377,-3.360847 -4.636039,-5.815917 -0.26959,-0.613627 -0.489548,-1.261657 -0.645775,-1.935067 -0.150587,-0.653107 -0.302865,-1.314109 -0.456836,-1.982443 -0.322041,-1.331593 -0.641826,-2.709433 -0.828509,-4.13916 -0.17935,-1.433112 -0.225034,-2.899499 -0.03835,-4.408186 0.188374,-1.509251 0.528463,-2.993122 1.009551,-4.453869 0.981351,-2.909087 2.708868,-5.616828 4.967669,-7.712069 2.258236,-2.09637 4.802982,-3.792867 7.441915,-5.308322 1.344,-0.713454 2.788956,-1.186082 4.232783,-1.535195 1.446648,-0.345729 2.891603,-0.592195 4.344455,-0.694842 0.183298,-0.01184 0.362084,-0.022 0.556099,-0.02651 l 0.566251,0.02538 c 0.356445,0.02707 0.739961,0.05922 1.089638,0.115055 0.711762,0.104339 1.411116,0.244774 2.084526,0.443864 1.346257,0.393669 2.620885,0.910288 3.781587,1.557755 1.165214,0.639006 2.265569,1.310724 3.274556,2.07381 0.961612,0.750677 1.911379,1.421267 2.744964,2.212553 1.698189,1.53745 3.145965,3.013989 4.445975,4.305538 1.28591,1.302829 2.38006,2.445483 3.35915,3.265532 0.96274,0.837533 1.80084,1.344 2.4139,1.529554 0.30343,0.09926 0.54482,0.144947 0.70782,0.160175 0.16468,0.01523 0.24928,0.02312 0.24928,0.02312 l 0.0395,0.0034 c 0.17371,0.01523 0.30174,0.169198 0.28538,0.342345 -0.0141,0.159611 -0.14551,0.280305 -0.30174,0.286509 0,0 -0.10264,0.0034 -0.3023,0.01128 -0.19852,0.0039 -0.49913,-0.0085 -0.87588,-0.08911 -0.75745,-0.156227 -1.77771,-0.638442 -2.86679,-1.443263 -1.08851,-0.806513 -2.29828,-1.880924 -3.645661,-3.118893 -1.336669,-1.249249 -2.847048,-2.657545 -4.522113,-4.108705 -0.408333,-0.3728 -0.834713,-0.755753 -1.276885,-1.143782 -0.429764,-0.399308 -0.868553,-0.805385 -1.314109,-1.218793 -0.853888,-0.795233 -1.822832,-1.566778 -2.921494,-2.170817 -1.095843,-0.604039 -2.288128,-1.114455 -3.557681,-1.429164 -1.263349,-0.313017 -2.616374,-0.494623 -3.908486,-0.374493 -1.353025,0.148331 -2.732557,0.433713 -4.086145,0.830201 -1.356972,0.397617 -2.691385,0.894496 -4.041025,1.4004 -1.35528,0.490676 -2.716764,1.076667 -3.907358,1.941835 -1.200181,0.829637 -2.302792,1.845956 -3.293731,2.919239 -1.983007,2.152769 -3.593777,4.637168 -4.441462,7.361828 -0.91762,2.7303 -0.758573,5.548584 -0.698226,8.303136 0.03046,1.378404 0.08855,2.747784 0.23575,4.08558 0.07952,0.659311 0.183299,1.336105 0.315274,1.963267 0.138178,0.617575 0.336141,1.214846 0.581479,1.784481 0.481651,1.146602 1.178185,2.161793 1.953679,3.045009 0.773801,0.887165 1.630509,1.649686 2.512034,2.293768 1.757973,1.297753 3.592085,2.183787 5.287454,2.544747 0.888856,0.18273 1.745001,0.40043 2.493422,0.51831 0.773237,0.14495 1.483871,0.27749 2.125134,0.39762 2.587609,0.43766 4.066404,0.68751 4.066404,0.68751 l 0.0085,0.002 c 0.172583,0.0288 0.288766,0.19232 0.259438,0.36434 -0.02764,0.16356 -0.177658,0.27692 -0.340653,0.26226"
       style="fill:#271717;fill-opacity:1;fill-rule:nonzero;stroke:none;stroke-width:0.0563995"
       id="path477" />
    <path
       d="m 131.89008,87.936881 c 0,0 0.15397,0.05414 0.43427,0.174275 0.27805,0.15115 0.6971,0.355317 1.21316,0.678486 0.22954,0.151714 0.50534,0.344601 0.78677,0.570763 0.27467,0.226726 0.56625,0.47996 0.85502,0.774929 0.58148,0.584299 1.16916,1.324261 1.64517,2.224397 0.48109,0.89788 0.8522,1.937887 1.13081,3.055161 0.15115,0.557791 0.24026,1.140398 0.38916,1.734285 0.0609,0.298354 0.14382,0.601219 0.21488,0.911416 0.0513,0.310198 0.11562,0.626599 0.1472,0.948076 0.018,0.373365 0.0186,0.619831 -0.009,0.960484 -0.0496,0.334447 -0.0925,0.692017 -0.19458,1.003347 -0.0902,0.32091 -0.18781,0.64013 -0.30005,0.95315 -0.0981,0.31753 -0.20247,0.6328 -0.31245,0.94695 -0.4495,1.24925 -0.99263,2.48778 -1.767,3.57742 -0.76928,1.09641 -1.62204,2.08114 -2.19563,3.29937 -0.33727,0.57133 -0.78903,1.04734 -1.26729,1.47823 -0.47263,0.43654 -0.94639,0.8584 -1.4303,1.25151 -0.9774,0.77606 -1.96496,1.46075 -2.9198,2.08452 -0.95202,0.61701 -1.80027,1.35754 -2.75399,1.72696 -0.94131,0.38126 -1.84821,0.63111 -2.66713,0.76365 -0.81554,0.14945 -1.54365,0.16919 -2.13585,0.16355 -0.59501,-0.031 -1.05523,-0.0818 -1.36712,-0.14212 -0.30907,-0.0609 -0.47432,-0.0931 -0.47432,-0.0931 -0.17146,-0.0338 -0.28426,-0.20022 -0.25042,-0.3728 0.0282,-0.14156 0.14664,-0.24252 0.28369,-0.25493 l 0.0276,-0.002 c 0,0 0.15792,-0.0141 0.45401,-0.04 0.29441,-0.005 0.72474,-0.0688 1.2611,-0.14607 1.07215,-0.17766 2.57745,-0.54031 4.26888,-1.30114 0.83584,-0.38352 1.86626,-0.60629 2.79064,-1.18608 0.92044,-0.57415 1.81381,-1.30339 2.65473,-2.13641 0.42525,-0.41059 0.84656,-0.83979 1.24135,-1.30227 0.39367,-0.46304 0.78678,-0.92946 1.26222,-1.33949 1.05411,-0.74278 1.70214,-1.87866 2.23568,-3.02075 0.53241,-1.14491 1.0761,-2.27347 1.42465,-3.44432 0.19684,-0.57753 0.29553,-1.17706 0.34178,-1.76305 0.0389,-0.29723 0.0401,-0.56174 0.0846,-0.835842 0.0327,-0.272974 0.0716,-0.637879 0.11506,-0.870245 0.0288,-0.285381 0.0902,-0.570199 0.1393,-0.856708 0.0372,-0.284818 0.0671,-0.570199 0.0852,-0.855017 0.0164,-0.566251 -0.0823,-1.112198 -0.20248,-1.633894 -0.25774,-1.04339 -0.71063,-1.961575 -1.20131,-2.743272 -0.49462,-0.782825 -1.01688,-1.450595 -1.52053,-2.010642 -0.25662,-0.27523 -0.4997,-0.531284 -0.73996,-0.754062 -0.23462,-0.221086 -0.44838,-0.419612 -0.67454,-0.604038 -0.41905,-0.315274 -0.76365,-0.571327 -0.99263,-0.75237 -0.25605,-0.16525 -0.39254,-0.253798 -0.39254,-0.253798 -0.14833,-0.09475 -0.19063,-0.292149 -0.0953,-0.439352 0.0818,-0.126899 0.238,-0.17653 0.37392,-0.128027 l 0.003,0.0011"
       style="fill:#271717;fill-opacity:1;fill-rule:nonzero;stroke:none;stroke-width:0.0563995"
       id="path479" />
    <path
       d="m 76.37604,83.89078 c -0.07163,0.382389 -0.219958,0.77775 -0.236878,1.132503 l -0.07783,0.534667 -0.02933,0.565123 c -0.05922,0.748985 -0.0344,1.511507 -0.0062,2.272336 5.64e-4,0.380697 0.04343,0.761958 0.05866,1.14491 0.01072,0.383517 0.05358,0.76647 0.09813,1.148858 0.03891,0.382953 0.08629,0.76647 0.16525,1.14491 0.07332,0.378441 0.145511,0.75801 0.263386,1.126863 0.110543,0.36998 0.22729,0.738833 0.415664,1.083998 0.186683,0.345165 0.383517,0.684126 0.55892,1.025907 0.383516,0.671718 0.59727,1.395888 0.83584,2.122878 0.109979,0.368289 0.267334,0.714582 0.442736,1.051851 0.170891,0.339525 0.327682,0.688074 0.528464,1.009551 0.199654,0.321477 0.372801,0.66213 0.579223,0.979095 0.211498,0.31302 0.40946,0.63619 0.601219,0.96782 0.210934,0.31471 0.432584,0.62377 0.658746,0.93284 0.199654,0.27749 0.517747,0.57077 0.799745,0.82626 0.07332,0.0654 0.154535,0.12238 0.231802,0.18386 l 0.251542,0.13423 0.503647,0.24703 c 0.311326,0.18161 0.646339,0.34065 0.944692,0.54933 0.293842,0.22109 0.610807,0.39649 0.935668,0.56512 0.155099,0.079 0.335013,0.18612 0.472628,0.24309 l 0.546511,0.21939 1.091331,0.44668 c 0.364905,0.141 0.723041,0.2335 1.09133,0.33276 0.368853,0.0908 0.726426,0.21996 1.112199,0.2459 0.38126,0.0412 0.767597,0.0434 1.147166,0.0626 0.382388,0.003 0.760829,-0.0164 1.13363,0.0282 0.09362,0.009 0.187246,0.0147 0.280305,0.0288 l 0.113927,0.0152 0.147203,0.008 0.588247,0.031 c 0.406076,0.0293 0.747857,0.0181 1.117838,0.0237 0.364905,-0.001 0.744474,-0.022 1.116711,-0.044 0.741089,-0.0592 1.504738,-0.15453 2.208604,-0.34968 l 0.02256,-0.0101 0.03328,-0.004 0.0908,-0.0113 c 0.169763,-0.0203 0.324861,0.10096 0.345165,0.27128 0.01523,0.1269 -0.04907,0.24591 -0.152843,0.30625 l -0.07163,0.0412 0.02256,-0.0107 c -0.722478,0.46812 -1.500227,0.7456 -2.302792,0.95146 -0.404385,0.0829 -0.802565,0.18217 -1.221614,0.22278 -0.413972,0.0383 -0.85558,0.1049 -1.234585,0.0942 l -0.589375,0.01 -0.147202,0.002 c -0.102648,-5.7e-4 -0.116183,-0.006 -0.178787,-0.008 -0.102647,-0.005 -0.203602,-0.0175 -0.305685,-0.0265 -0.407205,-0.0395 -0.813845,-0.10264 -1.208078,-0.21544 -0.781697,-0.26451 -1.558882,-0.44499 -2.348475,-0.6486 -0.386337,-0.11223 -0.800309,-0.17935 -1.177058,-0.29271 l -1.131938,-0.32994 -0.564559,-0.16863 c -0.23293,-0.0733 -0.397617,-0.15848 -0.601219,-0.23744 -0.385773,-0.16413 -0.794669,-0.29497 -1.145474,-0.5279 -0.359265,-0.21883 -0.720786,-0.43259 -0.998836,-0.77437 -0.274101,-0.32881 -0.569635,-0.65367 -0.81046,-0.95146 -0.26677,-0.30568 -0.54482,-0.52846 -0.853325,-0.84937 -0.281998,-0.28933 -0.571891,-0.57528 -0.864605,-0.86292 -0.265641,-0.30625 -0.525079,-0.62095 -0.770417,-0.94582 -0.24703,-0.32373 -0.449504,-0.67453 -0.669462,-1.016315 -0.226726,-0.337833 -0.411152,-0.697662 -0.607423,-1.051851 l -0.586555,-1.064823 c -0.194014,-0.355881 -0.425252,-0.699918 -0.564559,-1.080614 -0.147766,-0.377877 -0.276357,-0.76365 -0.357573,-1.162958 -0.129719,-0.812153 -0.16243,-1.633894 -0.355317,-2.406003 -0.09813,-0.386901 -0.164686,-0.78057 -0.253797,-1.169726 -0.09475,-0.388029 -0.182735,-0.777749 -0.249286,-1.172546 -0.159611,-0.783389 -0.285382,-1.580314 -0.323169,-2.387391 -0.01297,-0.403821 -0.03835,-0.805949 -0.0023,-1.213154 0.01861,-0.406076 0.04343,-0.810461 0.116183,-1.215973 l 0.104339,-0.604603 0.168634,-0.616446 c 0.103775,-0.425253 0.292714,-0.748422 0.4574,-1.113891 0.07219,-0.15961 0.260002,-0.230674 0.419613,-0.158482 0.135922,0.06148 0.20755,0.206986 0.181042,0.347421 l -0.0039,0.022"
       style="fill:#271717;fill-opacity:1;fill-rule:nonzero;stroke:none;stroke-width:0.0563995"
       id="path481" />
    <path
       d="m 90.239604,90.058067 c 0,0 0.06599,0.472064 0.208678,1.300008 0.06937,0.413409 0.17371,0.912545 0.294969,1.48218 0.140435,0.566815 0.27241,1.208077 0.464732,1.896715 0.191759,0.686946 0.404385,1.430292 0.688638,2.191685 0.132539,0.383517 0.267898,0.777185 0.435404,1.16747 0.159047,0.393669 0.31189,0.798617 0.512108,1.188902 0.359265,0.799183 0.785645,1.594413 1.271809,2.357503 0.487292,0.76477 1.036059,1.49007 1.620358,2.18097 0.313581,0.32034 0.600655,0.67735 0.935668,0.97345 0.335577,0.2741 0.699918,0.59784 1.007859,0.83866 l 0.597271,0.38577 0.298917,0.18894 0.07445,0.0474 c -0.156791,-0.0812 -0.03835,-0.0197 -0.06994,-0.0367 l 0.0096,0.005 0.01974,0.01 0.03948,0.0192 0.157354,0.0773 0.315273,0.15002 0.0784,0.0372 0.03892,0.0181 0.0203,0.01 c -0.01636,-0.007 0.04963,0.0209 -0.03384,-0.013 l 0.01015,0.003 0.161867,0.062 c 0.215446,0.0812 0.4292,0.16187 0.641261,0.24195 0.21262,0.0784 0.42412,0.15567 0.63336,0.23237 0.20699,0.0699 0.40101,0.10829 0.59897,0.16356 0.39423,0.0993 0.77267,0.22165 1.16352,0.26226 0.38634,0.0547 0.76252,0.13705 1.12348,0.12971 0.18048,0.006 0.35813,0.0119 0.53241,0.0175 l 0.0654,0.002 0.0327,5.7e-4 0.008,5.6e-4 c 0.013,-5.6e-4 -0.0874,0.006 -0.0406,0.003 l 0.0175,-0.002 0.13874,-0.0147 0.27354,-0.0288 c 0.34855,-0.0463 0.74052,-0.0502 0.97909,-0.14833 0.26621,-0.0908 0.52508,-0.10772 0.76027,-0.23688 0.48447,-0.19063 0.86122,-0.4354 1.14716,-0.65592 0.28482,-0.22504 0.47263,-0.43033 0.58881,-0.56851 0.0513,-0.0671 0.0902,-0.11844 0.11619,-0.15341 0.0147,-0.0214 0.0214,-0.0321 0.0214,-0.0321 l 0.0378,-0.0575 c 0.22672,-0.34686 0.69146,-0.44443 1.03831,-0.2177 0.34742,0.22672 0.44443,0.69202 0.2177,1.03888 -0.003,0.003 -0.007,0.01 -0.009,0.0135 0,0 -0.0265,0.0389 -0.0784,0.11449 -0.0502,0.0677 -0.1145,0.14269 -0.20474,0.25267 -0.18273,0.20304 -0.45627,0.47883 -0.84768,0.76647 -0.39141,0.28482 -0.90014,0.57584 -1.51827,0.80764 -0.61307,0.23293 -1.43876,0.41679 -2.11329,0.4433 l -0.27354,0.0243 -0.13874,0.0124 -0.0181,0.002 -0.0581,0.003 -0.01,-5.7e-4 -0.0372,-0.001 -0.0761,-0.003 c -0.20248,-0.007 -0.40947,-0.0152 -0.61927,-0.0231 -0.42525,0.005 -0.8443,-0.0818 -1.28083,-0.14438 -0.43823,-0.0474 -0.87814,-0.18161 -1.32934,-0.29779 -0.22221,-0.062 -0.46078,-0.11506 -0.67623,-0.18725 -0.20924,-0.0767 -0.420174,-0.15341 -0.633364,-0.2318 -0.213755,-0.0756 -0.428637,-0.15228 -0.645775,-0.22898 l -0.162994,-0.0575 -0.203603,-0.0869 -0.319221,-0.1393 -0.161302,-0.0688 -0.04004,-0.0169 -0.02087,-0.008 -0.0096,-0.005 -0.08967,-0.0457 -0.07727,-0.0434 -0.307942,-0.17259 c -0.206986,-0.11392 -0.414536,-0.22841 -0.623214,-0.34347 -0.472064,-0.30286 -0.848249,-0.59501 -1.280269,-0.90126 -0.404949,-0.31923 -0.755754,-0.69823 -1.137014,-1.04903 -0.198527,-0.16977 -0.344037,-0.38127 -0.507596,-0.57923 l -0.47714,-0.60234 c -0.316965,-0.40213 -0.552715,-0.84882 -0.819485,-1.27294 -0.490111,-0.86968 -0.912544,-1.75233 -1.244173,-2.629911 C 91.260435,99.442381 91.127896,99.002465 90.989717,98.574957 90.84477,98.14914 90.721819,97.7284 90.624812,97.3133 c -0.21883,-0.823997 -0.364341,-1.614154 -0.492367,-2.341708 -0.123515,-0.728118 -0.216011,-1.39758 -0.270154,-1.993723 -0.04681,-0.597834 -0.08516,-1.117274 -0.100391,-1.54591 -0.02143,-0.4292 -0.01974,-0.764778 -0.01692,-0.998271 0.0045,-0.23011 0.0068,-0.353061 0.0068,-0.353061 0.0028,-0.135359 0.114491,-0.242518 0.24985,-0.239134 0.121823,0.0023 0.221086,0.09362 0.236878,0.21037 l 0.0011,0.0062"
       style="fill:#271717;fill-opacity:1;fill-rule:nonzero;stroke:none;stroke-width:0.0563995"
       id="path483" />
    <path
       d="m 104.84877,91.899511 c 0,0 0.0846,0.494623 0.23236,1.360356 0.0761,0.43202 0.16808,0.956536 0.27354,1.558318 0.11111,0.600655 0.22898,1.276885 0.34517,2.019667 0.12238,0.740525 0.25041,1.54873 0.4918,2.376111 0.1348,0.408897 0.24252,0.839787 0.47319,1.237407 0.21601,0.40325 0.50421,0.78564 0.74335,1.18664 0.22842,0.40721 0.41171,0.83359 0.56399,1.28479 0.0767,0.22503 0.13705,0.46191 0.23068,0.68243 0.0953,0.21996 0.20247,0.43597 0.31019,0.65254 0.43823,0.87194 0.97797,1.66266 1.49628,2.53629 0.47658,0.82061 1.1342,1.67111 2.05069,2.01233 0.22673,0.11731 0.43258,0.25888 0.62885,0.41059 0.0981,0.0722 0.19063,0.16581 0.282,0.23349 0.0931,0.0632 0.18104,0.13254 0.27072,0.20135 0.18048,0.13592 0.36039,0.27072 0.53918,0.40439 l 0.13536,0.10039 0.0333,0.0243 0.008,0.007 c -0.0147,-0.008 0.0463,0.0259 -0.0316,-0.0158 l 0.0197,0.0113 0.0784,0.0434 0.31471,0.17371 c 0.41567,0.23068 0.82795,0.49688 1.20977,0.5984 0.19345,0.0722 0.3869,0.14156 0.58035,0.20473 0.163,0.0508 0.42187,0.0846 0.62378,0.12464 0.80539,0.1207 1.58145,-0.16412 2.21312,-0.23123 0.35983,-0.0739 0.77493,-0.0891 1.0417,-0.18217 0.29328,-0.0773 0.57866,-0.11901 0.85558,-0.22447 0.27636,-0.0869 0.54031,-0.15905 0.77436,-0.25944 0.23857,-0.088 0.46192,-0.16638 0.65593,-0.25662 0.39987,-0.15961 0.70387,-0.30681 0.93003,-0.40495 0.12972,-0.0547 0.22898,-0.097 0.2961,-0.12577 0.084,-0.0305 0.12746,-0.0463 0.12746,-0.0463 0.14551,-0.0525 0.30625,0.022 0.35926,0.16751 0.0327,0.0914 0.0158,0.18894 -0.0378,0.26226 l -0.12859,0.17314 c 0,0 -0.0119,0.0158 -0.0344,0.0463 -0.0147,0.0175 -0.0169,0.0243 -0.0485,0.0541 -0.0333,0.0322 -0.0722,0.0683 -0.11562,0.10998 -0.17484,0.15792 -0.44668,0.40946 -0.82569,0.67905 -0.18725,0.13931 -0.401,0.28821 -0.6469,0.4292 -0.24026,0.15172 -0.51211,0.29723 -0.81441,0.43428 -0.28877,0.14833 -0.64296,0.27297 -1.01463,0.39593 -0.0931,0.0299 -0.18781,0.0609 -0.28312,0.0919 -0.088,0.0197 -0.17597,0.0406 -0.26565,0.0609 -0.17822,0.0372 -0.35926,0.0868 -0.54763,0.11674 -0.87307,0.16526 -1.767,-0.1049 -2.68575,-0.26056 -0.22503,-0.0485 -0.40664,-0.0744 -0.67623,-0.13874 -0.23406,-0.0705 -0.47319,-0.13762 -0.71684,-0.20248 -0.51436,-0.11844 -0.92608,-0.31076 -1.36938,-0.49124 l -0.3305,-0.13987 -0.0829,-0.035 -0.0209,-0.008 -0.062,-0.0338 -0.0417,-0.0237 -0.16863,-0.0976 c -0.22673,-0.13029 -0.45571,-0.26057 -0.68582,-0.39255 -0.49801,-0.25041 -0.84205,-0.56455 -1.17931,-0.9554 l -0.25606,-0.3305 c -0.0727,-0.11393 -0.14777,-0.22391 -0.2256,-0.33107 -0.15397,-0.21545 -0.34911,-0.38746 -0.52113,-0.5843 -0.17596,-0.19119 -0.36434,-0.3728 -0.56061,-0.54989 l -0.5623,-0.57302 c -0.71628,-0.73996 -1.28648,-1.6604 -1.8014,-2.54531 -0.25154,-0.45176 -0.53749,-0.8804 -0.79636,-1.31862 -0.13311,-0.21827 -0.25211,-0.44161 -0.35588,-0.67003 -0.0886,-0.23349 -0.16469,-0.47037 -0.22335,-0.7112 -0.12915,-0.47826 -0.14212,-0.9836 -0.21995,-1.4489 -0.0835,-0.46473 -0.20981,-0.900137 -0.32712,-1.327081 -0.24478,-0.850504 -0.49519,-1.650249 -0.68808,-2.400927 -0.38182,-1.502483 -0.47714,-2.797416 -0.50252,-3.700372 -0.0169,-0.45176 -0.004,-0.808205 0.006,-1.051287 0.0102,-0.248722 0.0271,-0.375056 0.0271,-0.37562 l 0.001,-0.009 c 0.0231,-0.174839 0.1833,-0.29779 0.35757,-0.274666 0.14213,0.01805 0.25041,0.128027 0.27354,0.262258"
       style="fill:#271717;fill-opacity:1;fill-rule:nonzero;stroke:none;stroke-width:0.0563995"
       id="path485" />
    <path
       d="m 119.20752,111.70702 0.0429,0.14156 -0.003,0.0333 c 0.0383,0.25041 0.10039,0.54256 0.15905,0.80764 0.066,0.26902 0.12859,0.53467 0.21319,0.79016 0.0756,0.25718 0.16919,0.50477 0.27466,0.73996 0.10378,0.23631 0.22222,0.45965 0.35588,0.66833 0.13536,0.20812 0.28933,0.39705 0.45797,0.57584 0.16976,0.17766 0.36772,0.32599 0.57922,0.46699 0.21488,0.13536 0.44781,0.26169 0.70217,0.35926 0.25155,0.1128 0.52283,0.18612 0.80482,0.28426 l 0.008,0.003 c 0.0767,0.0271 0.11732,0.11054 0.0908,0.18724 -0.0169,0.0491 -0.0587,0.0835 -0.10603,0.0948 -0.60066,0.13987 -1.26617,0.12577 -1.89277,-0.1111 -0.31471,-0.11055 -0.61532,-0.27974 -0.88153,-0.49293 -0.27015,-0.20812 -0.50139,-0.46474 -0.69315,-0.74109 -0.38859,-0.55385 -0.59839,-1.19173 -0.69202,-1.81945 -0.0383,-0.3164 -0.057,-0.63168 -0.0338,-0.94526 0.006,-0.15679 0.0276,-0.31302 0.0541,-0.46811 0.0248,-0.15792 0.062,-0.30456 0.119,-0.47658 l -0.003,0.0327 0.066,-0.13931 0.008,-0.0186 c 0.0468,-0.0987 0.16469,-0.141 0.26395,-0.0942 0.053,0.0248 0.0891,0.0705 0.10547,0.12182"
       style="fill:#271717;fill-opacity:1;fill-rule:nonzero;stroke:none;stroke-width:0.0563995"
       id="path487" />
    <path
       d="m 80.061184,104.5392 c -5.64e-4,0 0.01297,0.51719 -0.0141,1.41225 -0.02933,0.89449 -0.126335,2.16123 -0.305685,3.67499 -0.08798,0.75632 -0.231802,1.56904 -0.386901,2.42856 -0.163558,0.85784 -0.314709,1.76587 -0.46022,2.70718 -0.271281,1.88374 -0.561175,3.89382 -0.851068,5.9039 -0.151715,1.00391 -0.343473,2.00388 -0.48842,2.99256 -0.153971,0.98755 -0.28651,1.9627 -0.381825,2.90965 -0.04625,0.47376 -0.08234,0.94018 -0.103211,1.39814 -0.0062,0.45853 -0.01241,0.90691 -0.01805,1.34344 -0.0034,0.87306 -0.03722,1.69424 -0.102647,2.45056 -0.07445,0.75744 -0.129719,1.44834 -0.156791,2.05858 -0.04286,0.61137 -0.08686,1.14435 -0.130282,1.58426 -0.09362,0.87927 -0.168071,1.38517 -0.168071,1.38517 l -0.0045,0.0367 c -0.03384,0.22729 -0.245338,0.38521 -0.473192,0.35194 -0.195142,-0.0288 -0.338961,-0.18838 -0.354753,-0.37675 0,0 -0.04399,-0.51098 -0.08573,-1.40999 -0.01692,-0.4495 -0.0282,-0.99601 -0.0344,-1.62374 0.0011,-0.31358 0.0028,-0.64747 0.0039,-0.9994 0.02425,-0.34799 0.04907,-0.71458 0.07558,-1.09697 0.05471,-0.76365 0.152278,-1.58934 0.288201,-2.45846 0.116183,-0.87137 0.285946,-1.78278 0.393105,-2.73142 0.107159,-0.94864 0.184426,-1.93281 0.242518,-2.9356 0.05302,-1.00391 0.132538,-2.0191 0.226162,-3.03429 0.195142,-2.02813 0.434276,-4.05174 0.678486,-5.94507 0.225598,-1.89559 0.337833,-3.68007 0.599527,-5.18538 0.249285,-1.50699 0.545383,-2.75173 0.776057,-3.61802 0.239698,-0.86404 0.412844,-1.35134 0.41228,-1.35134 0.0767,-0.22052 0.318657,-0.33726 0.539744,-0.26 0.169198,0.0592 0.278049,0.21883 0.284253,0.38859"
       style="fill:#271717;fill-opacity:1;fill-rule:nonzero;stroke:none;stroke-width:0.0563995"
       id="path489" />
    <path
       d="m 85.481177,107.12681 c 0,0 0.02764,0.5076 0.02538,1.38518 -0.0073,0.87757 -0.06599,2.12287 -0.206422,3.61069 -0.139871,1.48782 -0.481088,3.2018 -0.712326,5.05509 -0.239134,1.85216 -0.444992,3.83235 -0.70443,5.80802 -0.138179,0.98699 -0.275794,1.97399 -0.411717,2.94575 -0.136486,0.9712 -0.251541,1.92999 -0.329373,2.86002 -0.08065,0.93059 -0.05527,1.83693 -0.0643,2.69307 0.0045,0.85728 -0.02143,1.66492 -0.08009,2.40826 -0.0502,0.74279 -0.09644,1.42296 -0.137615,2.02644 -0.0502,0.60291 -0.100955,1.12855 -0.150023,1.5617 -0.104903,0.86517 -0.18499,1.36092 -0.18499,1.36092 l -0.0028,0.0175 c -0.03722,0.22786 -0.251542,0.38296 -0.47996,0.3463 -0.194578,-0.0316 -0.336141,-0.19345 -0.350241,-0.38183 0,0 -0.03722,-0.50139 -0.06768,-1.37896 -0.01128,-0.43879 -0.01636,-0.9712 -0.01523,-1.58258 0.01015,-0.6108 0.009,-1.30226 0.05922,-2.05068 0.04794,-0.74842 0.138179,-1.55719 0.266206,-2.40939 0.119567,-0.85276 0.256054,-1.75064 0.335013,-2.68292 0.09024,-0.93172 0.149459,-1.89728 0.190066,-2.88089 0.04456,-0.98304 0.06881,-1.98413 0.147203,-2.97959 0.06994,-0.99658 0.169762,-1.99033 0.252106,-2.96999 0.08404,-0.97966 0.183862,-1.94184 0.279177,-2.873 0.182735,-1.86287 0.238006,-3.61633 0.463604,-5.09795 0.107159,-0.74165 0.217702,-1.41901 0.338397,-2.01797 0.116747,-0.59953 0.235186,-1.11897 0.339525,-1.54648 0.215447,-0.85332 0.375057,-1.33441 0.375057,-1.33441 l 5.64e-4,-0.003 c 0.07388,-0.22221 0.314145,-0.34234 0.535795,-0.26846 0.170327,0.0564 0.280306,0.21093 0.289894,0.379"
       style="fill:#271717;fill-opacity:1;fill-rule:nonzero;stroke:none;stroke-width:0.0563995"
       id="path491" />
    <path
       d="m 92.255322,108.61802 c 0,0 -0.0011,0.12746 -0.0023,0.36547 -0.009,0.23631 -0.022,0.58317 -0.03948,1.02421 -0.04794,0.87871 -0.165814,2.12175 -0.368288,3.60675 -0.205859,1.48331 -0.617575,3.18657 -0.918748,5.03535 -0.315274,1.84595 -0.582607,3.82389 -0.908032,5.79448 -0.166943,0.9853 -0.333322,1.9706 -0.49688,2.94011 -0.161303,0.97064 -0.300046,1.9283 -0.401565,2.85889 -0.112235,0.93003 -0.08573,1.83919 -0.109979,2.69646 -0.0068,0.85897 -0.04343,1.66717 -0.112235,2.41052 -0.04343,0.37223 -0.06035,0.72811 -0.07445,1.06651 -0.022,0.33784 -0.04286,0.65875 -0.0626,0.96049 -0.04681,0.60234 -0.09419,1.12855 -0.13987,1.5617 -0.0987,0.86686 -0.176531,1.3643 -0.175967,1.3643 l -0.0051,0.0305 c -0.03497,0.22785 -0.248158,0.38408 -0.476576,0.34855 -0.194578,-0.0305 -0.336705,-0.19063 -0.352497,-0.37901 5.64e-4,0 -0.04061,-0.50252 -0.07558,-1.38517 -0.01466,-0.44161 -0.02312,-0.97797 -0.02538,-1.59385 0.01241,-0.61419 -0.01184,-1.31411 0.05922,-2.06422 0.05866,-0.75181 0.159046,-1.5634 0.298353,-2.41841 0.136487,-0.85446 0.271282,-1.75628 0.381261,-2.6897 0.113927,-0.93284 0.198526,-1.90066 0.26395,-2.88709 0.06768,-0.98586 0.119003,-1.9909 0.234622,-2.98691 0.102647,-0.99771 0.23575,-1.99204 0.350241,-2.97282 0.114491,-0.98079 0.256617,-1.94127 0.387464,-2.87243 0.124079,-0.93172 0.228982,-1.83524 0.318657,-2.69308 0.104904,-0.85614 0.213191,-1.66378 0.353625,-2.40318 0.139307,-0.7394 0.27805,-1.4145 0.428073,-2.00951 0.143818,-0.59615 0.286509,-1.1122 0.410588,-1.53633 0.254926,-0.84599 0.439352,-1.31975 0.438788,-1.31975 l 0.0028,-0.007 c 0.0846,-0.2177 0.329373,-0.32599 0.547075,-0.24139 0.168071,0.0649 0.270718,0.22617 0.270718,0.39593"
       style="fill:#271717;fill-opacity:1;fill-rule:nonzero;stroke:none;stroke-width:0.0563995"
       id="path493" />
    <path
       d="m 98.655539,108.51763 c 0,0 -0.0062,0.13141 -0.01861,0.37731 -0.01918,0.24421 -0.0485,0.60235 -0.08516,1.05805 -0.08629,0.90691 -0.260565,2.18774 -0.524515,3.7173 -0.26959,1.52786 -0.750114,3.27737 -1.121786,5.18142 -0.187247,0.95146 -0.384645,1.9345 -0.557791,2.93729 -0.187247,0.99996 -0.359829,2.01966 -0.563432,3.03429 -0.21037,1.01406 -0.401564,2.02982 -0.59163,3.03034 -0.190631,1.0011 -0.358701,1.98978 -0.48842,2.95026 -0.140999,0.95992 -0.129155,1.90292 -0.174275,2.78952 -0.02594,0.88829 -0.08178,1.72414 -0.166942,2.4923 -0.05358,0.38408 -0.07276,0.75237 -0.09024,1.10204 -0.02538,0.34968 -0.04963,0.68131 -0.07219,0.99263 -0.05245,0.62322 -0.104903,1.16691 -0.155098,1.61529 -0.107723,0.89675 -0.188939,1.41111 -0.188375,1.41111 l -0.0062,0.0372 c -0.0361,0.22729 -0.24985,0.38238 -0.47714,0.34629 -0.195706,-0.0305 -0.337833,-0.19345 -0.350805,-0.38352 0,0 -0.009,-0.13028 -0.02538,-0.37505 -0.009,-0.24478 -0.022,-0.60461 -0.03835,-1.06201 -0.01015,-0.45796 -0.01297,-1.01462 -0.009,-1.65363 0.02087,-0.63675 -0.0039,-1.36487 0.08516,-2.14093 0.07614,-0.77831 0.195143,-1.6181 0.354189,-2.50188 0.156791,-0.88378 0.306814,-1.81663 0.445556,-2.78049 0.142691,-0.96387 0.256618,-1.9644 0.351933,-2.98467 0.09757,-1.0197 0.178787,-2.05971 0.331065,-3.08787 0.138179,-1.03042 0.306814,-2.05576 0.456836,-3.0687 0.147767,-1.01293 0.32881,-2.00331 0.495752,-2.96323 0.161867,-0.96048 0.301738,-1.89276 0.425252,-2.7788 0.140435,-0.88265 0.283126,-1.71511 0.454581,-2.47594 0.17089,-0.76083 0.336705,-1.45567 0.513799,-2.06704 0.169763,-0.6125 0.335577,-1.14209 0.478832,-1.57693 0.292713,-0.86743 0.498572,-1.35133 0.498572,-1.35133 l 0.0034,-0.007 c 0.09137,-0.21488 0.338961,-0.31471 0.553843,-0.22334 0.167506,0.0711 0.264513,0.238 0.256618,0.40946"
       style="fill:#271717;fill-opacity:1;fill-rule:nonzero;stroke:none;stroke-width:0.0563995"
       id="path495" />
    <path
       d="m 104.68465,109.54353 c 0,0 -0.006,0.12352 -0.0164,0.35588 -0.0181,0.23801 -0.0316,0.59051 -0.0728,1.03324 -0.0744,0.8883 -0.23011,2.13698 -0.47375,3.62988 -0.24195,1.49233 -0.70274,3.20123 -1.04283,5.06129 -0.35926,1.85723 -0.66326,3.85039 -1.03493,5.83396 -0.18443,0.99263 -0.36885,1.9847 -0.55046,2.96154 -0.17991,0.97741 -0.35475,1.94127 -0.45909,2.88089 -0.10772,0.93961 -0.13085,1.85723 -0.17371,2.72409 -0.0282,0.86799 -0.10096,1.68409 -0.1754,2.43534 -0.12859,1.50417 -0.2899,2.75286 -0.42413,3.62705 -0.14043,0.87363 -0.24082,1.3722 -0.24082,1.3722 l -0.003,0.0147 c -0.04569,0.22673 -0.266209,0.37337 -0.493499,0.32768 -0.19345,-0.0389 -0.329373,-0.20642 -0.335013,-0.39649 0,0 -0.01748,-0.50872 -0.01128,-1.39814 0.01241,-0.88886 0.06035,-2.15841 0.18217,-3.67668 0.117311,-1.51884 0.580915,-3.25256 0.805382,-5.138 0.11675,-0.94243 0.23688,-1.91589 0.32092,-2.91078 0.0936,-0.99376 0.16412,-2.00782 0.28989,-3.01342 0.12521,-1.00617 0.27974,-2.00783 0.41623,-2.99651 0.13649,-0.98812 0.29497,-1.95706 0.44894,-2.89442 0.14777,-0.93905 0.26959,-1.84991 0.38408,-2.71451 0.12972,-0.86235 0.25605,-1.67676 0.41566,-2.42067 0.31471,-1.48782 0.67003,-2.71507 0.94357,-3.56106 0.1393,-0.423 0.26733,-0.75124 0.34516,-0.97684 0.0107,-0.0282 0.0209,-0.0547 0.0293,-0.0795 0.0152,-0.0491 0.0214,-0.0541 0.0322,-0.0801 0.0181,-0.0423 0.0327,-0.0778 0.0451,-0.10603 0.0248,-0.0575 0.0372,-0.0869 0.0372,-0.0869 0.0919,-0.21488 0.34065,-0.31414 0.55554,-0.22221 0.16637,0.0711 0.26282,0.23631 0.25605,0.40664 l -5.6e-4,0.008"
       style="fill:#271717;fill-opacity:1;fill-rule:nonzero;stroke:none;stroke-width:0.0563995"
       id="path497" />
    <path
       d="m 111.83272,110.44931 c 0,0 -0.002,0.031 -0.006,0.0919 -0.008,0.0637 -0.0192,0.15961 -0.0338,0.28369 -0.0355,0.2318 -0.0699,0.57246 -0.13761,0.99884 -0.13085,0.8567 -0.35758,2.06929 -0.68751,3.50748 -0.16356,0.71966 -0.38296,1.48782 -0.61025,2.30279 -0.24252,0.81103 -0.47037,1.67394 -0.69371,2.56844 -0.42864,1.79519 -0.84881,3.71672 -1.25827,5.64051 -0.20022,0.96274 -0.44443,1.91871 -0.63111,2.86848 -0.20361,0.94808 -0.3745,1.88656 -0.47714,2.80193 -0.0536,0.4574 -0.10491,0.90803 -0.12465,1.35133 -0.0124,0.4433 -0.0237,0.87701 -0.035,1.29888 -0.0282,0.84374 -0.0299,1.63615 -0.0739,2.3654 -0.0581,0.73037 -0.066,1.39532 -0.0835,1.98639 -0.0299,0.59219 -0.0547,1.10825 -0.0389,1.52899 -0.005,0.84543 -0.0276,1.33723 -0.0276,1.33723 l -0.002,0.04 c -0.0113,0.22955 -0.20586,0.40777 -0.43597,0.39706 -0.19571,-0.01 -0.35363,-0.15228 -0.38972,-0.33671 0,0 -0.0965,-0.49349 -0.22955,-1.3722 -0.0254,-0.21939 -0.0733,-0.46417 -0.0891,-0.72924 -0.0124,-0.26452 -0.0254,-0.55159 -0.04,-0.85728 -0.008,-0.30681 -0.018,-0.63336 -0.0276,-0.97796 -0.0101,-0.3446 0.0231,-0.70218 0.0333,-1.0778 0.0344,-0.75068 0.10095,-1.56339 0.26282,-2.40826 0.13141,-0.84881 0.3023,-1.73597 0.43258,-2.65811 0.11111,-0.92438 0.2256,-1.87979 0.34235,-2.85043 0.0959,-0.97458 0.23011,-1.95875 0.37393,-2.94236 0.14325,-0.98361 0.34798,-1.95481 0.51662,-2.91811 0.19739,-0.95654 0.39141,-1.89841 0.57922,-2.80926 0.38916,-1.81888 0.65649,-3.54189 1.07046,-4.97387 0.40044,-1.43424 0.82343,-2.6051 1.15281,-3.41556 0.16638,-0.40551 0.31302,-0.71966 0.40777,-0.93285 0.0457,-0.0987 0.0959,-0.20303 0.1128,-0.2239 0.0254,-0.0553 0.0378,-0.084 0.0378,-0.084 0.0953,-0.21375 0.34517,-0.30963 0.55892,-0.21431 0.16525,0.0727 0.26,0.24251 0.25098,0.41284"
       style="fill:#271717;fill-opacity:1;fill-rule:nonzero;stroke:none;stroke-width:0.0563995"
       id="path499" />
    <path
       d="m 116.49922,112.87223 c -0.0784,0.58487 -0.18669,1.19229 -0.304,1.77997 -0.1252,0.58881 -0.2459,1.17931 -0.39592,1.75967 -0.26564,1.17141 -0.62209,2.3152 -0.98587,3.46067 -0.17427,0.57415 -0.34403,1.15055 -0.498,1.73034 l -0.42977,1.74838 -0.39761,1.75459 c -0.13931,0.5843 -0.23519,1.17593 -0.37563,1.76023 -0.13987,0.58486 -0.25379,1.17311 -0.38351,1.76023 -0.12634,0.58712 -0.25888,1.1748 -0.35363,1.76756 -0.0942,0.59276 -0.1833,1.18721 -0.24646,1.78391 -0.0536,0.59728 -0.0592,1.19906 -0.0649,1.79915 -0.0265,0.59953 0.0378,1.19962 0.0197,1.79576 -0.013,0.59727 -0.0412,1.19172 -0.035,1.78561 l -0.022,0.89224 c -0.0135,0.29835 -0.0271,0.59671 -0.0158,0.8928 0.001,0.59389 -0.0113,1.1906 -0.0451,1.79351 l 0.002,0.0423 -0.003,0.0276 c -0.0293,0.23011 -0.23969,0.39311 -0.4698,0.36434 -0.19402,-0.0248 -0.34066,-0.17878 -0.36434,-0.36434 l -0.003,-0.0276 0.002,0.0423 c -0.11393,-0.60348 -0.20586,-1.21259 -0.28482,-1.82396 -0.0868,-0.6125 -0.0778,-1.225 -0.10659,-1.83919 l -0.013,-0.92101 c 0.0135,-0.30568 0.0293,-0.61137 0.0541,-0.91705 0.0525,-0.61024 0.11674,-1.22049 0.22221,-1.8234 0.0998,-0.60404 0.20022,-1.20582 0.25324,-1.81211 0.0784,-0.60348 0.14551,-1.20752 0.19965,-1.81381 0.0372,-0.60968 0.11957,-1.21146 0.17427,-1.81945 0.0547,-0.60742 0.12803,-1.21259 0.22165,-1.81437 0.17484,-1.20582 0.41567,-2.39924 0.65142,-3.59378 0.26169,-1.1889 0.5279,-2.37611 0.77606,-3.56952 0.11618,-0.5984 0.26677,-1.18834 0.40664,-1.78167 0.15735,-0.58824 0.33952,-1.17029 0.5403,-1.74556 0.20191,-0.57584 0.42018,-1.14604 0.66552,-1.70721 0.24477,-0.56569 0.51098,-1.10713 0.8302,-1.66379 0.11562,-0.20191 0.37336,-0.27128 0.57527,-0.15566 0.15285,0.0874 0.22955,0.25662 0.20812,0.4213 l -0.005,0.031"
       style="fill:#271717;fill-opacity:1;fill-rule:nonzero;stroke:none;stroke-width:0.0563995"
       id="path501" />
    <path
       d="m 118.11506,118.64754 c -0.7456,-0.36772 -1.58031,-0.62265 -2.3575,-0.92044 -0.13141,-0.0502 -0.19965,0.14777 -0.0919,0.2177 0.70556,0.45571 1.44383,1.12799 2.31633,1.19511 0.25944,0.0203 0.36547,-0.37844 0.1331,-0.49237"
       style="fill:#271717;fill-opacity:1;fill-rule:nonzero;stroke:none;stroke-width:0.0563995"
       id="path503" />
    <path
       d="m 117.2764,121.5555 c -0.34178,-0.41623 -0.93228,-0.57302 -1.41732,-0.77042 -0.53185,-0.21657 -1.06426,-0.43202 -1.63671,-0.498 -0.0846,-0.01 -0.11675,0.10546 -0.0654,0.15848 0.40946,0.42074 0.93567,0.65875 1.46639,0.89844 0.47827,0.21658 0.9774,0.53636 1.51264,0.5499 0.18724,0.005 0.24308,-0.21319 0.14043,-0.3384"
       style="fill:#271717;fill-opacity:1;fill-rule:nonzero;stroke:none;stroke-width:0.0563995"
       id="path505" />
    <path
       d="m 116.68533,123.56953 c -0.48503,-0.2476 -1.08399,-0.22673 -1.61471,-0.3463 -0.58938,-0.13253 -1.19398,-0.28481 -1.76756,-0.47601 -0.0993,-0.0333 -0.13367,0.11506 -0.0417,0.15285 0.9712,0.401 2.31802,1.53124 3.42401,1.05805 0.15454,-0.0665 0.13931,-0.31696 0,-0.38859"
       style="fill:#271717;fill-opacity:1;fill-rule:nonzero;stroke:none;stroke-width:0.0563995"
       id="path507" />
    <path
       d="m 117.04516,126.41827 c -0.5279,-0.32317 -1.3158,-0.24929 -1.91476,-0.29441 -0.82231,-0.0632 -1.59836,-0.27805 -2.40657,-0.40495 -0.0203,-0.003 -0.0327,0.0169 -0.0197,0.0327 0.45176,0.55892 1.20018,0.67454 1.8719,0.80201 0.70951,0.13535 1.71793,0.40833 2.42349,0.21488 0.16243,-0.0446 0.18555,-0.26452 0.0457,-0.35024"
       style="fill:#271717;fill-opacity:1;fill-rule:nonzero;stroke:none;stroke-width:0.0563995"
       id="path509" />
    <path
       d="m 116.44338,128.24674 c -0.56005,-0.1895 -1.15788,-0.163 -1.74387,-0.16751 -0.70838,-0.006 -1.43255,-0.0981 -2.12514,-0.24477 -0.17596,-0.0372 -0.30173,0.21262 -0.12746,0.30174 1.12235,0.5764 2.7664,0.95992 3.99647,0.54425 0.21432,-0.0728 0.21375,-0.36096 0,-0.43371"
       style="fill:#271717;fill-opacity:1;fill-rule:nonzero;stroke:none;stroke-width:0.0563995"
       id="path511" />
    <path
       d="m 115.64476,130.44294 c -0.53015,-0.23519 -1.09697,-0.17766 -1.66886,-0.1692 -0.61701,0.009 -1.22725,0.009 -1.84088,0.0936 -0.062,0.008 -0.0716,0.10772 -0.0181,0.1331 0.51662,0.23857 1.03606,0.31584 1.59893,0.35081 0.61137,0.0378 1.28309,0.14833 1.87867,-0.0214 0.1613,-0.0462 0.22616,-0.30907 0.0502,-0.3869"
       style="fill:#271717;fill-opacity:1;fill-rule:nonzero;stroke:none;stroke-width:0.0563995"
       id="path513" />
    <path
       d="m 115.92225,132.09939 c -0.55836,0.10998 -1.09077,0.23406 -1.66266,0.26395 -0.52282,0.0265 -1.04565,-0.0333 -1.56396,0.0592 -0.0773,0.0141 -0.0795,0.12126 -0.0209,0.15735 0.90916,0.55779 2.55998,0.62153 3.49677,0.11111 0.3384,-0.18386 0.0964,-0.65987 -0.24928,-0.59163"
       style="fill:#271717;fill-opacity:1;fill-rule:nonzero;stroke:none;stroke-width:0.0563995"
       id="path515" />
    <path
       d="m 116.92052,134.42531 c -0.53354,-0.18274 -1.12517,-0.0699 -1.67901,-0.0305 -0.67398,0.0474 -1.34062,0.0908 -2.01065,0.18217 -0.23349,0.0316 -0.14212,0.35193 0.0513,0.37618 0.6548,0.0818 1.30057,0.075 1.95932,0.0705 0.55328,-0.004 1.15224,0.0739 1.67901,-0.11392 0.23688,-0.084 0.24139,-0.40157 0,-0.48447"
       style="fill:#271717;fill-opacity:1;fill-rule:nonzero;stroke:none;stroke-width:0.0563995"
       id="path517" />
    <path
       d="m 116.47835,136.37222 c -0.57979,-0.0248 -1.16014,0.0632 -1.73936,0.10095 -0.59333,0.0389 -1.24812,0.0908 -1.80197,0.31527 -0.24985,0.10096 -0.21319,0.44218 0.0632,0.46699 1.09077,0.0987 2.53008,0.1974 3.5746,-0.1692 0.38577,-0.13535 0.32317,-0.69597 -0.0964,-0.71401"
       style="fill:#271717;fill-opacity:1;fill-rule:nonzero;stroke:none;stroke-width:0.0563995"
       id="path519" />
    <path
       d="m 116.56407,138.15218 c -0.81948,0.15962 -1.61189,0.51042 -2.41164,0.75463 -0.10941,0.0333 -1.42296,0.33389 -1.14322,0.69879 0.33953,0.44499 1.14153,0.27861 1.62826,0.19401 0.85501,-0.14945 1.69142,-0.34854 2.29941,-1.00729 0.27015,-0.29215 0.001,-0.71345 -0.37281,-0.64014"
       style="fill:#271717;fill-opacity:1;fill-rule:nonzero;stroke:none;stroke-width:0.0563995"
       id="path521" />
    <path
       d="m 118.38465,116.13212 c -0.30117,-0.22447 -0.6187,-0.43371 -0.91085,-0.66833 -0.19684,-0.15792 -0.43597,-0.51324 -0.71345,-0.50196 -0.0293,10e-4 -0.0468,0.018 -0.0575,0.044 -0.12916,0.31189 0.28538,0.69766 0.47319,0.9007 0.29159,0.31358 0.6187,0.52902 1.02534,0.66043 0.27636,0.0897 0.38465,-0.28425 0.1833,-0.43484"
       style="fill:#271717;fill-opacity:1;fill-rule:nonzero;stroke:none;stroke-width:0.0563995"
       id="path523" />
    <path
       d="m 132.34015,93.56668 c -0.0654,-0.07388 -0.19571,0.0034 -0.16582,0.09644 0.51211,1.581443 1.47203,3.003274 2.18605,4.500117 0.98248,2.059153 1.19567,4.054003 1.62205,6.254143 0.0451,0.23519 0.42525,0.23406 0.4715,0 0.74052,-3.72519 -1.70496,-8.153678 -4.11378,-10.850703"
       style="fill:#271717;fill-opacity:1;fill-rule:nonzero;stroke:none;stroke-width:0.0563995"
       id="path525" />
    <path
       d="m 132.25498,97.934822 c -0.11054,-0.146074 -0.34573,-0.022 -0.25154,0.146075 1.60739,2.872993 2.32028,5.835093 2.98523,9.017713 0.0587,0.27862 0.50364,0.21432 0.49349,-0.0671 -0.10546,-3.02076 -1.40378,-6.68391 -3.22718,-9.096678"
       style="fill:#271717;fill-opacity:1;fill-rule:nonzero;stroke:none;stroke-width:0.0563995"
       id="path527" />
    <path
       d="m 131.69099,101.17779 c -0.10265,-0.15679 -0.34178,-0.0192 -0.25154,0.14608 1.32087,2.42687 1.88656,4.94793 2.09073,7.68161 0.0276,0.37111 0.56907,0.37844 0.58204,0 0.0931,-2.75568 -0.92947,-5.54745 -2.42123,-7.82769"
       style="fill:#271717;fill-opacity:1;fill-rule:nonzero;stroke:none;stroke-width:0.0563995"
       id="path529" />
    <path
       d="m 129.35943,103.13937 c -0.0666,-0.0508 -0.17878,0.0338 -0.14607,0.11167 0.45232,1.07385 0.88885,2.1319 1.21879,3.25143 0.3384,1.1466 0.50026,2.42123 1.01745,3.49959 0.13648,0.28426 0.53974,0.12239 0.55384,-0.15059 0.11224,-2.15953 -0.85953,-5.36584 -2.64401,-6.7121"
       style="fill:#271717;fill-opacity:1;fill-rule:nonzero;stroke:none;stroke-width:0.0563995"
       id="path531" />
    <path
       d="m 130.21501,112.32967 c -1.84313,-1.91476 -2.287,-4.6084 -3.21364,-7.01441 -0.0417,-0.10941 -0.20868,-0.0688 -0.17822,0.0491 0.61644,2.3936 0.81328,5.8678 3.04783,7.41202 0.27297,0.18838 0.56173,-0.22108 0.34403,-0.44668"
       style="fill:#271717;fill-opacity:1;fill-rule:nonzero;stroke:none;stroke-width:0.0563995"
       id="path533" />
    <path
       d="m 127.44241,113.0262 c -0.61757,-1.69819 -1.26053,-3.19954 -1.49966,-5.00771 -0.0214,-0.16299 -0.2679,-0.23237 -0.31189,-0.0417 -0.39762,1.75233 0.51267,3.74605 1.34062,5.24797 0.13874,0.25211 0.57245,0.0795 0.47093,-0.19853"
       style="fill:#271717;fill-opacity:1;fill-rule:nonzero;stroke:none;stroke-width:0.0563995"
       id="path535" />
    <path
       d="m 125.1994,115.4198 c -0.17878,-0.68751 -0.60403,-1.28478 -0.8584,-1.94691 -0.24421,-0.63675 -0.33219,-1.31975 -0.55722,-1.96101 -0.0384,-0.10998 -0.19345,-0.11619 -0.22899,0 -0.39761,1.28421 0.13705,3.31911 1.19173,4.1713 0.20191,0.16356 0.5262,0.0175 0.45288,-0.26338"
       style="fill:#271717;fill-opacity:1;fill-rule:nonzero;stroke:none;stroke-width:0.0563995"
       id="path537" />
    <path
       d="m 80.025088,66.862076 c -0.807641,-0.134231 -1.562266,0.21319 -2.368215,0.258874 -0.314145,0.01805 -0.486164,0.465296 -0.170327,0.628291 0.802565,0.413408 1.89728,0.452888 2.640061,-0.113927 0.251542,-0.192323 0.30625,-0.704994 -0.101519,-0.773238"
       style="fill:#271717;fill-opacity:1;fill-rule:nonzero;stroke:none;stroke-width:0.0563995"
       id="path539" />
    <path
       d="m 84.681996,67.577222 c -0.25267,-0.311889 -0.706686,-0.289329 -1.071027,-0.274666 -0.462476,0.01805 -0.905212,0.07163 -1.362048,0.142691 -0.385773,0.06035 -0.385773,0.717402 0,0.777749 0.456836,0.07106 0.899572,0.124079 1.362048,0.142691 0.364341,0.01466 0.818357,0.03722 1.071027,-0.274665 0.134795,-0.166943 0.134795,-0.347421 0,-0.5138"
       style="fill:#271717;fill-opacity:1;fill-rule:nonzero;stroke:none;stroke-width:0.0563995"
       id="path541" />
    <path
       d="m 81.507831,69.19476 c -0.01974,-0.0062 -0.03158,-0.0085 -0.04004,-0.0096 -0.01184,-0.009 -0.01974,-0.01636 -0.03722,-0.02876 0.0485,0.03553 -0.133667,-0.143254 -0.09983,-0.108287 -0.364905,-0.383516 -0.964432,0.216574 -0.579787,0.579787 0.23293,0.219394 0.437096,0.327681 0.756881,0.229546 0.330502,-0.101519 0.324862,-0.558919 0,-0.662694"
       style="fill:#271717;fill-opacity:1;fill-rule:nonzero;stroke:none;stroke-width:0.0563995"
       id="path543" />
    <path
       d="m 70.38754,96.263141 c -0.349677,-0.554971 -0.859528,-1.011807 -1.258837,-1.533503 -0.393105,-0.514363 -0.733758,-1.067643 -1.048467,-1.632766 -0.147203,-0.264513 -0.522823,-0.03215 -0.399872,0.233494 0.528463,1.137578 1.231765,2.616374 2.308996,3.330391 0.244773,0.161867 0.551023,-0.155662 0.39818,-0.397616"
       style="fill:#271717;fill-opacity:1;fill-rule:nonzero;stroke:none;stroke-width:0.0563995"
       id="path545" />
    <path
       d="m 74.017413,96.60605 c -0.128027,-0.271846 -0.378441,-0.381261 -0.642391,-0.501392 -0.277485,-0.126899 -0.534103,-0.302301 -0.788465,-0.469244 -0.536359,-0.351933 -0.913672,-0.91198 -1.213153,-1.466951 -0.194015,-0.361521 -0.69879,-0.100955 -0.628291,0.265078 0.145511,0.755753 0.553843,1.386864 1.096406,1.924915 0.447813,0.4433 1.413936,1.11671 2.047303,0.73545 0.178222,-0.106595 0.211498,-0.310198 0.128591,-0.487856"
       style="fill:#271717;fill-opacity:1;fill-rule:nonzero;stroke:none;stroke-width:0.0563995"
       id="path547" />
  </g>
</svg>
