<?xml version="1.0" encoding="UTF-8" standalone="no"?>
<!-- Created with Inkscape (http://www.inkscape.org/) -->

<svg
   width="129.77231mm"
   height="104.66404mm"
   viewBox="0 0 129.77231 104.66404"
   version="1.1"
   id="svg387"
   xmlns:inkscape="http://www.inkscape.org/namespaces/inkscape"
   xmlns:sodipodi="http://sodipodi.sourceforge.net/DTD/sodipodi-0.dtd"
   xmlns="http://www.w3.org/2000/svg"
   xmlns:svg="http://www.w3.org/2000/svg">
  <sodipodi:namedview
     id="namedview389"
     pagecolor="#505050"
     bordercolor="#eeeeee"
     borderopacity="1"
     inkscape:showpageshadow="0"
     inkscape:pageopacity="0"
     inkscape:pagecheckerboard="0"
     inkscape:deskcolor="#505050"
     inkscape:document-units="mm"
     showgrid="false" />
  <defs
     id="defs384" />
  <g
     inkscape:label="Calque 1"
     inkscape:groupmode="layer"
     id="layer1"
     transform="translate(-27.286299,-76.709371)">
    <path
       d="m 44.853623,119.00559 c -16.006978,-0.21865 -1.688348,-17.51476 9.512633,-20.8249 7.893924,-2.333635 19.791072,0.135084 34.201206,8.23661 -5.889187,5.5443 -11.391847,7.9222 -14.718179,8.92936 -6.573441,1.52423 -18.278736,3.80631 -28.99566,3.65893 z M 99.145104,80.906681 c 6.085956,0.249284 12.953076,0.889245 20.423256,2.16906 28.82814,4.941245 34.32327,22.749549 22.8822,34.030989 -11.43987,11.2802 -25.38414,-0.93223 -36.8498,-10.0581 C 94.136325,97.92155 86.895819,89.847075 64.933946,87.916262 60.995457,87.569839 56.840551,88.20106 52.787346,89.519104 53.632256,89.134697 74.06521,79.93513 99.145104,80.906681 Z M 56.18467,159.94791 c -1.57805,21.42548 -1.57805,21.42548 -1.57805,21.42548 0,0 35.890415,-16.86624 58.40168,-15.9856 17.35265,0.68168 20.32377,3.2131 20.32377,3.2131 0,0 -5.48288,-8.47367 -34.184509,-8.2919 -25.874448,0.16467 -34.243828,4.99649 -34.243828,4.99649 0,0 -0.774408,-33.8639 -11.277743,-39.60474 2.544676,-0.28479 4.939386,-0.78114 7.156858,-1.41863 l -0.0062,0.004 c 17.526068,-4.61331 27.531719,-17.52462 27.794561,-17.86854 5.729763,3.2217 11.843971,7.30806 18.281201,12.37705 22.62671,17.8206 43.11017,10.246 48.29088,-1.22335 5.84279,-12.93587 -0.7959,-35.54292 -32.27826,-39.748461 -13.42103,-1.794436 -24.855988,-1.172963 -33.569156,0.127775 -0.0012,0 -0.0087,-0.0012 -0.0087,-0.0012 0,0 -18.650526,2.151896 -36.511414,11.572513 -19.625505,6.388105 -36.879028,28.899383 -15.960058,34.756883 6.099095,1.70847 11.711559,1.98363 16.725253,1.43092 -0.492649,0.5306 4.15982,13.65313 2.643674,34.23731"
       style="fill:#5d393a;fill-opacity:1;fill-rule:nonzero;stroke:none;stroke-width:0.122825"
       id="path91" />
    <path
       d="m 92.564171,146.90026 c -13.713107,2.45404 -17.608483,6.63374 -17.608483,6.63374 0,0 24.005181,-3.9058 36.233592,-2.74266 12.22838,1.16314 20.5252,3.50047 20.5252,3.50047 l -2.0352,-22.52108 c 0,0 -2.00205,10.70663 -2.60879,14.9858 0,0 -20.79297,-2.30661 -34.506319,0.14379"
       style="fill:#5d393a;fill-opacity:1;fill-rule:nonzero;stroke:none;stroke-width:0.122825"
       id="path93" />
  </g>
</svg>
